<?xml version="1.0"?>
<!-- Generated by SVGo -->
<svg width="273.802mm" height="121.402mm"
     viewBox="0.000 0.000 273.802 121.402"
     xmlns="http://www.w3.org/2000/svg" 
     xmlns:xlink="http://www.w3.org/1999/xlink">
<polygon points="264.802,5.001 265.115,5.013 265.427,5.050 265.735,5.111 266.038,5.196 266.332,5.305 266.617,5.436 266.891,5.590 267.153,5.764 267.399,5.959 267.630,6.172 267.843,6.403 268.038,6.649 268.212,6.911 268.366,7.185 268.497,7.470 268.606,7.764 268.691,8.067 268.752,8.375 268.789,8.687 268.802,9.001 268.802,112.402 268.789,112.715 268.752,113.027 268.691,113.335 268.606,113.638 268.497,113.932 268.366,114.217 268.212,114.491 268.038,114.753 267.843,114.999 267.630,115.230 267.399,115.443 267.153,115.638 266.891,115.812 266.617,115.966 266.332,116.097 266.038,116.206 265.735,116.291 265.427,116.352 265.115,116.389 264.802,116.402 9.001,116.402 8.687,116.389 8.375,116.352 8.067,116.291 7.764,116.206 7.470,116.097 7.185,115.966 6.911,115.812 6.649,115.638 6.403,115.443 6.172,115.230 5.959,114.999 5.764,114.753 5.590,114.491 5.436,114.217 5.305,113.932 5.196,113.638 5.111,113.335 5.050,113.027 5.013,112.715 5.000,112.401 5.001,9.001 5.013,8.687 5.050,8.375 5.111,8.067 5.196,7.764 5.305,7.470 5.436,7.185 5.590,6.911 5.764,6.649 5.959,6.403 6.172,6.172 6.403,5.959 6.649,5.764 6.911,5.590 7.185,5.436 7.470,5.305 7.764,5.196 8.067,5.111 8.375,5.050 8.687,5.013 9.001,5.000" style="fill:none;stroke-width:0.050000mm;stroke:black"/>
<polygon points="9.178,110.557 9.058,110.571 8.938,110.595 8.821,110.628 8.707,110.670 8.596,110.721 8.490,110.780 8.389,110.848 8.293,110.923 8.204,111.006 8.120,111.095 8.046,111.191 7.978,111.292 7.919,111.398 7.868,111.509 7.826,111.623 7.793,111.740 7.769,111.860 7.755,111.980 7.750,112.102 7.755,112.224 7.769,112.344 7.793,112.464 7.826,112.581 7.868,112.695 7.919,112.806 7.978,112.912 8.046,113.013 8.120,113.109 8.204,113.198 8.293,113.281 8.389,113.356 8.490,113.424 8.596,113.483 8.707,113.534 8.821,113.576 8.938,113.609 9.058,113.633 9.178,113.647 9.300,113.652 9.422,113.647 9.542,113.633 9.662,113.609 9.779,113.576 9.893,113.534 10.004,113.483 10.110,113.424 10.211,113.356 10.307,113.281 10.396,113.198 10.479,113.109 10.554,113.013 10.622,112.912 10.681,112.806 10.732,112.695 10.774,112.581 10.807,112.464 10.831,112.344 10.845,112.224 10.850,112.102 10.845,111.980 10.831,111.860 10.807,111.740 10.774,111.623 10.732,111.509 10.681,111.398 10.622,111.292 10.554,111.191 10.479,111.095 10.396,111.006 10.307,110.923 10.211,110.848 10.110,110.780 10.004,110.721 9.893,110.670 9.779,110.628 9.662,110.595 9.542,110.571 9.422,110.557 9.300,110.552" style="fill:none;stroke-width:0.050000mm;stroke:black"/>
<polygon points="264.380,110.557 264.260,110.571 264.140,110.595 264.023,110.628 263.909,110.670 263.798,110.721 263.692,110.780 263.591,110.848 263.495,110.923 263.406,111.006 263.323,111.095 263.248,111.191 263.180,111.292 263.121,111.398 263.070,111.509 263.028,111.623 262.995,111.740 262.971,111.860 262.957,111.980 262.952,112.102 262.957,112.224 262.971,112.344 262.995,112.464 263.028,112.581 263.070,112.695 263.121,112.806 263.180,112.912 263.248,113.013 263.323,113.109 263.406,113.198 263.495,113.281 263.591,113.356 263.692,113.424 263.798,113.483 263.909,113.534 264.023,113.576 264.140,113.609 264.260,113.633 264.380,113.647 264.502,113.652 264.624,113.647 264.744,113.633 264.864,113.609 264.981,113.576 265.095,113.534 265.206,113.483 265.312,113.424 265.413,113.356 265.509,113.281 265.598,113.198 265.681,113.109 265.756,113.013 265.824,112.912 265.883,112.806 265.934,112.695 265.976,112.581 266.009,112.464 266.033,112.344 266.047,112.224 266.052,112.102 266.047,111.980 266.033,111.860 266.009,111.740 265.976,111.623 265.934,111.509 265.883,111.398 265.824,111.292 265.756,111.191 265.681,111.095 265.598,111.006 265.509,110.923 265.413,110.848 265.312,110.780 265.206,110.721 265.095,110.670 264.981,110.628 264.864,110.595 264.744,110.571 264.624,110.557 264.502,110.552" style="fill:none;stroke-width:0.050000mm;stroke:black"/>
<polygon points="26.901,96.801 26.744,96.807 26.588,96.826 26.434,96.856 26.283,96.899 26.136,96.953 25.993,97.019 25.856,97.096 25.725,97.183 25.602,97.280 25.487,97.387 25.380,97.502 25.283,97.625 25.196,97.756 25.119,97.893 25.053,98.036 24.999,98.183 24.956,98.334 24.926,98.488 24.907,98.644 24.901,98.801 24.907,98.958 24.926,99.114 24.956,99.268 24.999,99.419 25.053,99.566 25.119,99.709 25.196,99.846 25.283,99.977 25.380,100.100 25.487,100.215 25.602,100.322 25.725,100.419 25.856,100.506 25.993,100.583 26.136,100.649 26.283,100.703 26.434,100.746 26.588,100.776 26.744,100.795 26.901,100.801 246.901,100.801 247.058,100.795 247.214,100.776 247.368,100.746 247.519,100.703 247.666,100.649 247.809,100.583 247.946,100.506 248.077,100.419 248.200,100.322 248.315,100.215 248.422,100.100 248.519,99.977 248.606,99.846 248.683,99.709 248.749,99.566 248.803,99.419 248.846,99.268 248.876,99.114 248.895,98.958 248.901,98.801 248.895,98.644 248.876,98.488 248.846,98.334 248.803,98.183 248.749,98.036 248.683,97.893 248.606,97.756 248.519,97.625 248.422,97.502 248.315,97.387 248.200,97.280 248.077,97.183 247.946,97.096 247.809,97.019 247.666,96.953 247.519,96.899 247.368,96.856 247.214,96.826 247.058,96.807 246.901,96.801" style="fill:none;stroke-width:0.050000mm;stroke:black"/>
<polygon points="26.901,77.751 26.744,77.757 26.588,77.776 26.434,77.806 26.283,77.849 26.136,77.903 25.993,77.969 25.856,78.046 25.725,78.133 25.602,78.230 25.487,78.337 25.380,78.452 25.283,78.575 25.196,78.706 25.119,78.843 25.053,78.986 24.999,79.133 24.956,79.284 24.926,79.438 24.907,79.594 24.901,79.751 24.907,79.908 24.926,80.064 24.956,80.218 24.999,80.369 25.053,80.516 25.119,80.659 25.196,80.796 25.283,80.927 25.380,81.050 25.487,81.165 25.602,81.272 25.725,81.369 25.856,81.456 25.993,81.533 26.136,81.599 26.283,81.653 26.434,81.696 26.588,81.726 26.744,81.745 26.901,81.751 246.901,81.751 247.058,81.745 247.214,81.726 247.368,81.696 247.519,81.653 247.666,81.599 247.809,81.533 247.946,81.456 248.077,81.369 248.200,81.272 248.315,81.165 248.422,81.050 248.519,80.927 248.606,80.796 248.683,80.659 248.749,80.516 248.803,80.369 248.846,80.218 248.876,80.064 248.895,79.908 248.901,79.751 248.895,79.594 248.876,79.438 248.846,79.284 248.803,79.133 248.749,78.986 248.683,78.843 248.606,78.706 248.519,78.575 248.422,78.452 248.315,78.337 248.200,78.230 248.077,78.133 247.946,78.046 247.809,77.969 247.666,77.903 247.519,77.849 247.368,77.806 247.214,77.776 247.058,77.757 246.901,77.751" style="fill:none;stroke-width:0.050000mm;stroke:black"/>
<polygon points="26.901,58.701 26.744,58.707 26.588,58.726 26.434,58.756 26.283,58.799 26.136,58.853 25.993,58.919 25.856,58.996 25.725,59.083 25.602,59.180 25.487,59.287 25.380,59.402 25.283,59.525 25.196,59.656 25.119,59.793 25.053,59.936 24.999,60.083 24.956,60.234 24.926,60.388 24.907,60.544 24.901,60.701 24.907,60.858 24.926,61.014 24.956,61.168 24.999,61.319 25.053,61.466 25.119,61.609 25.196,61.746 25.283,61.877 25.380,62.000 25.487,62.115 25.602,62.222 25.725,62.319 25.856,62.406 25.993,62.483 26.136,62.549 26.283,62.603 26.434,62.646 26.588,62.676 26.744,62.695 26.901,62.701 246.901,62.701 247.058,62.695 247.214,62.676 247.368,62.646 247.519,62.603 247.666,62.549 247.809,62.483 247.946,62.406 248.077,62.319 248.200,62.222 248.315,62.115 248.422,62.000 248.519,61.877 248.606,61.746 248.683,61.609 248.749,61.466 248.803,61.319 248.846,61.168 248.876,61.014 248.895,60.858 248.901,60.701 248.895,60.544 248.876,60.388 248.846,60.234 248.803,60.083 248.749,59.936 248.683,59.793 248.606,59.656 248.519,59.525 248.422,59.402 248.315,59.287 248.200,59.180 248.077,59.083 247.946,58.996 247.809,58.919 247.666,58.853 247.519,58.799 247.368,58.756 247.214,58.726 247.058,58.707 246.901,58.701" style="fill:none;stroke-width:0.050000mm;stroke:black"/>
<polygon points="77.419,50.179 77.341,50.188 77.264,50.204 77.188,50.225 77.114,50.252 77.043,50.285 76.975,50.323 76.909,50.367 76.848,50.416 76.790,50.469 76.737,50.527 76.688,50.588 76.644,50.654 76.606,50.722 76.573,50.793 76.546,50.867 76.525,50.943 76.509,51.020 76.500,51.098 76.497,51.176 76.500,51.254 76.509,51.332 76.525,51.409 76.546,51.485 76.573,51.559 76.606,51.630 76.644,51.698 76.688,51.764 76.737,51.825 76.790,51.883 76.848,51.936 76.909,51.985 76.975,52.029 77.043,52.067 77.114,52.100 77.188,52.127 77.264,52.148 77.341,52.164 77.419,52.173 77.497,52.176 77.575,52.173 77.653,52.164 77.730,52.148 77.806,52.127 77.880,52.100 77.951,52.067 78.019,52.029 78.085,51.985 78.146,51.936 78.204,51.883 78.257,51.825 78.306,51.764 78.350,51.698 78.388,51.630 78.421,51.559 78.448,51.485 78.469,51.409 78.485,51.332 78.494,51.254 78.497,51.176 78.494,51.098 78.485,51.020 78.469,50.943 78.448,50.867 78.421,50.793 78.388,50.722 78.350,50.654 78.306,50.588 78.257,50.527 78.204,50.469 78.146,50.416 78.085,50.367 78.019,50.323 77.951,50.285 77.880,50.252 77.806,50.225 77.730,50.204 77.653,50.188 77.575,50.179 77.497,50.176" style="fill:none;stroke-width:0.050000mm;stroke:black"/>
<polygon points="26.901,39.651 26.744,39.657 26.588,39.676 26.434,39.706 26.283,39.749 26.136,39.803 25.993,39.869 25.856,39.946 25.725,40.033 25.602,40.130 25.487,40.237 25.380,40.352 25.283,40.475 25.196,40.606 25.119,40.743 25.053,40.886 24.999,41.033 24.956,41.184 24.926,41.338 24.907,41.494 24.901,41.651 24.907,41.808 24.926,41.964 24.956,42.118 24.999,42.269 25.053,42.416 25.119,42.559 25.196,42.696 25.283,42.827 25.380,42.950 25.487,43.065 25.602,43.172 25.725,43.269 25.856,43.356 25.993,43.433 26.136,43.499 26.283,43.553 26.434,43.596 26.588,43.626 26.744,43.645 26.901,43.651 246.901,43.651 247.058,43.645 247.214,43.626 247.368,43.596 247.519,43.553 247.666,43.499 247.809,43.433 247.946,43.356 248.077,43.269 248.200,43.172 248.315,43.065 248.422,42.950 248.519,42.827 248.606,42.696 248.683,42.559 248.749,42.416 248.803,42.269 248.846,42.118 248.876,41.964 248.895,41.808 248.901,41.651 248.895,41.494 248.876,41.338 248.846,41.184 248.803,41.033 248.749,40.886 248.683,40.743 248.606,40.606 248.519,40.475 248.422,40.352 248.315,40.237 248.200,40.130 248.077,40.033 247.946,39.946 247.809,39.869 247.666,39.803 247.519,39.749 247.368,39.706 247.214,39.676 247.058,39.657 246.901,39.651" style="fill:none;stroke-width:0.050000mm;stroke:black"/>
<polygon points="26.901,20.601 26.744,20.607 26.588,20.626 26.434,20.656 26.283,20.699 26.136,20.753 25.993,20.819 25.856,20.896 25.725,20.983 25.602,21.080 25.487,21.187 25.380,21.302 25.283,21.425 25.196,21.556 25.119,21.693 25.053,21.836 24.999,21.983 24.956,22.134 24.926,22.288 24.907,22.444 24.901,22.601 24.907,22.758 24.926,22.914 24.956,23.068 24.999,23.219 25.053,23.366 25.119,23.509 25.196,23.646 25.283,23.777 25.380,23.900 25.487,24.015 25.602,24.122 25.725,24.219 25.856,24.306 25.993,24.383 26.136,24.449 26.283,24.503 26.434,24.546 26.588,24.576 26.744,24.595 26.901,24.601 246.901,24.601 247.058,24.595 247.214,24.576 247.368,24.546 247.519,24.503 247.666,24.449 247.809,24.383 247.946,24.306 248.077,24.219 248.200,24.122 248.315,24.015 248.422,23.900 248.519,23.777 248.606,23.646 248.683,23.509 248.749,23.366 248.803,23.219 248.846,23.068 248.876,22.914 248.895,22.758 248.901,22.601 248.895,22.444 248.876,22.288 248.846,22.134 248.803,21.983 248.749,21.836 248.683,21.693 248.606,21.556 248.519,21.425 248.422,21.302 248.315,21.187 248.200,21.080 248.077,20.983 247.946,20.896 247.809,20.819 247.666,20.753 247.519,20.699 247.368,20.656 247.214,20.626 247.058,20.607 246.901,20.601" style="fill:none;stroke-width:0.050000mm;stroke:black"/>
<polygon points="9.178,7.755 9.058,7.769 8.938,7.793 8.821,7.826 8.707,7.868 8.596,7.919 8.490,7.978 8.389,8.046 8.293,8.120 8.204,8.204 8.120,8.293 8.046,8.389 7.978,8.490 7.919,8.596 7.868,8.707 7.826,8.821 7.793,8.938 7.769,9.058 7.755,9.178 7.750,9.300 7.755,9.422 7.769,9.542 7.793,9.662 7.826,9.779 7.868,9.893 7.919,10.004 7.978,10.110 8.046,10.211 8.120,10.307 8.204,10.396 8.293,10.479 8.389,10.554 8.490,10.622 8.596,10.681 8.707,10.732 8.821,10.774 8.938,10.807 9.058,10.831 9.178,10.845 9.300,10.850 9.422,10.845 9.542,10.831 9.662,10.807 9.779,10.774 9.893,10.732 10.004,10.681 10.110,10.622 10.211,10.554 10.307,10.479 10.396,10.396 10.479,10.307 10.554,10.211 10.622,10.110 10.681,10.004 10.732,9.893 10.774,9.779 10.807,9.662 10.831,9.542 10.845,9.422 10.850,9.300 10.845,9.178 10.831,9.058 10.807,8.938 10.774,8.821 10.732,8.707 10.681,8.596 10.622,8.490 10.554,8.389 10.479,8.293 10.396,8.204 10.307,8.120 10.211,8.046 10.110,7.978 10.004,7.919 9.893,7.868 9.779,7.826 9.662,7.793 9.542,7.769 9.422,7.755 9.300,7.750" style="fill:none;stroke-width:0.050000mm;stroke:black"/>
<polygon points="264.380,7.755 264.260,7.769 264.140,7.793 264.023,7.826 263.909,7.868 263.798,7.919 263.692,7.978 263.591,8.046 263.495,8.120 263.406,8.204 263.323,8.293 263.248,8.389 263.180,8.490 263.121,8.596 263.070,8.707 263.028,8.821 262.995,8.938 262.971,9.058 262.957,9.178 262.952,9.300 262.957,9.422 262.971,9.542 262.995,9.662 263.028,9.779 263.070,9.893 263.121,10.004 263.180,10.110 263.248,10.211 263.323,10.307 263.406,10.396 263.495,10.479 263.591,10.554 263.692,10.622 263.798,10.681 263.909,10.732 264.023,10.774 264.140,10.807 264.260,10.831 264.380,10.845 264.502,10.850 264.624,10.845 264.744,10.831 264.864,10.807 264.981,10.774 265.095,10.732 265.206,10.681 265.312,10.622 265.413,10.554 265.509,10.479 265.598,10.396 265.681,10.307 265.756,10.211 265.824,10.110 265.883,10.004 265.934,9.893 265.976,9.779 266.009,9.662 266.033,9.542 266.047,9.422 266.052,9.300 266.047,9.178 266.033,9.058 266.009,8.938 265.976,8.821 265.934,8.707 265.883,8.596 265.824,8.490 265.756,8.389 265.681,8.293 265.598,8.204 265.509,8.120 265.413,8.046 265.312,7.978 265.206,7.919 265.095,7.868 264.981,7.826 264.864,7.793 264.744,7.769 264.624,7.755 264.502,7.750" style="fill:none;stroke-width:0.050000mm;stroke:black"/>
</svg>
