<?xml version="1.0"?>
<!-- Generated by SVGo -->
<svg width="273.802mm" height="121.402mm"
     viewBox="0.000 0.000 273.802 121.402"
     xmlns="http://www.w3.org/2000/svg" 
     xmlns:xlink="http://www.w3.org/1999/xlink">
<polygon points="264.802,5.001 265.115,5.013 265.427,5.050 265.735,5.111 266.038,5.196 266.332,5.305 266.617,5.436 266.891,5.590 267.153,5.764 267.399,5.959 267.630,6.172 267.843,6.403 268.038,6.649 268.212,6.911 268.366,7.185 268.497,7.470 268.606,7.764 268.691,8.067 268.752,8.375 268.789,8.687 268.802,9.001 268.802,112.402 268.789,112.715 268.752,113.027 268.691,113.335 268.606,113.638 268.497,113.932 268.366,114.217 268.212,114.491 268.038,114.753 267.843,114.999 267.630,115.230 267.399,115.443 267.153,115.638 266.891,115.812 266.617,115.966 266.332,116.097 266.038,116.206 265.735,116.291 265.427,116.352 265.115,116.389 264.802,116.402 9.001,116.402 8.687,116.389 8.375,116.352 8.067,116.291 7.764,116.206 7.470,116.097 7.185,115.966 6.911,115.812 6.649,115.638 6.403,115.443 6.172,115.230 5.959,114.999 5.764,114.753 5.590,114.491 5.436,114.217 5.305,113.932 5.196,113.638 5.111,113.335 5.050,113.027 5.013,112.715 5.000,112.401 5.001,9.001 5.013,8.687 5.050,8.375 5.111,8.067 5.196,7.764 5.305,7.470 5.436,7.185 5.590,6.911 5.764,6.649 5.959,6.403 6.172,6.172 6.403,5.959 6.649,5.764 6.911,5.590 7.185,5.436 7.470,5.305 7.764,5.196 8.067,5.111 8.375,5.050 8.687,5.013 9.001,5.000" style="fill:none;stroke-width:0.050000mm;stroke:black"/>
<polygon points="9.178,110.557 9.058,110.571 8.938,110.595 8.821,110.628 8.707,110.670 8.596,110.721 8.490,110.780 8.389,110.848 8.293,110.923 8.204,111.006 8.120,111.095 8.046,111.191 7.978,111.292 7.919,111.398 7.868,111.509 7.826,111.623 7.793,111.740 7.769,111.860 7.755,111.980 7.750,112.102 7.755,112.224 7.769,112.344 7.793,112.464 7.826,112.581 7.868,112.695 7.919,112.806 7.978,112.912 8.046,113.013 8.120,113.109 8.204,113.198 8.293,113.281 8.389,113.356 8.490,113.424 8.596,113.483 8.707,113.534 8.821,113.576 8.938,113.609 9.058,113.633 9.178,113.647 9.300,113.652 9.422,113.647 9.542,113.633 9.662,113.609 9.779,113.576 9.893,113.534 10.004,113.483 10.110,113.424 10.211,113.356 10.307,113.281 10.396,113.198 10.479,113.109 10.554,113.013 10.622,112.912 10.681,112.806 10.732,112.695 10.774,112.581 10.807,112.464 10.831,112.344 10.845,112.224 10.850,112.102 10.845,111.980 10.831,111.860 10.807,111.740 10.774,111.623 10.732,111.509 10.681,111.398 10.622,111.292 10.554,111.191 10.479,111.095 10.396,111.006 10.307,110.923 10.211,110.848 10.110,110.780 10.004,110.721 9.893,110.670 9.779,110.628 9.662,110.595 9.542,110.571 9.422,110.557 9.300,110.552" style="fill:none;stroke-width:0.050000mm;stroke:black"/>
<polygon points="264.380,110.557 264.260,110.571 264.140,110.595 264.023,110.628 263.909,110.670 263.798,110.721 263.692,110.780 263.591,110.848 263.495,110.923 263.406,111.006 263.323,111.095 263.248,111.191 263.180,111.292 263.121,111.398 263.070,111.509 263.028,111.623 262.995,111.740 262.971,111.860 262.957,111.980 262.952,112.102 262.957,112.224 262.971,112.344 262.995,112.464 263.028,112.581 263.070,112.695 263.121,112.806 263.180,112.912 263.248,113.013 263.323,113.109 263.406,113.198 263.495,113.281 263.591,113.356 263.692,113.424 263.798,113.483 263.909,113.534 264.023,113.576 264.140,113.609 264.260,113.633 264.380,113.647 264.502,113.652 264.624,113.647 264.744,113.633 264.864,113.609 264.981,113.576 265.095,113.534 265.206,113.483 265.312,113.424 265.413,113.356 265.509,113.281 265.598,113.198 265.681,113.109 265.756,113.013 265.824,112.912 265.883,112.806 265.934,112.695 265.976,112.581 266.009,112.464 266.033,112.344 266.047,112.224 266.052,112.102 266.047,111.980 266.033,111.860 266.009,111.740 265.976,111.623 265.934,111.509 265.883,111.398 265.824,111.292 265.756,111.191 265.681,111.095 265.598,111.006 265.509,110.923 265.413,110.848 265.312,110.780 265.206,110.721 265.095,110.670 264.981,110.628 264.864,110.595 264.744,110.571 264.624,110.557 264.502,110.552" style="fill:none;stroke-width:0.050000mm;stroke:black"/>
<polygon points="77.419,50.179 77.341,50.188 77.264,50.204 77.188,50.225 77.114,50.252 77.043,50.285 76.975,50.323 76.909,50.367 76.848,50.416 76.790,50.469 76.737,50.527 76.688,50.588 76.644,50.654 76.606,50.722 76.573,50.793 76.546,50.867 76.525,50.943 76.509,51.020 76.500,51.098 76.497,51.176 76.500,51.254 76.509,51.332 76.525,51.409 76.546,51.485 76.573,51.559 76.606,51.630 76.644,51.698 76.688,51.764 76.737,51.825 76.790,51.883 76.848,51.936 76.909,51.985 76.975,52.029 77.043,52.067 77.114,52.100 77.188,52.127 77.264,52.148 77.341,52.164 77.419,52.173 77.497,52.176 77.575,52.173 77.653,52.164 77.730,52.148 77.806,52.127 77.880,52.100 77.951,52.067 78.019,52.029 78.085,51.985 78.146,51.936 78.204,51.883 78.257,51.825 78.306,51.764 78.350,51.698 78.388,51.630 78.421,51.559 78.448,51.485 78.469,51.409 78.485,51.332 78.494,51.254 78.497,51.176 78.494,51.098 78.485,51.020 78.469,50.943 78.448,50.867 78.421,50.793 78.388,50.722 78.350,50.654 78.306,50.588 78.257,50.527 78.204,50.469 78.146,50.416 78.085,50.367 78.019,50.323 77.951,50.285 77.880,50.252 77.806,50.225 77.730,50.204 77.653,50.188 77.575,50.179 77.497,50.176" style="fill:none;stroke-width:0.050000mm;stroke:black"/>
<polygon points="9.178,7.755 9.058,7.769 8.938,7.793 8.821,7.826 8.707,7.868 8.596,7.919 8.490,7.978 8.389,8.046 8.293,8.120 8.204,8.204 8.120,8.293 8.046,8.389 7.978,8.490 7.919,8.596 7.868,8.707 7.826,8.821 7.793,8.938 7.769,9.058 7.755,9.178 7.750,9.300 7.755,9.422 7.769,9.542 7.793,9.662 7.826,9.779 7.868,9.893 7.919,10.004 7.978,10.110 8.046,10.211 8.120,10.307 8.204,10.396 8.293,10.479 8.389,10.554 8.490,10.622 8.596,10.681 8.707,10.732 8.821,10.774 8.938,10.807 9.058,10.831 9.178,10.845 9.300,10.850 9.422,10.845 9.542,10.831 9.662,10.807 9.779,10.774 9.893,10.732 10.004,10.681 10.110,10.622 10.211,10.554 10.307,10.479 10.396,10.396 10.479,10.307 10.554,10.211 10.622,10.110 10.681,10.004 10.732,9.893 10.774,9.779 10.807,9.662 10.831,9.542 10.845,9.422 10.850,9.300 10.845,9.178 10.831,9.058 10.807,8.938 10.774,8.821 10.732,8.707 10.681,8.596 10.622,8.490 10.554,8.389 10.479,8.293 10.396,8.204 10.307,8.120 10.211,8.046 10.110,7.978 10.004,7.919 9.893,7.868 9.779,7.826 9.662,7.793 9.542,7.769 9.422,7.755 9.300,7.750" style="fill:none;stroke-width:0.050000mm;stroke:black"/>
<polygon points="264.380,7.755 264.260,7.769 264.140,7.793 264.023,7.826 263.909,7.868 263.798,7.919 263.692,7.978 263.591,8.046 263.495,8.120 263.406,8.204 263.323,8.293 263.248,8.389 263.180,8.490 263.121,8.596 263.070,8.707 263.028,8.821 262.995,8.938 262.971,9.058 262.957,9.178 262.952,9.300 262.957,9.422 262.971,9.542 262.995,9.662 263.028,9.779 263.070,9.893 263.121,10.004 263.180,10.110 263.248,10.211 263.323,10.307 263.406,10.396 263.495,10.479 263.591,10.554 263.692,10.622 263.798,10.681 263.909,10.732 264.023,10.774 264.140,10.807 264.260,10.831 264.380,10.845 264.502,10.850 264.624,10.845 264.744,10.831 264.864,10.807 264.981,10.774 265.095,10.732 265.206,10.681 265.312,10.622 265.413,10.554 265.509,10.479 265.598,10.396 265.681,10.307 265.756,10.211 265.824,10.110 265.883,10.004 265.934,9.893 265.976,9.779 266.009,9.662 266.033,9.542 266.047,9.422 266.052,9.300 266.047,9.178 266.033,9.058 266.009,8.938 265.976,8.821 265.934,8.707 265.883,8.596 265.824,8.490 265.756,8.389 265.681,8.293 265.598,8.204 265.509,8.120 265.413,8.046 265.312,7.978 265.206,7.919 265.095,7.868 264.981,7.826 264.864,7.793 264.744,7.769 264.624,7.755 264.502,7.750" style="fill:none;stroke-width:0.050000mm;stroke:black"/>
</svg>
