<?xml version="1.0"?>
<!-- Generated by SVGo -->
<svg width="273.802mm" height="121.402mm"
     viewBox="0.000 0.000 273.802 121.402"
     xmlns="http://www.w3.org/2000/svg" 
     xmlns:xlink="http://www.w3.org/1999/xlink">
<polygon points="23.126,5.000 26.482,13.150 13.151,13.150 13.151,108.252 260.652,108.252 260.652,13.150 37.770,13.150 41.126,5.000 264.802,5.001 265.115,5.013 265.427,5.050 265.735,5.111 266.038,5.196 266.332,5.305 266.617,5.436 266.891,5.590 267.153,5.764 267.399,5.959 267.630,6.172 267.843,6.403 268.038,6.649 268.212,6.911 268.366,7.185 268.497,7.470 268.606,7.764 268.691,8.067 268.752,8.375 268.789,8.687 268.802,9.001 268.802,112.402 268.789,112.715 268.752,113.027 268.691,113.335 268.606,113.638 268.497,113.932 268.366,114.217 268.212,114.491 268.038,114.753 267.843,114.999 267.630,115.230 267.399,115.443 267.153,115.638 266.891,115.812 266.617,115.966 266.332,116.097 266.038,116.206 265.735,116.291 265.427,116.352 265.115,116.389 264.802,116.402 9.001,116.402 8.687,116.389 8.375,116.352 8.067,116.291 7.764,116.206 7.470,116.097 7.185,115.966 6.911,115.812 6.649,115.638 6.403,115.443 6.172,115.230 5.959,114.999 5.764,114.753 5.590,114.491 5.436,114.217 5.305,113.932 5.196,113.638 5.111,113.335 5.050,113.027 5.013,112.715 5.000,112.401 5.001,9.001 5.013,8.687 5.050,8.375 5.111,8.067 5.196,7.764 5.305,7.470 5.436,7.185 5.590,6.911 5.764,6.649 5.959,6.403 6.172,6.172 6.403,5.959 6.649,5.764 6.911,5.590 7.185,5.436 7.470,5.305 7.764,5.196 8.067,5.111 8.375,5.050 8.687,5.013 9.001,5.000" style="fill:none;stroke-width:0.050000mm;stroke:black"/>
<polygon points="264.271,110.924 263.860,111.133 263.533,111.460 263.324,111.871 263.252,112.327 263.324,112.782 263.533,113.193 263.860,113.520 264.271,113.729 264.727,113.801 265.182,113.729 265.593,113.520 265.920,113.193 266.129,112.782 266.202,112.327 266.129,111.871 265.920,111.460 265.593,111.133 265.182,110.924 264.727,110.852" style="fill:none;stroke-width:0.050000mm;stroke:black"/>
<polygon points="179.054,110.924 178.643,111.133 178.316,111.460 178.107,111.871 178.035,112.327 178.107,112.782 178.316,113.193 178.643,113.520 179.054,113.729 179.510,113.801 179.965,113.729 180.376,113.520 180.703,113.193 180.912,112.782 180.985,112.327 180.912,111.871 180.703,111.460 180.376,111.133 179.965,110.924 179.510,110.852" style="fill:none;stroke-width:0.050000mm;stroke:black"/>
<polygon points="93.837,110.924 93.426,111.133 93.099,111.460 92.890,111.871 92.818,112.327 92.890,112.782 93.099,113.193 93.426,113.520 93.837,113.729 94.293,113.801 94.748,113.729 95.159,113.520 95.486,113.193 95.695,112.782 95.768,112.327 95.695,111.871 95.486,111.460 95.159,111.133 94.748,110.924 94.293,110.852" style="fill:none;stroke-width:0.050000mm;stroke:black"/>
<polygon points="8.620,110.924 8.209,111.133 7.882,111.460 7.673,111.871 7.601,112.327 7.673,112.782 7.882,113.193 8.209,113.520 8.620,113.729 9.076,113.801 9.531,113.729 9.942,113.520 10.269,113.193 10.478,112.782 10.551,112.327 10.478,111.871 10.269,111.460 9.942,111.133 9.531,110.924 9.076,110.852" style="fill:none;stroke-width:0.050000mm;stroke:black"/>
<polygon points="93.837,7.673 93.426,7.882 93.099,8.209 92.890,8.620 92.818,9.076 92.890,9.531 93.099,9.942 93.426,10.269 93.837,10.478 94.293,10.551 94.748,10.478 95.159,10.269 95.486,9.942 95.695,9.531 95.768,9.076 95.695,8.620 95.486,8.209 95.159,7.882 94.748,7.673 94.293,7.601" style="fill:none;stroke-width:0.050000mm;stroke:black"/>
<polygon points="179.054,7.673 178.643,7.882 178.316,8.209 178.107,8.620 178.035,9.076 178.107,9.531 178.316,9.942 178.643,10.269 179.054,10.478 179.510,10.551 179.965,10.478 180.376,10.269 180.703,9.942 180.912,9.531 180.985,9.076 180.912,8.620 180.703,8.209 180.376,7.882 179.965,7.673 179.510,7.601" style="fill:none;stroke-width:0.050000mm;stroke:black"/>
<polygon points="264.271,7.673 263.860,7.882 263.533,8.209 263.324,8.620 263.252,9.076 263.324,9.531 263.533,9.942 263.860,10.269 264.271,10.478 264.727,10.551 265.182,10.478 265.593,10.269 265.920,9.942 266.129,9.531 266.202,9.076 266.129,8.620 265.920,8.209 265.593,7.882 265.182,7.673 264.727,7.601" style="fill:none;stroke-width:0.050000mm;stroke:black"/>
<polygon points="8.620,7.673 8.209,7.882 7.882,8.209 7.673,8.620 7.601,9.076 7.673,9.531 7.882,9.942 8.209,10.269 8.620,10.478 9.076,10.551 9.531,10.478 9.942,10.269 10.269,9.942 10.478,9.531 10.551,9.076 10.478,8.620 10.269,8.209 9.942,7.882 9.531,7.673 9.076,7.601" style="fill:none;stroke-width:0.050000mm;stroke:black"/>
</svg>
