<?xml version="1.0"?>
<!-- Generated by SVGo -->
<svg width="273.802mm" height="121.402mm"
     viewBox="0.000 0.000 273.802 121.402"
     xmlns="http://www.w3.org/2000/svg" 
     xmlns:xlink="http://www.w3.org/1999/xlink">
<polygon points="264.802,5.001 265.115,5.013 265.427,5.050 265.735,5.111 266.038,5.196 266.332,5.305 266.617,5.436 266.891,5.590 267.153,5.764 267.399,5.959 267.630,6.172 267.843,6.403 268.038,6.649 268.212,6.911 268.366,7.185 268.497,7.470 268.606,7.764 268.691,8.067 268.752,8.375 268.789,8.687 268.802,9.001 268.802,112.402 268.789,112.715 268.752,113.027 268.691,113.335 268.606,113.638 268.497,113.932 268.366,114.217 268.212,114.491 268.038,114.753 267.843,114.999 267.630,115.230 267.399,115.443 267.153,115.638 266.891,115.812 266.617,115.966 266.332,116.097 266.038,116.206 265.735,116.291 265.427,116.352 265.115,116.389 264.802,116.402 9.001,116.402 8.687,116.389 8.375,116.352 8.067,116.291 7.764,116.206 7.470,116.097 7.185,115.966 6.911,115.812 6.649,115.638 6.403,115.443 6.172,115.230 5.959,114.999 5.764,114.753 5.590,114.491 5.436,114.217 5.305,113.932 5.196,113.638 5.111,113.335 5.050,113.027 5.013,112.715 5.000,112.401 5.001,9.001 5.013,8.687 5.050,8.375 5.111,8.067 5.196,7.764 5.305,7.470 5.436,7.185 5.590,6.911 5.764,6.649 5.959,6.403 6.172,6.172 6.403,5.959 6.649,5.764 6.911,5.590 7.185,5.436 7.470,5.305 7.764,5.196 8.067,5.111 8.375,5.050 8.687,5.013 9.001,5.000" style="fill:none;stroke-width:0.050000mm;stroke:black"/>
<polygon points="9.178,110.557 9.058,110.571 8.938,110.595 8.821,110.628 8.707,110.670 8.596,110.721 8.490,110.780 8.389,110.848 8.293,110.923 8.204,111.006 8.120,111.095 8.046,111.191 7.978,111.292 7.919,111.398 7.868,111.509 7.826,111.623 7.793,111.740 7.769,111.860 7.755,111.980 7.750,112.102 7.755,112.224 7.769,112.344 7.793,112.464 7.826,112.581 7.868,112.695 7.919,112.806 7.978,112.912 8.046,113.013 8.120,113.109 8.204,113.198 8.293,113.281 8.389,113.356 8.490,113.424 8.596,113.483 8.707,113.534 8.821,113.576 8.938,113.609 9.058,113.633 9.178,113.647 9.300,113.652 9.422,113.647 9.542,113.633 9.662,113.609 9.779,113.576 9.893,113.534 10.004,113.483 10.110,113.424 10.211,113.356 10.307,113.281 10.396,113.198 10.479,113.109 10.554,113.013 10.622,112.912 10.681,112.806 10.732,112.695 10.774,112.581 10.807,112.464 10.831,112.344 10.845,112.224 10.850,112.102 10.845,111.980 10.831,111.860 10.807,111.740 10.774,111.623 10.732,111.509 10.681,111.398 10.622,111.292 10.554,111.191 10.479,111.095 10.396,111.006 10.307,110.923 10.211,110.848 10.110,110.780 10.004,110.721 9.893,110.670 9.779,110.628 9.662,110.595 9.542,110.571 9.422,110.557 9.300,110.552" style="fill:none;stroke-width:0.050000mm;stroke:black"/>
<polygon points="264.380,110.557 264.260,110.571 264.140,110.595 264.023,110.628 263.909,110.670 263.798,110.721 263.692,110.780 263.591,110.848 263.495,110.923 263.406,111.006 263.323,111.095 263.248,111.191 263.180,111.292 263.121,111.398 263.070,111.509 263.028,111.623 262.995,111.740 262.971,111.860 262.957,111.980 262.952,112.102 262.957,112.224 262.971,112.344 262.995,112.464 263.028,112.581 263.070,112.695 263.121,112.806 263.180,112.912 263.248,113.013 263.323,113.109 263.406,113.198 263.495,113.281 263.591,113.356 263.692,113.424 263.798,113.483 263.909,113.534 264.023,113.576 264.140,113.609 264.260,113.633 264.380,113.647 264.502,113.652 264.624,113.647 264.744,113.633 264.864,113.609 264.981,113.576 265.095,113.534 265.206,113.483 265.312,113.424 265.413,113.356 265.509,113.281 265.598,113.198 265.681,113.109 265.756,113.013 265.824,112.912 265.883,112.806 265.934,112.695 265.976,112.581 266.009,112.464 266.033,112.344 266.047,112.224 266.052,112.102 266.047,111.980 266.033,111.860 266.009,111.740 265.976,111.623 265.934,111.509 265.883,111.398 265.824,111.292 265.756,111.191 265.681,111.095 265.598,111.006 265.509,110.923 265.413,110.848 265.312,110.780 265.206,110.721 265.095,110.670 264.981,110.628 264.864,110.595 264.744,110.571 264.624,110.557 264.502,110.552" style="fill:none;stroke-width:0.050000mm;stroke:black"/>
<polygon points="103.782,91.876 103.782,92.876 102.982,92.876 102.982,95.826 103.782,95.826 103.782,96.576 102.107,96.576 102.107,93.346 95.507,93.346 95.507,96.576 94.682,96.576 94.682,99.226 95.507,99.226 95.507,105.495 97.232,105.495 97.232,106.696 100.382,106.696 100.382,105.495 102.107,105.495 102.107,101.025 103.782,101.025 103.782,101.775 102.982,101.775 102.982,104.726 103.782,104.726 103.782,105.726 117.632,105.726 117.632,104.726 118.432,104.726 118.432,101.775 117.632,101.775 117.632,101.025 119.307,101.025 119.307,105.495 121.032,105.495 121.032,106.696 124.182,106.696 124.182,105.495 125.907,105.495 125.907,99.226 126.732,99.226 126.732,96.576 125.907,96.576 125.907,93.346 119.307,93.346 119.307,96.576 117.632,96.576 117.632,95.826 118.432,95.826 118.432,92.876 117.632,92.876 117.632,91.876" style="fill:none;stroke-width:0.050000mm;stroke:black"/>
<polygon points="151.407,91.876 151.407,92.876 150.607,92.876 150.607,95.826 151.407,95.826 151.407,96.576 149.732,96.576 149.732,93.346 143.132,93.346 143.132,96.576 142.307,96.576 142.307,99.226 143.132,99.226 143.132,105.495 144.857,105.495 144.857,106.696 148.007,106.696 148.007,105.495 149.732,105.495 149.732,101.025 151.407,101.025 151.407,101.775 150.607,101.775 150.607,104.726 151.407,104.726 151.407,105.726 165.257,105.726 165.257,104.726 166.057,104.726 166.057,101.775 165.257,101.775 165.257,101.025 166.932,101.025 166.932,105.495 168.657,105.495 168.657,106.696 171.807,106.696 171.807,105.495 173.532,105.495 173.532,99.226 174.357,99.226 174.357,96.576 173.532,96.576 173.532,93.346 166.932,93.346 166.932,96.576 165.257,96.576 165.257,95.826 166.057,95.826 166.057,92.876 165.257,92.876 165.257,91.876" style="fill:none;stroke-width:0.050000mm;stroke:black"/>
<polygon points="20.438,91.876 20.438,92.876 19.638,92.876 19.638,95.826 20.438,95.826 20.438,101.775 19.638,101.775 19.638,104.726 20.438,104.726 20.438,105.726 34.288,105.726 34.288,104.726 35.088,104.726 35.088,101.775 34.288,101.775 34.288,95.826 35.088,95.826 35.088,92.876 34.288,92.876 34.288,91.876" style="fill:none;stroke-width:0.050000mm;stroke:black"/>
<polygon points="44.251,91.876 44.251,92.876 43.450,92.876 43.450,95.826 44.251,95.826 44.251,101.775 43.450,101.775 43.450,104.726 44.251,104.726 44.251,105.726 58.100,105.726 58.100,104.726 58.901,104.726 58.901,101.775 58.100,101.775 58.100,95.826 58.901,95.826 58.901,92.876 58.100,92.876 58.100,91.876" style="fill:none;stroke-width:0.050000mm;stroke:black"/>
<polygon points="68.063,91.876 68.063,92.876 67.263,92.876 67.263,95.826 68.063,95.826 68.063,101.775 67.263,101.775 67.263,104.726 68.063,104.726 68.063,105.726 81.913,105.726 81.913,104.726 82.713,104.726 82.713,101.775 81.913,101.775 81.913,95.826 82.713,95.826 82.713,92.876 81.913,92.876 81.913,91.876" style="fill:none;stroke-width:0.050000mm;stroke:black"/>
<polygon points="187.126,91.876 187.126,92.876 186.326,92.876 186.326,95.826 187.126,95.826 187.126,101.775 186.326,101.775 186.326,104.726 187.126,104.726 187.126,105.726 200.976,105.726 200.976,104.726 201.776,104.726 201.776,101.775 200.976,101.775 200.976,95.826 201.776,95.826 201.776,92.876 200.976,92.876 200.976,91.876" style="fill:none;stroke-width:0.050000mm;stroke:black"/>
<polygon points="206.176,91.876 206.176,92.876 205.376,92.876 205.376,95.826 206.176,95.826 206.176,101.775 205.376,101.775 205.376,104.726 206.176,104.726 206.176,105.726 220.026,105.726 220.026,104.726 220.826,104.726 220.826,101.775 220.026,101.775 220.026,95.826 220.826,95.826 220.826,92.876 220.026,92.876 220.026,91.876" style="fill:none;stroke-width:0.050000mm;stroke:black"/>
<polygon points="225.226,91.876 225.226,92.876 224.426,92.876 224.426,95.826 225.226,95.826 225.226,101.775 224.426,101.775 224.426,104.726 225.226,104.726 225.226,105.726 239.076,105.726 239.076,104.726 239.876,104.726 239.876,101.775 239.076,101.775 239.076,95.826 239.876,95.826 239.876,92.876 239.076,92.876 239.076,91.876" style="fill:none;stroke-width:0.050000mm;stroke:black"/>
<polygon points="244.276,91.876 244.276,92.876 243.476,92.876 243.476,95.826 244.276,95.826 244.276,101.775 243.476,101.775 243.476,104.726 244.276,104.726 244.276,105.726 258.126,105.726 258.126,104.726 258.926,104.726 258.926,101.775 258.126,101.775 258.126,95.826 258.926,95.826 258.926,92.876 258.126,92.876 258.126,91.876" style="fill:none;stroke-width:0.050000mm;stroke:black"/>
<polygon points="25.201,72.826 25.201,73.826 24.401,73.826 24.401,76.776 25.201,76.776 25.201,77.526 23.526,77.526 23.526,74.296 16.925,74.296 16.925,77.526 16.100,77.526 16.100,80.176 16.925,80.176 16.925,86.446 18.651,86.446 18.651,87.646 21.801,87.646 21.801,86.446 23.526,86.446 23.526,81.976 25.201,81.976 25.201,82.726 24.401,82.726 24.401,85.676 25.201,85.676 25.201,86.676 39.051,86.676 39.051,85.676 39.851,85.676 39.851,82.726 39.051,82.726 39.051,81.976 40.726,81.976 40.726,86.446 42.451,86.446 42.451,87.646 45.601,87.646 45.601,86.446 47.326,86.446 47.326,80.176 48.151,80.176 48.151,77.526 47.326,77.526 47.326,74.296 40.726,74.296 40.726,77.526 39.051,77.526 39.051,76.776 39.851,76.776 39.851,73.826 39.051,73.826 39.051,72.826" style="fill:none;stroke-width:0.050000mm;stroke:black"/>
<polygon points="53.776,72.826 53.776,73.826 52.976,73.826 52.976,76.776 53.776,76.776 53.776,82.726 52.976,82.726 52.976,85.676 53.776,85.676 53.776,86.676 67.626,86.676 67.626,85.676 68.426,85.676 68.426,82.726 67.626,82.726 67.626,76.776 68.426,76.776 68.426,73.826 67.626,73.826 67.626,72.826" style="fill:none;stroke-width:0.050000mm;stroke:black"/>
<polygon points="72.826,72.826 72.826,73.826 72.026,73.826 72.026,76.776 72.826,76.776 72.826,82.726 72.026,82.726 72.026,85.676 72.826,85.676 72.826,86.676 86.676,86.676 86.676,85.676 87.476,85.676 87.476,82.726 86.676,82.726 86.676,76.776 87.476,76.776 87.476,73.826 86.676,73.826 86.676,72.826" style="fill:none;stroke-width:0.050000mm;stroke:black"/>
<polygon points="91.876,72.826 91.876,73.826 91.076,73.826 91.076,76.776 91.876,76.776 91.876,82.726 91.076,82.726 91.076,85.676 91.876,85.676 91.876,86.676 105.726,86.676 105.726,85.676 106.525,85.676 106.525,82.726 105.726,82.726 105.726,76.776 106.525,76.776 106.525,73.826 105.726,73.826 105.726,72.826" style="fill:none;stroke-width:0.050000mm;stroke:black"/>
<polygon points="110.926,72.826 110.926,73.826 110.126,73.826 110.126,76.776 110.926,76.776 110.926,82.726 110.126,82.726 110.126,85.676 110.926,85.676 110.926,86.676 124.775,86.676 124.775,85.676 125.575,85.676 125.575,82.726 124.775,82.726 124.775,76.776 125.575,76.776 125.575,73.826 124.775,73.826 124.775,72.826" style="fill:none;stroke-width:0.050000mm;stroke:black"/>
<polygon points="129.976,72.826 129.976,73.826 129.176,73.826 129.176,76.776 129.976,76.776 129.976,82.726 129.176,82.726 129.176,85.676 129.976,85.676 129.976,86.676 143.826,86.676 143.826,85.676 144.626,85.676 144.626,82.726 143.826,82.726 143.826,76.776 144.626,76.776 144.626,73.826 143.826,73.826 143.826,72.826" style="fill:none;stroke-width:0.050000mm;stroke:black"/>
<polygon points="149.026,72.826 149.026,73.826 148.226,73.826 148.226,76.776 149.026,76.776 149.026,82.726 148.226,82.726 148.226,85.676 149.026,85.676 149.026,86.676 162.876,86.676 162.876,85.676 163.676,85.676 163.676,82.726 162.876,82.726 162.876,76.776 163.676,76.776 163.676,73.826 162.876,73.826 162.876,72.826" style="fill:none;stroke-width:0.050000mm;stroke:black"/>
<polygon points="168.076,72.826 168.076,73.826 167.276,73.826 167.276,76.776 168.076,76.776 168.076,82.726 167.276,82.726 167.276,85.676 168.076,85.676 168.076,86.676 181.926,86.676 181.926,85.676 182.726,85.676 182.726,82.726 181.926,82.726 181.926,76.776 182.726,76.776 182.726,73.826 181.926,73.826 181.926,72.826" style="fill:none;stroke-width:0.050000mm;stroke:black"/>
<polygon points="187.126,72.826 187.126,73.826 186.326,73.826 186.326,76.776 187.126,76.776 187.126,82.726 186.326,82.726 186.326,85.676 187.126,85.676 187.126,86.676 200.976,86.676 200.976,85.676 201.776,85.676 201.776,82.726 200.976,82.726 200.976,76.776 201.776,76.776 201.776,73.826 200.976,73.826 200.976,72.826" style="fill:none;stroke-width:0.050000mm;stroke:black"/>
<polygon points="206.176,72.826 206.176,73.826 205.376,73.826 205.376,76.776 206.176,76.776 206.176,82.726 205.376,82.726 205.376,85.676 206.176,85.676 206.176,86.676 220.026,86.676 220.026,85.676 220.826,85.676 220.826,82.726 220.026,82.726 220.026,76.776 220.826,76.776 220.826,73.826 220.026,73.826 220.026,72.826" style="fill:none;stroke-width:0.050000mm;stroke:black"/>
<polygon points="225.226,72.826 225.226,73.826 224.426,73.826 224.426,76.776 225.226,76.776 225.226,82.726 224.426,82.726 224.426,85.676 225.226,85.676 225.226,86.676 239.076,86.676 239.076,85.676 239.876,85.676 239.876,82.726 239.076,82.726 239.076,76.776 239.876,76.776 239.876,73.826 239.076,73.826 239.076,72.826" style="fill:none;stroke-width:0.050000mm;stroke:black"/>
<polygon points="244.276,72.826 244.276,73.826 243.476,73.826 243.476,76.776 244.276,76.776 244.276,82.726 243.476,82.726 243.476,85.676 244.276,85.676 244.276,86.676 258.126,86.676 258.126,85.676 258.926,85.676 258.926,82.726 258.126,82.726 258.126,76.776 258.926,76.776 258.926,73.826 258.126,73.826 258.126,72.826" style="fill:none;stroke-width:0.050000mm;stroke:black"/>
<polygon points="20.438,53.776 20.438,54.776 19.638,54.776 19.638,57.726 20.438,57.726 20.438,63.676 19.638,63.676 19.638,66.626 20.438,66.626 20.438,67.626 34.288,67.626 34.288,66.626 35.088,66.626 35.088,63.676 34.288,63.676 34.288,57.726 35.088,57.726 35.088,54.776 34.288,54.776 34.288,53.776" style="fill:none;stroke-width:0.050000mm;stroke:black"/>
<polygon points="44.251,53.776 44.251,54.776 43.450,54.776 43.450,57.726 44.251,57.726 44.251,63.676 43.450,63.676 43.450,66.626 44.251,66.626 44.251,67.626 58.100,67.626 58.100,66.626 58.901,66.626 58.901,63.676 58.100,63.676 58.100,57.726 58.901,57.726 58.901,54.776 58.100,54.776 58.100,53.776" style="fill:none;stroke-width:0.050000mm;stroke:black"/>
<polygon points="63.301,53.776 63.301,54.776 62.500,54.776 62.500,57.726 63.301,57.726 63.301,63.676 62.500,63.676 62.500,66.626 63.301,66.626 63.301,67.626 77.150,67.626 77.150,66.626 77.950,66.626 77.950,63.676 77.150,63.676 77.150,57.726 77.950,57.726 77.950,54.776 77.150,54.776 77.150,53.776" style="fill:none;stroke-width:0.050000mm;stroke:black"/>
<polygon points="82.351,53.776 82.351,54.776 81.551,54.776 81.551,57.726 82.351,57.726 82.351,63.676 81.551,63.676 81.551,66.626 82.351,66.626 82.351,67.626 96.200,67.626 96.200,66.626 97.000,66.626 97.000,63.676 96.200,63.676 96.200,57.726 97.000,57.726 97.000,54.776 96.200,54.776 96.200,53.776" style="fill:none;stroke-width:0.050000mm;stroke:black"/>
<polygon points="101.400,53.776 101.400,54.776 100.601,54.776 100.601,57.726 101.400,57.726 101.400,63.676 100.601,63.676 100.601,66.626 101.400,66.626 101.400,67.626 115.250,67.626 115.250,66.626 116.050,66.626 116.050,63.676 115.250,63.676 115.250,57.726 116.050,57.726 116.050,54.776 115.250,54.776 115.250,53.776" style="fill:none;stroke-width:0.050000mm;stroke:black"/>
<polygon points="120.450,53.776 120.450,54.776 119.650,54.776 119.650,57.726 120.450,57.726 120.450,63.676 119.650,63.676 119.650,66.626 120.450,66.626 120.450,67.626 134.300,67.626 134.300,66.626 135.101,66.626 135.101,63.676 134.300,63.676 134.300,57.726 135.101,57.726 135.101,54.776 134.300,54.776 134.300,53.776" style="fill:none;stroke-width:0.050000mm;stroke:black"/>
<polygon points="139.500,53.776 139.500,54.776 138.701,54.776 138.701,57.726 139.500,57.726 139.500,63.676 138.701,63.676 138.701,66.626 139.500,66.626 139.500,67.626 153.351,67.626 153.351,66.626 154.150,66.626 154.150,63.676 153.351,63.676 153.351,57.726 154.150,57.726 154.150,54.776 153.351,54.776 153.351,53.776" style="fill:none;stroke-width:0.050000mm;stroke:black"/>
<polygon points="158.550,53.776 158.550,54.776 157.751,54.776 157.751,57.726 158.550,57.726 158.550,63.676 157.751,63.676 157.751,66.626 158.550,66.626 158.550,67.626 172.401,67.626 172.401,66.626 173.201,66.626 173.201,63.676 172.401,63.676 172.401,57.726 173.201,57.726 173.201,54.776 172.401,54.776 172.401,53.776" style="fill:none;stroke-width:0.050000mm;stroke:black"/>
<polygon points="177.601,53.776 177.601,54.776 176.801,54.776 176.801,57.726 177.601,57.726 177.601,63.676 176.801,63.676 176.801,66.626 177.601,66.626 177.601,67.626 191.451,67.626 191.451,66.626 192.251,66.626 192.251,63.676 191.451,63.676 191.451,57.726 192.251,57.726 192.251,54.776 191.451,54.776 191.451,53.776" style="fill:none;stroke-width:0.050000mm;stroke:black"/>
<polygon points="196.651,53.776 196.651,54.776 195.851,54.776 195.851,57.726 196.651,57.726 196.651,63.676 195.851,63.676 195.851,66.626 196.651,66.626 196.651,67.626 210.501,67.626 210.501,66.626 211.301,66.626 211.301,63.676 210.501,63.676 210.501,57.726 211.301,57.726 211.301,54.776 210.501,54.776 210.501,53.776" style="fill:none;stroke-width:0.050000mm;stroke:black"/>
<polygon points="215.701,53.776 215.701,54.776 214.901,54.776 214.901,57.726 215.701,57.726 215.701,63.676 214.901,63.676 214.901,66.626 215.701,66.626 215.701,67.626 229.551,67.626 229.551,66.626 230.351,66.626 230.351,63.676 229.551,63.676 229.551,57.726 230.351,57.726 230.351,54.776 229.551,54.776 229.551,53.776" style="fill:none;stroke-width:0.050000mm;stroke:black"/>
<polygon points="239.513,53.776 239.513,54.776 238.713,54.776 238.713,57.726 239.513,57.726 239.513,63.676 238.713,63.676 238.713,66.626 239.513,66.626 239.513,67.626 253.363,67.626 253.363,66.626 254.163,66.626 254.163,63.676 253.363,63.676 253.363,57.726 254.163,57.726 254.163,54.776 253.363,54.776 253.363,53.776" style="fill:none;stroke-width:0.050000mm;stroke:black"/>
<polygon points="20.438,34.726 20.438,35.726 19.638,35.726 19.638,38.676 20.438,38.676 20.438,44.626 19.638,44.626 19.638,47.576 20.438,47.576 20.438,48.576 34.288,48.576 34.288,47.576 35.088,47.576 35.088,44.626 34.288,44.626 34.288,38.676 35.088,38.676 35.088,35.726 34.288,35.726 34.288,34.726" style="fill:none;stroke-width:0.050000mm;stroke:black"/>
<polygon points="44.251,34.726 44.251,35.726 43.450,35.726 43.450,38.676 44.251,38.676 44.251,44.626 43.450,44.626 43.450,47.576 44.251,47.576 44.251,48.576 58.100,48.576 58.100,47.576 58.901,47.576 58.901,44.626 58.100,44.626 58.100,38.676 58.901,38.676 58.901,35.726 58.100,35.726 58.100,34.726" style="fill:none;stroke-width:0.050000mm;stroke:black"/>
<polygon points="63.301,34.726 63.301,35.726 62.500,35.726 62.500,38.676 63.301,38.676 63.301,44.626 62.500,44.626 62.500,47.576 63.301,47.576 63.301,48.576 77.150,48.576 77.150,47.576 77.950,47.576 77.950,44.626 77.150,44.626 77.150,38.676 77.950,38.676 77.950,35.726 77.150,35.726 77.150,34.726" style="fill:none;stroke-width:0.050000mm;stroke:black"/>
<polygon points="82.351,34.726 82.351,35.726 81.551,35.726 81.551,38.676 82.351,38.676 82.351,44.626 81.551,44.626 81.551,47.576 82.351,47.576 82.351,48.576 96.200,48.576 96.200,47.576 97.000,47.576 97.000,44.626 96.200,44.626 96.200,38.676 97.000,38.676 97.000,35.726 96.200,35.726 96.200,34.726" style="fill:none;stroke-width:0.050000mm;stroke:black"/>
<polygon points="101.400,34.726 101.400,35.726 100.601,35.726 100.601,38.676 101.400,38.676 101.400,44.626 100.601,44.626 100.601,47.576 101.400,47.576 101.400,48.576 115.250,48.576 115.250,47.576 116.050,47.576 116.050,44.626 115.250,44.626 115.250,38.676 116.050,38.676 116.050,35.726 115.250,35.726 115.250,34.726" style="fill:none;stroke-width:0.050000mm;stroke:black"/>
<polygon points="120.450,34.726 120.450,35.726 119.650,35.726 119.650,38.676 120.450,38.676 120.450,44.626 119.650,44.626 119.650,47.576 120.450,47.576 120.450,48.576 134.300,48.576 134.300,47.576 135.101,47.576 135.101,44.626 134.300,44.626 134.300,38.676 135.101,38.676 135.101,35.726 134.300,35.726 134.300,34.726" style="fill:none;stroke-width:0.050000mm;stroke:black"/>
<polygon points="139.500,34.726 139.500,35.726 138.701,35.726 138.701,38.676 139.500,38.676 139.500,44.626 138.701,44.626 138.701,47.576 139.500,47.576 139.500,48.576 153.351,48.576 153.351,47.576 154.150,47.576 154.150,44.626 153.351,44.626 153.351,38.676 154.150,38.676 154.150,35.726 153.351,35.726 153.351,34.726" style="fill:none;stroke-width:0.050000mm;stroke:black"/>
<polygon points="158.550,34.726 158.550,35.726 157.751,35.726 157.751,38.676 158.550,38.676 158.550,44.626 157.751,44.626 157.751,47.576 158.550,47.576 158.550,48.576 172.401,48.576 172.401,47.576 173.201,47.576 173.201,44.626 172.401,44.626 172.401,38.676 173.201,38.676 173.201,35.726 172.401,35.726 172.401,34.726" style="fill:none;stroke-width:0.050000mm;stroke:black"/>
<polygon points="177.601,34.726 177.601,35.726 176.801,35.726 176.801,38.676 177.601,38.676 177.601,44.626 176.801,44.626 176.801,47.576 177.601,47.576 177.601,48.576 191.451,48.576 191.451,47.576 192.251,47.576 192.251,44.626 191.451,44.626 191.451,38.676 192.251,38.676 192.251,35.726 191.451,35.726 191.451,34.726" style="fill:none;stroke-width:0.050000mm;stroke:black"/>
<polygon points="196.651,34.726 196.651,35.726 195.851,35.726 195.851,38.676 196.651,38.676 196.651,44.626 195.851,44.626 195.851,47.576 196.651,47.576 196.651,48.576 210.501,48.576 210.501,47.576 211.301,47.576 211.301,44.626 210.501,44.626 210.501,38.676 211.301,38.676 211.301,35.726 210.501,35.726 210.501,34.726" style="fill:none;stroke-width:0.050000mm;stroke:black"/>
<polygon points="215.701,34.726 215.701,35.726 214.901,35.726 214.901,38.676 215.701,38.676 215.701,44.626 214.901,44.626 214.901,47.576 215.701,47.576 215.701,48.576 229.551,48.576 229.551,47.576 230.351,47.576 230.351,44.626 229.551,44.626 229.551,38.676 230.351,38.676 230.351,35.726 229.551,35.726 229.551,34.726" style="fill:none;stroke-width:0.050000mm;stroke:black"/>
<polygon points="239.513,34.726 239.513,35.726 238.713,35.726 238.713,38.676 239.513,38.676 239.513,44.626 238.713,44.626 238.713,47.576 239.513,47.576 239.513,48.576 253.363,48.576 253.363,47.576 254.163,47.576 254.163,44.626 253.363,44.626 253.363,38.676 254.163,38.676 254.163,35.726 253.363,35.726 253.363,34.726" style="fill:none;stroke-width:0.050000mm;stroke:black"/>
<polygon points="15.676,15.676 15.676,16.676 14.876,16.676 14.876,19.626 15.676,19.626 15.676,25.576 14.876,25.576 14.876,28.526 15.676,28.526 15.676,29.526 29.526,29.526 29.526,28.526 30.326,28.526 30.326,25.576 29.526,25.576 29.526,19.626 30.326,19.626 30.326,16.676 29.526,16.676 29.526,15.676" style="fill:none;stroke-width:0.050000mm;stroke:black"/>
<polygon points="34.726,15.676 34.726,16.676 33.926,16.676 33.926,19.626 34.726,19.626 34.726,25.576 33.926,25.576 33.926,28.526 34.726,28.526 34.726,29.526 48.576,29.526 48.576,28.526 49.376,28.526 49.376,25.576 48.576,25.576 48.576,19.626 49.376,19.626 49.376,16.676 48.576,16.676 48.576,15.676" style="fill:none;stroke-width:0.050000mm;stroke:black"/>
<polygon points="53.776,15.676 53.776,16.676 52.976,16.676 52.976,19.626 53.776,19.626 53.776,25.576 52.976,25.576 52.976,28.526 53.776,28.526 53.776,29.526 67.626,29.526 67.626,28.526 68.426,28.526 68.426,25.576 67.626,25.576 67.626,19.626 68.426,19.626 68.426,16.676 67.626,16.676 67.626,15.676" style="fill:none;stroke-width:0.050000mm;stroke:black"/>
<polygon points="72.826,15.676 72.826,16.676 72.026,16.676 72.026,19.626 72.826,19.626 72.826,25.576 72.026,25.576 72.026,28.526 72.826,28.526 72.826,29.526 86.676,29.526 86.676,28.526 87.476,28.526 87.476,25.576 86.676,25.576 86.676,19.626 87.476,19.626 87.476,16.676 86.676,16.676 86.676,15.676" style="fill:none;stroke-width:0.050000mm;stroke:black"/>
<polygon points="91.876,15.676 91.876,16.676 91.076,16.676 91.076,19.626 91.876,19.626 91.876,25.576 91.076,25.576 91.076,28.526 91.876,28.526 91.876,29.526 105.726,29.526 105.726,28.526 106.525,28.526 106.525,25.576 105.726,25.576 105.726,19.626 106.525,19.626 106.525,16.676 105.726,16.676 105.726,15.676" style="fill:none;stroke-width:0.050000mm;stroke:black"/>
<polygon points="110.926,15.676 110.926,16.676 110.126,16.676 110.126,19.626 110.926,19.626 110.926,25.576 110.126,25.576 110.126,28.526 110.926,28.526 110.926,29.526 124.775,29.526 124.775,28.526 125.575,28.526 125.575,25.576 124.775,25.576 124.775,19.626 125.575,19.626 125.575,16.676 124.775,16.676 124.775,15.676" style="fill:none;stroke-width:0.050000mm;stroke:black"/>
<polygon points="129.976,15.676 129.976,16.676 129.176,16.676 129.176,19.626 129.976,19.626 129.976,25.576 129.176,25.576 129.176,28.526 129.976,28.526 129.976,29.526 143.826,29.526 143.826,28.526 144.626,28.526 144.626,25.576 143.826,25.576 143.826,19.626 144.626,19.626 144.626,16.676 143.826,16.676 143.826,15.676" style="fill:none;stroke-width:0.050000mm;stroke:black"/>
<polygon points="149.026,15.676 149.026,16.676 148.226,16.676 148.226,19.626 149.026,19.626 149.026,25.576 148.226,25.576 148.226,28.526 149.026,28.526 149.026,29.526 162.876,29.526 162.876,28.526 163.676,28.526 163.676,25.576 162.876,25.576 162.876,19.626 163.676,19.626 163.676,16.676 162.876,16.676 162.876,15.676" style="fill:none;stroke-width:0.050000mm;stroke:black"/>
<polygon points="168.076,15.676 168.076,16.676 167.276,16.676 167.276,19.626 168.076,19.626 168.076,25.576 167.276,25.576 167.276,28.526 168.076,28.526 168.076,29.526 181.926,29.526 181.926,28.526 182.726,28.526 182.726,25.576 181.926,25.576 181.926,19.626 182.726,19.626 182.726,16.676 181.926,16.676 181.926,15.676" style="fill:none;stroke-width:0.050000mm;stroke:black"/>
<polygon points="187.126,15.676 187.126,16.676 186.326,16.676 186.326,19.626 187.126,19.626 187.126,25.576 186.326,25.576 186.326,28.526 187.126,28.526 187.126,29.526 200.976,29.526 200.976,28.526 201.776,28.526 201.776,25.576 200.976,25.576 200.976,19.626 201.776,19.626 201.776,16.676 200.976,16.676 200.976,15.676" style="fill:none;stroke-width:0.050000mm;stroke:black"/>
<polygon points="206.176,15.676 206.176,16.676 205.376,16.676 205.376,19.626 206.176,19.626 206.176,25.576 205.376,25.576 205.376,28.526 206.176,28.526 206.176,29.526 220.026,29.526 220.026,28.526 220.826,28.526 220.826,25.576 220.026,25.576 220.026,19.626 220.826,19.626 220.826,16.676 220.026,16.676 220.026,15.676" style="fill:none;stroke-width:0.050000mm;stroke:black"/>
<polygon points="225.226,15.676 225.226,16.676 224.426,16.676 224.426,19.626 225.226,19.626 225.226,25.576 224.426,25.576 224.426,28.526 225.226,28.526 225.226,29.526 239.076,29.526 239.076,28.526 239.876,28.526 239.876,25.576 239.076,25.576 239.076,19.626 239.876,19.626 239.876,16.676 239.076,16.676 239.076,15.676" style="fill:none;stroke-width:0.050000mm;stroke:black"/>
<polygon points="244.276,15.676 244.276,16.676 243.476,16.676 243.476,19.626 244.276,19.626 244.276,25.576 243.476,25.576 243.476,28.526 244.276,28.526 244.276,29.526 258.126,29.526 258.126,28.526 258.926,28.526 258.926,25.576 258.126,25.576 258.126,19.626 258.926,19.626 258.926,16.676 258.126,16.676 258.126,15.676" style="fill:none;stroke-width:0.050000mm;stroke:black"/>
<polygon points="9.178,7.755 9.058,7.769 8.938,7.793 8.821,7.826 8.707,7.868 8.596,7.919 8.490,7.978 8.389,8.046 8.293,8.120 8.204,8.204 8.120,8.293 8.046,8.389 7.978,8.490 7.919,8.596 7.868,8.707 7.826,8.821 7.793,8.938 7.769,9.058 7.755,9.178 7.750,9.300 7.755,9.422 7.769,9.542 7.793,9.662 7.826,9.779 7.868,9.893 7.919,10.004 7.978,10.110 8.046,10.211 8.120,10.307 8.204,10.396 8.293,10.479 8.389,10.554 8.490,10.622 8.596,10.681 8.707,10.732 8.821,10.774 8.938,10.807 9.058,10.831 9.178,10.845 9.300,10.850 9.422,10.845 9.542,10.831 9.662,10.807 9.779,10.774 9.893,10.732 10.004,10.681 10.110,10.622 10.211,10.554 10.307,10.479 10.396,10.396 10.479,10.307 10.554,10.211 10.622,10.110 10.681,10.004 10.732,9.893 10.774,9.779 10.807,9.662 10.831,9.542 10.845,9.422 10.850,9.300 10.845,9.178 10.831,9.058 10.807,8.938 10.774,8.821 10.732,8.707 10.681,8.596 10.622,8.490 10.554,8.389 10.479,8.293 10.396,8.204 10.307,8.120 10.211,8.046 10.110,7.978 10.004,7.919 9.893,7.868 9.779,7.826 9.662,7.793 9.542,7.769 9.422,7.755 9.300,7.750" style="fill:none;stroke-width:0.050000mm;stroke:black"/>
<polygon points="264.380,7.755 264.260,7.769 264.140,7.793 264.023,7.826 263.909,7.868 263.798,7.919 263.692,7.978 263.591,8.046 263.495,8.120 263.406,8.204 263.323,8.293 263.248,8.389 263.180,8.490 263.121,8.596 263.070,8.707 263.028,8.821 262.995,8.938 262.971,9.058 262.957,9.178 262.952,9.300 262.957,9.422 262.971,9.542 262.995,9.662 263.028,9.779 263.070,9.893 263.121,10.004 263.180,10.110 263.248,10.211 263.323,10.307 263.406,10.396 263.495,10.479 263.591,10.554 263.692,10.622 263.798,10.681 263.909,10.732 264.023,10.774 264.140,10.807 264.260,10.831 264.380,10.845 264.502,10.850 264.624,10.845 264.744,10.831 264.864,10.807 264.981,10.774 265.095,10.732 265.206,10.681 265.312,10.622 265.413,10.554 265.509,10.479 265.598,10.396 265.681,10.307 265.756,10.211 265.824,10.110 265.883,10.004 265.934,9.893 265.976,9.779 266.009,9.662 266.033,9.542 266.047,9.422 266.052,9.300 266.047,9.178 266.033,9.058 266.009,8.938 265.976,8.821 265.934,8.707 265.883,8.596 265.824,8.490 265.756,8.389 265.681,8.293 265.598,8.204 265.509,8.120 265.413,8.046 265.312,7.978 265.206,7.919 265.095,7.868 264.981,7.826 264.864,7.793 264.744,7.769 264.624,7.755 264.502,7.750" style="fill:none;stroke-width:0.050000mm;stroke:black"/>
</svg>
