  0
SECTION
  2
HEADER
  9
$ACADVER
  1
AC1009
  9
$EXTMIN
 10
0.0
 20
0.0
 30
0.0
  9
$EXTMAX
 10
1000.0
 20
1000.0
 30
0.0
  9
$FILLMODE
 70
 0
  9
$SPLFRAME
 70
 1
  0
ENDSEC
  0
SECTION
  2
TABLES
  0
TABLE
  2
LAYER
 70
1
  0
LAYER
  2
0
 70
     0
 62
     7
  6
CONTINUOUS
  0
ENDTAB
  0
ENDSEC
  0
SECTION
  2
ENTITIES
  0
LINE
  8
0
 62
     0
 10
259.895
 20
111.499
 30
0.0
 11
260.208
 21
111.487
 31
0.0
  0
LINE
  8
0
 62
     0
 10
260.208
 20
111.487
 30
0.0
 11
260.521
 21
111.45
 31
0.0
  0
LINE
  8
0
 62
     0
 10
260.521
 20
111.45
 30
0.0
 11
260.828
 21
111.388
 31
0.0
  0
LINE
  8
0
 62
     0
 10
260.828
 20
111.388
 30
0.0
 11
261.131
 21
111.304
 31
0.0
  0
LINE
  8
0
 62
     0
 10
261.131
 20
111.304
 30
0.0
 11
261.426
 21
111.195
 31
0.0
  0
LINE
  8
0
 62
     0
 10
261.426
 20
111.195
 30
0.0
 11
261.71
 21
111.064
 31
0.0
  0
LINE
  8
0
 62
     0
 10
261.71
 20
111.064
 30
0.0
 11
261.984
 21
110.91
 31
0.0
  0
LINE
  8
0
 62
     0
 10
261.984
 20
110.91
 30
0.0
 11
262.246
 21
110.736
 31
0.0
  0
LINE
  8
0
 62
     0
 10
262.246
 20
110.736
 30
0.0
 11
262.493
 21
110.541
 31
0.0
  0
LINE
  8
0
 62
     0
 10
262.493
 20
110.541
 30
0.0
 11
262.724
 21
110.327
 31
0.0
  0
LINE
  8
0
 62
     0
 10
262.724
 20
110.327
 30
0.0
 11
262.937
 21
110.097
 31
0.0
  0
LINE
  8
0
 62
     0
 10
262.937
 20
110.097
 30
0.0
 11
263.132
 21
109.85
 31
0.0
  0
LINE
  8
0
 62
     0
 10
263.132
 20
109.85
 30
0.0
 11
263.306
 21
109.589
 31
0.0
  0
LINE
  8
0
 62
     0
 10
263.306
 20
109.589
 30
0.0
 11
263.46
 21
109.314
 31
0.0
  0
LINE
  8
0
 62
     0
 10
263.46
 20
109.314
 30
0.0
 11
263.591
 21
109.031
 31
0.0
  0
LINE
  8
0
 62
     0
 10
263.591
 20
109.031
 30
0.0
 11
263.7
 21
108.736
 31
0.0
  0
LINE
  8
0
 62
     0
 10
263.7
 20
108.736
 30
0.0
 11
263.784
 21
108.432
 31
0.0
  0
LINE
  8
0
 62
     0
 10
263.784
 20
108.432
 30
0.0
 11
263.846
 21
108.125
 31
0.0
  0
LINE
  8
0
 62
     0
 10
263.846
 20
108.125
 30
0.0
 11
263.883
 21
107.812
 31
0.0
  0
LINE
  8
0
 62
     0
 10
263.883
 20
107.812
 30
0.0
 11
263.896
 21
107.5
 31
0.0
  0
LINE
  8
0
 62
     0
 10
263.896
 20
107.5
 30
0.0
 11
263.896
 21
4.09829
 31
0.0
  0
LINE
  8
0
 62
     0
 10
263.896
 20
4.09829
 30
0.0
 11
263.883
 21
3.78548
 31
0.0
  0
LINE
  8
0
 62
     0
 10
263.883
 20
3.78548
 30
0.0
 11
263.846
 21
3.47266
 31
0.0
  0
LINE
  8
0
 62
     0
 10
263.846
 20
3.47266
 30
0.0
 11
263.784
 21
3.16536
 31
0.0
  0
LINE
  8
0
 62
     0
 10
263.784
 20
3.16536
 30
0.0
 11
263.7
 21
2.86219
 31
0.0
  0
LINE
  8
0
 62
     0
 10
263.7
 20
2.86219
 30
0.0
 11
263.591
 21
2.56728
 31
0.0
  0
LINE
  8
0
 62
     0
 10
263.591
 20
2.56728
 30
0.0
 11
263.46
 21
2.28341
 31
0.0
  0
LINE
  8
0
 62
     0
 10
263.46
 20
2.28341
 30
0.0
 11
263.306
 21
2.00918
 31
0.0
  0
LINE
  8
0
 62
     0
 10
263.306
 20
2.00918
 30
0.0
 11
263.132
 21
1.74735
 31
0.0
  0
LINE
  8
0
 62
     0
 10
263.132
 20
1.74735
 30
0.0
 11
262.937
 21
1.50068
 31
0.0
  0
LINE
  8
0
 62
     0
 10
262.937
 20
1.50068
 30
0.0
 11
262.724
 21
1.26917
 31
0.0
  0
LINE
  8
0
 62
     0
 10
262.724
 20
1.26917
 30
0.0
 11
262.493
 21
1.05695
 31
0.0
  0
LINE
  8
0
 62
     0
 10
262.493
 20
1.05695
 30
0.0
 11
262.246
 21
0.861275
 31
0.0
  0
LINE
  8
0
 62
     0
 10
262.246
 20
0.861275
 30
0.0
 11
261.984
 21
0.687641
 31
0.0
  0
LINE
  8
0
 62
     0
 10
261.984
 20
0.687641
 30
0.0
 11
261.71
 21
0.533301
 31
0.0
  0
LINE
  8
0
 62
     0
 10
261.71
 20
0.533301
 30
0.0
 11
261.426
 21
0.402389
 31
0.0
  0
LINE
  8
0
 62
     0
 10
261.426
 20
0.402389
 30
0.0
 11
261.131
 21
0.293522
 31
0.0
  0
LINE
  8
0
 62
     0
 10
261.131
 20
0.293522
 30
0.0
 11
260.828
 21
0.209462
 31
0.0
  0
LINE
  8
0
 62
     0
 10
260.828
 20
0.209462
 30
0.0
 11
260.521
 21
0.14745
 31
0.0
  0
LINE
  8
0
 62
     0
 10
260.521
 20
0.14745
 30
0.0
 11
260.208
 21
0.110243
 31
0.0
  0
LINE
  8
0
 62
     0
 10
260.208
 20
0.110243
 30
0.0
 11
259.895
 21
0.0978408
 31
0.0
  0
LINE
  8
0
 62
     0
 10
259.895
 20
0.0978408
 30
0.0
 11
4.09416
 21
0.0978408
 31
0.0
  0
LINE
  8
0
 62
     0
 10
4.09416
 20
0.0978408
 30
0.0
 11
3.78135
 21
0.110243
 31
0.0
  0
LINE
  8
0
 62
     0
 10
3.78135
 20
0.110243
 30
0.0
 11
3.46852
 21
0.14745
 31
0.0
  0
LINE
  8
0
 62
     0
 10
3.46852
 20
0.14745
 30
0.0
 11
3.16122
 21
0.209462
 31
0.0
  0
LINE
  8
0
 62
     0
 10
3.16122
 20
0.209462
 30
0.0
 11
2.85805
 21
0.293522
 31
0.0
  0
LINE
  8
0
 62
     0
 10
2.85805
 20
0.293522
 30
0.0
 11
2.56315
 21
0.402389
 31
0.0
  0
LINE
  8
0
 62
     0
 10
2.56315
 20
0.402389
 30
0.0
 11
2.27928
 21
0.533301
 31
0.0
  0
LINE
  8
0
 62
     0
 10
2.27928
 20
0.533301
 30
0.0
 11
2.00504
 21
0.687641
 31
0.0
  0
LINE
  8
0
 62
     0
 10
2.00504
 20
0.687641
 30
0.0
 11
1.74322
 21
0.861275
 31
0.0
  0
LINE
  8
0
 62
     0
 10
1.74322
 20
0.861275
 30
0.0
 11
1.49655
 21
1.05695
 31
0.0
  0
LINE
  8
0
 62
     0
 10
1.49655
 20
1.05695
 30
0.0
 11
1.26642
 21
1.26917
 31
0.0
  0
LINE
  8
0
 62
     0
 10
1.26642
 20
1.26917
 30
0.0
 11
1.05282
 21
1.50068
 31
0.0
  0
LINE
  8
0
 62
     0
 10
1.05282
 20
1.50068
 30
0.0
 11
0.857141
 21
1.74735
 31
0.0
  0
LINE
  8
0
 62
     0
 10
0.857141
 20
1.74735
 30
0.0
 11
0.683507
 21
2.00918
 31
0.0
  0
LINE
  8
0
 62
     0
 10
0.683507
 20
2.00918
 30
0.0
 11
0.529167
 21
2.28341
 31
0.0
  0
LINE
  8
0
 62
     0
 10
0.529167
 20
2.28341
 30
0.0
 11
0.398254
 21
2.56728
 31
0.0
  0
LINE
  8
0
 62
     0
 10
0.398254
 20
2.56728
 30
0.0
 11
0.289388
 21
2.86219
 31
0.0
  0
LINE
  8
0
 62
     0
 10
0.289388
 20
2.86219
 30
0.0
 11
0.205328
 21
3.16536
 31
0.0
  0
LINE
  8
0
 62
     0
 10
0.205328
 20
3.16536
 30
0.0
 11
0.143316
 21
3.47266
 31
0.0
  0
LINE
  8
0
 62
     0
 10
0.143316
 20
3.47266
 30
0.0
 11
0.106109
 21
3.78548
 31
0.0
  0
LINE
  8
0
 62
     0
 10
0.106109
 20
3.78548
 30
0.0
 11
0.0937066
 21
4.09829
 31
0.0
  0
LINE
  8
0
 62
     0
 10
0.0937066
 20
4.09829
 30
0.0
 11
0.0950846
 21
107.5
 31
0.0
  0
LINE
  8
0
 62
     0
 10
0.0950846
 20
107.5
 30
0.0
 11
0.106109
 21
107.812
 31
0.0
  0
LINE
  8
0
 62
     0
 10
0.106109
 20
107.812
 30
0.0
 11
0.143316
 21
108.125
 31
0.0
  0
LINE
  8
0
 62
     0
 10
0.143316
 20
108.125
 30
0.0
 11
0.205328
 21
108.432
 31
0.0
  0
LINE
  8
0
 62
     0
 10
0.205328
 20
108.432
 30
0.0
 11
0.289388
 21
108.736
 31
0.0
  0
LINE
  8
0
 62
     0
 10
0.289388
 20
108.736
 30
0.0
 11
0.398254
 21
109.031
 31
0.0
  0
LINE
  8
0
 62
     0
 10
0.398254
 20
109.031
 30
0.0
 11
0.529167
 21
109.314
 31
0.0
  0
LINE
  8
0
 62
     0
 10
0.529167
 20
109.314
 30
0.0
 11
0.683507
 21
109.589
 31
0.0
  0
LINE
  8
0
 62
     0
 10
0.683507
 20
109.589
 30
0.0
 11
0.857141
 21
109.85
 31
0.0
  0
LINE
  8
0
 62
     0
 10
0.857141
 20
109.85
 30
0.0
 11
1.05282
 21
110.097
 31
0.0
  0
LINE
  8
0
 62
     0
 10
1.05282
 20
110.097
 30
0.0
 11
1.26642
 21
110.327
 31
0.0
  0
LINE
  8
0
 62
     0
 10
1.26642
 20
110.327
 30
0.0
 11
1.49655
 21
110.541
 31
0.0
  0
LINE
  8
0
 62
     0
 10
1.49655
 20
110.541
 30
0.0
 11
1.74322
 21
110.736
 31
0.0
  0
LINE
  8
0
 62
     0
 10
1.74322
 20
110.736
 30
0.0
 11
2.00504
 21
110.91
 31
0.0
  0
LINE
  8
0
 62
     0
 10
2.00504
 20
110.91
 30
0.0
 11
2.27928
 21
111.064
 31
0.0
  0
LINE
  8
0
 62
     0
 10
2.27928
 20
111.064
 30
0.0
 11
2.56315
 21
111.195
 31
0.0
  0
LINE
  8
0
 62
     0
 10
2.56315
 20
111.195
 30
0.0
 11
2.85805
 21
111.304
 31
0.0
  0
LINE
  8
0
 62
     0
 10
2.85805
 20
111.304
 30
0.0
 11
3.16122
 21
111.388
 31
0.0
  0
LINE
  8
0
 62
     0
 10
3.16122
 20
111.388
 30
0.0
 11
3.46852
 21
111.45
 31
0.0
  0
LINE
  8
0
 62
     0
 10
3.46852
 20
111.45
 30
0.0
 11
3.78135
 21
111.487
 31
0.0
  0
LINE
  8
0
 62
     0
 10
3.78135
 20
111.487
 30
0.0
 11
4.09416
 21
111.5
 31
0.0
  0
LINE
  8
0
 62
     0
 10
4.09416
 20
111.5
 30
0.0
 11
259.895
 21
111.499
 31
0.0
  0
LINE
  8
0
 62
     0
 10
4.27193
 20
5.94212
 30
0.0
 11
4.15202
 21
5.92833
 31
0.0
  0
LINE
  8
0
 62
     0
 10
4.15202
 20
5.92833
 30
0.0
 11
4.03214
 21
5.9049
 31
0.0
  0
LINE
  8
0
 62
     0
 10
4.03214
 20
5.9049
 30
0.0
 11
3.91502
 21
5.87181
 31
0.0
  0
LINE
  8
0
 62
     0
 10
3.91502
 20
5.87181
 30
0.0
 11
3.80062
 21
5.82909
 31
0.0
  0
LINE
  8
0
 62
     0
 10
3.80062
 20
5.82909
 30
0.0
 11
3.69037
 21
5.77811
 31
0.0
  0
LINE
  8
0
 62
     0
 10
3.69037
 20
5.77811
 30
0.0
 11
3.58429
 21
5.72022
 31
0.0
  0
LINE
  8
0
 62
     0
 10
3.58429
 20
5.72022
 30
0.0
 11
3.4823
 21
5.65132
 31
0.0
  0
LINE
  8
0
 62
     0
 10
3.4823
 20
5.65132
 30
0.0
 11
3.38722
 21
5.57692
 31
0.0
  0
LINE
  8
0
 62
     0
 10
3.38722
 20
5.57692
 30
0.0
 11
3.29765
 21
5.49423
 31
0.0
  0
LINE
  8
0
 62
     0
 10
3.29765
 20
5.49423
 30
0.0
 11
3.21359
 21
5.40466
 31
0.0
  0
LINE
  8
0
 62
     0
 10
3.21359
 20
5.40466
 30
0.0
 11
3.13917
 21
5.30821
 31
0.0
  0
LINE
  8
0
 62
     0
 10
3.13917
 20
5.30821
 30
0.0
 11
3.07165
 21
5.2076
 31
0.0
  0
LINE
  8
0
 62
     0
 10
3.07165
 20
5.2076
 30
0.0
 11
3.01239
 21
5.10148
 31
0.0
  0
LINE
  8
0
 62
     0
 10
3.01239
 20
5.10148
 30
0.0
 11
2.9614
 21
4.99124
 31
0.0
  0
LINE
  8
0
 62
     0
 10
2.9614
 20
4.99124
 30
0.0
 11
2.92006
 21
4.87687
 31
0.0
  0
LINE
  8
0
 62
     0
 10
2.92006
 20
4.87687
 30
0.0
 11
2.88699
 21
4.75975
 31
0.0
  0
LINE
  8
0
 62
     0
 10
2.88699
 20
4.75975
 30
0.0
 11
2.86219
 21
4.63984
 31
0.0
  0
LINE
  8
0
 62
     0
 10
2.86219
 20
4.63984
 30
0.0
 11
2.84841
 21
4.51997
 31
0.0
  0
LINE
  8
0
 62
     0
 10
2.84841
 20
4.51997
 30
0.0
 11
2.84427
 21
4.3973
 31
0.0
  0
LINE
  8
0
 62
     0
 10
2.84427
 20
4.3973
 30
0.0
 11
2.84841
 21
4.27605
 31
0.0
  0
LINE
  8
0
 62
     0
 10
2.84841
 20
4.27605
 30
0.0
 11
2.86219
 21
4.15618
 31
0.0
  0
LINE
  8
0
 62
     0
 10
2.86219
 20
4.15618
 30
0.0
 11
2.88699
 21
4.03627
 31
0.0
  0
LINE
  8
0
 62
     0
 10
2.88699
 20
4.03627
 30
0.0
 11
2.92006
 21
3.91915
 31
0.0
  0
LINE
  8
0
 62
     0
 10
2.92006
 20
3.91915
 30
0.0
 11
2.9614
 21
3.80478
 31
0.0
  0
LINE
  8
0
 62
     0
 10
2.9614
 20
3.80478
 30
0.0
 11
3.01239
 21
3.69316
 31
0.0
  0
LINE
  8
0
 62
     0
 10
3.01239
 20
3.69316
 30
0.0
 11
3.07165
 21
3.58842
 31
0.0
  0
LINE
  8
0
 62
     0
 10
3.07165
 20
3.58842
 30
0.0
 11
3.13917
 21
3.48644
 31
0.0
  0
LINE
  8
0
 62
     0
 10
3.13917
 20
3.48644
 30
0.0
 11
3.21359
 21
3.39135
 31
0.0
  0
LINE
  8
0
 62
     0
 10
3.21359
 20
3.39135
 30
0.0
 11
3.29765
 21
3.30178
 31
0.0
  0
LINE
  8
0
 62
     0
 10
3.29765
 20
3.30178
 30
0.0
 11
3.38722
 21
3.2191
 31
0.0
  0
LINE
  8
0
 62
     0
 10
3.38722
 20
3.2191
 30
0.0
 11
3.4823
 21
3.14331
 31
0.0
  0
LINE
  8
0
 62
     0
 10
3.4823
 20
3.14331
 30
0.0
 11
3.58429
 21
3.07578
 31
0.0
  0
LINE
  8
0
 62
     0
 10
3.58429
 20
3.07578
 30
0.0
 11
3.69037
 21
3.01653
 31
0.0
  0
LINE
  8
0
 62
     0
 10
3.69037
 20
3.01653
 30
0.0
 11
3.80062
 21
2.96554
 31
0.0
  0
LINE
  8
0
 62
     0
 10
3.80062
 20
2.96554
 30
0.0
 11
3.91502
 21
2.9242
 31
0.0
  0
LINE
  8
0
 62
     0
 10
3.91502
 20
2.9242
 30
0.0
 11
4.03214
 21
2.89112
 31
0.0
  0
LINE
  8
0
 62
     0
 10
4.03214
 20
2.89112
 30
0.0
 11
4.15202
 21
2.86632
 31
0.0
  0
LINE
  8
0
 62
     0
 10
4.15202
 20
2.86632
 30
0.0
 11
4.27193
 21
2.85254
 31
0.0
  0
LINE
  8
0
 62
     0
 10
4.27193
 20
2.85254
 30
0.0
 11
4.39318
 21
2.84841
 31
0.0
  0
LINE
  8
0
 62
     0
 10
4.39318
 20
2.84841
 30
0.0
 11
4.51584
 21
2.85254
 31
0.0
  0
LINE
  8
0
 62
     0
 10
4.51584
 20
2.85254
 30
0.0
 11
4.63571
 21
2.86632
 31
0.0
  0
LINE
  8
0
 62
     0
 10
4.63571
 20
2.86632
 30
0.0
 11
4.75562
 21
2.89112
 31
0.0
  0
LINE
  8
0
 62
     0
 10
4.75562
 20
2.89112
 30
0.0
 11
4.87274
 21
2.9242
 31
0.0
  0
LINE
  8
0
 62
     0
 10
4.87274
 20
2.9242
 30
0.0
 11
4.98711
 21
2.96554
 31
0.0
  0
LINE
  8
0
 62
     0
 10
4.98711
 20
2.96554
 30
0.0
 11
5.09736
 21
3.01653
 31
0.0
  0
LINE
  8
0
 62
     0
 10
5.09736
 20
3.01653
 30
0.0
 11
5.20347
 21
3.07578
 31
0.0
  0
LINE
  8
0
 62
     0
 10
5.20347
 20
3.07578
 30
0.0
 11
5.30408
 21
3.14331
 31
0.0
  0
LINE
  8
0
 62
     0
 10
5.30408
 20
3.14331
 30
0.0
 11
5.40053
 21
3.2191
 31
0.0
  0
LINE
  8
0
 62
     0
 10
5.40053
 20
3.2191
 30
0.0
 11
5.4901
 21
3.30178
 31
0.0
  0
LINE
  8
0
 62
     0
 10
5.4901
 20
3.30178
 30
0.0
 11
5.5728
 21
3.39135
 31
0.0
  0
LINE
  8
0
 62
     0
 10
5.5728
 20
3.39135
 30
0.0
 11
5.6472
 21
3.48644
 31
0.0
  0
LINE
  8
0
 62
     0
 10
5.6472
 20
3.48644
 30
0.0
 11
5.71609
 21
3.58842
 31
0.0
  0
LINE
  8
0
 62
     0
 10
5.71609
 20
3.58842
 30
0.0
 11
5.77536
 21
3.69316
 31
0.0
  0
LINE
  8
0
 62
     0
 10
5.77536
 20
3.69316
 30
0.0
 11
5.82634
 21
3.80478
 31
0.0
  0
LINE
  8
0
 62
     0
 10
5.82634
 20
3.80478
 30
0.0
 11
5.86768
 21
3.91915
 31
0.0
  0
LINE
  8
0
 62
     0
 10
5.86768
 20
3.91915
 30
0.0
 11
5.90077
 21
4.03627
 31
0.0
  0
LINE
  8
0
 62
     0
 10
5.90077
 20
4.03627
 30
0.0
 11
5.9242
 21
4.15618
 31
0.0
  0
LINE
  8
0
 62
     0
 10
5.9242
 20
4.15618
 30
0.0
 11
5.93933
 21
4.27605
 31
0.0
  0
LINE
  8
0
 62
     0
 10
5.93933
 20
4.27605
 30
0.0
 11
5.94349
 21
4.3973
 31
0.0
  0
LINE
  8
0
 62
     0
 10
5.94349
 20
4.3973
 30
0.0
 11
5.93933
 21
4.51997
 31
0.0
  0
LINE
  8
0
 62
     0
 10
5.93933
 20
4.51997
 30
0.0
 11
5.9242
 21
4.63984
 31
0.0
  0
LINE
  8
0
 62
     0
 10
5.9242
 20
4.63984
 30
0.0
 11
5.90077
 21
4.75975
 31
0.0
  0
LINE
  8
0
 62
     0
 10
5.90077
 20
4.75975
 30
0.0
 11
5.86768
 21
4.87687
 31
0.0
  0
LINE
  8
0
 62
     0
 10
5.86768
 20
4.87687
 30
0.0
 11
5.82634
 21
4.99124
 31
0.0
  0
LINE
  8
0
 62
     0
 10
5.82634
 20
4.99124
 30
0.0
 11
5.77536
 21
5.10148
 31
0.0
  0
LINE
  8
0
 62
     0
 10
5.77536
 20
5.10148
 30
0.0
 11
5.71609
 21
5.2076
 31
0.0
  0
LINE
  8
0
 62
     0
 10
5.71609
 20
5.2076
 30
0.0
 11
5.6472
 21
5.30821
 31
0.0
  0
LINE
  8
0
 62
     0
 10
5.6472
 20
5.30821
 30
0.0
 11
5.5728
 21
5.40466
 31
0.0
  0
LINE
  8
0
 62
     0
 10
5.5728
 20
5.40466
 30
0.0
 11
5.4901
 21
5.49423
 31
0.0
  0
LINE
  8
0
 62
     0
 10
5.4901
 20
5.49423
 30
0.0
 11
5.40053
 21
5.57692
 31
0.0
  0
LINE
  8
0
 62
     0
 10
5.40053
 20
5.57692
 30
0.0
 11
5.30408
 21
5.65132
 31
0.0
  0
LINE
  8
0
 62
     0
 10
5.30408
 20
5.65132
 30
0.0
 11
5.20347
 21
5.72022
 31
0.0
  0
LINE
  8
0
 62
     0
 10
5.20347
 20
5.72022
 30
0.0
 11
5.09736
 21
5.77811
 31
0.0
  0
LINE
  8
0
 62
     0
 10
5.09736
 20
5.77811
 30
0.0
 11
4.98711
 21
5.82909
 31
0.0
  0
LINE
  8
0
 62
     0
 10
4.98711
 20
5.82909
 30
0.0
 11
4.87274
 21
5.87181
 31
0.0
  0
LINE
  8
0
 62
     0
 10
4.87274
 20
5.87181
 30
0.0
 11
4.75562
 21
5.9049
 31
0.0
  0
LINE
  8
0
 62
     0
 10
4.75562
 20
5.9049
 30
0.0
 11
4.63571
 21
5.92833
 31
0.0
  0
LINE
  8
0
 62
     0
 10
4.63571
 20
5.92833
 30
0.0
 11
4.51584
 21
5.94212
 31
0.0
  0
LINE
  8
0
 62
     0
 10
4.51584
 20
5.94212
 30
0.0
 11
4.39318
 21
5.94762
 31
0.0
  0
LINE
  8
0
 62
     0
 10
4.39318
 20
5.94762
 30
0.0
 11
4.27193
 21
5.94212
 31
0.0
  0
LINE
  8
0
 62
     0
 10
259.474
 20
5.94212
 30
0.0
 11
259.354
 21
5.92833
 31
0.0
  0
LINE
  8
0
 62
     0
 10
259.354
 20
5.92833
 30
0.0
 11
259.234
 21
5.9049
 31
0.0
  0
LINE
  8
0
 62
     0
 10
259.234
 20
5.9049
 30
0.0
 11
259.117
 21
5.87181
 31
0.0
  0
LINE
  8
0
 62
     0
 10
259.117
 20
5.87181
 30
0.0
 11
259.002
 21
5.82909
 31
0.0
  0
LINE
  8
0
 62
     0
 10
259.002
 20
5.82909
 30
0.0
 11
258.892
 21
5.77811
 31
0.0
  0
LINE
  8
0
 62
     0
 10
258.892
 20
5.77811
 30
0.0
 11
258.786
 21
5.72022
 31
0.0
  0
LINE
  8
0
 62
     0
 10
258.786
 20
5.72022
 30
0.0
 11
258.685
 21
5.65132
 31
0.0
  0
LINE
  8
0
 62
     0
 10
258.685
 20
5.65132
 30
0.0
 11
258.589
 21
5.57692
 31
0.0
  0
LINE
  8
0
 62
     0
 10
258.589
 20
5.57692
 30
0.0
 11
258.499
 21
5.49423
 31
0.0
  0
LINE
  8
0
 62
     0
 10
258.499
 20
5.49423
 30
0.0
 11
258.417
 21
5.40466
 31
0.0
  0
LINE
  8
0
 62
     0
 10
258.417
 20
5.40466
 30
0.0
 11
258.342
 21
5.30821
 31
0.0
  0
LINE
  8
0
 62
     0
 10
258.342
 20
5.30821
 30
0.0
 11
258.273
 21
5.2076
 31
0.0
  0
LINE
  8
0
 62
     0
 10
258.273
 20
5.2076
 30
0.0
 11
258.215
 21
5.10148
 31
0.0
  0
LINE
  8
0
 62
     0
 10
258.215
 20
5.10148
 30
0.0
 11
258.165
 21
4.99124
 31
0.0
  0
LINE
  8
0
 62
     0
 10
258.165
 20
4.99124
 30
0.0
 11
258.122
 21
4.87687
 31
0.0
  0
LINE
  8
0
 62
     0
 10
258.122
 20
4.87687
 30
0.0
 11
258.089
 21
4.75975
 31
0.0
  0
LINE
  8
0
 62
     0
 10
258.089
 20
4.75975
 30
0.0
 11
258.065
 21
4.63984
 31
0.0
  0
LINE
  8
0
 62
     0
 10
258.065
 20
4.63984
 30
0.0
 11
258.051
 21
4.51997
 31
0.0
  0
LINE
  8
0
 62
     0
 10
258.051
 20
4.51997
 30
0.0
 11
258.046
 21
4.3973
 31
0.0
  0
LINE
  8
0
 62
     0
 10
258.046
 20
4.3973
 30
0.0
 11
258.051
 21
4.27605
 31
0.0
  0
LINE
  8
0
 62
     0
 10
258.051
 20
4.27605
 30
0.0
 11
258.065
 21
4.15618
 31
0.0
  0
LINE
  8
0
 62
     0
 10
258.065
 20
4.15618
 30
0.0
 11
258.089
 21
4.03627
 31
0.0
  0
LINE
  8
0
 62
     0
 10
258.089
 20
4.03627
 30
0.0
 11
258.122
 21
3.91915
 31
0.0
  0
LINE
  8
0
 62
     0
 10
258.122
 20
3.91915
 30
0.0
 11
258.165
 21
3.80478
 31
0.0
  0
LINE
  8
0
 62
     0
 10
258.165
 20
3.80478
 30
0.0
 11
258.215
 21
3.69316
 31
0.0
  0
LINE
  8
0
 62
     0
 10
258.215
 20
3.69316
 30
0.0
 11
258.273
 21
3.58842
 31
0.0
  0
LINE
  8
0
 62
     0
 10
258.273
 20
3.58842
 30
0.0
 11
258.342
 21
3.48644
 31
0.0
  0
LINE
  8
0
 62
     0
 10
258.342
 20
3.48644
 30
0.0
 11
258.417
 21
3.39135
 31
0.0
  0
LINE
  8
0
 62
     0
 10
258.417
 20
3.39135
 30
0.0
 11
258.499
 21
3.30178
 31
0.0
  0
LINE
  8
0
 62
     0
 10
258.499
 20
3.30178
 30
0.0
 11
258.589
 21
3.2191
 31
0.0
  0
LINE
  8
0
 62
     0
 10
258.589
 20
3.2191
 30
0.0
 11
258.685
 21
3.14331
 31
0.0
  0
LINE
  8
0
 62
     0
 10
258.685
 20
3.14331
 30
0.0
 11
258.786
 21
3.07578
 31
0.0
  0
LINE
  8
0
 62
     0
 10
258.786
 20
3.07578
 30
0.0
 11
258.892
 21
3.01653
 31
0.0
  0
LINE
  8
0
 62
     0
 10
258.892
 20
3.01653
 30
0.0
 11
259.002
 21
2.96554
 31
0.0
  0
LINE
  8
0
 62
     0
 10
259.002
 20
2.96554
 30
0.0
 11
259.117
 21
2.9242
 31
0.0
  0
LINE
  8
0
 62
     0
 10
259.117
 20
2.9242
 30
0.0
 11
259.234
 21
2.89112
 31
0.0
  0
LINE
  8
0
 62
     0
 10
259.234
 20
2.89112
 30
0.0
 11
259.354
 21
2.86632
 31
0.0
  0
LINE
  8
0
 62
     0
 10
259.354
 20
2.86632
 30
0.0
 11
259.474
 21
2.85254
 31
0.0
  0
LINE
  8
0
 62
     0
 10
259.474
 20
2.85254
 30
0.0
 11
259.596
 21
2.84841
 31
0.0
  0
LINE
  8
0
 62
     0
 10
259.596
 20
2.84841
 30
0.0
 11
259.717
 21
2.85254
 31
0.0
  0
LINE
  8
0
 62
     0
 10
259.717
 20
2.85254
 30
0.0
 11
259.837
 21
2.86632
 31
0.0
  0
LINE
  8
0
 62
     0
 10
259.837
 20
2.86632
 30
0.0
 11
259.957
 21
2.89112
 31
0.0
  0
LINE
  8
0
 62
     0
 10
259.957
 20
2.89112
 30
0.0
 11
260.074
 21
2.9242
 31
0.0
  0
LINE
  8
0
 62
     0
 10
260.074
 20
2.9242
 30
0.0
 11
260.189
 21
2.96554
 31
0.0
  0
LINE
  8
0
 62
     0
 10
260.189
 20
2.96554
 30
0.0
 11
260.3
 21
3.01653
 31
0.0
  0
LINE
  8
0
 62
     0
 10
260.3
 20
3.01653
 30
0.0
 11
260.405
 21
3.07578
 31
0.0
  0
LINE
  8
0
 62
     0
 10
260.405
 20
3.07578
 30
0.0
 11
260.507
 21
3.14331
 31
0.0
  0
LINE
  8
0
 62
     0
 10
260.507
 20
3.14331
 30
0.0
 11
260.602
 21
3.2191
 31
0.0
  0
LINE
  8
0
 62
     0
 10
260.602
 20
3.2191
 30
0.0
 11
260.692
 21
3.30178
 31
0.0
  0
LINE
  8
0
 62
     0
 10
260.692
 20
3.30178
 30
0.0
 11
260.774
 21
3.39135
 31
0.0
  0
LINE
  8
0
 62
     0
 10
260.774
 20
3.39135
 30
0.0
 11
260.85
 21
3.48644
 31
0.0
  0
LINE
  8
0
 62
     0
 10
260.85
 20
3.48644
 30
0.0
 11
260.918
 21
3.58842
 31
0.0
  0
LINE
  8
0
 62
     0
 10
260.918
 20
3.58842
 30
0.0
 11
260.977
 21
3.69316
 31
0.0
  0
LINE
  8
0
 62
     0
 10
260.977
 20
3.69316
 30
0.0
 11
261.028
 21
3.80478
 31
0.0
  0
LINE
  8
0
 62
     0
 10
261.028
 20
3.80478
 30
0.0
 11
261.069
 21
3.91915
 31
0.0
  0
LINE
  8
0
 62
     0
 10
261.069
 20
3.91915
 30
0.0
 11
261.102
 21
4.03627
 31
0.0
  0
LINE
  8
0
 62
     0
 10
261.102
 20
4.03627
 30
0.0
 11
261.127
 21
4.15618
 31
0.0
  0
LINE
  8
0
 62
     0
 10
261.127
 20
4.15618
 30
0.0
 11
261.141
 21
4.27605
 31
0.0
  0
LINE
  8
0
 62
     0
 10
261.141
 20
4.27605
 30
0.0
 11
261.145
 21
4.3973
 31
0.0
  0
LINE
  8
0
 62
     0
 10
261.145
 20
4.3973
 30
0.0
 11
261.141
 21
4.51997
 31
0.0
  0
LINE
  8
0
 62
     0
 10
261.141
 20
4.51997
 30
0.0
 11
261.127
 21
4.63984
 31
0.0
  0
LINE
  8
0
 62
     0
 10
261.127
 20
4.63984
 30
0.0
 11
261.102
 21
4.75975
 31
0.0
  0
LINE
  8
0
 62
     0
 10
261.102
 20
4.75975
 30
0.0
 11
261.069
 21
4.87687
 31
0.0
  0
LINE
  8
0
 62
     0
 10
261.069
 20
4.87687
 30
0.0
 11
261.028
 21
4.99124
 31
0.0
  0
LINE
  8
0
 62
     0
 10
261.028
 20
4.99124
 30
0.0
 11
260.977
 21
5.10148
 31
0.0
  0
LINE
  8
0
 62
     0
 10
260.977
 20
5.10148
 30
0.0
 11
260.918
 21
5.2076
 31
0.0
  0
LINE
  8
0
 62
     0
 10
260.918
 20
5.2076
 30
0.0
 11
260.85
 21
5.30821
 31
0.0
  0
LINE
  8
0
 62
     0
 10
260.85
 20
5.30821
 30
0.0
 11
260.774
 21
5.40466
 31
0.0
  0
LINE
  8
0
 62
     0
 10
260.774
 20
5.40466
 30
0.0
 11
260.692
 21
5.49423
 31
0.0
  0
LINE
  8
0
 62
     0
 10
260.692
 20
5.49423
 30
0.0
 11
260.602
 21
5.57692
 31
0.0
  0
LINE
  8
0
 62
     0
 10
260.602
 20
5.57692
 30
0.0
 11
260.507
 21
5.65132
 31
0.0
  0
LINE
  8
0
 62
     0
 10
260.507
 20
5.65132
 30
0.0
 11
260.405
 21
5.72022
 31
0.0
  0
LINE
  8
0
 62
     0
 10
260.405
 20
5.72022
 30
0.0
 11
260.3
 21
5.77811
 31
0.0
  0
LINE
  8
0
 62
     0
 10
260.3
 20
5.77811
 30
0.0
 11
260.189
 21
5.82909
 31
0.0
  0
LINE
  8
0
 62
     0
 10
260.189
 20
5.82909
 30
0.0
 11
260.074
 21
5.87181
 31
0.0
  0
LINE
  8
0
 62
     0
 10
260.074
 20
5.87181
 30
0.0
 11
259.957
 21
5.9049
 31
0.0
  0
LINE
  8
0
 62
     0
 10
259.957
 20
5.9049
 30
0.0
 11
259.837
 21
5.92833
 31
0.0
  0
LINE
  8
0
 62
     0
 10
259.837
 20
5.92833
 30
0.0
 11
259.717
 21
5.94212
 31
0.0
  0
LINE
  8
0
 62
     0
 10
259.717
 20
5.94212
 30
0.0
 11
259.596
 21
5.94762
 31
0.0
  0
LINE
  8
0
 62
     0
 10
259.596
 20
5.94762
 30
0.0
 11
259.474
 21
5.94212
 31
0.0
  0
LINE
  8
0
 62
     0
 10
72.5124
 20
66.3208
 30
0.0
 11
72.4352
 21
66.3113
 31
0.0
  0
LINE
  8
0
 62
     0
 10
72.4352
 20
66.3113
 30
0.0
 11
72.3579
 21
66.2961
 31
0.0
  0
LINE
  8
0
 62
     0
 10
72.3579
 20
66.2961
 30
0.0
 11
72.2824
 21
66.2753
 31
0.0
  0
LINE
  8
0
 62
     0
 10
72.2824
 20
66.2753
 30
0.0
 11
72.208
 21
66.2478
 31
0.0
  0
LINE
  8
0
 62
     0
 10
72.208
 20
66.2478
 30
0.0
 11
72.136
 21
66.2146
 31
0.0
  0
LINE
  8
0
 62
     0
 10
72.136
 20
66.2146
 30
0.0
 11
72.0686
 21
66.1762
 31
0.0
  0
LINE
  8
0
 62
     0
 10
72.0686
 20
66.1762
 30
0.0
 11
72.0027
 21
66.1335
 31
0.0
  0
LINE
  8
0
 62
     0
 10
72.0027
 20
66.1335
 30
0.0
 11
71.942
 21
66.0837
 31
0.0
  0
LINE
  8
0
 62
     0
 10
71.942
 20
66.0837
 30
0.0
 11
71.8841
 21
66.0315
 31
0.0
  0
LINE
  8
0
 62
     0
 10
71.8841
 20
66.0315
 30
0.0
 11
71.8301
 21
65.9723
 31
0.0
  0
LINE
  8
0
 62
     0
 10
71.8301
 20
65.9723
 30
0.0
 11
71.7822
 21
65.9116
 31
0.0
  0
LINE
  8
0
 62
     0
 10
71.7822
 20
65.9116
 30
0.0
 11
71.7381
 21
65.8453
 31
0.0
  0
LINE
  8
0
 62
     0
 10
71.7381
 20
65.8453
 30
0.0
 11
71.6993
 21
65.7779
 31
0.0
  0
LINE
  8
0
 62
     0
 10
71.6993
 20
65.7779
 30
0.0
 11
71.6661
 21
65.7063
 31
0.0
  0
LINE
  8
0
 62
     0
 10
71.6661
 20
65.7063
 30
0.0
 11
71.64
 21
65.6332
 31
0.0
  0
LINE
  8
0
 62
     0
 10
71.64
 20
65.6332
 30
0.0
 11
71.6195
 21
65.5574
 31
0.0
  0
LINE
  8
0
 62
     0
 10
71.6195
 20
65.5574
 30
0.0
 11
71.603
 21
65.4801
 31
0.0
  0
LINE
  8
0
 62
     0
 10
71.603
 20
65.4801
 30
0.0
 11
71.5931
 21
65.4018
 31
0.0
  0
LINE
  8
0
 62
     0
 10
71.5931
 20
65.4018
 30
0.0
 11
71.5906
 21
65.3232
 31
0.0
  0
LINE
  8
0
 62
     0
 10
71.5906
 20
65.3232
 30
0.0
 11
71.5931
 21
65.2459
 31
0.0
  0
LINE
  8
0
 62
     0
 10
71.5931
 20
65.2459
 30
0.0
 11
71.603
 21
65.1676
 31
0.0
  0
LINE
  8
0
 62
     0
 10
71.603
 20
65.1676
 30
0.0
 11
71.6195
 21
65.0903
 31
0.0
  0
LINE
  8
0
 62
     0
 10
71.6195
 20
65.0903
 30
0.0
 11
71.64
 21
65.0145
 31
0.0
  0
LINE
  8
0
 62
     0
 10
71.64
 20
65.0145
 30
0.0
 11
71.6661
 21
64.9414
 31
0.0
  0
LINE
  8
0
 62
     0
 10
71.6661
 20
64.9414
 30
0.0
 11
71.6993
 21
64.8698
 31
0.0
  0
LINE
  8
0
 62
     0
 10
71.6993
 20
64.8698
 30
0.0
 11
71.7381
 21
64.8021
 31
0.0
  0
LINE
  8
0
 62
     0
 10
71.7381
 20
64.8021
 30
0.0
 11
71.7822
 21
64.7361
 31
0.0
  0
LINE
  8
0
 62
     0
 10
71.7822
 20
64.7361
 30
0.0
 11
71.8301
 21
64.6755
 31
0.0
  0
LINE
  8
0
 62
     0
 10
71.8301
 20
64.6755
 30
0.0
 11
71.8841
 21
64.6162
 31
0.0
  0
LINE
  8
0
 62
     0
 10
71.8841
 20
64.6162
 30
0.0
 11
71.942
 21
64.564
 31
0.0
  0
LINE
  8
0
 62
     0
 10
71.942
 20
64.564
 30
0.0
 11
72.0027
 21
64.5142
 31
0.0
  0
LINE
  8
0
 62
     0
 10
72.0027
 20
64.5142
 30
0.0
 11
72.0686
 21
64.4701
 31
0.0
  0
LINE
  8
0
 62
     0
 10
72.0686
 20
64.4701
 30
0.0
 11
72.136
 21
64.4331
 31
0.0
  0
LINE
  8
0
 62
     0
 10
72.136
 20
64.4331
 30
0.0
 11
72.208
 21
64.3999
 31
0.0
  0
LINE
  8
0
 62
     0
 10
72.208
 20
64.3999
 30
0.0
 11
72.2824
 21
64.3724
 31
0.0
  0
LINE
  8
0
 62
     0
 10
72.2824
 20
64.3724
 30
0.0
 11
72.3579
 21
64.3516
 31
0.0
  0
LINE
  8
0
 62
     0
 10
72.3579
 20
64.3516
 30
0.0
 11
72.4352
 21
64.3364
 31
0.0
  0
LINE
  8
0
 62
     0
 10
72.4352
 20
64.3364
 30
0.0
 11
72.5124
 21
64.3269
 31
0.0
  0
LINE
  8
0
 62
     0
 10
72.5124
 20
64.3269
 30
0.0
 11
72.5911
 21
64.3241
 31
0.0
  0
LINE
  8
0
 62
     0
 10
72.5911
 20
64.3241
 30
0.0
 11
72.668
 21
64.3269
 31
0.0
  0
LINE
  8
0
 62
     0
 10
72.668
 20
64.3269
 30
0.0
 11
72.7467
 21
64.3364
 31
0.0
  0
LINE
  8
0
 62
     0
 10
72.7467
 20
64.3364
 30
0.0
 11
72.8239
 21
64.3516
 31
0.0
  0
LINE
  8
0
 62
     0
 10
72.8239
 20
64.3516
 30
0.0
 11
72.8998
 21
64.3724
 31
0.0
  0
LINE
  8
0
 62
     0
 10
72.8998
 20
64.3724
 30
0.0
 11
72.9738
 21
64.3999
 31
0.0
  0
LINE
  8
0
 62
     0
 10
72.9738
 20
64.3999
 30
0.0
 11
73.0444
 21
64.4331
 31
0.0
  0
LINE
  8
0
 62
     0
 10
73.0444
 20
64.4331
 30
0.0
 11
73.1132
 21
64.4701
 31
0.0
  0
LINE
  8
0
 62
     0
 10
73.1132
 20
64.4701
 30
0.0
 11
73.1795
 21
64.5142
 31
0.0
  0
LINE
  8
0
 62
     0
 10
73.1795
 20
64.5142
 30
0.0
 11
73.2398
 21
64.564
 31
0.0
  0
LINE
  8
0
 62
     0
 10
73.2398
 20
64.564
 30
0.0
 11
73.2977
 21
64.6162
 31
0.0
  0
LINE
  8
0
 62
     0
 10
73.2977
 20
64.6162
 30
0.0
 11
73.3503
 21
64.6755
 31
0.0
  0
LINE
  8
0
 62
     0
 10
73.3503
 20
64.6755
 30
0.0
 11
73.4
 21
64.7361
 31
0.0
  0
LINE
  8
0
 62
     0
 10
73.4
 20
64.7361
 30
0.0
 11
73.4441
 21
64.8021
 31
0.0
  0
LINE
  8
0
 62
     0
 10
73.4441
 20
64.8021
 30
0.0
 11
73.4811
 21
64.8698
 31
0.0
  0
LINE
  8
0
 62
     0
 10
73.4811
 20
64.8698
 30
0.0
 11
73.5143
 21
64.9414
 31
0.0
  0
LINE
  8
0
 62
     0
 10
73.5143
 20
64.9414
 30
0.0
 11
73.5418
 21
65.0145
 31
0.0
  0
LINE
  8
0
 62
     0
 10
73.5418
 20
65.0145
 30
0.0
 11
73.5623
 21
65.0903
 31
0.0
  0
LINE
  8
0
 62
     0
 10
73.5623
 20
65.0903
 30
0.0
 11
73.5789
 21
65.1676
 31
0.0
  0
LINE
  8
0
 62
     0
 10
73.5789
 20
65.1676
 30
0.0
 11
73.5873
 21
65.2459
 31
0.0
  0
LINE
  8
0
 62
     0
 10
73.5873
 20
65.2459
 30
0.0
 11
73.5912
 21
65.3232
 31
0.0
  0
LINE
  8
0
 62
     0
 10
73.5912
 20
65.3232
 30
0.0
 11
73.5873
 21
65.4018
 31
0.0
  0
LINE
  8
0
 62
     0
 10
73.5873
 20
65.4018
 30
0.0
 11
73.5789
 21
65.4801
 31
0.0
  0
LINE
  8
0
 62
     0
 10
73.5789
 20
65.4801
 30
0.0
 11
73.5623
 21
65.5574
 31
0.0
  0
LINE
  8
0
 62
     0
 10
73.5623
 20
65.5574
 30
0.0
 11
73.5418
 21
65.6332
 31
0.0
  0
LINE
  8
0
 62
     0
 10
73.5418
 20
65.6332
 30
0.0
 11
73.5143
 21
65.7063
 31
0.0
  0
LINE
  8
0
 62
     0
 10
73.5143
 20
65.7063
 30
0.0
 11
73.4811
 21
65.7779
 31
0.0
  0
LINE
  8
0
 62
     0
 10
73.4811
 20
65.7779
 30
0.0
 11
73.4441
 21
65.8453
 31
0.0
  0
LINE
  8
0
 62
     0
 10
73.4441
 20
65.8453
 30
0.0
 11
73.4
 21
65.9116
 31
0.0
  0
LINE
  8
0
 62
     0
 10
73.4
 20
65.9116
 30
0.0
 11
73.3503
 21
65.9723
 31
0.0
  0
LINE
  8
0
 62
     0
 10
73.3503
 20
65.9723
 30
0.0
 11
73.2977
 21
66.0315
 31
0.0
  0
LINE
  8
0
 62
     0
 10
73.2977
 20
66.0315
 30
0.0
 11
73.2398
 21
66.0837
 31
0.0
  0
LINE
  8
0
 62
     0
 10
73.2398
 20
66.0837
 30
0.0
 11
73.1795
 21
66.1335
 31
0.0
  0
LINE
  8
0
 62
     0
 10
73.1795
 20
66.1335
 30
0.0
 11
73.1132
 21
66.1762
 31
0.0
  0
LINE
  8
0
 62
     0
 10
73.1132
 20
66.1762
 30
0.0
 11
73.0444
 21
66.2146
 31
0.0
  0
LINE
  8
0
 62
     0
 10
73.0444
 20
66.2146
 30
0.0
 11
72.9738
 21
66.2478
 31
0.0
  0
LINE
  8
0
 62
     0
 10
72.9738
 20
66.2478
 30
0.0
 11
72.8998
 21
66.2753
 31
0.0
  0
LINE
  8
0
 62
     0
 10
72.8998
 20
66.2753
 30
0.0
 11
72.8239
 21
66.2961
 31
0.0
  0
LINE
  8
0
 62
     0
 10
72.8239
 20
66.2961
 30
0.0
 11
72.7467
 21
66.3113
 31
0.0
  0
LINE
  8
0
 62
     0
 10
72.7467
 20
66.3113
 30
0.0
 11
72.668
 21
66.3208
 31
0.0
  0
LINE
  8
0
 62
     0
 10
72.668
 20
66.3208
 30
0.0
 11
72.5911
 21
66.3236
 31
0.0
  0
LINE
  8
0
 62
     0
 10
72.5911
 20
66.3236
 30
0.0
 11
72.5124
 21
66.3208
 31
0.0
  0
LINE
  8
0
 62
     0
 10
4.27193
 20
108.745
 30
0.0
 11
4.15202
 21
108.731
 31
0.0
  0
LINE
  8
0
 62
     0
 10
4.15202
 20
108.731
 30
0.0
 11
4.03214
 21
108.707
 31
0.0
  0
LINE
  8
0
 62
     0
 10
4.03214
 20
108.707
 30
0.0
 11
3.91502
 21
108.674
 31
0.0
  0
LINE
  8
0
 62
     0
 10
3.91502
 20
108.674
 30
0.0
 11
3.80062
 21
108.632
 31
0.0
  0
LINE
  8
0
 62
     0
 10
3.80062
 20
108.632
 30
0.0
 11
3.69037
 21
108.581
 31
0.0
  0
LINE
  8
0
 62
     0
 10
3.69037
 20
108.581
 30
0.0
 11
3.58429
 21
108.522
 31
0.0
  0
LINE
  8
0
 62
     0
 10
3.58429
 20
108.522
 30
0.0
 11
3.4823
 21
108.454
 31
0.0
  0
LINE
  8
0
 62
     0
 10
3.4823
 20
108.454
 30
0.0
 11
3.38722
 21
108.38
 31
0.0
  0
LINE
  8
0
 62
     0
 10
3.38722
 20
108.38
 30
0.0
 11
3.29765
 21
108.296
 31
0.0
  0
LINE
  8
0
 62
     0
 10
3.29765
 20
108.296
 30
0.0
 11
3.21359
 21
108.206
 31
0.0
  0
LINE
  8
0
 62
     0
 10
3.21359
 20
108.206
 30
0.0
 11
3.13917
 21
108.111
 31
0.0
  0
LINE
  8
0
 62
     0
 10
3.13917
 20
108.111
 30
0.0
 11
3.07165
 21
108.009
 31
0.0
  0
LINE
  8
0
 62
     0
 10
3.07165
 20
108.009
 30
0.0
 11
3.01239
 21
107.903
 31
0.0
  0
LINE
  8
0
 62
     0
 10
3.01239
 20
107.903
 30
0.0
 11
2.9614
 21
107.793
 31
0.0
  0
LINE
  8
0
 62
     0
 10
2.9614
 20
107.793
 30
0.0
 11
2.92006
 21
107.678
 31
0.0
  0
LINE
  8
0
 62
     0
 10
2.92006
 20
107.678
 30
0.0
 11
2.88699
 21
107.561
 31
0.0
  0
LINE
  8
0
 62
     0
 10
2.88699
 20
107.561
 30
0.0
 11
2.86219
 21
107.442
 31
0.0
  0
LINE
  8
0
 62
     0
 10
2.86219
 20
107.442
 30
0.0
 11
2.84841
 21
107.322
 31
0.0
  0
LINE
  8
0
 62
     0
 10
2.84841
 20
107.322
 30
0.0
 11
2.84427
 21
107.2
 31
0.0
  0
LINE
  8
0
 62
     0
 10
2.84427
 20
107.2
 30
0.0
 11
2.84841
 21
107.078
 31
0.0
  0
LINE
  8
0
 62
     0
 10
2.84841
 20
107.078
 30
0.0
 11
2.86219
 21
106.958
 31
0.0
  0
LINE
  8
0
 62
     0
 10
2.86219
 20
106.958
 30
0.0
 11
2.88699
 21
106.838
 31
0.0
  0
LINE
  8
0
 62
     0
 10
2.88699
 20
106.838
 30
0.0
 11
2.92006
 21
106.721
 31
0.0
  0
LINE
  8
0
 62
     0
 10
2.92006
 20
106.721
 30
0.0
 11
2.9614
 21
106.606
 31
0.0
  0
LINE
  8
0
 62
     0
 10
2.9614
 20
106.606
 30
0.0
 11
3.01239
 21
106.496
 31
0.0
  0
LINE
  8
0
 62
     0
 10
3.01239
 20
106.496
 30
0.0
 11
3.07165
 21
106.39
 31
0.0
  0
LINE
  8
0
 62
     0
 10
3.07165
 20
106.39
 30
0.0
 11
3.13917
 21
106.289
 31
0.0
  0
LINE
  8
0
 62
     0
 10
3.13917
 20
106.289
 30
0.0
 11
3.21359
 21
106.193
 31
0.0
  0
LINE
  8
0
 62
     0
 10
3.21359
 20
106.193
 30
0.0
 11
3.29765
 21
106.104
 31
0.0
  0
LINE
  8
0
 62
     0
 10
3.29765
 20
106.104
 30
0.0
 11
3.38722
 21
106.021
 31
0.0
  0
LINE
  8
0
 62
     0
 10
3.38722
 20
106.021
 30
0.0
 11
3.4823
 21
105.946
 31
0.0
  0
LINE
  8
0
 62
     0
 10
3.4823
 20
105.946
 30
0.0
 11
3.58429
 21
105.877
 31
0.0
  0
LINE
  8
0
 62
     0
 10
3.58429
 20
105.877
 30
0.0
 11
3.69037
 21
105.818
 31
0.0
  0
LINE
  8
0
 62
     0
 10
3.69037
 20
105.818
 30
0.0
 11
3.80062
 21
105.767
 31
0.0
  0
LINE
  8
0
 62
     0
 10
3.80062
 20
105.767
 30
0.0
 11
3.91502
 21
105.726
 31
0.0
  0
LINE
  8
0
 62
     0
 10
3.91502
 20
105.726
 30
0.0
 11
4.03214
 21
105.693
 31
0.0
  0
LINE
  8
0
 62
     0
 10
4.03214
 20
105.693
 30
0.0
 11
4.15202
 21
105.669
 31
0.0
  0
LINE
  8
0
 62
     0
 10
4.15202
 20
105.669
 30
0.0
 11
4.27193
 21
105.654
 31
0.0
  0
LINE
  8
0
 62
     0
 10
4.27193
 20
105.654
 30
0.0
 11
4.39318
 21
105.65
 31
0.0
  0
LINE
  8
0
 62
     0
 10
4.39318
 20
105.65
 30
0.0
 11
4.51584
 21
105.654
 31
0.0
  0
LINE
  8
0
 62
     0
 10
4.51584
 20
105.654
 30
0.0
 11
4.63571
 21
105.669
 31
0.0
  0
LINE
  8
0
 62
     0
 10
4.63571
 20
105.669
 30
0.0
 11
4.75562
 21
105.693
 31
0.0
  0
LINE
  8
0
 62
     0
 10
4.75562
 20
105.693
 30
0.0
 11
4.87274
 21
105.726
 31
0.0
  0
LINE
  8
0
 62
     0
 10
4.87274
 20
105.726
 30
0.0
 11
4.98711
 21
105.767
 31
0.0
  0
LINE
  8
0
 62
     0
 10
4.98711
 20
105.767
 30
0.0
 11
5.09736
 21
105.818
 31
0.0
  0
LINE
  8
0
 62
     0
 10
5.09736
 20
105.818
 30
0.0
 11
5.20347
 21
105.877
 31
0.0
  0
LINE
  8
0
 62
     0
 10
5.20347
 20
105.877
 30
0.0
 11
5.30408
 21
105.946
 31
0.0
  0
LINE
  8
0
 62
     0
 10
5.30408
 20
105.946
 30
0.0
 11
5.40053
 21
106.021
 31
0.0
  0
LINE
  8
0
 62
     0
 10
5.40053
 20
106.021
 30
0.0
 11
5.4901
 21
106.104
 31
0.0
  0
LINE
  8
0
 62
     0
 10
5.4901
 20
106.104
 30
0.0
 11
5.5728
 21
106.193
 31
0.0
  0
LINE
  8
0
 62
     0
 10
5.5728
 20
106.193
 30
0.0
 11
5.6472
 21
106.289
 31
0.0
  0
LINE
  8
0
 62
     0
 10
5.6472
 20
106.289
 30
0.0
 11
5.71609
 21
106.39
 31
0.0
  0
LINE
  8
0
 62
     0
 10
5.71609
 20
106.39
 30
0.0
 11
5.77536
 21
106.496
 31
0.0
  0
LINE
  8
0
 62
     0
 10
5.77536
 20
106.496
 30
0.0
 11
5.82634
 21
106.606
 31
0.0
  0
LINE
  8
0
 62
     0
 10
5.82634
 20
106.606
 30
0.0
 11
5.86768
 21
106.721
 31
0.0
  0
LINE
  8
0
 62
     0
 10
5.86768
 20
106.721
 30
0.0
 11
5.90077
 21
106.838
 31
0.0
  0
LINE
  8
0
 62
     0
 10
5.90077
 20
106.838
 30
0.0
 11
5.9242
 21
106.958
 31
0.0
  0
LINE
  8
0
 62
     0
 10
5.9242
 20
106.958
 30
0.0
 11
5.93933
 21
107.078
 31
0.0
  0
LINE
  8
0
 62
     0
 10
5.93933
 20
107.078
 30
0.0
 11
5.94349
 21
107.2
 31
0.0
  0
LINE
  8
0
 62
     0
 10
5.94349
 20
107.2
 30
0.0
 11
5.93933
 21
107.322
 31
0.0
  0
LINE
  8
0
 62
     0
 10
5.93933
 20
107.322
 30
0.0
 11
5.9242
 21
107.442
 31
0.0
  0
LINE
  8
0
 62
     0
 10
5.9242
 20
107.442
 30
0.0
 11
5.90077
 21
107.561
 31
0.0
  0
LINE
  8
0
 62
     0
 10
5.90077
 20
107.561
 30
0.0
 11
5.86768
 21
107.678
 31
0.0
  0
LINE
  8
0
 62
     0
 10
5.86768
 20
107.678
 30
0.0
 11
5.82634
 21
107.793
 31
0.0
  0
LINE
  8
0
 62
     0
 10
5.82634
 20
107.793
 30
0.0
 11
5.77536
 21
107.903
 31
0.0
  0
LINE
  8
0
 62
     0
 10
5.77536
 20
107.903
 30
0.0
 11
5.71609
 21
108.009
 31
0.0
  0
LINE
  8
0
 62
     0
 10
5.71609
 20
108.009
 30
0.0
 11
5.6472
 21
108.111
 31
0.0
  0
LINE
  8
0
 62
     0
 10
5.6472
 20
108.111
 30
0.0
 11
5.5728
 21
108.206
 31
0.0
  0
LINE
  8
0
 62
     0
 10
5.5728
 20
108.206
 30
0.0
 11
5.4901
 21
108.296
 31
0.0
  0
LINE
  8
0
 62
     0
 10
5.4901
 20
108.296
 30
0.0
 11
5.40053
 21
108.38
 31
0.0
  0
LINE
  8
0
 62
     0
 10
5.40053
 20
108.38
 30
0.0
 11
5.30408
 21
108.454
 31
0.0
  0
LINE
  8
0
 62
     0
 10
5.30408
 20
108.454
 30
0.0
 11
5.20347
 21
108.522
 31
0.0
  0
LINE
  8
0
 62
     0
 10
5.20347
 20
108.522
 30
0.0
 11
5.09736
 21
108.581
 31
0.0
  0
LINE
  8
0
 62
     0
 10
5.09736
 20
108.581
 30
0.0
 11
4.98711
 21
108.632
 31
0.0
  0
LINE
  8
0
 62
     0
 10
4.98711
 20
108.632
 30
0.0
 11
4.87274
 21
108.674
 31
0.0
  0
LINE
  8
0
 62
     0
 10
4.87274
 20
108.674
 30
0.0
 11
4.75562
 21
108.707
 31
0.0
  0
LINE
  8
0
 62
     0
 10
4.75562
 20
108.707
 30
0.0
 11
4.63571
 21
108.731
 31
0.0
  0
LINE
  8
0
 62
     0
 10
4.63571
 20
108.731
 30
0.0
 11
4.51584
 21
108.745
 31
0.0
  0
LINE
  8
0
 62
     0
 10
4.51584
 20
108.745
 30
0.0
 11
4.39318
 21
108.749
 31
0.0
  0
LINE
  8
0
 62
     0
 10
4.39318
 20
108.749
 30
0.0
 11
4.27193
 21
108.745
 31
0.0
  0
LINE
  8
0
 62
     0
 10
259.474
 20
108.745
 30
0.0
 11
259.354
 21
108.731
 31
0.0
  0
LINE
  8
0
 62
     0
 10
259.354
 20
108.731
 30
0.0
 11
259.234
 21
108.707
 31
0.0
  0
LINE
  8
0
 62
     0
 10
259.234
 20
108.707
 30
0.0
 11
259.117
 21
108.674
 31
0.0
  0
LINE
  8
0
 62
     0
 10
259.117
 20
108.674
 30
0.0
 11
259.002
 21
108.632
 31
0.0
  0
LINE
  8
0
 62
     0
 10
259.002
 20
108.632
 30
0.0
 11
258.892
 21
108.581
 31
0.0
  0
LINE
  8
0
 62
     0
 10
258.892
 20
108.581
 30
0.0
 11
258.786
 21
108.522
 31
0.0
  0
LINE
  8
0
 62
     0
 10
258.786
 20
108.522
 30
0.0
 11
258.685
 21
108.454
 31
0.0
  0
LINE
  8
0
 62
     0
 10
258.685
 20
108.454
 30
0.0
 11
258.589
 21
108.38
 31
0.0
  0
LINE
  8
0
 62
     0
 10
258.589
 20
108.38
 30
0.0
 11
258.499
 21
108.296
 31
0.0
  0
LINE
  8
0
 62
     0
 10
258.499
 20
108.296
 30
0.0
 11
258.417
 21
108.206
 31
0.0
  0
LINE
  8
0
 62
     0
 10
258.417
 20
108.206
 30
0.0
 11
258.342
 21
108.111
 31
0.0
  0
LINE
  8
0
 62
     0
 10
258.342
 20
108.111
 30
0.0
 11
258.273
 21
108.009
 31
0.0
  0
LINE
  8
0
 62
     0
 10
258.273
 20
108.009
 30
0.0
 11
258.215
 21
107.903
 31
0.0
  0
LINE
  8
0
 62
     0
 10
258.215
 20
107.903
 30
0.0
 11
258.165
 21
107.793
 31
0.0
  0
LINE
  8
0
 62
     0
 10
258.165
 20
107.793
 30
0.0
 11
258.122
 21
107.678
 31
0.0
  0
LINE
  8
0
 62
     0
 10
258.122
 20
107.678
 30
0.0
 11
258.089
 21
107.561
 31
0.0
  0
LINE
  8
0
 62
     0
 10
258.089
 20
107.561
 30
0.0
 11
258.065
 21
107.442
 31
0.0
  0
LINE
  8
0
 62
     0
 10
258.065
 20
107.442
 30
0.0
 11
258.051
 21
107.322
 31
0.0
  0
LINE
  8
0
 62
     0
 10
258.051
 20
107.322
 30
0.0
 11
258.046
 21
107.2
 31
0.0
  0
LINE
  8
0
 62
     0
 10
258.046
 20
107.2
 30
0.0
 11
258.051
 21
107.078
 31
0.0
  0
LINE
  8
0
 62
     0
 10
258.051
 20
107.078
 30
0.0
 11
258.065
 21
106.958
 31
0.0
  0
LINE
  8
0
 62
     0
 10
258.065
 20
106.958
 30
0.0
 11
258.089
 21
106.838
 31
0.0
  0
LINE
  8
0
 62
     0
 10
258.089
 20
106.838
 30
0.0
 11
258.122
 21
106.721
 31
0.0
  0
LINE
  8
0
 62
     0
 10
258.122
 20
106.721
 30
0.0
 11
258.165
 21
106.606
 31
0.0
  0
LINE
  8
0
 62
     0
 10
258.165
 20
106.606
 30
0.0
 11
258.215
 21
106.496
 31
0.0
  0
LINE
  8
0
 62
     0
 10
258.215
 20
106.496
 30
0.0
 11
258.273
 21
106.39
 31
0.0
  0
LINE
  8
0
 62
     0
 10
258.273
 20
106.39
 30
0.0
 11
258.342
 21
106.289
 31
0.0
  0
LINE
  8
0
 62
     0
 10
258.342
 20
106.289
 30
0.0
 11
258.417
 21
106.193
 31
0.0
  0
LINE
  8
0
 62
     0
 10
258.417
 20
106.193
 30
0.0
 11
258.499
 21
106.104
 31
0.0
  0
LINE
  8
0
 62
     0
 10
258.499
 20
106.104
 30
0.0
 11
258.589
 21
106.021
 31
0.0
  0
LINE
  8
0
 62
     0
 10
258.589
 20
106.021
 30
0.0
 11
258.685
 21
105.946
 31
0.0
  0
LINE
  8
0
 62
     0
 10
258.685
 20
105.946
 30
0.0
 11
258.786
 21
105.877
 31
0.0
  0
LINE
  8
0
 62
     0
 10
258.786
 20
105.877
 30
0.0
 11
258.892
 21
105.818
 31
0.0
  0
LINE
  8
0
 62
     0
 10
258.892
 20
105.818
 30
0.0
 11
259.002
 21
105.767
 31
0.0
  0
LINE
  8
0
 62
     0
 10
259.002
 20
105.767
 30
0.0
 11
259.117
 21
105.726
 31
0.0
  0
LINE
  8
0
 62
     0
 10
259.117
 20
105.726
 30
0.0
 11
259.234
 21
105.693
 31
0.0
  0
LINE
  8
0
 62
     0
 10
259.234
 20
105.693
 30
0.0
 11
259.354
 21
105.669
 31
0.0
  0
LINE
  8
0
 62
     0
 10
259.354
 20
105.669
 30
0.0
 11
259.474
 21
105.654
 31
0.0
  0
LINE
  8
0
 62
     0
 10
259.474
 20
105.654
 30
0.0
 11
259.596
 21
105.65
 31
0.0
  0
LINE
  8
0
 62
     0
 10
259.596
 20
105.65
 30
0.0
 11
259.717
 21
105.654
 31
0.0
  0
LINE
  8
0
 62
     0
 10
259.717
 20
105.654
 30
0.0
 11
259.837
 21
105.669
 31
0.0
  0
LINE
  8
0
 62
     0
 10
259.837
 20
105.669
 30
0.0
 11
259.957
 21
105.693
 31
0.0
  0
LINE
  8
0
 62
     0
 10
259.957
 20
105.693
 30
0.0
 11
260.074
 21
105.726
 31
0.0
  0
LINE
  8
0
 62
     0
 10
260.074
 20
105.726
 30
0.0
 11
260.189
 21
105.767
 31
0.0
  0
LINE
  8
0
 62
     0
 10
260.189
 20
105.767
 30
0.0
 11
260.3
 21
105.818
 31
0.0
  0
LINE
  8
0
 62
     0
 10
260.3
 20
105.818
 30
0.0
 11
260.405
 21
105.877
 31
0.0
  0
LINE
  8
0
 62
     0
 10
260.405
 20
105.877
 30
0.0
 11
260.507
 21
105.946
 31
0.0
  0
LINE
  8
0
 62
     0
 10
260.507
 20
105.946
 30
0.0
 11
260.602
 21
106.021
 31
0.0
  0
LINE
  8
0
 62
     0
 10
260.602
 20
106.021
 30
0.0
 11
260.692
 21
106.104
 31
0.0
  0
LINE
  8
0
 62
     0
 10
260.692
 20
106.104
 30
0.0
 11
260.774
 21
106.193
 31
0.0
  0
LINE
  8
0
 62
     0
 10
260.774
 20
106.193
 30
0.0
 11
260.85
 21
106.289
 31
0.0
  0
LINE
  8
0
 62
     0
 10
260.85
 20
106.289
 30
0.0
 11
260.918
 21
106.39
 31
0.0
  0
LINE
  8
0
 62
     0
 10
260.918
 20
106.39
 30
0.0
 11
260.977
 21
106.496
 31
0.0
  0
LINE
  8
0
 62
     0
 10
260.977
 20
106.496
 30
0.0
 11
261.028
 21
106.606
 31
0.0
  0
LINE
  8
0
 62
     0
 10
261.028
 20
106.606
 30
0.0
 11
261.069
 21
106.721
 31
0.0
  0
LINE
  8
0
 62
     0
 10
261.069
 20
106.721
 30
0.0
 11
261.102
 21
106.838
 31
0.0
  0
LINE
  8
0
 62
     0
 10
261.102
 20
106.838
 30
0.0
 11
261.127
 21
106.958
 31
0.0
  0
LINE
  8
0
 62
     0
 10
261.127
 20
106.958
 30
0.0
 11
261.141
 21
107.078
 31
0.0
  0
LINE
  8
0
 62
     0
 10
261.141
 20
107.078
 30
0.0
 11
261.145
 21
107.2
 31
0.0
  0
LINE
  8
0
 62
     0
 10
261.145
 20
107.2
 30
0.0
 11
261.141
 21
107.322
 31
0.0
  0
LINE
  8
0
 62
     0
 10
261.141
 20
107.322
 30
0.0
 11
261.127
 21
107.442
 31
0.0
  0
LINE
  8
0
 62
     0
 10
261.127
 20
107.442
 30
0.0
 11
261.102
 21
107.561
 31
0.0
  0
LINE
  8
0
 62
     0
 10
261.102
 20
107.561
 30
0.0
 11
261.069
 21
107.678
 31
0.0
  0
LINE
  8
0
 62
     0
 10
261.069
 20
107.678
 30
0.0
 11
261.028
 21
107.793
 31
0.0
  0
LINE
  8
0
 62
     0
 10
261.028
 20
107.793
 30
0.0
 11
260.977
 21
107.903
 31
0.0
  0
LINE
  8
0
 62
     0
 10
260.977
 20
107.903
 30
0.0
 11
260.918
 21
108.009
 31
0.0
  0
LINE
  8
0
 62
     0
 10
260.918
 20
108.009
 30
0.0
 11
260.85
 21
108.111
 31
0.0
  0
LINE
  8
0
 62
     0
 10
260.85
 20
108.111
 30
0.0
 11
260.774
 21
108.206
 31
0.0
  0
LINE
  8
0
 62
     0
 10
260.774
 20
108.206
 30
0.0
 11
260.692
 21
108.296
 31
0.0
  0
LINE
  8
0
 62
     0
 10
260.692
 20
108.296
 30
0.0
 11
260.602
 21
108.38
 31
0.0
  0
LINE
  8
0
 62
     0
 10
260.602
 20
108.38
 30
0.0
 11
260.507
 21
108.454
 31
0.0
  0
LINE
  8
0
 62
     0
 10
260.507
 20
108.454
 30
0.0
 11
260.405
 21
108.522
 31
0.0
  0
LINE
  8
0
 62
     0
 10
260.405
 20
108.522
 30
0.0
 11
260.3
 21
108.581
 31
0.0
  0
LINE
  8
0
 62
     0
 10
260.3
 20
108.581
 30
0.0
 11
260.189
 21
108.632
 31
0.0
  0
LINE
  8
0
 62
     0
 10
260.189
 20
108.632
 30
0.0
 11
260.074
 21
108.674
 31
0.0
  0
LINE
  8
0
 62
     0
 10
260.074
 20
108.674
 30
0.0
 11
259.957
 21
108.707
 31
0.0
  0
LINE
  8
0
 62
     0
 10
259.957
 20
108.707
 30
0.0
 11
259.837
 21
108.731
 31
0.0
  0
LINE
  8
0
 62
     0
 10
259.837
 20
108.731
 30
0.0
 11
259.717
 21
108.745
 31
0.0
  0
LINE
  8
0
 62
     0
 10
259.717
 20
108.745
 30
0.0
 11
259.596
 21
108.749
 31
0.0
  0
LINE
  8
0
 62
     0
 10
259.596
 20
108.749
 30
0.0
 11
259.474
 21
108.745
 31
0.0
  0
ENDSEC
  0
EOF
