  0
SECTION
  2
HEADER
  9
$ACADVER
  1
AC1009
  9
$EXTMIN
 10
0.0
 20
0.0
 30
0.0
  9
$EXTMAX
 10
1000.0
 20
1000.0
 30
0.0
  9
$FILLMODE
 70
 0
  9
$SPLFRAME
 70
 1
  0
ENDSEC
  0
SECTION
  2
TABLES
  0
TABLE
  2
LAYER
 70
1
  0
LAYER
  2
0
 70
     0
 62
     7
  6
CONTINUOUS
  0
ENDTAB
  0
ENDSEC
  0
SECTION
  2
ENTITIES
  0
LINE
  8
0
 62
     0
 10
259.895
 20
111.499
 30
0.0
 11
260.208
 21
111.487
 31
0.0
  0
LINE
  8
0
 62
     0
 10
260.208
 20
111.487
 30
0.0
 11
260.521
 21
111.45
 31
0.0
  0
LINE
  8
0
 62
     0
 10
260.521
 20
111.45
 30
0.0
 11
260.828
 21
111.388
 31
0.0
  0
LINE
  8
0
 62
     0
 10
260.828
 20
111.388
 30
0.0
 11
261.131
 21
111.304
 31
0.0
  0
LINE
  8
0
 62
     0
 10
261.131
 20
111.304
 30
0.0
 11
261.426
 21
111.195
 31
0.0
  0
LINE
  8
0
 62
     0
 10
261.426
 20
111.195
 30
0.0
 11
261.71
 21
111.064
 31
0.0
  0
LINE
  8
0
 62
     0
 10
261.71
 20
111.064
 30
0.0
 11
261.984
 21
110.91
 31
0.0
  0
LINE
  8
0
 62
     0
 10
261.984
 20
110.91
 30
0.0
 11
262.246
 21
110.736
 31
0.0
  0
LINE
  8
0
 62
     0
 10
262.246
 20
110.736
 30
0.0
 11
262.493
 21
110.541
 31
0.0
  0
LINE
  8
0
 62
     0
 10
262.493
 20
110.541
 30
0.0
 11
262.724
 21
110.327
 31
0.0
  0
LINE
  8
0
 62
     0
 10
262.724
 20
110.327
 30
0.0
 11
262.937
 21
110.097
 31
0.0
  0
LINE
  8
0
 62
     0
 10
262.937
 20
110.097
 30
0.0
 11
263.132
 21
109.85
 31
0.0
  0
LINE
  8
0
 62
     0
 10
263.132
 20
109.85
 30
0.0
 11
263.306
 21
109.589
 31
0.0
  0
LINE
  8
0
 62
     0
 10
263.306
 20
109.589
 30
0.0
 11
263.46
 21
109.314
 31
0.0
  0
LINE
  8
0
 62
     0
 10
263.46
 20
109.314
 30
0.0
 11
263.591
 21
109.031
 31
0.0
  0
LINE
  8
0
 62
     0
 10
263.591
 20
109.031
 30
0.0
 11
263.7
 21
108.736
 31
0.0
  0
LINE
  8
0
 62
     0
 10
263.7
 20
108.736
 30
0.0
 11
263.784
 21
108.432
 31
0.0
  0
LINE
  8
0
 62
     0
 10
263.784
 20
108.432
 30
0.0
 11
263.846
 21
108.125
 31
0.0
  0
LINE
  8
0
 62
     0
 10
263.846
 20
108.125
 30
0.0
 11
263.883
 21
107.812
 31
0.0
  0
LINE
  8
0
 62
     0
 10
263.883
 20
107.812
 30
0.0
 11
263.896
 21
107.5
 31
0.0
  0
LINE
  8
0
 62
     0
 10
263.896
 20
107.5
 30
0.0
 11
263.896
 21
4.09829
 31
0.0
  0
LINE
  8
0
 62
     0
 10
263.896
 20
4.09829
 30
0.0
 11
263.883
 21
3.78548
 31
0.0
  0
LINE
  8
0
 62
     0
 10
263.883
 20
3.78548
 30
0.0
 11
263.846
 21
3.47266
 31
0.0
  0
LINE
  8
0
 62
     0
 10
263.846
 20
3.47266
 30
0.0
 11
263.784
 21
3.16536
 31
0.0
  0
LINE
  8
0
 62
     0
 10
263.784
 20
3.16536
 30
0.0
 11
263.7
 21
2.86219
 31
0.0
  0
LINE
  8
0
 62
     0
 10
263.7
 20
2.86219
 30
0.0
 11
263.591
 21
2.56728
 31
0.0
  0
LINE
  8
0
 62
     0
 10
263.591
 20
2.56728
 30
0.0
 11
263.46
 21
2.28341
 31
0.0
  0
LINE
  8
0
 62
     0
 10
263.46
 20
2.28341
 30
0.0
 11
263.306
 21
2.00918
 31
0.0
  0
LINE
  8
0
 62
     0
 10
263.306
 20
2.00918
 30
0.0
 11
263.132
 21
1.74735
 31
0.0
  0
LINE
  8
0
 62
     0
 10
263.132
 20
1.74735
 30
0.0
 11
262.937
 21
1.50068
 31
0.0
  0
LINE
  8
0
 62
     0
 10
262.937
 20
1.50068
 30
0.0
 11
262.724
 21
1.26917
 31
0.0
  0
LINE
  8
0
 62
     0
 10
262.724
 20
1.26917
 30
0.0
 11
262.493
 21
1.05695
 31
0.0
  0
LINE
  8
0
 62
     0
 10
262.493
 20
1.05695
 30
0.0
 11
262.246
 21
0.861275
 31
0.0
  0
LINE
  8
0
 62
     0
 10
262.246
 20
0.861275
 30
0.0
 11
261.984
 21
0.687641
 31
0.0
  0
LINE
  8
0
 62
     0
 10
261.984
 20
0.687641
 30
0.0
 11
261.71
 21
0.533301
 31
0.0
  0
LINE
  8
0
 62
     0
 10
261.71
 20
0.533301
 30
0.0
 11
261.426
 21
0.402389
 31
0.0
  0
LINE
  8
0
 62
     0
 10
261.426
 20
0.402389
 30
0.0
 11
261.131
 21
0.293522
 31
0.0
  0
LINE
  8
0
 62
     0
 10
261.131
 20
0.293522
 30
0.0
 11
260.828
 21
0.209462
 31
0.0
  0
LINE
  8
0
 62
     0
 10
260.828
 20
0.209462
 30
0.0
 11
260.521
 21
0.14745
 31
0.0
  0
LINE
  8
0
 62
     0
 10
260.521
 20
0.14745
 30
0.0
 11
260.208
 21
0.110243
 31
0.0
  0
LINE
  8
0
 62
     0
 10
260.208
 20
0.110243
 30
0.0
 11
259.895
 21
0.0978408
 31
0.0
  0
LINE
  8
0
 62
     0
 10
259.895
 20
0.0978408
 30
0.0
 11
4.09416
 21
0.0978408
 31
0.0
  0
LINE
  8
0
 62
     0
 10
4.09416
 20
0.0978408
 30
0.0
 11
3.78135
 21
0.110243
 31
0.0
  0
LINE
  8
0
 62
     0
 10
3.78135
 20
0.110243
 30
0.0
 11
3.46852
 21
0.14745
 31
0.0
  0
LINE
  8
0
 62
     0
 10
3.46852
 20
0.14745
 30
0.0
 11
3.16122
 21
0.209462
 31
0.0
  0
LINE
  8
0
 62
     0
 10
3.16122
 20
0.209462
 30
0.0
 11
2.85805
 21
0.293522
 31
0.0
  0
LINE
  8
0
 62
     0
 10
2.85805
 20
0.293522
 30
0.0
 11
2.56315
 21
0.402389
 31
0.0
  0
LINE
  8
0
 62
     0
 10
2.56315
 20
0.402389
 30
0.0
 11
2.27928
 21
0.533301
 31
0.0
  0
LINE
  8
0
 62
     0
 10
2.27928
 20
0.533301
 30
0.0
 11
2.00504
 21
0.687641
 31
0.0
  0
LINE
  8
0
 62
     0
 10
2.00504
 20
0.687641
 30
0.0
 11
1.74322
 21
0.861275
 31
0.0
  0
LINE
  8
0
 62
     0
 10
1.74322
 20
0.861275
 30
0.0
 11
1.49655
 21
1.05695
 31
0.0
  0
LINE
  8
0
 62
     0
 10
1.49655
 20
1.05695
 30
0.0
 11
1.26642
 21
1.26917
 31
0.0
  0
LINE
  8
0
 62
     0
 10
1.26642
 20
1.26917
 30
0.0
 11
1.05282
 21
1.50068
 31
0.0
  0
LINE
  8
0
 62
     0
 10
1.05282
 20
1.50068
 30
0.0
 11
0.857141
 21
1.74735
 31
0.0
  0
LINE
  8
0
 62
     0
 10
0.857141
 20
1.74735
 30
0.0
 11
0.683507
 21
2.00918
 31
0.0
  0
LINE
  8
0
 62
     0
 10
0.683507
 20
2.00918
 30
0.0
 11
0.529167
 21
2.28341
 31
0.0
  0
LINE
  8
0
 62
     0
 10
0.529167
 20
2.28341
 30
0.0
 11
0.398254
 21
2.56728
 31
0.0
  0
LINE
  8
0
 62
     0
 10
0.398254
 20
2.56728
 30
0.0
 11
0.289388
 21
2.86219
 31
0.0
  0
LINE
  8
0
 62
     0
 10
0.289388
 20
2.86219
 30
0.0
 11
0.205328
 21
3.16536
 31
0.0
  0
LINE
  8
0
 62
     0
 10
0.205328
 20
3.16536
 30
0.0
 11
0.143316
 21
3.47266
 31
0.0
  0
LINE
  8
0
 62
     0
 10
0.143316
 20
3.47266
 30
0.0
 11
0.106109
 21
3.78548
 31
0.0
  0
LINE
  8
0
 62
     0
 10
0.106109
 20
3.78548
 30
0.0
 11
0.0937066
 21
4.09829
 31
0.0
  0
LINE
  8
0
 62
     0
 10
0.0937066
 20
4.09829
 30
0.0
 11
0.0950846
 21
107.5
 31
0.0
  0
LINE
  8
0
 62
     0
 10
0.0950846
 20
107.5
 30
0.0
 11
0.106109
 21
107.812
 31
0.0
  0
LINE
  8
0
 62
     0
 10
0.106109
 20
107.812
 30
0.0
 11
0.143316
 21
108.125
 31
0.0
  0
LINE
  8
0
 62
     0
 10
0.143316
 20
108.125
 30
0.0
 11
0.205328
 21
108.432
 31
0.0
  0
LINE
  8
0
 62
     0
 10
0.205328
 20
108.432
 30
0.0
 11
0.289388
 21
108.736
 31
0.0
  0
LINE
  8
0
 62
     0
 10
0.289388
 20
108.736
 30
0.0
 11
0.398254
 21
109.031
 31
0.0
  0
LINE
  8
0
 62
     0
 10
0.398254
 20
109.031
 30
0.0
 11
0.529167
 21
109.314
 31
0.0
  0
LINE
  8
0
 62
     0
 10
0.529167
 20
109.314
 30
0.0
 11
0.683507
 21
109.589
 31
0.0
  0
LINE
  8
0
 62
     0
 10
0.683507
 20
109.589
 30
0.0
 11
0.857141
 21
109.85
 31
0.0
  0
LINE
  8
0
 62
     0
 10
0.857141
 20
109.85
 30
0.0
 11
1.05282
 21
110.097
 31
0.0
  0
LINE
  8
0
 62
     0
 10
1.05282
 20
110.097
 30
0.0
 11
1.26642
 21
110.327
 31
0.0
  0
LINE
  8
0
 62
     0
 10
1.26642
 20
110.327
 30
0.0
 11
1.49655
 21
110.541
 31
0.0
  0
LINE
  8
0
 62
     0
 10
1.49655
 20
110.541
 30
0.0
 11
1.74322
 21
110.736
 31
0.0
  0
LINE
  8
0
 62
     0
 10
1.74322
 20
110.736
 30
0.0
 11
2.00504
 21
110.91
 31
0.0
  0
LINE
  8
0
 62
     0
 10
2.00504
 20
110.91
 30
0.0
 11
2.27928
 21
111.064
 31
0.0
  0
LINE
  8
0
 62
     0
 10
2.27928
 20
111.064
 30
0.0
 11
2.56315
 21
111.195
 31
0.0
  0
LINE
  8
0
 62
     0
 10
2.56315
 20
111.195
 30
0.0
 11
2.85805
 21
111.304
 31
0.0
  0
LINE
  8
0
 62
     0
 10
2.85805
 20
111.304
 30
0.0
 11
3.16122
 21
111.388
 31
0.0
  0
LINE
  8
0
 62
     0
 10
3.16122
 20
111.388
 30
0.0
 11
3.46852
 21
111.45
 31
0.0
  0
LINE
  8
0
 62
     0
 10
3.46852
 20
111.45
 30
0.0
 11
3.78135
 21
111.487
 31
0.0
  0
LINE
  8
0
 62
     0
 10
3.78135
 20
111.487
 30
0.0
 11
4.09416
 21
111.5
 31
0.0
  0
LINE
  8
0
 62
     0
 10
4.09416
 20
111.5
 30
0.0
 11
259.895
 21
111.499
 31
0.0
  0
LINE
  8
0
 62
     0
 10
4.27193
 20
5.94212
 30
0.0
 11
4.15202
 21
5.92833
 31
0.0
  0
LINE
  8
0
 62
     0
 10
4.15202
 20
5.92833
 30
0.0
 11
4.03214
 21
5.9049
 31
0.0
  0
LINE
  8
0
 62
     0
 10
4.03214
 20
5.9049
 30
0.0
 11
3.91502
 21
5.87181
 31
0.0
  0
LINE
  8
0
 62
     0
 10
3.91502
 20
5.87181
 30
0.0
 11
3.80062
 21
5.82909
 31
0.0
  0
LINE
  8
0
 62
     0
 10
3.80062
 20
5.82909
 30
0.0
 11
3.69037
 21
5.77811
 31
0.0
  0
LINE
  8
0
 62
     0
 10
3.69037
 20
5.77811
 30
0.0
 11
3.58429
 21
5.72022
 31
0.0
  0
LINE
  8
0
 62
     0
 10
3.58429
 20
5.72022
 30
0.0
 11
3.4823
 21
5.65132
 31
0.0
  0
LINE
  8
0
 62
     0
 10
3.4823
 20
5.65132
 30
0.0
 11
3.38722
 21
5.57692
 31
0.0
  0
LINE
  8
0
 62
     0
 10
3.38722
 20
5.57692
 30
0.0
 11
3.29765
 21
5.49423
 31
0.0
  0
LINE
  8
0
 62
     0
 10
3.29765
 20
5.49423
 30
0.0
 11
3.21359
 21
5.40466
 31
0.0
  0
LINE
  8
0
 62
     0
 10
3.21359
 20
5.40466
 30
0.0
 11
3.13917
 21
5.30821
 31
0.0
  0
LINE
  8
0
 62
     0
 10
3.13917
 20
5.30821
 30
0.0
 11
3.07165
 21
5.2076
 31
0.0
  0
LINE
  8
0
 62
     0
 10
3.07165
 20
5.2076
 30
0.0
 11
3.01239
 21
5.10148
 31
0.0
  0
LINE
  8
0
 62
     0
 10
3.01239
 20
5.10148
 30
0.0
 11
2.9614
 21
4.99124
 31
0.0
  0
LINE
  8
0
 62
     0
 10
2.9614
 20
4.99124
 30
0.0
 11
2.92006
 21
4.87687
 31
0.0
  0
LINE
  8
0
 62
     0
 10
2.92006
 20
4.87687
 30
0.0
 11
2.88699
 21
4.75975
 31
0.0
  0
LINE
  8
0
 62
     0
 10
2.88699
 20
4.75975
 30
0.0
 11
2.86219
 21
4.63984
 31
0.0
  0
LINE
  8
0
 62
     0
 10
2.86219
 20
4.63984
 30
0.0
 11
2.84841
 21
4.51997
 31
0.0
  0
LINE
  8
0
 62
     0
 10
2.84841
 20
4.51997
 30
0.0
 11
2.84427
 21
4.3973
 31
0.0
  0
LINE
  8
0
 62
     0
 10
2.84427
 20
4.3973
 30
0.0
 11
2.84841
 21
4.27605
 31
0.0
  0
LINE
  8
0
 62
     0
 10
2.84841
 20
4.27605
 30
0.0
 11
2.86219
 21
4.15618
 31
0.0
  0
LINE
  8
0
 62
     0
 10
2.86219
 20
4.15618
 30
0.0
 11
2.88699
 21
4.03627
 31
0.0
  0
LINE
  8
0
 62
     0
 10
2.88699
 20
4.03627
 30
0.0
 11
2.92006
 21
3.91915
 31
0.0
  0
LINE
  8
0
 62
     0
 10
2.92006
 20
3.91915
 30
0.0
 11
2.9614
 21
3.80478
 31
0.0
  0
LINE
  8
0
 62
     0
 10
2.9614
 20
3.80478
 30
0.0
 11
3.01239
 21
3.69316
 31
0.0
  0
LINE
  8
0
 62
     0
 10
3.01239
 20
3.69316
 30
0.0
 11
3.07165
 21
3.58842
 31
0.0
  0
LINE
  8
0
 62
     0
 10
3.07165
 20
3.58842
 30
0.0
 11
3.13917
 21
3.48644
 31
0.0
  0
LINE
  8
0
 62
     0
 10
3.13917
 20
3.48644
 30
0.0
 11
3.21359
 21
3.39135
 31
0.0
  0
LINE
  8
0
 62
     0
 10
3.21359
 20
3.39135
 30
0.0
 11
3.29765
 21
3.30178
 31
0.0
  0
LINE
  8
0
 62
     0
 10
3.29765
 20
3.30178
 30
0.0
 11
3.38722
 21
3.2191
 31
0.0
  0
LINE
  8
0
 62
     0
 10
3.38722
 20
3.2191
 30
0.0
 11
3.4823
 21
3.14331
 31
0.0
  0
LINE
  8
0
 62
     0
 10
3.4823
 20
3.14331
 30
0.0
 11
3.58429
 21
3.07578
 31
0.0
  0
LINE
  8
0
 62
     0
 10
3.58429
 20
3.07578
 30
0.0
 11
3.69037
 21
3.01653
 31
0.0
  0
LINE
  8
0
 62
     0
 10
3.69037
 20
3.01653
 30
0.0
 11
3.80062
 21
2.96554
 31
0.0
  0
LINE
  8
0
 62
     0
 10
3.80062
 20
2.96554
 30
0.0
 11
3.91502
 21
2.9242
 31
0.0
  0
LINE
  8
0
 62
     0
 10
3.91502
 20
2.9242
 30
0.0
 11
4.03214
 21
2.89112
 31
0.0
  0
LINE
  8
0
 62
     0
 10
4.03214
 20
2.89112
 30
0.0
 11
4.15202
 21
2.86632
 31
0.0
  0
LINE
  8
0
 62
     0
 10
4.15202
 20
2.86632
 30
0.0
 11
4.27193
 21
2.85254
 31
0.0
  0
LINE
  8
0
 62
     0
 10
4.27193
 20
2.85254
 30
0.0
 11
4.39318
 21
2.84841
 31
0.0
  0
LINE
  8
0
 62
     0
 10
4.39318
 20
2.84841
 30
0.0
 11
4.51584
 21
2.85254
 31
0.0
  0
LINE
  8
0
 62
     0
 10
4.51584
 20
2.85254
 30
0.0
 11
4.63571
 21
2.86632
 31
0.0
  0
LINE
  8
0
 62
     0
 10
4.63571
 20
2.86632
 30
0.0
 11
4.75562
 21
2.89112
 31
0.0
  0
LINE
  8
0
 62
     0
 10
4.75562
 20
2.89112
 30
0.0
 11
4.87274
 21
2.9242
 31
0.0
  0
LINE
  8
0
 62
     0
 10
4.87274
 20
2.9242
 30
0.0
 11
4.98711
 21
2.96554
 31
0.0
  0
LINE
  8
0
 62
     0
 10
4.98711
 20
2.96554
 30
0.0
 11
5.09736
 21
3.01653
 31
0.0
  0
LINE
  8
0
 62
     0
 10
5.09736
 20
3.01653
 30
0.0
 11
5.20347
 21
3.07578
 31
0.0
  0
LINE
  8
0
 62
     0
 10
5.20347
 20
3.07578
 30
0.0
 11
5.30408
 21
3.14331
 31
0.0
  0
LINE
  8
0
 62
     0
 10
5.30408
 20
3.14331
 30
0.0
 11
5.40053
 21
3.2191
 31
0.0
  0
LINE
  8
0
 62
     0
 10
5.40053
 20
3.2191
 30
0.0
 11
5.4901
 21
3.30178
 31
0.0
  0
LINE
  8
0
 62
     0
 10
5.4901
 20
3.30178
 30
0.0
 11
5.5728
 21
3.39135
 31
0.0
  0
LINE
  8
0
 62
     0
 10
5.5728
 20
3.39135
 30
0.0
 11
5.6472
 21
3.48644
 31
0.0
  0
LINE
  8
0
 62
     0
 10
5.6472
 20
3.48644
 30
0.0
 11
5.71609
 21
3.58842
 31
0.0
  0
LINE
  8
0
 62
     0
 10
5.71609
 20
3.58842
 30
0.0
 11
5.77536
 21
3.69316
 31
0.0
  0
LINE
  8
0
 62
     0
 10
5.77536
 20
3.69316
 30
0.0
 11
5.82634
 21
3.80478
 31
0.0
  0
LINE
  8
0
 62
     0
 10
5.82634
 20
3.80478
 30
0.0
 11
5.86768
 21
3.91915
 31
0.0
  0
LINE
  8
0
 62
     0
 10
5.86768
 20
3.91915
 30
0.0
 11
5.90077
 21
4.03627
 31
0.0
  0
LINE
  8
0
 62
     0
 10
5.90077
 20
4.03627
 30
0.0
 11
5.9242
 21
4.15618
 31
0.0
  0
LINE
  8
0
 62
     0
 10
5.9242
 20
4.15618
 30
0.0
 11
5.93933
 21
4.27605
 31
0.0
  0
LINE
  8
0
 62
     0
 10
5.93933
 20
4.27605
 30
0.0
 11
5.94349
 21
4.3973
 31
0.0
  0
LINE
  8
0
 62
     0
 10
5.94349
 20
4.3973
 30
0.0
 11
5.93933
 21
4.51997
 31
0.0
  0
LINE
  8
0
 62
     0
 10
5.93933
 20
4.51997
 30
0.0
 11
5.9242
 21
4.63984
 31
0.0
  0
LINE
  8
0
 62
     0
 10
5.9242
 20
4.63984
 30
0.0
 11
5.90077
 21
4.75975
 31
0.0
  0
LINE
  8
0
 62
     0
 10
5.90077
 20
4.75975
 30
0.0
 11
5.86768
 21
4.87687
 31
0.0
  0
LINE
  8
0
 62
     0
 10
5.86768
 20
4.87687
 30
0.0
 11
5.82634
 21
4.99124
 31
0.0
  0
LINE
  8
0
 62
     0
 10
5.82634
 20
4.99124
 30
0.0
 11
5.77536
 21
5.10148
 31
0.0
  0
LINE
  8
0
 62
     0
 10
5.77536
 20
5.10148
 30
0.0
 11
5.71609
 21
5.2076
 31
0.0
  0
LINE
  8
0
 62
     0
 10
5.71609
 20
5.2076
 30
0.0
 11
5.6472
 21
5.30821
 31
0.0
  0
LINE
  8
0
 62
     0
 10
5.6472
 20
5.30821
 30
0.0
 11
5.5728
 21
5.40466
 31
0.0
  0
LINE
  8
0
 62
     0
 10
5.5728
 20
5.40466
 30
0.0
 11
5.4901
 21
5.49423
 31
0.0
  0
LINE
  8
0
 62
     0
 10
5.4901
 20
5.49423
 30
0.0
 11
5.40053
 21
5.57692
 31
0.0
  0
LINE
  8
0
 62
     0
 10
5.40053
 20
5.57692
 30
0.0
 11
5.30408
 21
5.65132
 31
0.0
  0
LINE
  8
0
 62
     0
 10
5.30408
 20
5.65132
 30
0.0
 11
5.20347
 21
5.72022
 31
0.0
  0
LINE
  8
0
 62
     0
 10
5.20347
 20
5.72022
 30
0.0
 11
5.09736
 21
5.77811
 31
0.0
  0
LINE
  8
0
 62
     0
 10
5.09736
 20
5.77811
 30
0.0
 11
4.98711
 21
5.82909
 31
0.0
  0
LINE
  8
0
 62
     0
 10
4.98711
 20
5.82909
 30
0.0
 11
4.87274
 21
5.87181
 31
0.0
  0
LINE
  8
0
 62
     0
 10
4.87274
 20
5.87181
 30
0.0
 11
4.75562
 21
5.9049
 31
0.0
  0
LINE
  8
0
 62
     0
 10
4.75562
 20
5.9049
 30
0.0
 11
4.63571
 21
5.92833
 31
0.0
  0
LINE
  8
0
 62
     0
 10
4.63571
 20
5.92833
 30
0.0
 11
4.51584
 21
5.94212
 31
0.0
  0
LINE
  8
0
 62
     0
 10
4.51584
 20
5.94212
 30
0.0
 11
4.39318
 21
5.94762
 31
0.0
  0
LINE
  8
0
 62
     0
 10
4.39318
 20
5.94762
 30
0.0
 11
4.27193
 21
5.94212
 31
0.0
  0
LINE
  8
0
 62
     0
 10
259.474
 20
5.94212
 30
0.0
 11
259.354
 21
5.92833
 31
0.0
  0
LINE
  8
0
 62
     0
 10
259.354
 20
5.92833
 30
0.0
 11
259.234
 21
5.9049
 31
0.0
  0
LINE
  8
0
 62
     0
 10
259.234
 20
5.9049
 30
0.0
 11
259.117
 21
5.87181
 31
0.0
  0
LINE
  8
0
 62
     0
 10
259.117
 20
5.87181
 30
0.0
 11
259.002
 21
5.82909
 31
0.0
  0
LINE
  8
0
 62
     0
 10
259.002
 20
5.82909
 30
0.0
 11
258.892
 21
5.77811
 31
0.0
  0
LINE
  8
0
 62
     0
 10
258.892
 20
5.77811
 30
0.0
 11
258.786
 21
5.72022
 31
0.0
  0
LINE
  8
0
 62
     0
 10
258.786
 20
5.72022
 30
0.0
 11
258.685
 21
5.65132
 31
0.0
  0
LINE
  8
0
 62
     0
 10
258.685
 20
5.65132
 30
0.0
 11
258.589
 21
5.57692
 31
0.0
  0
LINE
  8
0
 62
     0
 10
258.589
 20
5.57692
 30
0.0
 11
258.499
 21
5.49423
 31
0.0
  0
LINE
  8
0
 62
     0
 10
258.499
 20
5.49423
 30
0.0
 11
258.417
 21
5.40466
 31
0.0
  0
LINE
  8
0
 62
     0
 10
258.417
 20
5.40466
 30
0.0
 11
258.342
 21
5.30821
 31
0.0
  0
LINE
  8
0
 62
     0
 10
258.342
 20
5.30821
 30
0.0
 11
258.273
 21
5.2076
 31
0.0
  0
LINE
  8
0
 62
     0
 10
258.273
 20
5.2076
 30
0.0
 11
258.215
 21
5.10148
 31
0.0
  0
LINE
  8
0
 62
     0
 10
258.215
 20
5.10148
 30
0.0
 11
258.165
 21
4.99124
 31
0.0
  0
LINE
  8
0
 62
     0
 10
258.165
 20
4.99124
 30
0.0
 11
258.122
 21
4.87687
 31
0.0
  0
LINE
  8
0
 62
     0
 10
258.122
 20
4.87687
 30
0.0
 11
258.089
 21
4.75975
 31
0.0
  0
LINE
  8
0
 62
     0
 10
258.089
 20
4.75975
 30
0.0
 11
258.065
 21
4.63984
 31
0.0
  0
LINE
  8
0
 62
     0
 10
258.065
 20
4.63984
 30
0.0
 11
258.051
 21
4.51997
 31
0.0
  0
LINE
  8
0
 62
     0
 10
258.051
 20
4.51997
 30
0.0
 11
258.046
 21
4.3973
 31
0.0
  0
LINE
  8
0
 62
     0
 10
258.046
 20
4.3973
 30
0.0
 11
258.051
 21
4.27605
 31
0.0
  0
LINE
  8
0
 62
     0
 10
258.051
 20
4.27605
 30
0.0
 11
258.065
 21
4.15618
 31
0.0
  0
LINE
  8
0
 62
     0
 10
258.065
 20
4.15618
 30
0.0
 11
258.089
 21
4.03627
 31
0.0
  0
LINE
  8
0
 62
     0
 10
258.089
 20
4.03627
 30
0.0
 11
258.122
 21
3.91915
 31
0.0
  0
LINE
  8
0
 62
     0
 10
258.122
 20
3.91915
 30
0.0
 11
258.165
 21
3.80478
 31
0.0
  0
LINE
  8
0
 62
     0
 10
258.165
 20
3.80478
 30
0.0
 11
258.215
 21
3.69316
 31
0.0
  0
LINE
  8
0
 62
     0
 10
258.215
 20
3.69316
 30
0.0
 11
258.273
 21
3.58842
 31
0.0
  0
LINE
  8
0
 62
     0
 10
258.273
 20
3.58842
 30
0.0
 11
258.342
 21
3.48644
 31
0.0
  0
LINE
  8
0
 62
     0
 10
258.342
 20
3.48644
 30
0.0
 11
258.417
 21
3.39135
 31
0.0
  0
LINE
  8
0
 62
     0
 10
258.417
 20
3.39135
 30
0.0
 11
258.499
 21
3.30178
 31
0.0
  0
LINE
  8
0
 62
     0
 10
258.499
 20
3.30178
 30
0.0
 11
258.589
 21
3.2191
 31
0.0
  0
LINE
  8
0
 62
     0
 10
258.589
 20
3.2191
 30
0.0
 11
258.685
 21
3.14331
 31
0.0
  0
LINE
  8
0
 62
     0
 10
258.685
 20
3.14331
 30
0.0
 11
258.786
 21
3.07578
 31
0.0
  0
LINE
  8
0
 62
     0
 10
258.786
 20
3.07578
 30
0.0
 11
258.892
 21
3.01653
 31
0.0
  0
LINE
  8
0
 62
     0
 10
258.892
 20
3.01653
 30
0.0
 11
259.002
 21
2.96554
 31
0.0
  0
LINE
  8
0
 62
     0
 10
259.002
 20
2.96554
 30
0.0
 11
259.117
 21
2.9242
 31
0.0
  0
LINE
  8
0
 62
     0
 10
259.117
 20
2.9242
 30
0.0
 11
259.234
 21
2.89112
 31
0.0
  0
LINE
  8
0
 62
     0
 10
259.234
 20
2.89112
 30
0.0
 11
259.354
 21
2.86632
 31
0.0
  0
LINE
  8
0
 62
     0
 10
259.354
 20
2.86632
 30
0.0
 11
259.474
 21
2.85254
 31
0.0
  0
LINE
  8
0
 62
     0
 10
259.474
 20
2.85254
 30
0.0
 11
259.596
 21
2.84841
 31
0.0
  0
LINE
  8
0
 62
     0
 10
259.596
 20
2.84841
 30
0.0
 11
259.717
 21
2.85254
 31
0.0
  0
LINE
  8
0
 62
     0
 10
259.717
 20
2.85254
 30
0.0
 11
259.837
 21
2.86632
 31
0.0
  0
LINE
  8
0
 62
     0
 10
259.837
 20
2.86632
 30
0.0
 11
259.957
 21
2.89112
 31
0.0
  0
LINE
  8
0
 62
     0
 10
259.957
 20
2.89112
 30
0.0
 11
260.074
 21
2.9242
 31
0.0
  0
LINE
  8
0
 62
     0
 10
260.074
 20
2.9242
 30
0.0
 11
260.189
 21
2.96554
 31
0.0
  0
LINE
  8
0
 62
     0
 10
260.189
 20
2.96554
 30
0.0
 11
260.3
 21
3.01653
 31
0.0
  0
LINE
  8
0
 62
     0
 10
260.3
 20
3.01653
 30
0.0
 11
260.405
 21
3.07578
 31
0.0
  0
LINE
  8
0
 62
     0
 10
260.405
 20
3.07578
 30
0.0
 11
260.507
 21
3.14331
 31
0.0
  0
LINE
  8
0
 62
     0
 10
260.507
 20
3.14331
 30
0.0
 11
260.602
 21
3.2191
 31
0.0
  0
LINE
  8
0
 62
     0
 10
260.602
 20
3.2191
 30
0.0
 11
260.692
 21
3.30178
 31
0.0
  0
LINE
  8
0
 62
     0
 10
260.692
 20
3.30178
 30
0.0
 11
260.774
 21
3.39135
 31
0.0
  0
LINE
  8
0
 62
     0
 10
260.774
 20
3.39135
 30
0.0
 11
260.85
 21
3.48644
 31
0.0
  0
LINE
  8
0
 62
     0
 10
260.85
 20
3.48644
 30
0.0
 11
260.918
 21
3.58842
 31
0.0
  0
LINE
  8
0
 62
     0
 10
260.918
 20
3.58842
 30
0.0
 11
260.977
 21
3.69316
 31
0.0
  0
LINE
  8
0
 62
     0
 10
260.977
 20
3.69316
 30
0.0
 11
261.028
 21
3.80478
 31
0.0
  0
LINE
  8
0
 62
     0
 10
261.028
 20
3.80478
 30
0.0
 11
261.069
 21
3.91915
 31
0.0
  0
LINE
  8
0
 62
     0
 10
261.069
 20
3.91915
 30
0.0
 11
261.102
 21
4.03627
 31
0.0
  0
LINE
  8
0
 62
     0
 10
261.102
 20
4.03627
 30
0.0
 11
261.127
 21
4.15618
 31
0.0
  0
LINE
  8
0
 62
     0
 10
261.127
 20
4.15618
 30
0.0
 11
261.141
 21
4.27605
 31
0.0
  0
LINE
  8
0
 62
     0
 10
261.141
 20
4.27605
 30
0.0
 11
261.145
 21
4.3973
 31
0.0
  0
LINE
  8
0
 62
     0
 10
261.145
 20
4.3973
 30
0.0
 11
261.141
 21
4.51997
 31
0.0
  0
LINE
  8
0
 62
     0
 10
261.141
 20
4.51997
 30
0.0
 11
261.127
 21
4.63984
 31
0.0
  0
LINE
  8
0
 62
     0
 10
261.127
 20
4.63984
 30
0.0
 11
261.102
 21
4.75975
 31
0.0
  0
LINE
  8
0
 62
     0
 10
261.102
 20
4.75975
 30
0.0
 11
261.069
 21
4.87687
 31
0.0
  0
LINE
  8
0
 62
     0
 10
261.069
 20
4.87687
 30
0.0
 11
261.028
 21
4.99124
 31
0.0
  0
LINE
  8
0
 62
     0
 10
261.028
 20
4.99124
 30
0.0
 11
260.977
 21
5.10148
 31
0.0
  0
LINE
  8
0
 62
     0
 10
260.977
 20
5.10148
 30
0.0
 11
260.918
 21
5.2076
 31
0.0
  0
LINE
  8
0
 62
     0
 10
260.918
 20
5.2076
 30
0.0
 11
260.85
 21
5.30821
 31
0.0
  0
LINE
  8
0
 62
     0
 10
260.85
 20
5.30821
 30
0.0
 11
260.774
 21
5.40466
 31
0.0
  0
LINE
  8
0
 62
     0
 10
260.774
 20
5.40466
 30
0.0
 11
260.692
 21
5.49423
 31
0.0
  0
LINE
  8
0
 62
     0
 10
260.692
 20
5.49423
 30
0.0
 11
260.602
 21
5.57692
 31
0.0
  0
LINE
  8
0
 62
     0
 10
260.602
 20
5.57692
 30
0.0
 11
260.507
 21
5.65132
 31
0.0
  0
LINE
  8
0
 62
     0
 10
260.507
 20
5.65132
 30
0.0
 11
260.405
 21
5.72022
 31
0.0
  0
LINE
  8
0
 62
     0
 10
260.405
 20
5.72022
 30
0.0
 11
260.3
 21
5.77811
 31
0.0
  0
LINE
  8
0
 62
     0
 10
260.3
 20
5.77811
 30
0.0
 11
260.189
 21
5.82909
 31
0.0
  0
LINE
  8
0
 62
     0
 10
260.189
 20
5.82909
 30
0.0
 11
260.074
 21
5.87181
 31
0.0
  0
LINE
  8
0
 62
     0
 10
260.074
 20
5.87181
 30
0.0
 11
259.957
 21
5.9049
 31
0.0
  0
LINE
  8
0
 62
     0
 10
259.957
 20
5.9049
 30
0.0
 11
259.837
 21
5.92833
 31
0.0
  0
LINE
  8
0
 62
     0
 10
259.837
 20
5.92833
 30
0.0
 11
259.717
 21
5.94212
 31
0.0
  0
LINE
  8
0
 62
     0
 10
259.717
 20
5.94212
 30
0.0
 11
259.596
 21
5.94762
 31
0.0
  0
LINE
  8
0
 62
     0
 10
259.596
 20
5.94762
 30
0.0
 11
259.474
 21
5.94212
 31
0.0
  0
LINE
  8
0
 62
     0
 10
98.8755
 20
24.6242
 30
0.0
 11
98.8755
 21
23.6237
 31
0.0
  0
LINE
  8
0
 62
     0
 10
98.8755
 20
23.6237
 30
0.0
 11
98.0765
 21
23.6237
 31
0.0
  0
LINE
  8
0
 62
     0
 10
98.0765
 20
23.6237
 30
0.0
 11
98.0765
 21
20.6733
 31
0.0
  0
LINE
  8
0
 62
     0
 10
98.0765
 20
20.6733
 30
0.0
 11
98.8755
 21
20.6733
 31
0.0
  0
LINE
  8
0
 62
     0
 10
98.8755
 20
20.6733
 30
0.0
 11
98.8755
 21
19.9237
 31
0.0
  0
LINE
  8
0
 62
     0
 10
98.8755
 20
19.9237
 30
0.0
 11
97.2012
 21
19.9237
 31
0.0
  0
LINE
  8
0
 62
     0
 10
97.2012
 20
19.9237
 30
0.0
 11
97.2012
 21
23.1538
 31
0.0
  0
LINE
  8
0
 62
     0
 10
97.2012
 20
23.1538
 30
0.0
 11
90.6004
 21
23.1538
 31
0.0
  0
LINE
  8
0
 62
     0
 10
90.6004
 20
23.1538
 30
0.0
 11
90.6004
 21
19.9237
 31
0.0
  0
LINE
  8
0
 62
     0
 10
90.6004
 20
19.9237
 30
0.0
 11
89.7763
 21
19.9237
 31
0.0
  0
LINE
  8
0
 62
     0
 10
89.7763
 20
19.9237
 30
0.0
 11
89.7763
 21
17.2737
 31
0.0
  0
LINE
  8
0
 62
     0
 10
89.7763
 20
17.2737
 30
0.0
 11
90.6004
 21
17.2737
 31
0.0
  0
LINE
  8
0
 62
     0
 10
90.6004
 20
17.2737
 30
0.0
 11
90.6004
 21
11.005
 31
0.0
  0
LINE
  8
0
 62
     0
 10
90.6004
 20
11.005
 30
0.0
 11
92.3258
 21
11.005
 31
0.0
  0
LINE
  8
0
 62
     0
 10
92.3258
 20
11.005
 30
0.0
 11
92.3258
 21
9.80338
 31
0.0
  0
LINE
  8
0
 62
     0
 10
92.3258
 20
9.80338
 30
0.0
 11
95.4761
 21
9.80338
 31
0.0
  0
LINE
  8
0
 62
     0
 10
95.4761
 20
9.80338
 30
0.0
 11
95.4761
 21
11.005
 31
0.0
  0
LINE
  8
0
 62
     0
 10
95.4761
 20
11.005
 30
0.0
 11
97.2012
 21
11.005
 31
0.0
  0
LINE
  8
0
 62
     0
 10
97.2012
 20
11.005
 30
0.0
 11
97.2012
 21
15.4754
 31
0.0
  0
LINE
  8
0
 62
     0
 10
97.2012
 20
15.4754
 30
0.0
 11
98.8755
 21
15.4754
 31
0.0
  0
LINE
  8
0
 62
     0
 10
98.8755
 20
15.4754
 30
0.0
 11
98.8755
 21
14.7243
 31
0.0
  0
LINE
  8
0
 62
     0
 10
98.8755
 20
14.7243
 30
0.0
 11
98.0765
 21
14.7243
 31
0.0
  0
LINE
  8
0
 62
     0
 10
98.0765
 20
14.7243
 30
0.0
 11
98.0765
 21
11.774
 31
0.0
  0
LINE
  8
0
 62
     0
 10
98.0765
 20
11.774
 30
0.0
 11
98.8755
 21
11.774
 31
0.0
  0
LINE
  8
0
 62
     0
 10
98.8755
 20
11.774
 30
0.0
 11
98.8755
 21
10.7735
 31
0.0
  0
LINE
  8
0
 62
     0
 10
98.8755
 20
10.7735
 30
0.0
 11
112.726
 21
10.7735
 31
0.0
  0
LINE
  8
0
 62
     0
 10
112.726
 20
10.7735
 30
0.0
 11
112.726
 21
11.774
 31
0.0
  0
LINE
  8
0
 62
     0
 10
112.726
 20
11.774
 30
0.0
 11
113.526
 21
11.774
 31
0.0
  0
LINE
  8
0
 62
     0
 10
113.526
 20
11.774
 30
0.0
 11
113.526
 21
14.7243
 31
0.0
  0
LINE
  8
0
 62
     0
 10
113.526
 20
14.7243
 30
0.0
 11
112.726
 21
14.7243
 31
0.0
  0
LINE
  8
0
 62
     0
 10
112.726
 20
14.7243
 30
0.0
 11
112.726
 21
15.4754
 31
0.0
  0
LINE
  8
0
 62
     0
 10
112.726
 20
15.4754
 30
0.0
 11
114.401
 21
15.4754
 31
0.0
  0
LINE
  8
0
 62
     0
 10
114.401
 20
15.4754
 30
0.0
 11
114.401
 21
11.005
 31
0.0
  0
LINE
  8
0
 62
     0
 10
114.401
 20
11.005
 30
0.0
 11
116.126
 21
11.005
 31
0.0
  0
LINE
  8
0
 62
     0
 10
116.126
 20
11.005
 30
0.0
 11
116.126
 21
9.80338
 31
0.0
  0
LINE
  8
0
 62
     0
 10
116.126
 20
9.80338
 30
0.0
 11
119.276
 21
9.80338
 31
0.0
  0
LINE
  8
0
 62
     0
 10
119.276
 20
9.80338
 30
0.0
 11
119.276
 21
11.005
 31
0.0
  0
LINE
  8
0
 62
     0
 10
119.276
 20
11.005
 30
0.0
 11
121.001
 21
11.005
 31
0.0
  0
LINE
  8
0
 62
     0
 10
121.001
 20
11.005
 30
0.0
 11
121.001
 21
17.2737
 31
0.0
  0
LINE
  8
0
 62
     0
 10
121.001
 20
17.2737
 30
0.0
 11
121.825
 21
17.2737
 31
0.0
  0
LINE
  8
0
 62
     0
 10
121.825
 20
17.2737
 30
0.0
 11
121.825
 21
19.9237
 31
0.0
  0
LINE
  8
0
 62
     0
 10
121.825
 20
19.9237
 30
0.0
 11
121.001
 21
19.9237
 31
0.0
  0
LINE
  8
0
 62
     0
 10
121.001
 20
19.9237
 30
0.0
 11
121.001
 21
23.1538
 31
0.0
  0
LINE
  8
0
 62
     0
 10
121.001
 20
23.1538
 30
0.0
 11
114.401
 21
23.1538
 31
0.0
  0
LINE
  8
0
 62
     0
 10
114.401
 20
23.1538
 30
0.0
 11
114.401
 21
19.9237
 31
0.0
  0
LINE
  8
0
 62
     0
 10
114.401
 20
19.9237
 30
0.0
 11
112.726
 21
19.9237
 31
0.0
  0
LINE
  8
0
 62
     0
 10
112.726
 20
19.9237
 30
0.0
 11
112.726
 21
20.6733
 31
0.0
  0
LINE
  8
0
 62
     0
 10
112.726
 20
20.6733
 30
0.0
 11
113.526
 21
20.6733
 31
0.0
  0
LINE
  8
0
 62
     0
 10
113.526
 20
20.6733
 30
0.0
 11
113.526
 21
23.6237
 31
0.0
  0
LINE
  8
0
 62
     0
 10
113.526
 20
23.6237
 30
0.0
 11
112.726
 21
23.6237
 31
0.0
  0
LINE
  8
0
 62
     0
 10
112.726
 20
23.6237
 30
0.0
 11
112.726
 21
24.6242
 31
0.0
  0
LINE
  8
0
 62
     0
 10
112.726
 20
24.6242
 30
0.0
 11
98.8755
 21
24.6242
 31
0.0
  0
LINE
  8
0
 62
     0
 10
146.501
 20
24.6242
 30
0.0
 11
146.501
 21
23.6237
 31
0.0
  0
LINE
  8
0
 62
     0
 10
146.501
 20
23.6237
 30
0.0
 11
145.701
 21
23.6237
 31
0.0
  0
LINE
  8
0
 62
     0
 10
145.701
 20
23.6237
 30
0.0
 11
145.701
 21
20.6733
 31
0.0
  0
LINE
  8
0
 62
     0
 10
145.701
 20
20.6733
 30
0.0
 11
146.501
 21
20.6733
 31
0.0
  0
LINE
  8
0
 62
     0
 10
146.501
 20
20.6733
 30
0.0
 11
146.501
 21
19.9237
 31
0.0
  0
LINE
  8
0
 62
     0
 10
146.501
 20
19.9237
 30
0.0
 11
144.826
 21
19.9237
 31
0.0
  0
LINE
  8
0
 62
     0
 10
144.826
 20
19.9237
 30
0.0
 11
144.826
 21
23.1538
 31
0.0
  0
LINE
  8
0
 62
     0
 10
144.826
 20
23.1538
 30
0.0
 11
138.225
 21
23.1538
 31
0.0
  0
LINE
  8
0
 62
     0
 10
138.225
 20
23.1538
 30
0.0
 11
138.225
 21
19.9237
 31
0.0
  0
LINE
  8
0
 62
     0
 10
138.225
 20
19.9237
 30
0.0
 11
137.401
 21
19.9237
 31
0.0
  0
LINE
  8
0
 62
     0
 10
137.401
 20
19.9237
 30
0.0
 11
137.401
 21
17.2737
 31
0.0
  0
LINE
  8
0
 62
     0
 10
137.401
 20
17.2737
 30
0.0
 11
138.225
 21
17.2737
 31
0.0
  0
LINE
  8
0
 62
     0
 10
138.225
 20
17.2737
 30
0.0
 11
138.225
 21
11.005
 31
0.0
  0
LINE
  8
0
 62
     0
 10
138.225
 20
11.005
 30
0.0
 11
139.951
 21
11.005
 31
0.0
  0
LINE
  8
0
 62
     0
 10
139.951
 20
11.005
 30
0.0
 11
139.951
 21
9.80338
 31
0.0
  0
LINE
  8
0
 62
     0
 10
139.951
 20
9.80338
 30
0.0
 11
143.101
 21
9.80338
 31
0.0
  0
LINE
  8
0
 62
     0
 10
143.101
 20
9.80338
 30
0.0
 11
143.101
 21
11.005
 31
0.0
  0
LINE
  8
0
 62
     0
 10
143.101
 20
11.005
 30
0.0
 11
144.826
 21
11.005
 31
0.0
  0
LINE
  8
0
 62
     0
 10
144.826
 20
11.005
 30
0.0
 11
144.826
 21
15.4754
 31
0.0
  0
LINE
  8
0
 62
     0
 10
144.826
 20
15.4754
 30
0.0
 11
146.501
 21
15.4754
 31
0.0
  0
LINE
  8
0
 62
     0
 10
146.501
 20
15.4754
 30
0.0
 11
146.501
 21
14.7243
 31
0.0
  0
LINE
  8
0
 62
     0
 10
146.501
 20
14.7243
 30
0.0
 11
145.701
 21
14.7243
 31
0.0
  0
LINE
  8
0
 62
     0
 10
145.701
 20
14.7243
 30
0.0
 11
145.701
 21
11.774
 31
0.0
  0
LINE
  8
0
 62
     0
 10
145.701
 20
11.774
 30
0.0
 11
146.501
 21
11.774
 31
0.0
  0
LINE
  8
0
 62
     0
 10
146.501
 20
11.774
 30
0.0
 11
146.501
 21
10.7735
 31
0.0
  0
LINE
  8
0
 62
     0
 10
146.501
 20
10.7735
 30
0.0
 11
160.351
 21
10.7735
 31
0.0
  0
LINE
  8
0
 62
     0
 10
160.351
 20
10.7735
 30
0.0
 11
160.351
 21
11.774
 31
0.0
  0
LINE
  8
0
 62
     0
 10
160.351
 20
11.774
 30
0.0
 11
161.151
 21
11.774
 31
0.0
  0
LINE
  8
0
 62
     0
 10
161.151
 20
11.774
 30
0.0
 11
161.151
 21
14.7243
 31
0.0
  0
LINE
  8
0
 62
     0
 10
161.151
 20
14.7243
 30
0.0
 11
160.351
 21
14.7243
 31
0.0
  0
LINE
  8
0
 62
     0
 10
160.351
 20
14.7243
 30
0.0
 11
160.351
 21
15.4754
 31
0.0
  0
LINE
  8
0
 62
     0
 10
160.351
 20
15.4754
 30
0.0
 11
162.026
 21
15.4754
 31
0.0
  0
LINE
  8
0
 62
     0
 10
162.026
 20
15.4754
 30
0.0
 11
162.026
 21
11.005
 31
0.0
  0
LINE
  8
0
 62
     0
 10
162.026
 20
11.005
 30
0.0
 11
163.751
 21
11.005
 31
0.0
  0
LINE
  8
0
 62
     0
 10
163.751
 20
11.005
 30
0.0
 11
163.751
 21
9.80338
 31
0.0
  0
LINE
  8
0
 62
     0
 10
163.751
 20
9.80338
 30
0.0
 11
166.901
 21
9.80338
 31
0.0
  0
LINE
  8
0
 62
     0
 10
166.901
 20
9.80338
 30
0.0
 11
166.901
 21
11.005
 31
0.0
  0
LINE
  8
0
 62
     0
 10
166.901
 20
11.005
 30
0.0
 11
168.626
 21
11.005
 31
0.0
  0
LINE
  8
0
 62
     0
 10
168.626
 20
11.005
 30
0.0
 11
168.626
 21
17.2737
 31
0.0
  0
LINE
  8
0
 62
     0
 10
168.626
 20
17.2737
 30
0.0
 11
169.45
 21
17.2737
 31
0.0
  0
LINE
  8
0
 62
     0
 10
169.45
 20
17.2737
 30
0.0
 11
169.45
 21
19.9237
 31
0.0
  0
LINE
  8
0
 62
     0
 10
169.45
 20
19.9237
 30
0.0
 11
168.626
 21
19.9237
 31
0.0
  0
LINE
  8
0
 62
     0
 10
168.626
 20
19.9237
 30
0.0
 11
168.626
 21
23.1538
 31
0.0
  0
LINE
  8
0
 62
     0
 10
168.626
 20
23.1538
 30
0.0
 11
162.026
 21
23.1538
 31
0.0
  0
LINE
  8
0
 62
     0
 10
162.026
 20
23.1538
 30
0.0
 11
162.026
 21
19.9237
 31
0.0
  0
LINE
  8
0
 62
     0
 10
162.026
 20
19.9237
 30
0.0
 11
160.351
 21
19.9237
 31
0.0
  0
LINE
  8
0
 62
     0
 10
160.351
 20
19.9237
 30
0.0
 11
160.351
 21
20.6733
 31
0.0
  0
LINE
  8
0
 62
     0
 10
160.351
 20
20.6733
 30
0.0
 11
161.151
 21
20.6733
 31
0.0
  0
LINE
  8
0
 62
     0
 10
161.151
 20
20.6733
 30
0.0
 11
161.151
 21
23.6237
 31
0.0
  0
LINE
  8
0
 62
     0
 10
161.151
 20
23.6237
 30
0.0
 11
160.351
 21
23.6237
 31
0.0
  0
LINE
  8
0
 62
     0
 10
160.351
 20
23.6237
 30
0.0
 11
160.351
 21
24.6242
 31
0.0
  0
LINE
  8
0
 62
     0
 10
160.351
 20
24.6242
 30
0.0
 11
146.501
 21
24.6242
 31
0.0
  0
LINE
  8
0
 62
     0
 10
15.5319
 20
24.6242
 30
0.0
 11
15.5319
 21
23.6237
 31
0.0
  0
LINE
  8
0
 62
     0
 10
15.5319
 20
23.6237
 30
0.0
 11
14.7312
 21
23.6237
 31
0.0
  0
LINE
  8
0
 62
     0
 10
14.7312
 20
23.6237
 30
0.0
 11
14.7312
 21
20.6733
 31
0.0
  0
LINE
  8
0
 62
     0
 10
14.7312
 20
20.6733
 30
0.0
 11
15.5319
 21
20.6733
 31
0.0
  0
LINE
  8
0
 62
     0
 10
15.5319
 20
20.6733
 30
0.0
 11
15.5319
 21
14.7243
 31
0.0
  0
LINE
  8
0
 62
     0
 10
15.5319
 20
14.7243
 30
0.0
 11
14.7312
 21
14.7243
 31
0.0
  0
LINE
  8
0
 62
     0
 10
14.7312
 20
14.7243
 30
0.0
 11
14.7312
 21
11.774
 31
0.0
  0
LINE
  8
0
 62
     0
 10
14.7312
 20
11.774
 30
0.0
 11
15.5319
 21
11.774
 31
0.0
  0
LINE
  8
0
 62
     0
 10
15.5319
 20
11.774
 30
0.0
 11
15.5319
 21
10.7735
 31
0.0
  0
LINE
  8
0
 62
     0
 10
15.5319
 20
10.7735
 30
0.0
 11
29.3812
 21
10.7735
 31
0.0
  0
LINE
  8
0
 62
     0
 10
29.3812
 20
10.7735
 30
0.0
 11
29.3812
 21
11.774
 31
0.0
  0
LINE
  8
0
 62
     0
 10
29.3812
 20
11.774
 30
0.0
 11
30.1818
 21
11.774
 31
0.0
  0
LINE
  8
0
 62
     0
 10
30.1818
 20
11.774
 30
0.0
 11
30.1818
 21
14.7243
 31
0.0
  0
LINE
  8
0
 62
     0
 10
30.1818
 20
14.7243
 30
0.0
 11
29.3812
 21
14.7243
 31
0.0
  0
LINE
  8
0
 62
     0
 10
29.3812
 20
14.7243
 30
0.0
 11
29.3812
 21
20.6733
 31
0.0
  0
LINE
  8
0
 62
     0
 10
29.3812
 20
20.6733
 30
0.0
 11
30.1818
 21
20.6733
 31
0.0
  0
LINE
  8
0
 62
     0
 10
30.1818
 20
20.6733
 30
0.0
 11
30.1818
 21
23.6237
 31
0.0
  0
LINE
  8
0
 62
     0
 10
30.1818
 20
23.6237
 30
0.0
 11
29.3812
 21
23.6237
 31
0.0
  0
LINE
  8
0
 62
     0
 10
29.3812
 20
23.6237
 30
0.0
 11
29.3812
 21
24.6242
 31
0.0
  0
LINE
  8
0
 62
     0
 10
29.3812
 20
24.6242
 30
0.0
 11
15.5319
 21
24.6242
 31
0.0
  0
LINE
  8
0
 62
     0
 10
39.3442
 20
24.6242
 30
0.0
 11
39.3442
 21
23.6237
 31
0.0
  0
LINE
  8
0
 62
     0
 10
39.3442
 20
23.6237
 30
0.0
 11
38.5438
 21
23.6237
 31
0.0
  0
LINE
  8
0
 62
     0
 10
38.5438
 20
23.6237
 30
0.0
 11
38.5438
 21
20.6733
 31
0.0
  0
LINE
  8
0
 62
     0
 10
38.5438
 20
20.6733
 30
0.0
 11
39.3442
 21
20.6733
 31
0.0
  0
LINE
  8
0
 62
     0
 10
39.3442
 20
20.6733
 30
0.0
 11
39.3442
 21
14.7243
 31
0.0
  0
LINE
  8
0
 62
     0
 10
39.3442
 20
14.7243
 30
0.0
 11
38.5438
 21
14.7243
 31
0.0
  0
LINE
  8
0
 62
     0
 10
38.5438
 20
14.7243
 30
0.0
 11
38.5438
 21
11.774
 31
0.0
  0
LINE
  8
0
 62
     0
 10
38.5438
 20
11.774
 30
0.0
 11
39.3442
 21
11.774
 31
0.0
  0
LINE
  8
0
 62
     0
 10
39.3442
 20
11.774
 30
0.0
 11
39.3442
 21
10.7735
 31
0.0
  0
LINE
  8
0
 62
     0
 10
39.3442
 20
10.7735
 30
0.0
 11
53.1936
 21
10.7735
 31
0.0
  0
LINE
  8
0
 62
     0
 10
53.1936
 20
10.7735
 30
0.0
 11
53.1936
 21
11.774
 31
0.0
  0
LINE
  8
0
 62
     0
 10
53.1936
 20
11.774
 30
0.0
 11
53.9944
 21
11.774
 31
0.0
  0
LINE
  8
0
 62
     0
 10
53.9944
 20
11.774
 30
0.0
 11
53.9944
 21
14.7243
 31
0.0
  0
LINE
  8
0
 62
     0
 10
53.9944
 20
14.7243
 30
0.0
 11
53.1936
 21
14.7243
 31
0.0
  0
LINE
  8
0
 62
     0
 10
53.1936
 20
14.7243
 30
0.0
 11
53.1936
 21
20.6733
 31
0.0
  0
LINE
  8
0
 62
     0
 10
53.1936
 20
20.6733
 30
0.0
 11
53.9944
 21
20.6733
 31
0.0
  0
LINE
  8
0
 62
     0
 10
53.9944
 20
20.6733
 30
0.0
 11
53.9944
 21
23.6237
 31
0.0
  0
LINE
  8
0
 62
     0
 10
53.9944
 20
23.6237
 30
0.0
 11
53.1936
 21
23.6237
 31
0.0
  0
LINE
  8
0
 62
     0
 10
53.1936
 20
23.6237
 30
0.0
 11
53.1936
 21
24.6242
 31
0.0
  0
LINE
  8
0
 62
     0
 10
53.1936
 20
24.6242
 30
0.0
 11
39.3442
 21
24.6242
 31
0.0
  0
LINE
  8
0
 62
     0
 10
63.1567
 20
24.6242
 30
0.0
 11
63.1567
 21
23.6237
 31
0.0
  0
LINE
  8
0
 62
     0
 10
63.1567
 20
23.6237
 30
0.0
 11
62.3563
 21
23.6237
 31
0.0
  0
LINE
  8
0
 62
     0
 10
62.3563
 20
23.6237
 30
0.0
 11
62.3563
 21
20.6733
 31
0.0
  0
LINE
  8
0
 62
     0
 10
62.3563
 20
20.6733
 30
0.0
 11
63.1567
 21
20.6733
 31
0.0
  0
LINE
  8
0
 62
     0
 10
63.1567
 20
20.6733
 30
0.0
 11
63.1567
 21
14.7243
 31
0.0
  0
LINE
  8
0
 62
     0
 10
63.1567
 20
14.7243
 30
0.0
 11
62.3563
 21
14.7243
 31
0.0
  0
LINE
  8
0
 62
     0
 10
62.3563
 20
14.7243
 30
0.0
 11
62.3563
 21
11.774
 31
0.0
  0
LINE
  8
0
 62
     0
 10
62.3563
 20
11.774
 30
0.0
 11
63.1567
 21
11.774
 31
0.0
  0
LINE
  8
0
 62
     0
 10
63.1567
 20
11.774
 30
0.0
 11
63.1567
 21
10.7735
 31
0.0
  0
LINE
  8
0
 62
     0
 10
63.1567
 20
10.7735
 30
0.0
 11
77.0061
 21
10.7735
 31
0.0
  0
LINE
  8
0
 62
     0
 10
77.0061
 20
10.7735
 30
0.0
 11
77.0061
 21
11.774
 31
0.0
  0
LINE
  8
0
 62
     0
 10
77.0061
 20
11.774
 30
0.0
 11
77.8069
 21
11.774
 31
0.0
  0
LINE
  8
0
 62
     0
 10
77.8069
 20
11.774
 30
0.0
 11
77.8069
 21
14.7243
 31
0.0
  0
LINE
  8
0
 62
     0
 10
77.8069
 20
14.7243
 30
0.0
 11
77.0061
 21
14.7243
 31
0.0
  0
LINE
  8
0
 62
     0
 10
77.0061
 20
14.7243
 30
0.0
 11
77.0061
 21
20.6733
 31
0.0
  0
LINE
  8
0
 62
     0
 10
77.0061
 20
20.6733
 30
0.0
 11
77.8069
 21
20.6733
 31
0.0
  0
LINE
  8
0
 62
     0
 10
77.8069
 20
20.6733
 30
0.0
 11
77.8069
 21
23.6237
 31
0.0
  0
LINE
  8
0
 62
     0
 10
77.8069
 20
23.6237
 30
0.0
 11
77.0061
 21
23.6237
 31
0.0
  0
LINE
  8
0
 62
     0
 10
77.0061
 20
23.6237
 30
0.0
 11
77.0061
 21
24.6242
 31
0.0
  0
LINE
  8
0
 62
     0
 10
77.0061
 20
24.6242
 30
0.0
 11
63.1567
 21
24.6242
 31
0.0
  0
LINE
  8
0
 62
     0
 10
182.219
 20
24.6242
 30
0.0
 11
182.219
 21
23.6237
 31
0.0
  0
LINE
  8
0
 62
     0
 10
182.219
 20
23.6237
 30
0.0
 11
181.42
 21
23.6237
 31
0.0
  0
LINE
  8
0
 62
     0
 10
181.42
 20
23.6237
 30
0.0
 11
181.42
 21
20.6733
 31
0.0
  0
LINE
  8
0
 62
     0
 10
181.42
 20
20.6733
 30
0.0
 11
182.219
 21
20.6733
 31
0.0
  0
LINE
  8
0
 62
     0
 10
182.219
 20
20.6733
 30
0.0
 11
182.219
 21
14.7243
 31
0.0
  0
LINE
  8
0
 62
     0
 10
182.219
 20
14.7243
 30
0.0
 11
181.42
 21
14.7243
 31
0.0
  0
LINE
  8
0
 62
     0
 10
181.42
 20
14.7243
 30
0.0
 11
181.42
 21
11.774
 31
0.0
  0
LINE
  8
0
 62
     0
 10
181.42
 20
11.774
 30
0.0
 11
182.219
 21
11.774
 31
0.0
  0
LINE
  8
0
 62
     0
 10
182.219
 20
11.774
 30
0.0
 11
182.219
 21
10.7735
 31
0.0
  0
LINE
  8
0
 62
     0
 10
182.219
 20
10.7735
 30
0.0
 11
196.07
 21
10.7735
 31
0.0
  0
LINE
  8
0
 62
     0
 10
196.07
 20
10.7735
 30
0.0
 11
196.07
 21
11.774
 31
0.0
  0
LINE
  8
0
 62
     0
 10
196.07
 20
11.774
 30
0.0
 11
196.869
 21
11.774
 31
0.0
  0
LINE
  8
0
 62
     0
 10
196.869
 20
11.774
 30
0.0
 11
196.869
 21
14.7243
 31
0.0
  0
LINE
  8
0
 62
     0
 10
196.869
 20
14.7243
 30
0.0
 11
196.07
 21
14.7243
 31
0.0
  0
LINE
  8
0
 62
     0
 10
196.07
 20
14.7243
 30
0.0
 11
196.07
 21
20.6733
 31
0.0
  0
LINE
  8
0
 62
     0
 10
196.07
 20
20.6733
 30
0.0
 11
196.869
 21
20.6733
 31
0.0
  0
LINE
  8
0
 62
     0
 10
196.869
 20
20.6733
 30
0.0
 11
196.869
 21
23.6237
 31
0.0
  0
LINE
  8
0
 62
     0
 10
196.869
 20
23.6237
 30
0.0
 11
196.07
 21
23.6237
 31
0.0
  0
LINE
  8
0
 62
     0
 10
196.07
 20
23.6237
 30
0.0
 11
196.07
 21
24.6242
 31
0.0
  0
LINE
  8
0
 62
     0
 10
196.07
 20
24.6242
 30
0.0
 11
182.219
 21
24.6242
 31
0.0
  0
LINE
  8
0
 62
     0
 10
201.269
 20
24.6242
 30
0.0
 11
201.269
 21
23.6237
 31
0.0
  0
LINE
  8
0
 62
     0
 10
201.269
 20
23.6237
 30
0.0
 11
200.47
 21
23.6237
 31
0.0
  0
LINE
  8
0
 62
     0
 10
200.47
 20
23.6237
 30
0.0
 11
200.47
 21
20.6733
 31
0.0
  0
LINE
  8
0
 62
     0
 10
200.47
 20
20.6733
 30
0.0
 11
201.269
 21
20.6733
 31
0.0
  0
LINE
  8
0
 62
     0
 10
201.269
 20
20.6733
 30
0.0
 11
201.269
 21
14.7243
 31
0.0
  0
LINE
  8
0
 62
     0
 10
201.269
 20
14.7243
 30
0.0
 11
200.47
 21
14.7243
 31
0.0
  0
LINE
  8
0
 62
     0
 10
200.47
 20
14.7243
 30
0.0
 11
200.47
 21
11.774
 31
0.0
  0
LINE
  8
0
 62
     0
 10
200.47
 20
11.774
 30
0.0
 11
201.269
 21
11.774
 31
0.0
  0
LINE
  8
0
 62
     0
 10
201.269
 20
11.774
 30
0.0
 11
201.269
 21
10.7735
 31
0.0
  0
LINE
  8
0
 62
     0
 10
201.269
 20
10.7735
 30
0.0
 11
215.12
 21
10.7735
 31
0.0
  0
LINE
  8
0
 62
     0
 10
215.12
 20
10.7735
 30
0.0
 11
215.12
 21
11.774
 31
0.0
  0
LINE
  8
0
 62
     0
 10
215.12
 20
11.774
 30
0.0
 11
215.919
 21
11.774
 31
0.0
  0
LINE
  8
0
 62
     0
 10
215.919
 20
11.774
 30
0.0
 11
215.919
 21
14.7243
 31
0.0
  0
LINE
  8
0
 62
     0
 10
215.919
 20
14.7243
 30
0.0
 11
215.12
 21
14.7243
 31
0.0
  0
LINE
  8
0
 62
     0
 10
215.12
 20
14.7243
 30
0.0
 11
215.12
 21
20.6733
 31
0.0
  0
LINE
  8
0
 62
     0
 10
215.12
 20
20.6733
 30
0.0
 11
215.919
 21
20.6733
 31
0.0
  0
LINE
  8
0
 62
     0
 10
215.919
 20
20.6733
 30
0.0
 11
215.919
 21
23.6237
 31
0.0
  0
LINE
  8
0
 62
     0
 10
215.919
 20
23.6237
 30
0.0
 11
215.12
 21
23.6237
 31
0.0
  0
LINE
  8
0
 62
     0
 10
215.12
 20
23.6237
 30
0.0
 11
215.12
 21
24.6242
 31
0.0
  0
LINE
  8
0
 62
     0
 10
215.12
 20
24.6242
 30
0.0
 11
201.269
 21
24.6242
 31
0.0
  0
LINE
  8
0
 62
     0
 10
220.319
 20
24.6242
 30
0.0
 11
220.319
 21
23.6237
 31
0.0
  0
LINE
  8
0
 62
     0
 10
220.319
 20
23.6237
 30
0.0
 11
219.52
 21
23.6237
 31
0.0
  0
LINE
  8
0
 62
     0
 10
219.52
 20
23.6237
 30
0.0
 11
219.52
 21
20.6733
 31
0.0
  0
LINE
  8
0
 62
     0
 10
219.52
 20
20.6733
 30
0.0
 11
220.319
 21
20.6733
 31
0.0
  0
LINE
  8
0
 62
     0
 10
220.319
 20
20.6733
 30
0.0
 11
220.319
 21
14.7243
 31
0.0
  0
LINE
  8
0
 62
     0
 10
220.319
 20
14.7243
 30
0.0
 11
219.52
 21
14.7243
 31
0.0
  0
LINE
  8
0
 62
     0
 10
219.52
 20
14.7243
 30
0.0
 11
219.52
 21
11.774
 31
0.0
  0
LINE
  8
0
 62
     0
 10
219.52
 20
11.774
 30
0.0
 11
220.319
 21
11.774
 31
0.0
  0
LINE
  8
0
 62
     0
 10
220.319
 20
11.774
 30
0.0
 11
220.319
 21
10.7735
 31
0.0
  0
LINE
  8
0
 62
     0
 10
220.319
 20
10.7735
 30
0.0
 11
234.17
 21
10.7735
 31
0.0
  0
LINE
  8
0
 62
     0
 10
234.17
 20
10.7735
 30
0.0
 11
234.17
 21
11.774
 31
0.0
  0
LINE
  8
0
 62
     0
 10
234.17
 20
11.774
 30
0.0
 11
234.969
 21
11.774
 31
0.0
  0
LINE
  8
0
 62
     0
 10
234.969
 20
11.774
 30
0.0
 11
234.969
 21
14.7243
 31
0.0
  0
LINE
  8
0
 62
     0
 10
234.969
 20
14.7243
 30
0.0
 11
234.17
 21
14.7243
 31
0.0
  0
LINE
  8
0
 62
     0
 10
234.17
 20
14.7243
 30
0.0
 11
234.17
 21
20.6733
 31
0.0
  0
LINE
  8
0
 62
     0
 10
234.17
 20
20.6733
 30
0.0
 11
234.969
 21
20.6733
 31
0.0
  0
LINE
  8
0
 62
     0
 10
234.969
 20
20.6733
 30
0.0
 11
234.969
 21
23.6237
 31
0.0
  0
LINE
  8
0
 62
     0
 10
234.969
 20
23.6237
 30
0.0
 11
234.17
 21
23.6237
 31
0.0
  0
LINE
  8
0
 62
     0
 10
234.17
 20
23.6237
 30
0.0
 11
234.17
 21
24.6242
 31
0.0
  0
LINE
  8
0
 62
     0
 10
234.17
 20
24.6242
 30
0.0
 11
220.319
 21
24.6242
 31
0.0
  0
LINE
  8
0
 62
     0
 10
239.369
 20
24.6242
 30
0.0
 11
239.369
 21
23.6237
 31
0.0
  0
LINE
  8
0
 62
     0
 10
239.369
 20
23.6237
 30
0.0
 11
238.57
 21
23.6237
 31
0.0
  0
LINE
  8
0
 62
     0
 10
238.57
 20
23.6237
 30
0.0
 11
238.57
 21
20.6733
 31
0.0
  0
LINE
  8
0
 62
     0
 10
238.57
 20
20.6733
 30
0.0
 11
239.369
 21
20.6733
 31
0.0
  0
LINE
  8
0
 62
     0
 10
239.369
 20
20.6733
 30
0.0
 11
239.369
 21
14.7243
 31
0.0
  0
LINE
  8
0
 62
     0
 10
239.369
 20
14.7243
 30
0.0
 11
238.57
 21
14.7243
 31
0.0
  0
LINE
  8
0
 62
     0
 10
238.57
 20
14.7243
 30
0.0
 11
238.57
 21
11.774
 31
0.0
  0
LINE
  8
0
 62
     0
 10
238.57
 20
11.774
 30
0.0
 11
239.369
 21
11.774
 31
0.0
  0
LINE
  8
0
 62
     0
 10
239.369
 20
11.774
 30
0.0
 11
239.369
 21
10.7735
 31
0.0
  0
LINE
  8
0
 62
     0
 10
239.369
 20
10.7735
 30
0.0
 11
253.22
 21
10.7735
 31
0.0
  0
LINE
  8
0
 62
     0
 10
253.22
 20
10.7735
 30
0.0
 11
253.22
 21
11.774
 31
0.0
  0
LINE
  8
0
 62
     0
 10
253.22
 20
11.774
 30
0.0
 11
254.019
 21
11.774
 31
0.0
  0
LINE
  8
0
 62
     0
 10
254.019
 20
11.774
 30
0.0
 11
254.019
 21
14.7243
 31
0.0
  0
LINE
  8
0
 62
     0
 10
254.019
 20
14.7243
 30
0.0
 11
253.22
 21
14.7243
 31
0.0
  0
LINE
  8
0
 62
     0
 10
253.22
 20
14.7243
 30
0.0
 11
253.22
 21
20.6733
 31
0.0
  0
LINE
  8
0
 62
     0
 10
253.22
 20
20.6733
 30
0.0
 11
254.019
 21
20.6733
 31
0.0
  0
LINE
  8
0
 62
     0
 10
254.019
 20
20.6733
 30
0.0
 11
254.019
 21
23.6237
 31
0.0
  0
LINE
  8
0
 62
     0
 10
254.019
 20
23.6237
 30
0.0
 11
253.22
 21
23.6237
 31
0.0
  0
LINE
  8
0
 62
     0
 10
253.22
 20
23.6237
 30
0.0
 11
253.22
 21
24.6242
 31
0.0
  0
LINE
  8
0
 62
     0
 10
253.22
 20
24.6242
 30
0.0
 11
239.369
 21
24.6242
 31
0.0
  0
LINE
  8
0
 62
     0
 10
20.2944
 20
43.6742
 30
0.0
 11
20.2944
 21
42.6738
 31
0.0
  0
LINE
  8
0
 62
     0
 10
20.2944
 20
42.6738
 30
0.0
 11
19.4951
 21
42.6738
 31
0.0
  0
LINE
  8
0
 62
     0
 10
19.4951
 20
42.6738
 30
0.0
 11
19.4951
 21
39.7235
 31
0.0
  0
LINE
  8
0
 62
     0
 10
19.4951
 20
39.7235
 30
0.0
 11
20.2944
 21
39.7235
 31
0.0
  0
LINE
  8
0
 62
     0
 10
20.2944
 20
39.7235
 30
0.0
 11
20.2944
 21
38.9738
 31
0.0
  0
LINE
  8
0
 62
     0
 10
20.2944
 20
38.9738
 30
0.0
 11
18.6201
 21
38.9738
 31
0.0
  0
LINE
  8
0
 62
     0
 10
18.6201
 20
38.9738
 30
0.0
 11
18.6201
 21
42.2039
 31
0.0
  0
LINE
  8
0
 62
     0
 10
18.6201
 20
42.2039
 30
0.0
 11
12.0192
 21
42.2039
 31
0.0
  0
LINE
  8
0
 62
     0
 10
12.0192
 20
42.2039
 30
0.0
 11
12.0192
 21
38.9738
 31
0.0
  0
LINE
  8
0
 62
     0
 10
12.0192
 20
38.9738
 30
0.0
 11
11.1938
 21
38.9738
 31
0.0
  0
LINE
  8
0
 62
     0
 10
11.1938
 20
38.9738
 30
0.0
 11
11.1938
 21
36.3238
 31
0.0
  0
LINE
  8
0
 62
     0
 10
11.1938
 20
36.3238
 30
0.0
 11
12.0192
 21
36.3238
 31
0.0
  0
LINE
  8
0
 62
     0
 10
12.0192
 20
36.3238
 30
0.0
 11
12.0192
 21
30.0536
 31
0.0
  0
LINE
  8
0
 62
     0
 10
12.0192
 20
30.0536
 30
0.0
 11
13.7445
 21
30.0536
 31
0.0
  0
LINE
  8
0
 62
     0
 10
13.7445
 20
30.0536
 30
0.0
 11
13.7445
 21
28.8534
 31
0.0
  0
LINE
  8
0
 62
     0
 10
13.7445
 20
28.8534
 30
0.0
 11
16.8947
 21
28.8534
 31
0.0
  0
LINE
  8
0
 62
     0
 10
16.8947
 20
28.8534
 30
0.0
 11
16.8947
 21
30.0536
 31
0.0
  0
LINE
  8
0
 62
     0
 10
16.8947
 20
30.0536
 30
0.0
 11
18.6201
 21
30.0536
 31
0.0
  0
LINE
  8
0
 62
     0
 10
18.6201
 20
30.0536
 30
0.0
 11
18.6201
 21
34.524
 31
0.0
  0
LINE
  8
0
 62
     0
 10
18.6201
 20
34.524
 30
0.0
 11
20.2944
 21
34.524
 31
0.0
  0
LINE
  8
0
 62
     0
 10
20.2944
 20
34.524
 30
0.0
 11
20.2944
 21
33.7743
 31
0.0
  0
LINE
  8
0
 62
     0
 10
20.2944
 20
33.7743
 30
0.0
 11
19.4951
 21
33.7743
 31
0.0
  0
LINE
  8
0
 62
     0
 10
19.4951
 20
33.7743
 30
0.0
 11
19.4951
 21
30.824
 31
0.0
  0
LINE
  8
0
 62
     0
 10
19.4951
 20
30.824
 30
0.0
 11
20.2944
 21
30.824
 31
0.0
  0
LINE
  8
0
 62
     0
 10
20.2944
 20
30.824
 30
0.0
 11
20.2944
 21
29.8235
 31
0.0
  0
LINE
  8
0
 62
     0
 10
20.2944
 20
29.8235
 30
0.0
 11
34.145
 21
29.8235
 31
0.0
  0
LINE
  8
0
 62
     0
 10
34.145
 20
29.8235
 30
0.0
 11
34.145
 21
30.824
 31
0.0
  0
LINE
  8
0
 62
     0
 10
34.145
 20
30.824
 30
0.0
 11
34.9443
 21
30.824
 31
0.0
  0
LINE
  8
0
 62
     0
 10
34.9443
 20
30.824
 30
0.0
 11
34.9443
 21
33.7743
 31
0.0
  0
LINE
  8
0
 62
     0
 10
34.9443
 20
33.7743
 30
0.0
 11
34.145
 21
33.7743
 31
0.0
  0
LINE
  8
0
 62
     0
 10
34.145
 20
33.7743
 30
0.0
 11
34.145
 21
34.524
 31
0.0
  0
LINE
  8
0
 62
     0
 10
34.145
 20
34.524
 30
0.0
 11
35.8193
 21
34.524
 31
0.0
  0
LINE
  8
0
 62
     0
 10
35.8193
 20
34.524
 30
0.0
 11
35.8193
 21
30.0536
 31
0.0
  0
LINE
  8
0
 62
     0
 10
35.8193
 20
30.0536
 30
0.0
 11
37.5447
 21
30.0536
 31
0.0
  0
LINE
  8
0
 62
     0
 10
37.5447
 20
30.0536
 30
0.0
 11
37.5447
 21
28.8534
 31
0.0
  0
LINE
  8
0
 62
     0
 10
37.5447
 20
28.8534
 30
0.0
 11
40.6947
 21
28.8534
 31
0.0
  0
LINE
  8
0
 62
     0
 10
40.6947
 20
28.8534
 30
0.0
 11
40.6947
 21
30.0536
 31
0.0
  0
LINE
  8
0
 62
     0
 10
40.6947
 20
30.0536
 30
0.0
 11
42.4201
 21
30.0536
 31
0.0
  0
LINE
  8
0
 62
     0
 10
42.4201
 20
30.0536
 30
0.0
 11
42.4201
 21
36.3238
 31
0.0
  0
LINE
  8
0
 62
     0
 10
42.4201
 20
36.3238
 30
0.0
 11
43.2442
 21
36.3238
 31
0.0
  0
LINE
  8
0
 62
     0
 10
43.2442
 20
36.3238
 30
0.0
 11
43.2442
 21
38.9738
 31
0.0
  0
LINE
  8
0
 62
     0
 10
43.2442
 20
38.9738
 30
0.0
 11
42.4201
 21
38.9738
 31
0.0
  0
LINE
  8
0
 62
     0
 10
42.4201
 20
38.9738
 30
0.0
 11
42.4201
 21
42.2039
 31
0.0
  0
LINE
  8
0
 62
     0
 10
42.4201
 20
42.2039
 30
0.0
 11
35.8193
 21
42.2039
 31
0.0
  0
LINE
  8
0
 62
     0
 10
35.8193
 20
42.2039
 30
0.0
 11
35.8193
 21
38.9738
 31
0.0
  0
LINE
  8
0
 62
     0
 10
35.8193
 20
38.9738
 30
0.0
 11
34.145
 21
38.9738
 31
0.0
  0
LINE
  8
0
 62
     0
 10
34.145
 20
38.9738
 30
0.0
 11
34.145
 21
39.7235
 31
0.0
  0
LINE
  8
0
 62
     0
 10
34.145
 20
39.7235
 30
0.0
 11
34.9443
 21
39.7235
 31
0.0
  0
LINE
  8
0
 62
     0
 10
34.9443
 20
39.7235
 30
0.0
 11
34.9443
 21
42.6738
 31
0.0
  0
LINE
  8
0
 62
     0
 10
34.9443
 20
42.6738
 30
0.0
 11
34.145
 21
42.6738
 31
0.0
  0
LINE
  8
0
 62
     0
 10
34.145
 20
42.6738
 30
0.0
 11
34.145
 21
43.6742
 31
0.0
  0
LINE
  8
0
 62
     0
 10
34.145
 20
43.6742
 30
0.0
 11
20.2944
 21
43.6742
 31
0.0
  0
LINE
  8
0
 62
     0
 10
48.8692
 20
43.6742
 30
0.0
 11
48.8692
 21
42.6738
 31
0.0
  0
LINE
  8
0
 62
     0
 10
48.8692
 20
42.6738
 30
0.0
 11
48.0702
 21
42.6738
 31
0.0
  0
LINE
  8
0
 62
     0
 10
48.0702
 20
42.6738
 30
0.0
 11
48.0702
 21
39.7235
 31
0.0
  0
LINE
  8
0
 62
     0
 10
48.0702
 20
39.7235
 30
0.0
 11
48.8692
 21
39.7235
 31
0.0
  0
LINE
  8
0
 62
     0
 10
48.8692
 20
39.7235
 30
0.0
 11
48.8692
 21
33.7743
 31
0.0
  0
LINE
  8
0
 62
     0
 10
48.8692
 20
33.7743
 30
0.0
 11
48.0702
 21
33.7743
 31
0.0
  0
LINE
  8
0
 62
     0
 10
48.0702
 20
33.7743
 30
0.0
 11
48.0702
 21
30.824
 31
0.0
  0
LINE
  8
0
 62
     0
 10
48.0702
 20
30.824
 30
0.0
 11
48.8692
 21
30.824
 31
0.0
  0
LINE
  8
0
 62
     0
 10
48.8692
 20
30.824
 30
0.0
 11
48.8692
 21
29.8235
 31
0.0
  0
LINE
  8
0
 62
     0
 10
48.8692
 20
29.8235
 30
0.0
 11
62.72
 21
29.8235
 31
0.0
  0
LINE
  8
0
 62
     0
 10
62.72
 20
29.8235
 30
0.0
 11
62.72
 21
30.824
 31
0.0
  0
LINE
  8
0
 62
     0
 10
62.72
 20
30.824
 30
0.0
 11
63.5194
 21
30.824
 31
0.0
  0
LINE
  8
0
 62
     0
 10
63.5194
 20
30.824
 30
0.0
 11
63.5194
 21
33.7743
 31
0.0
  0
LINE
  8
0
 62
     0
 10
63.5194
 20
33.7743
 30
0.0
 11
62.72
 21
33.7743
 31
0.0
  0
LINE
  8
0
 62
     0
 10
62.72
 20
33.7743
 30
0.0
 11
62.72
 21
39.7235
 31
0.0
  0
LINE
  8
0
 62
     0
 10
62.72
 20
39.7235
 30
0.0
 11
63.5194
 21
39.7235
 31
0.0
  0
LINE
  8
0
 62
     0
 10
63.5194
 20
39.7235
 30
0.0
 11
63.5194
 21
42.6738
 31
0.0
  0
LINE
  8
0
 62
     0
 10
63.5194
 20
42.6738
 30
0.0
 11
62.72
 21
42.6738
 31
0.0
  0
LINE
  8
0
 62
     0
 10
62.72
 20
42.6738
 30
0.0
 11
62.72
 21
43.6742
 31
0.0
  0
LINE
  8
0
 62
     0
 10
62.72
 20
43.6742
 30
0.0
 11
48.8692
 21
43.6742
 31
0.0
  0
LINE
  8
0
 62
     0
 10
67.9192
 20
43.6742
 30
0.0
 11
67.9192
 21
42.6738
 31
0.0
  0
LINE
  8
0
 62
     0
 10
67.9192
 20
42.6738
 30
0.0
 11
67.1202
 21
42.6738
 31
0.0
  0
LINE
  8
0
 62
     0
 10
67.1202
 20
42.6738
 30
0.0
 11
67.1202
 21
39.7235
 31
0.0
  0
LINE
  8
0
 62
     0
 10
67.1202
 20
39.7235
 30
0.0
 11
67.9192
 21
39.7235
 31
0.0
  0
LINE
  8
0
 62
     0
 10
67.9192
 20
39.7235
 30
0.0
 11
67.9192
 21
33.7743
 31
0.0
  0
LINE
  8
0
 62
     0
 10
67.9192
 20
33.7743
 30
0.0
 11
67.1202
 21
33.7743
 31
0.0
  0
LINE
  8
0
 62
     0
 10
67.1202
 20
33.7743
 30
0.0
 11
67.1202
 21
30.824
 31
0.0
  0
LINE
  8
0
 62
     0
 10
67.1202
 20
30.824
 30
0.0
 11
67.9192
 21
30.824
 31
0.0
  0
LINE
  8
0
 62
     0
 10
67.9192
 20
30.824
 30
0.0
 11
67.9192
 21
29.8235
 31
0.0
  0
LINE
  8
0
 62
     0
 10
67.9192
 20
29.8235
 30
0.0
 11
81.77
 21
29.8235
 31
0.0
  0
LINE
  8
0
 62
     0
 10
81.77
 20
29.8235
 30
0.0
 11
81.77
 21
30.824
 31
0.0
  0
LINE
  8
0
 62
     0
 10
81.77
 20
30.824
 30
0.0
 11
82.5694
 21
30.824
 31
0.0
  0
LINE
  8
0
 62
     0
 10
82.5694
 20
30.824
 30
0.0
 11
82.5694
 21
33.7743
 31
0.0
  0
LINE
  8
0
 62
     0
 10
82.5694
 20
33.7743
 30
0.0
 11
81.77
 21
33.7743
 31
0.0
  0
LINE
  8
0
 62
     0
 10
81.77
 20
33.7743
 30
0.0
 11
81.77
 21
39.7235
 31
0.0
  0
LINE
  8
0
 62
     0
 10
81.77
 20
39.7235
 30
0.0
 11
82.5694
 21
39.7235
 31
0.0
  0
LINE
  8
0
 62
     0
 10
82.5694
 20
39.7235
 30
0.0
 11
82.5694
 21
42.6738
 31
0.0
  0
LINE
  8
0
 62
     0
 10
82.5694
 20
42.6738
 30
0.0
 11
81.77
 21
42.6738
 31
0.0
  0
LINE
  8
0
 62
     0
 10
81.77
 20
42.6738
 30
0.0
 11
81.77
 21
43.6742
 31
0.0
  0
LINE
  8
0
 62
     0
 10
81.77
 20
43.6742
 30
0.0
 11
67.9192
 21
43.6742
 31
0.0
  0
LINE
  8
0
 62
     0
 10
86.9692
 20
43.6742
 30
0.0
 11
86.9692
 21
42.6738
 31
0.0
  0
LINE
  8
0
 62
     0
 10
86.9692
 20
42.6738
 30
0.0
 11
86.1702
 21
42.6738
 31
0.0
  0
LINE
  8
0
 62
     0
 10
86.1702
 20
42.6738
 30
0.0
 11
86.1702
 21
39.7235
 31
0.0
  0
LINE
  8
0
 62
     0
 10
86.1702
 20
39.7235
 30
0.0
 11
86.9692
 21
39.7235
 31
0.0
  0
LINE
  8
0
 62
     0
 10
86.9692
 20
39.7235
 30
0.0
 11
86.9692
 21
33.7743
 31
0.0
  0
LINE
  8
0
 62
     0
 10
86.9692
 20
33.7743
 30
0.0
 11
86.1702
 21
33.7743
 31
0.0
  0
LINE
  8
0
 62
     0
 10
86.1702
 20
33.7743
 30
0.0
 11
86.1702
 21
30.824
 31
0.0
  0
LINE
  8
0
 62
     0
 10
86.1702
 20
30.824
 30
0.0
 11
86.9692
 21
30.824
 31
0.0
  0
LINE
  8
0
 62
     0
 10
86.9692
 20
30.824
 30
0.0
 11
86.9692
 21
29.8235
 31
0.0
  0
LINE
  8
0
 62
     0
 10
86.9692
 20
29.8235
 30
0.0
 11
100.82
 21
29.8235
 31
0.0
  0
LINE
  8
0
 62
     0
 10
100.82
 20
29.8235
 30
0.0
 11
100.82
 21
30.824
 31
0.0
  0
LINE
  8
0
 62
     0
 10
100.82
 20
30.824
 30
0.0
 11
101.619
 21
30.824
 31
0.0
  0
LINE
  8
0
 62
     0
 10
101.619
 20
30.824
 30
0.0
 11
101.619
 21
33.7743
 31
0.0
  0
LINE
  8
0
 62
     0
 10
101.619
 20
33.7743
 30
0.0
 11
100.82
 21
33.7743
 31
0.0
  0
LINE
  8
0
 62
     0
 10
100.82
 20
33.7743
 30
0.0
 11
100.82
 21
39.7235
 31
0.0
  0
LINE
  8
0
 62
     0
 10
100.82
 20
39.7235
 30
0.0
 11
101.619
 21
39.7235
 31
0.0
  0
LINE
  8
0
 62
     0
 10
101.619
 20
39.7235
 30
0.0
 11
101.619
 21
42.6738
 31
0.0
  0
LINE
  8
0
 62
     0
 10
101.619
 20
42.6738
 30
0.0
 11
100.82
 21
42.6738
 31
0.0
  0
LINE
  8
0
 62
     0
 10
100.82
 20
42.6738
 30
0.0
 11
100.82
 21
43.6742
 31
0.0
  0
LINE
  8
0
 62
     0
 10
100.82
 20
43.6742
 30
0.0
 11
86.9692
 21
43.6742
 31
0.0
  0
LINE
  8
0
 62
     0
 10
106.019
 20
43.6742
 30
0.0
 11
106.019
 21
42.6738
 31
0.0
  0
LINE
  8
0
 62
     0
 10
106.019
 20
42.6738
 30
0.0
 11
105.22
 21
42.6738
 31
0.0
  0
LINE
  8
0
 62
     0
 10
105.22
 20
42.6738
 30
0.0
 11
105.22
 21
39.7235
 31
0.0
  0
LINE
  8
0
 62
     0
 10
105.22
 20
39.7235
 30
0.0
 11
106.019
 21
39.7235
 31
0.0
  0
LINE
  8
0
 62
     0
 10
106.019
 20
39.7235
 30
0.0
 11
106.019
 21
33.7743
 31
0.0
  0
LINE
  8
0
 62
     0
 10
106.019
 20
33.7743
 30
0.0
 11
105.22
 21
33.7743
 31
0.0
  0
LINE
  8
0
 62
     0
 10
105.22
 20
33.7743
 30
0.0
 11
105.22
 21
30.824
 31
0.0
  0
LINE
  8
0
 62
     0
 10
105.22
 20
30.824
 30
0.0
 11
106.019
 21
30.824
 31
0.0
  0
LINE
  8
0
 62
     0
 10
106.019
 20
30.824
 30
0.0
 11
106.019
 21
29.8235
 31
0.0
  0
LINE
  8
0
 62
     0
 10
106.019
 20
29.8235
 30
0.0
 11
119.869
 21
29.8235
 31
0.0
  0
LINE
  8
0
 62
     0
 10
119.869
 20
29.8235
 30
0.0
 11
119.869
 21
30.824
 31
0.0
  0
LINE
  8
0
 62
     0
 10
119.869
 20
30.824
 30
0.0
 11
120.669
 21
30.824
 31
0.0
  0
LINE
  8
0
 62
     0
 10
120.669
 20
30.824
 30
0.0
 11
120.669
 21
33.7743
 31
0.0
  0
LINE
  8
0
 62
     0
 10
120.669
 20
33.7743
 30
0.0
 11
119.869
 21
33.7743
 31
0.0
  0
LINE
  8
0
 62
     0
 10
119.869
 20
33.7743
 30
0.0
 11
119.869
 21
39.7235
 31
0.0
  0
LINE
  8
0
 62
     0
 10
119.869
 20
39.7235
 30
0.0
 11
120.669
 21
39.7235
 31
0.0
  0
LINE
  8
0
 62
     0
 10
120.669
 20
39.7235
 30
0.0
 11
120.669
 21
42.6738
 31
0.0
  0
LINE
  8
0
 62
     0
 10
120.669
 20
42.6738
 30
0.0
 11
119.869
 21
42.6738
 31
0.0
  0
LINE
  8
0
 62
     0
 10
119.869
 20
42.6738
 30
0.0
 11
119.869
 21
43.6742
 31
0.0
  0
LINE
  8
0
 62
     0
 10
119.869
 20
43.6742
 30
0.0
 11
106.019
 21
43.6742
 31
0.0
  0
LINE
  8
0
 62
     0
 10
125.069
 20
43.6742
 30
0.0
 11
125.069
 21
42.6738
 31
0.0
  0
LINE
  8
0
 62
     0
 10
125.069
 20
42.6738
 30
0.0
 11
124.27
 21
42.6738
 31
0.0
  0
LINE
  8
0
 62
     0
 10
124.27
 20
42.6738
 30
0.0
 11
124.27
 21
39.7235
 31
0.0
  0
LINE
  8
0
 62
     0
 10
124.27
 20
39.7235
 30
0.0
 11
125.069
 21
39.7235
 31
0.0
  0
LINE
  8
0
 62
     0
 10
125.069
 20
39.7235
 30
0.0
 11
125.069
 21
33.7743
 31
0.0
  0
LINE
  8
0
 62
     0
 10
125.069
 20
33.7743
 30
0.0
 11
124.27
 21
33.7743
 31
0.0
  0
LINE
  8
0
 62
     0
 10
124.27
 20
33.7743
 30
0.0
 11
124.27
 21
30.824
 31
0.0
  0
LINE
  8
0
 62
     0
 10
124.27
 20
30.824
 30
0.0
 11
125.069
 21
30.824
 31
0.0
  0
LINE
  8
0
 62
     0
 10
125.069
 20
30.824
 30
0.0
 11
125.069
 21
29.8235
 31
0.0
  0
LINE
  8
0
 62
     0
 10
125.069
 20
29.8235
 30
0.0
 11
138.92
 21
29.8235
 31
0.0
  0
LINE
  8
0
 62
     0
 10
138.92
 20
29.8235
 30
0.0
 11
138.92
 21
30.824
 31
0.0
  0
LINE
  8
0
 62
     0
 10
138.92
 20
30.824
 30
0.0
 11
139.719
 21
30.824
 31
0.0
  0
LINE
  8
0
 62
     0
 10
139.719
 20
30.824
 30
0.0
 11
139.719
 21
33.7743
 31
0.0
  0
LINE
  8
0
 62
     0
 10
139.719
 20
33.7743
 30
0.0
 11
138.92
 21
33.7743
 31
0.0
  0
LINE
  8
0
 62
     0
 10
138.92
 20
33.7743
 30
0.0
 11
138.92
 21
39.7235
 31
0.0
  0
LINE
  8
0
 62
     0
 10
138.92
 20
39.7235
 30
0.0
 11
139.719
 21
39.7235
 31
0.0
  0
LINE
  8
0
 62
     0
 10
139.719
 20
39.7235
 30
0.0
 11
139.719
 21
42.6738
 31
0.0
  0
LINE
  8
0
 62
     0
 10
139.719
 20
42.6738
 30
0.0
 11
138.92
 21
42.6738
 31
0.0
  0
LINE
  8
0
 62
     0
 10
138.92
 20
42.6738
 30
0.0
 11
138.92
 21
43.6742
 31
0.0
  0
LINE
  8
0
 62
     0
 10
138.92
 20
43.6742
 30
0.0
 11
125.069
 21
43.6742
 31
0.0
  0
LINE
  8
0
 62
     0
 10
144.119
 20
43.6742
 30
0.0
 11
144.119
 21
42.6738
 31
0.0
  0
LINE
  8
0
 62
     0
 10
144.119
 20
42.6738
 30
0.0
 11
143.32
 21
42.6738
 31
0.0
  0
LINE
  8
0
 62
     0
 10
143.32
 20
42.6738
 30
0.0
 11
143.32
 21
39.7235
 31
0.0
  0
LINE
  8
0
 62
     0
 10
143.32
 20
39.7235
 30
0.0
 11
144.119
 21
39.7235
 31
0.0
  0
LINE
  8
0
 62
     0
 10
144.119
 20
39.7235
 30
0.0
 11
144.119
 21
33.7743
 31
0.0
  0
LINE
  8
0
 62
     0
 10
144.119
 20
33.7743
 30
0.0
 11
143.32
 21
33.7743
 31
0.0
  0
LINE
  8
0
 62
     0
 10
143.32
 20
33.7743
 30
0.0
 11
143.32
 21
30.824
 31
0.0
  0
LINE
  8
0
 62
     0
 10
143.32
 20
30.824
 30
0.0
 11
144.119
 21
30.824
 31
0.0
  0
LINE
  8
0
 62
     0
 10
144.119
 20
30.824
 30
0.0
 11
144.119
 21
29.8235
 31
0.0
  0
LINE
  8
0
 62
     0
 10
144.119
 20
29.8235
 30
0.0
 11
157.97
 21
29.8235
 31
0.0
  0
LINE
  8
0
 62
     0
 10
157.97
 20
29.8235
 30
0.0
 11
157.97
 21
30.824
 31
0.0
  0
LINE
  8
0
 62
     0
 10
157.97
 20
30.824
 30
0.0
 11
158.769
 21
30.824
 31
0.0
  0
LINE
  8
0
 62
     0
 10
158.769
 20
30.824
 30
0.0
 11
158.769
 21
33.7743
 31
0.0
  0
LINE
  8
0
 62
     0
 10
158.769
 20
33.7743
 30
0.0
 11
157.97
 21
33.7743
 31
0.0
  0
LINE
  8
0
 62
     0
 10
157.97
 20
33.7743
 30
0.0
 11
157.97
 21
39.7235
 31
0.0
  0
LINE
  8
0
 62
     0
 10
157.97
 20
39.7235
 30
0.0
 11
158.769
 21
39.7235
 31
0.0
  0
LINE
  8
0
 62
     0
 10
158.769
 20
39.7235
 30
0.0
 11
158.769
 21
42.6738
 31
0.0
  0
LINE
  8
0
 62
     0
 10
158.769
 20
42.6738
 30
0.0
 11
157.97
 21
42.6738
 31
0.0
  0
LINE
  8
0
 62
     0
 10
157.97
 20
42.6738
 30
0.0
 11
157.97
 21
43.6742
 31
0.0
  0
LINE
  8
0
 62
     0
 10
157.97
 20
43.6742
 30
0.0
 11
144.119
 21
43.6742
 31
0.0
  0
LINE
  8
0
 62
     0
 10
163.169
 20
43.6742
 30
0.0
 11
163.169
 21
42.6738
 31
0.0
  0
LINE
  8
0
 62
     0
 10
163.169
 20
42.6738
 30
0.0
 11
162.37
 21
42.6738
 31
0.0
  0
LINE
  8
0
 62
     0
 10
162.37
 20
42.6738
 30
0.0
 11
162.37
 21
39.7235
 31
0.0
  0
LINE
  8
0
 62
     0
 10
162.37
 20
39.7235
 30
0.0
 11
163.169
 21
39.7235
 31
0.0
  0
LINE
  8
0
 62
     0
 10
163.169
 20
39.7235
 30
0.0
 11
163.169
 21
33.7743
 31
0.0
  0
LINE
  8
0
 62
     0
 10
163.169
 20
33.7743
 30
0.0
 11
162.37
 21
33.7743
 31
0.0
  0
LINE
  8
0
 62
     0
 10
162.37
 20
33.7743
 30
0.0
 11
162.37
 21
30.824
 31
0.0
  0
LINE
  8
0
 62
     0
 10
162.37
 20
30.824
 30
0.0
 11
163.169
 21
30.824
 31
0.0
  0
LINE
  8
0
 62
     0
 10
163.169
 20
30.824
 30
0.0
 11
163.169
 21
29.8235
 31
0.0
  0
LINE
  8
0
 62
     0
 10
163.169
 20
29.8235
 30
0.0
 11
177.02
 21
29.8235
 31
0.0
  0
LINE
  8
0
 62
     0
 10
177.02
 20
29.8235
 30
0.0
 11
177.02
 21
30.824
 31
0.0
  0
LINE
  8
0
 62
     0
 10
177.02
 20
30.824
 30
0.0
 11
177.819
 21
30.824
 31
0.0
  0
LINE
  8
0
 62
     0
 10
177.819
 20
30.824
 30
0.0
 11
177.819
 21
33.7743
 31
0.0
  0
LINE
  8
0
 62
     0
 10
177.819
 20
33.7743
 30
0.0
 11
177.02
 21
33.7743
 31
0.0
  0
LINE
  8
0
 62
     0
 10
177.02
 20
33.7743
 30
0.0
 11
177.02
 21
39.7235
 31
0.0
  0
LINE
  8
0
 62
     0
 10
177.02
 20
39.7235
 30
0.0
 11
177.819
 21
39.7235
 31
0.0
  0
LINE
  8
0
 62
     0
 10
177.819
 20
39.7235
 30
0.0
 11
177.819
 21
42.6738
 31
0.0
  0
LINE
  8
0
 62
     0
 10
177.819
 20
42.6738
 30
0.0
 11
177.02
 21
42.6738
 31
0.0
  0
LINE
  8
0
 62
     0
 10
177.02
 20
42.6738
 30
0.0
 11
177.02
 21
43.6742
 31
0.0
  0
LINE
  8
0
 62
     0
 10
177.02
 20
43.6742
 30
0.0
 11
163.169
 21
43.6742
 31
0.0
  0
LINE
  8
0
 62
     0
 10
182.219
 20
43.6742
 30
0.0
 11
182.219
 21
42.6738
 31
0.0
  0
LINE
  8
0
 62
     0
 10
182.219
 20
42.6738
 30
0.0
 11
181.42
 21
42.6738
 31
0.0
  0
LINE
  8
0
 62
     0
 10
181.42
 20
42.6738
 30
0.0
 11
181.42
 21
39.7235
 31
0.0
  0
LINE
  8
0
 62
     0
 10
181.42
 20
39.7235
 30
0.0
 11
182.219
 21
39.7235
 31
0.0
  0
LINE
  8
0
 62
     0
 10
182.219
 20
39.7235
 30
0.0
 11
182.219
 21
33.7743
 31
0.0
  0
LINE
  8
0
 62
     0
 10
182.219
 20
33.7743
 30
0.0
 11
181.42
 21
33.7743
 31
0.0
  0
LINE
  8
0
 62
     0
 10
181.42
 20
33.7743
 30
0.0
 11
181.42
 21
30.824
 31
0.0
  0
LINE
  8
0
 62
     0
 10
181.42
 20
30.824
 30
0.0
 11
182.219
 21
30.824
 31
0.0
  0
LINE
  8
0
 62
     0
 10
182.219
 20
30.824
 30
0.0
 11
182.219
 21
29.8235
 31
0.0
  0
LINE
  8
0
 62
     0
 10
182.219
 20
29.8235
 30
0.0
 11
196.07
 21
29.8235
 31
0.0
  0
LINE
  8
0
 62
     0
 10
196.07
 20
29.8235
 30
0.0
 11
196.07
 21
30.824
 31
0.0
  0
LINE
  8
0
 62
     0
 10
196.07
 20
30.824
 30
0.0
 11
196.869
 21
30.824
 31
0.0
  0
LINE
  8
0
 62
     0
 10
196.869
 20
30.824
 30
0.0
 11
196.869
 21
33.7743
 31
0.0
  0
LINE
  8
0
 62
     0
 10
196.869
 20
33.7743
 30
0.0
 11
196.07
 21
33.7743
 31
0.0
  0
LINE
  8
0
 62
     0
 10
196.07
 20
33.7743
 30
0.0
 11
196.07
 21
39.7235
 31
0.0
  0
LINE
  8
0
 62
     0
 10
196.07
 20
39.7235
 30
0.0
 11
196.869
 21
39.7235
 31
0.0
  0
LINE
  8
0
 62
     0
 10
196.869
 20
39.7235
 30
0.0
 11
196.869
 21
42.6738
 31
0.0
  0
LINE
  8
0
 62
     0
 10
196.869
 20
42.6738
 30
0.0
 11
196.07
 21
42.6738
 31
0.0
  0
LINE
  8
0
 62
     0
 10
196.07
 20
42.6738
 30
0.0
 11
196.07
 21
43.6742
 31
0.0
  0
LINE
  8
0
 62
     0
 10
196.07
 20
43.6742
 30
0.0
 11
182.219
 21
43.6742
 31
0.0
  0
LINE
  8
0
 62
     0
 10
201.269
 20
43.6742
 30
0.0
 11
201.269
 21
42.6738
 31
0.0
  0
LINE
  8
0
 62
     0
 10
201.269
 20
42.6738
 30
0.0
 11
200.47
 21
42.6738
 31
0.0
  0
LINE
  8
0
 62
     0
 10
200.47
 20
42.6738
 30
0.0
 11
200.47
 21
39.7235
 31
0.0
  0
LINE
  8
0
 62
     0
 10
200.47
 20
39.7235
 30
0.0
 11
201.269
 21
39.7235
 31
0.0
  0
LINE
  8
0
 62
     0
 10
201.269
 20
39.7235
 30
0.0
 11
201.269
 21
33.7743
 31
0.0
  0
LINE
  8
0
 62
     0
 10
201.269
 20
33.7743
 30
0.0
 11
200.47
 21
33.7743
 31
0.0
  0
LINE
  8
0
 62
     0
 10
200.47
 20
33.7743
 30
0.0
 11
200.47
 21
30.824
 31
0.0
  0
LINE
  8
0
 62
     0
 10
200.47
 20
30.824
 30
0.0
 11
201.269
 21
30.824
 31
0.0
  0
LINE
  8
0
 62
     0
 10
201.269
 20
30.824
 30
0.0
 11
201.269
 21
29.8235
 31
0.0
  0
LINE
  8
0
 62
     0
 10
201.269
 20
29.8235
 30
0.0
 11
215.12
 21
29.8235
 31
0.0
  0
LINE
  8
0
 62
     0
 10
215.12
 20
29.8235
 30
0.0
 11
215.12
 21
30.824
 31
0.0
  0
LINE
  8
0
 62
     0
 10
215.12
 20
30.824
 30
0.0
 11
215.919
 21
30.824
 31
0.0
  0
LINE
  8
0
 62
     0
 10
215.919
 20
30.824
 30
0.0
 11
215.919
 21
33.7743
 31
0.0
  0
LINE
  8
0
 62
     0
 10
215.919
 20
33.7743
 30
0.0
 11
215.12
 21
33.7743
 31
0.0
  0
LINE
  8
0
 62
     0
 10
215.12
 20
33.7743
 30
0.0
 11
215.12
 21
39.7235
 31
0.0
  0
LINE
  8
0
 62
     0
 10
215.12
 20
39.7235
 30
0.0
 11
215.919
 21
39.7235
 31
0.0
  0
LINE
  8
0
 62
     0
 10
215.919
 20
39.7235
 30
0.0
 11
215.919
 21
42.6738
 31
0.0
  0
LINE
  8
0
 62
     0
 10
215.919
 20
42.6738
 30
0.0
 11
215.12
 21
42.6738
 31
0.0
  0
LINE
  8
0
 62
     0
 10
215.12
 20
42.6738
 30
0.0
 11
215.12
 21
43.6742
 31
0.0
  0
LINE
  8
0
 62
     0
 10
215.12
 20
43.6742
 30
0.0
 11
201.269
 21
43.6742
 31
0.0
  0
LINE
  8
0
 62
     0
 10
220.319
 20
43.6742
 30
0.0
 11
220.319
 21
42.6738
 31
0.0
  0
LINE
  8
0
 62
     0
 10
220.319
 20
42.6738
 30
0.0
 11
219.52
 21
42.6738
 31
0.0
  0
LINE
  8
0
 62
     0
 10
219.52
 20
42.6738
 30
0.0
 11
219.52
 21
39.7235
 31
0.0
  0
LINE
  8
0
 62
     0
 10
219.52
 20
39.7235
 30
0.0
 11
220.319
 21
39.7235
 31
0.0
  0
LINE
  8
0
 62
     0
 10
220.319
 20
39.7235
 30
0.0
 11
220.319
 21
33.7743
 31
0.0
  0
LINE
  8
0
 62
     0
 10
220.319
 20
33.7743
 30
0.0
 11
219.52
 21
33.7743
 31
0.0
  0
LINE
  8
0
 62
     0
 10
219.52
 20
33.7743
 30
0.0
 11
219.52
 21
30.824
 31
0.0
  0
LINE
  8
0
 62
     0
 10
219.52
 20
30.824
 30
0.0
 11
220.319
 21
30.824
 31
0.0
  0
LINE
  8
0
 62
     0
 10
220.319
 20
30.824
 30
0.0
 11
220.319
 21
29.8235
 31
0.0
  0
LINE
  8
0
 62
     0
 10
220.319
 20
29.8235
 30
0.0
 11
234.17
 21
29.8235
 31
0.0
  0
LINE
  8
0
 62
     0
 10
234.17
 20
29.8235
 30
0.0
 11
234.17
 21
30.824
 31
0.0
  0
LINE
  8
0
 62
     0
 10
234.17
 20
30.824
 30
0.0
 11
234.969
 21
30.824
 31
0.0
  0
LINE
  8
0
 62
     0
 10
234.969
 20
30.824
 30
0.0
 11
234.969
 21
33.7743
 31
0.0
  0
LINE
  8
0
 62
     0
 10
234.969
 20
33.7743
 30
0.0
 11
234.17
 21
33.7743
 31
0.0
  0
LINE
  8
0
 62
     0
 10
234.17
 20
33.7743
 30
0.0
 11
234.17
 21
39.7235
 31
0.0
  0
LINE
  8
0
 62
     0
 10
234.17
 20
39.7235
 30
0.0
 11
234.969
 21
39.7235
 31
0.0
  0
LINE
  8
0
 62
     0
 10
234.969
 20
39.7235
 30
0.0
 11
234.969
 21
42.6738
 31
0.0
  0
LINE
  8
0
 62
     0
 10
234.969
 20
42.6738
 30
0.0
 11
234.17
 21
42.6738
 31
0.0
  0
LINE
  8
0
 62
     0
 10
234.17
 20
42.6738
 30
0.0
 11
234.17
 21
43.6742
 31
0.0
  0
LINE
  8
0
 62
     0
 10
234.17
 20
43.6742
 30
0.0
 11
220.319
 21
43.6742
 31
0.0
  0
LINE
  8
0
 62
     0
 10
239.369
 20
43.6742
 30
0.0
 11
239.369
 21
42.6738
 31
0.0
  0
LINE
  8
0
 62
     0
 10
239.369
 20
42.6738
 30
0.0
 11
238.57
 21
42.6738
 31
0.0
  0
LINE
  8
0
 62
     0
 10
238.57
 20
42.6738
 30
0.0
 11
238.57
 21
39.7235
 31
0.0
  0
LINE
  8
0
 62
     0
 10
238.57
 20
39.7235
 30
0.0
 11
239.369
 21
39.7235
 31
0.0
  0
LINE
  8
0
 62
     0
 10
239.369
 20
39.7235
 30
0.0
 11
239.369
 21
33.7743
 31
0.0
  0
LINE
  8
0
 62
     0
 10
239.369
 20
33.7743
 30
0.0
 11
238.57
 21
33.7743
 31
0.0
  0
LINE
  8
0
 62
     0
 10
238.57
 20
33.7743
 30
0.0
 11
238.57
 21
30.824
 31
0.0
  0
LINE
  8
0
 62
     0
 10
238.57
 20
30.824
 30
0.0
 11
239.369
 21
30.824
 31
0.0
  0
LINE
  8
0
 62
     0
 10
239.369
 20
30.824
 30
0.0
 11
239.369
 21
29.8235
 31
0.0
  0
LINE
  8
0
 62
     0
 10
239.369
 20
29.8235
 30
0.0
 11
253.22
 21
29.8235
 31
0.0
  0
LINE
  8
0
 62
     0
 10
253.22
 20
29.8235
 30
0.0
 11
253.22
 21
30.824
 31
0.0
  0
LINE
  8
0
 62
     0
 10
253.22
 20
30.824
 30
0.0
 11
254.019
 21
30.824
 31
0.0
  0
LINE
  8
0
 62
     0
 10
254.019
 20
30.824
 30
0.0
 11
254.019
 21
33.7743
 31
0.0
  0
LINE
  8
0
 62
     0
 10
254.019
 20
33.7743
 30
0.0
 11
253.22
 21
33.7743
 31
0.0
  0
LINE
  8
0
 62
     0
 10
253.22
 20
33.7743
 30
0.0
 11
253.22
 21
39.7235
 31
0.0
  0
LINE
  8
0
 62
     0
 10
253.22
 20
39.7235
 30
0.0
 11
254.019
 21
39.7235
 31
0.0
  0
LINE
  8
0
 62
     0
 10
254.019
 20
39.7235
 30
0.0
 11
254.019
 21
42.6738
 31
0.0
  0
LINE
  8
0
 62
     0
 10
254.019
 20
42.6738
 30
0.0
 11
253.22
 21
42.6738
 31
0.0
  0
LINE
  8
0
 62
     0
 10
253.22
 20
42.6738
 30
0.0
 11
253.22
 21
43.6742
 31
0.0
  0
LINE
  8
0
 62
     0
 10
253.22
 20
43.6742
 30
0.0
 11
239.369
 21
43.6742
 31
0.0
  0
LINE
  8
0
 62
     0
 10
15.5319
 20
62.7242
 30
0.0
 11
15.5319
 21
61.7238
 31
0.0
  0
LINE
  8
0
 62
     0
 10
15.5319
 20
61.7238
 30
0.0
 11
14.7312
 21
61.7238
 31
0.0
  0
LINE
  8
0
 62
     0
 10
14.7312
 20
61.7238
 30
0.0
 11
14.7312
 21
58.7735
 31
0.0
  0
LINE
  8
0
 62
     0
 10
14.7312
 20
58.7735
 30
0.0
 11
15.5319
 21
58.7735
 31
0.0
  0
LINE
  8
0
 62
     0
 10
15.5319
 20
58.7735
 30
0.0
 11
15.5319
 21
52.8242
 31
0.0
  0
LINE
  8
0
 62
     0
 10
15.5319
 20
52.8242
 30
0.0
 11
14.7312
 21
52.8242
 31
0.0
  0
LINE
  8
0
 62
     0
 10
14.7312
 20
52.8242
 30
0.0
 11
14.7312
 21
49.874
 31
0.0
  0
LINE
  8
0
 62
     0
 10
14.7312
 20
49.874
 30
0.0
 11
15.5319
 21
49.874
 31
0.0
  0
LINE
  8
0
 62
     0
 10
15.5319
 20
49.874
 30
0.0
 11
15.5319
 21
48.8735
 31
0.0
  0
LINE
  8
0
 62
     0
 10
15.5319
 20
48.8735
 30
0.0
 11
29.3812
 21
48.8735
 31
0.0
  0
LINE
  8
0
 62
     0
 10
29.3812
 20
48.8735
 30
0.0
 11
29.3812
 21
49.874
 31
0.0
  0
LINE
  8
0
 62
     0
 10
29.3812
 20
49.874
 30
0.0
 11
30.1818
 21
49.874
 31
0.0
  0
LINE
  8
0
 62
     0
 10
30.1818
 20
49.874
 30
0.0
 11
30.1818
 21
52.8242
 31
0.0
  0
LINE
  8
0
 62
     0
 10
30.1818
 20
52.8242
 30
0.0
 11
29.3812
 21
52.8242
 31
0.0
  0
LINE
  8
0
 62
     0
 10
29.3812
 20
52.8242
 30
0.0
 11
29.3812
 21
58.7735
 31
0.0
  0
LINE
  8
0
 62
     0
 10
29.3812
 20
58.7735
 30
0.0
 11
30.1818
 21
58.7735
 31
0.0
  0
LINE
  8
0
 62
     0
 10
30.1818
 20
58.7735
 30
0.0
 11
30.1818
 21
61.7238
 31
0.0
  0
LINE
  8
0
 62
     0
 10
30.1818
 20
61.7238
 30
0.0
 11
29.3812
 21
61.7238
 31
0.0
  0
LINE
  8
0
 62
     0
 10
29.3812
 20
61.7238
 30
0.0
 11
29.3812
 21
62.7242
 31
0.0
  0
LINE
  8
0
 62
     0
 10
29.3812
 20
62.7242
 30
0.0
 11
15.5319
 21
62.7242
 31
0.0
  0
LINE
  8
0
 62
     0
 10
39.3442
 20
62.7242
 30
0.0
 11
39.3442
 21
61.7238
 31
0.0
  0
LINE
  8
0
 62
     0
 10
39.3442
 20
61.7238
 30
0.0
 11
38.5438
 21
61.7238
 31
0.0
  0
LINE
  8
0
 62
     0
 10
38.5438
 20
61.7238
 30
0.0
 11
38.5438
 21
58.7735
 31
0.0
  0
LINE
  8
0
 62
     0
 10
38.5438
 20
58.7735
 30
0.0
 11
39.3442
 21
58.7735
 31
0.0
  0
LINE
  8
0
 62
     0
 10
39.3442
 20
58.7735
 30
0.0
 11
39.3442
 21
52.8242
 31
0.0
  0
LINE
  8
0
 62
     0
 10
39.3442
 20
52.8242
 30
0.0
 11
38.5438
 21
52.8242
 31
0.0
  0
LINE
  8
0
 62
     0
 10
38.5438
 20
52.8242
 30
0.0
 11
38.5438
 21
49.874
 31
0.0
  0
LINE
  8
0
 62
     0
 10
38.5438
 20
49.874
 30
0.0
 11
39.3442
 21
49.874
 31
0.0
  0
LINE
  8
0
 62
     0
 10
39.3442
 20
49.874
 30
0.0
 11
39.3442
 21
48.8735
 31
0.0
  0
LINE
  8
0
 62
     0
 10
39.3442
 20
48.8735
 30
0.0
 11
53.1936
 21
48.8735
 31
0.0
  0
LINE
  8
0
 62
     0
 10
53.1936
 20
48.8735
 30
0.0
 11
53.1936
 21
49.874
 31
0.0
  0
LINE
  8
0
 62
     0
 10
53.1936
 20
49.874
 30
0.0
 11
53.9944
 21
49.874
 31
0.0
  0
LINE
  8
0
 62
     0
 10
53.9944
 20
49.874
 30
0.0
 11
53.9944
 21
52.8242
 31
0.0
  0
LINE
  8
0
 62
     0
 10
53.9944
 20
52.8242
 30
0.0
 11
53.1936
 21
52.8242
 31
0.0
  0
LINE
  8
0
 62
     0
 10
53.1936
 20
52.8242
 30
0.0
 11
53.1936
 21
58.7735
 31
0.0
  0
LINE
  8
0
 62
     0
 10
53.1936
 20
58.7735
 30
0.0
 11
53.9944
 21
58.7735
 31
0.0
  0
LINE
  8
0
 62
     0
 10
53.9944
 20
58.7735
 30
0.0
 11
53.9944
 21
61.7238
 31
0.0
  0
LINE
  8
0
 62
     0
 10
53.9944
 20
61.7238
 30
0.0
 11
53.1936
 21
61.7238
 31
0.0
  0
LINE
  8
0
 62
     0
 10
53.1936
 20
61.7238
 30
0.0
 11
53.1936
 21
62.7242
 31
0.0
  0
LINE
  8
0
 62
     0
 10
53.1936
 20
62.7242
 30
0.0
 11
39.3442
 21
62.7242
 31
0.0
  0
LINE
  8
0
 62
     0
 10
58.3942
 20
62.7242
 30
0.0
 11
58.3942
 21
61.7238
 31
0.0
  0
LINE
  8
0
 62
     0
 10
58.3942
 20
61.7238
 30
0.0
 11
57.5938
 21
61.7238
 31
0.0
  0
LINE
  8
0
 62
     0
 10
57.5938
 20
61.7238
 30
0.0
 11
57.5938
 21
58.7735
 31
0.0
  0
LINE
  8
0
 62
     0
 10
57.5938
 20
58.7735
 30
0.0
 11
58.3942
 21
58.7735
 31
0.0
  0
LINE
  8
0
 62
     0
 10
58.3942
 20
58.7735
 30
0.0
 11
58.3942
 21
52.8242
 31
0.0
  0
LINE
  8
0
 62
     0
 10
58.3942
 20
52.8242
 30
0.0
 11
57.5938
 21
52.8242
 31
0.0
  0
LINE
  8
0
 62
     0
 10
57.5938
 20
52.8242
 30
0.0
 11
57.5938
 21
49.874
 31
0.0
  0
LINE
  8
0
 62
     0
 10
57.5938
 20
49.874
 30
0.0
 11
58.3942
 21
49.874
 31
0.0
  0
LINE
  8
0
 62
     0
 10
58.3942
 20
49.874
 30
0.0
 11
58.3942
 21
48.8735
 31
0.0
  0
LINE
  8
0
 62
     0
 10
58.3942
 20
48.8735
 30
0.0
 11
72.2436
 21
48.8735
 31
0.0
  0
LINE
  8
0
 62
     0
 10
72.2436
 20
48.8735
 30
0.0
 11
72.2436
 21
49.874
 31
0.0
  0
LINE
  8
0
 62
     0
 10
72.2436
 20
49.874
 30
0.0
 11
73.0444
 21
49.874
 31
0.0
  0
LINE
  8
0
 62
     0
 10
73.0444
 20
49.874
 30
0.0
 11
73.0444
 21
52.8242
 31
0.0
  0
LINE
  8
0
 62
     0
 10
73.0444
 20
52.8242
 30
0.0
 11
72.2436
 21
52.8242
 31
0.0
  0
LINE
  8
0
 62
     0
 10
72.2436
 20
52.8242
 30
0.0
 11
72.2436
 21
58.7735
 31
0.0
  0
LINE
  8
0
 62
     0
 10
72.2436
 20
58.7735
 30
0.0
 11
73.0444
 21
58.7735
 31
0.0
  0
LINE
  8
0
 62
     0
 10
73.0444
 20
58.7735
 30
0.0
 11
73.0444
 21
61.7238
 31
0.0
  0
LINE
  8
0
 62
     0
 10
73.0444
 20
61.7238
 30
0.0
 11
72.2436
 21
61.7238
 31
0.0
  0
LINE
  8
0
 62
     0
 10
72.2436
 20
61.7238
 30
0.0
 11
72.2436
 21
62.7242
 31
0.0
  0
LINE
  8
0
 62
     0
 10
72.2436
 20
62.7242
 30
0.0
 11
58.3942
 21
62.7242
 31
0.0
  0
LINE
  8
0
 62
     0
 10
77.4442
 20
62.7242
 30
0.0
 11
77.4442
 21
61.7238
 31
0.0
  0
LINE
  8
0
 62
     0
 10
77.4442
 20
61.7238
 30
0.0
 11
76.6452
 21
61.7238
 31
0.0
  0
LINE
  8
0
 62
     0
 10
76.6452
 20
61.7238
 30
0.0
 11
76.6452
 21
58.7735
 31
0.0
  0
LINE
  8
0
 62
     0
 10
76.6452
 20
58.7735
 30
0.0
 11
77.4442
 21
58.7735
 31
0.0
  0
LINE
  8
0
 62
     0
 10
77.4442
 20
58.7735
 30
0.0
 11
77.4442
 21
52.8242
 31
0.0
  0
LINE
  8
0
 62
     0
 10
77.4442
 20
52.8242
 30
0.0
 11
76.6452
 21
52.8242
 31
0.0
  0
LINE
  8
0
 62
     0
 10
76.6452
 20
52.8242
 30
0.0
 11
76.6452
 21
49.874
 31
0.0
  0
LINE
  8
0
 62
     0
 10
76.6452
 20
49.874
 30
0.0
 11
77.4442
 21
49.874
 31
0.0
  0
LINE
  8
0
 62
     0
 10
77.4442
 20
49.874
 30
0.0
 11
77.4442
 21
48.8735
 31
0.0
  0
LINE
  8
0
 62
     0
 10
77.4442
 20
48.8735
 30
0.0
 11
91.2936
 21
48.8735
 31
0.0
  0
LINE
  8
0
 62
     0
 10
91.2936
 20
48.8735
 30
0.0
 11
91.2936
 21
49.874
 31
0.0
  0
LINE
  8
0
 62
     0
 10
91.2936
 20
49.874
 30
0.0
 11
92.0944
 21
49.874
 31
0.0
  0
LINE
  8
0
 62
     0
 10
92.0944
 20
49.874
 30
0.0
 11
92.0944
 21
52.8242
 31
0.0
  0
LINE
  8
0
 62
     0
 10
92.0944
 20
52.8242
 30
0.0
 11
91.2936
 21
52.8242
 31
0.0
  0
LINE
  8
0
 62
     0
 10
91.2936
 20
52.8242
 30
0.0
 11
91.2936
 21
58.7735
 31
0.0
  0
LINE
  8
0
 62
     0
 10
91.2936
 20
58.7735
 30
0.0
 11
92.0944
 21
58.7735
 31
0.0
  0
LINE
  8
0
 62
     0
 10
92.0944
 20
58.7735
 30
0.0
 11
92.0944
 21
61.7238
 31
0.0
  0
LINE
  8
0
 62
     0
 10
92.0944
 20
61.7238
 30
0.0
 11
91.2936
 21
61.7238
 31
0.0
  0
LINE
  8
0
 62
     0
 10
91.2936
 20
61.7238
 30
0.0
 11
91.2936
 21
62.7242
 31
0.0
  0
LINE
  8
0
 62
     0
 10
91.2936
 20
62.7242
 30
0.0
 11
77.4442
 21
62.7242
 31
0.0
  0
LINE
  8
0
 62
     0
 10
96.4943
 20
62.7242
 30
0.0
 11
96.4943
 21
61.7238
 31
0.0
  0
LINE
  8
0
 62
     0
 10
96.4943
 20
61.7238
 30
0.0
 11
95.6952
 21
61.7238
 31
0.0
  0
LINE
  8
0
 62
     0
 10
95.6952
 20
61.7238
 30
0.0
 11
95.6952
 21
58.7735
 31
0.0
  0
LINE
  8
0
 62
     0
 10
95.6952
 20
58.7735
 30
0.0
 11
96.4943
 21
58.7735
 31
0.0
  0
LINE
  8
0
 62
     0
 10
96.4943
 20
58.7735
 30
0.0
 11
96.4943
 21
52.8242
 31
0.0
  0
LINE
  8
0
 62
     0
 10
96.4943
 20
52.8242
 30
0.0
 11
95.6952
 21
52.8242
 31
0.0
  0
LINE
  8
0
 62
     0
 10
95.6952
 20
52.8242
 30
0.0
 11
95.6952
 21
49.874
 31
0.0
  0
LINE
  8
0
 62
     0
 10
95.6952
 20
49.874
 30
0.0
 11
96.4943
 21
49.874
 31
0.0
  0
LINE
  8
0
 62
     0
 10
96.4943
 20
49.874
 30
0.0
 11
96.4943
 21
48.8735
 31
0.0
  0
LINE
  8
0
 62
     0
 10
96.4943
 20
48.8735
 30
0.0
 11
110.344
 21
48.8735
 31
0.0
  0
LINE
  8
0
 62
     0
 10
110.344
 20
48.8735
 30
0.0
 11
110.344
 21
49.874
 31
0.0
  0
LINE
  8
0
 62
     0
 10
110.344
 20
49.874
 30
0.0
 11
111.144
 21
49.874
 31
0.0
  0
LINE
  8
0
 62
     0
 10
111.144
 20
49.874
 30
0.0
 11
111.144
 21
52.8242
 31
0.0
  0
LINE
  8
0
 62
     0
 10
111.144
 20
52.8242
 30
0.0
 11
110.344
 21
52.8242
 31
0.0
  0
LINE
  8
0
 62
     0
 10
110.344
 20
52.8242
 30
0.0
 11
110.344
 21
58.7735
 31
0.0
  0
LINE
  8
0
 62
     0
 10
110.344
 20
58.7735
 30
0.0
 11
111.144
 21
58.7735
 31
0.0
  0
LINE
  8
0
 62
     0
 10
111.144
 20
58.7735
 30
0.0
 11
111.144
 21
61.7238
 31
0.0
  0
LINE
  8
0
 62
     0
 10
111.144
 20
61.7238
 30
0.0
 11
110.344
 21
61.7238
 31
0.0
  0
LINE
  8
0
 62
     0
 10
110.344
 20
61.7238
 30
0.0
 11
110.344
 21
62.7242
 31
0.0
  0
LINE
  8
0
 62
     0
 10
110.344
 20
62.7242
 30
0.0
 11
96.4943
 21
62.7242
 31
0.0
  0
LINE
  8
0
 62
     0
 10
115.544
 20
62.7242
 30
0.0
 11
115.544
 21
61.7238
 31
0.0
  0
LINE
  8
0
 62
     0
 10
115.544
 20
61.7238
 30
0.0
 11
114.744
 21
61.7238
 31
0.0
  0
LINE
  8
0
 62
     0
 10
114.744
 20
61.7238
 30
0.0
 11
114.744
 21
58.7735
 31
0.0
  0
LINE
  8
0
 62
     0
 10
114.744
 20
58.7735
 30
0.0
 11
115.544
 21
58.7735
 31
0.0
  0
LINE
  8
0
 62
     0
 10
115.544
 20
58.7735
 30
0.0
 11
115.544
 21
52.8242
 31
0.0
  0
LINE
  8
0
 62
     0
 10
115.544
 20
52.8242
 30
0.0
 11
114.744
 21
52.8242
 31
0.0
  0
LINE
  8
0
 62
     0
 10
114.744
 20
52.8242
 30
0.0
 11
114.744
 21
49.874
 31
0.0
  0
LINE
  8
0
 62
     0
 10
114.744
 20
49.874
 30
0.0
 11
115.544
 21
49.874
 31
0.0
  0
LINE
  8
0
 62
     0
 10
115.544
 20
49.874
 30
0.0
 11
115.544
 21
48.8735
 31
0.0
  0
LINE
  8
0
 62
     0
 10
115.544
 20
48.8735
 30
0.0
 11
129.394
 21
48.8735
 31
0.0
  0
LINE
  8
0
 62
     0
 10
129.394
 20
48.8735
 30
0.0
 11
129.394
 21
49.874
 31
0.0
  0
LINE
  8
0
 62
     0
 10
129.394
 20
49.874
 30
0.0
 11
130.194
 21
49.874
 31
0.0
  0
LINE
  8
0
 62
     0
 10
130.194
 20
49.874
 30
0.0
 11
130.194
 21
52.8242
 31
0.0
  0
LINE
  8
0
 62
     0
 10
130.194
 20
52.8242
 30
0.0
 11
129.394
 21
52.8242
 31
0.0
  0
LINE
  8
0
 62
     0
 10
129.394
 20
52.8242
 30
0.0
 11
129.394
 21
58.7735
 31
0.0
  0
LINE
  8
0
 62
     0
 10
129.394
 20
58.7735
 30
0.0
 11
130.194
 21
58.7735
 31
0.0
  0
LINE
  8
0
 62
     0
 10
130.194
 20
58.7735
 30
0.0
 11
130.194
 21
61.7238
 31
0.0
  0
LINE
  8
0
 62
     0
 10
130.194
 20
61.7238
 30
0.0
 11
129.394
 21
61.7238
 31
0.0
  0
LINE
  8
0
 62
     0
 10
129.394
 20
61.7238
 30
0.0
 11
129.394
 21
62.7242
 31
0.0
  0
LINE
  8
0
 62
     0
 10
129.394
 20
62.7242
 30
0.0
 11
115.544
 21
62.7242
 31
0.0
  0
LINE
  8
0
 62
     0
 10
134.594
 20
62.7242
 30
0.0
 11
134.594
 21
61.7238
 31
0.0
  0
LINE
  8
0
 62
     0
 10
134.594
 20
61.7238
 30
0.0
 11
133.795
 21
61.7238
 31
0.0
  0
LINE
  8
0
 62
     0
 10
133.795
 20
61.7238
 30
0.0
 11
133.795
 21
58.7735
 31
0.0
  0
LINE
  8
0
 62
     0
 10
133.795
 20
58.7735
 30
0.0
 11
134.594
 21
58.7735
 31
0.0
  0
LINE
  8
0
 62
     0
 10
134.594
 20
58.7735
 30
0.0
 11
134.594
 21
52.8242
 31
0.0
  0
LINE
  8
0
 62
     0
 10
134.594
 20
52.8242
 30
0.0
 11
133.795
 21
52.8242
 31
0.0
  0
LINE
  8
0
 62
     0
 10
133.795
 20
52.8242
 30
0.0
 11
133.795
 21
49.874
 31
0.0
  0
LINE
  8
0
 62
     0
 10
133.795
 20
49.874
 30
0.0
 11
134.594
 21
49.874
 31
0.0
  0
LINE
  8
0
 62
     0
 10
134.594
 20
49.874
 30
0.0
 11
134.594
 21
48.8735
 31
0.0
  0
LINE
  8
0
 62
     0
 10
134.594
 20
48.8735
 30
0.0
 11
148.445
 21
48.8735
 31
0.0
  0
LINE
  8
0
 62
     0
 10
148.445
 20
48.8735
 30
0.0
 11
148.445
 21
49.874
 31
0.0
  0
LINE
  8
0
 62
     0
 10
148.445
 20
49.874
 30
0.0
 11
149.244
 21
49.874
 31
0.0
  0
LINE
  8
0
 62
     0
 10
149.244
 20
49.874
 30
0.0
 11
149.244
 21
52.8242
 31
0.0
  0
LINE
  8
0
 62
     0
 10
149.244
 20
52.8242
 30
0.0
 11
148.445
 21
52.8242
 31
0.0
  0
LINE
  8
0
 62
     0
 10
148.445
 20
52.8242
 30
0.0
 11
148.445
 21
58.7735
 31
0.0
  0
LINE
  8
0
 62
     0
 10
148.445
 20
58.7735
 30
0.0
 11
149.244
 21
58.7735
 31
0.0
  0
LINE
  8
0
 62
     0
 10
149.244
 20
58.7735
 30
0.0
 11
149.244
 21
61.7238
 31
0.0
  0
LINE
  8
0
 62
     0
 10
149.244
 20
61.7238
 30
0.0
 11
148.445
 21
61.7238
 31
0.0
  0
LINE
  8
0
 62
     0
 10
148.445
 20
61.7238
 30
0.0
 11
148.445
 21
62.7242
 31
0.0
  0
LINE
  8
0
 62
     0
 10
148.445
 20
62.7242
 30
0.0
 11
134.594
 21
62.7242
 31
0.0
  0
LINE
  8
0
 62
     0
 10
153.644
 20
62.7242
 30
0.0
 11
153.644
 21
61.7238
 31
0.0
  0
LINE
  8
0
 62
     0
 10
153.644
 20
61.7238
 30
0.0
 11
152.845
 21
61.7238
 31
0.0
  0
LINE
  8
0
 62
     0
 10
152.845
 20
61.7238
 30
0.0
 11
152.845
 21
58.7735
 31
0.0
  0
LINE
  8
0
 62
     0
 10
152.845
 20
58.7735
 30
0.0
 11
153.644
 21
58.7735
 31
0.0
  0
LINE
  8
0
 62
     0
 10
153.644
 20
58.7735
 30
0.0
 11
153.644
 21
52.8242
 31
0.0
  0
LINE
  8
0
 62
     0
 10
153.644
 20
52.8242
 30
0.0
 11
152.845
 21
52.8242
 31
0.0
  0
LINE
  8
0
 62
     0
 10
152.845
 20
52.8242
 30
0.0
 11
152.845
 21
49.874
 31
0.0
  0
LINE
  8
0
 62
     0
 10
152.845
 20
49.874
 30
0.0
 11
153.644
 21
49.874
 31
0.0
  0
LINE
  8
0
 62
     0
 10
153.644
 20
49.874
 30
0.0
 11
153.644
 21
48.8735
 31
0.0
  0
LINE
  8
0
 62
     0
 10
153.644
 20
48.8735
 30
0.0
 11
167.495
 21
48.8735
 31
0.0
  0
LINE
  8
0
 62
     0
 10
167.495
 20
48.8735
 30
0.0
 11
167.495
 21
49.874
 31
0.0
  0
LINE
  8
0
 62
     0
 10
167.495
 20
49.874
 30
0.0
 11
168.294
 21
49.874
 31
0.0
  0
LINE
  8
0
 62
     0
 10
168.294
 20
49.874
 30
0.0
 11
168.294
 21
52.8242
 31
0.0
  0
LINE
  8
0
 62
     0
 10
168.294
 20
52.8242
 30
0.0
 11
167.495
 21
52.8242
 31
0.0
  0
LINE
  8
0
 62
     0
 10
167.495
 20
52.8242
 30
0.0
 11
167.495
 21
58.7735
 31
0.0
  0
LINE
  8
0
 62
     0
 10
167.495
 20
58.7735
 30
0.0
 11
168.294
 21
58.7735
 31
0.0
  0
LINE
  8
0
 62
     0
 10
168.294
 20
58.7735
 30
0.0
 11
168.294
 21
61.7238
 31
0.0
  0
LINE
  8
0
 62
     0
 10
168.294
 20
61.7238
 30
0.0
 11
167.495
 21
61.7238
 31
0.0
  0
LINE
  8
0
 62
     0
 10
167.495
 20
61.7238
 30
0.0
 11
167.495
 21
62.7242
 31
0.0
  0
LINE
  8
0
 62
     0
 10
167.495
 20
62.7242
 30
0.0
 11
153.644
 21
62.7242
 31
0.0
  0
LINE
  8
0
 62
     0
 10
172.694
 20
62.7242
 30
0.0
 11
172.694
 21
61.7238
 31
0.0
  0
LINE
  8
0
 62
     0
 10
172.694
 20
61.7238
 30
0.0
 11
171.895
 21
61.7238
 31
0.0
  0
LINE
  8
0
 62
     0
 10
171.895
 20
61.7238
 30
0.0
 11
171.895
 21
58.7735
 31
0.0
  0
LINE
  8
0
 62
     0
 10
171.895
 20
58.7735
 30
0.0
 11
172.694
 21
58.7735
 31
0.0
  0
LINE
  8
0
 62
     0
 10
172.694
 20
58.7735
 30
0.0
 11
172.694
 21
52.8242
 31
0.0
  0
LINE
  8
0
 62
     0
 10
172.694
 20
52.8242
 30
0.0
 11
171.895
 21
52.8242
 31
0.0
  0
LINE
  8
0
 62
     0
 10
171.895
 20
52.8242
 30
0.0
 11
171.895
 21
49.874
 31
0.0
  0
LINE
  8
0
 62
     0
 10
171.895
 20
49.874
 30
0.0
 11
172.694
 21
49.874
 31
0.0
  0
LINE
  8
0
 62
     0
 10
172.694
 20
49.874
 30
0.0
 11
172.694
 21
48.8735
 31
0.0
  0
LINE
  8
0
 62
     0
 10
172.694
 20
48.8735
 30
0.0
 11
186.545
 21
48.8735
 31
0.0
  0
LINE
  8
0
 62
     0
 10
186.545
 20
48.8735
 30
0.0
 11
186.545
 21
49.874
 31
0.0
  0
LINE
  8
0
 62
     0
 10
186.545
 20
49.874
 30
0.0
 11
187.344
 21
49.874
 31
0.0
  0
LINE
  8
0
 62
     0
 10
187.344
 20
49.874
 30
0.0
 11
187.344
 21
52.8242
 31
0.0
  0
LINE
  8
0
 62
     0
 10
187.344
 20
52.8242
 30
0.0
 11
186.545
 21
52.8242
 31
0.0
  0
LINE
  8
0
 62
     0
 10
186.545
 20
52.8242
 30
0.0
 11
186.545
 21
58.7735
 31
0.0
  0
LINE
  8
0
 62
     0
 10
186.545
 20
58.7735
 30
0.0
 11
187.344
 21
58.7735
 31
0.0
  0
LINE
  8
0
 62
     0
 10
187.344
 20
58.7735
 30
0.0
 11
187.344
 21
61.7238
 31
0.0
  0
LINE
  8
0
 62
     0
 10
187.344
 20
61.7238
 30
0.0
 11
186.545
 21
61.7238
 31
0.0
  0
LINE
  8
0
 62
     0
 10
186.545
 20
61.7238
 30
0.0
 11
186.545
 21
62.7242
 31
0.0
  0
LINE
  8
0
 62
     0
 10
186.545
 20
62.7242
 30
0.0
 11
172.694
 21
62.7242
 31
0.0
  0
LINE
  8
0
 62
     0
 10
191.744
 20
62.7242
 30
0.0
 11
191.744
 21
61.7238
 31
0.0
  0
LINE
  8
0
 62
     0
 10
191.744
 20
61.7238
 30
0.0
 11
190.945
 21
61.7238
 31
0.0
  0
LINE
  8
0
 62
     0
 10
190.945
 20
61.7238
 30
0.0
 11
190.945
 21
58.7735
 31
0.0
  0
LINE
  8
0
 62
     0
 10
190.945
 20
58.7735
 30
0.0
 11
191.744
 21
58.7735
 31
0.0
  0
LINE
  8
0
 62
     0
 10
191.744
 20
58.7735
 30
0.0
 11
191.744
 21
52.8242
 31
0.0
  0
LINE
  8
0
 62
     0
 10
191.744
 20
52.8242
 30
0.0
 11
190.945
 21
52.8242
 31
0.0
  0
LINE
  8
0
 62
     0
 10
190.945
 20
52.8242
 30
0.0
 11
190.945
 21
49.874
 31
0.0
  0
LINE
  8
0
 62
     0
 10
190.945
 20
49.874
 30
0.0
 11
191.744
 21
49.874
 31
0.0
  0
LINE
  8
0
 62
     0
 10
191.744
 20
49.874
 30
0.0
 11
191.744
 21
48.8735
 31
0.0
  0
LINE
  8
0
 62
     0
 10
191.744
 20
48.8735
 30
0.0
 11
205.595
 21
48.8735
 31
0.0
  0
LINE
  8
0
 62
     0
 10
205.595
 20
48.8735
 30
0.0
 11
205.595
 21
49.874
 31
0.0
  0
LINE
  8
0
 62
     0
 10
205.595
 20
49.874
 30
0.0
 11
206.394
 21
49.874
 31
0.0
  0
LINE
  8
0
 62
     0
 10
206.394
 20
49.874
 30
0.0
 11
206.394
 21
52.8242
 31
0.0
  0
LINE
  8
0
 62
     0
 10
206.394
 20
52.8242
 30
0.0
 11
205.595
 21
52.8242
 31
0.0
  0
LINE
  8
0
 62
     0
 10
205.595
 20
52.8242
 30
0.0
 11
205.595
 21
58.7735
 31
0.0
  0
LINE
  8
0
 62
     0
 10
205.595
 20
58.7735
 30
0.0
 11
206.394
 21
58.7735
 31
0.0
  0
LINE
  8
0
 62
     0
 10
206.394
 20
58.7735
 30
0.0
 11
206.394
 21
61.7238
 31
0.0
  0
LINE
  8
0
 62
     0
 10
206.394
 20
61.7238
 30
0.0
 11
205.595
 21
61.7238
 31
0.0
  0
LINE
  8
0
 62
     0
 10
205.595
 20
61.7238
 30
0.0
 11
205.595
 21
62.7242
 31
0.0
  0
LINE
  8
0
 62
     0
 10
205.595
 20
62.7242
 30
0.0
 11
191.744
 21
62.7242
 31
0.0
  0
LINE
  8
0
 62
     0
 10
210.794
 20
62.7242
 30
0.0
 11
210.794
 21
61.7238
 31
0.0
  0
LINE
  8
0
 62
     0
 10
210.794
 20
61.7238
 30
0.0
 11
209.995
 21
61.7238
 31
0.0
  0
LINE
  8
0
 62
     0
 10
209.995
 20
61.7238
 30
0.0
 11
209.995
 21
58.7735
 31
0.0
  0
LINE
  8
0
 62
     0
 10
209.995
 20
58.7735
 30
0.0
 11
210.794
 21
58.7735
 31
0.0
  0
LINE
  8
0
 62
     0
 10
210.794
 20
58.7735
 30
0.0
 11
210.794
 21
52.8242
 31
0.0
  0
LINE
  8
0
 62
     0
 10
210.794
 20
52.8242
 30
0.0
 11
209.995
 21
52.8242
 31
0.0
  0
LINE
  8
0
 62
     0
 10
209.995
 20
52.8242
 30
0.0
 11
209.995
 21
49.874
 31
0.0
  0
LINE
  8
0
 62
     0
 10
209.995
 20
49.874
 30
0.0
 11
210.794
 21
49.874
 31
0.0
  0
LINE
  8
0
 62
     0
 10
210.794
 20
49.874
 30
0.0
 11
210.794
 21
48.8735
 31
0.0
  0
LINE
  8
0
 62
     0
 10
210.794
 20
48.8735
 30
0.0
 11
224.645
 21
48.8735
 31
0.0
  0
LINE
  8
0
 62
     0
 10
224.645
 20
48.8735
 30
0.0
 11
224.645
 21
49.874
 31
0.0
  0
LINE
  8
0
 62
     0
 10
224.645
 20
49.874
 30
0.0
 11
225.444
 21
49.874
 31
0.0
  0
LINE
  8
0
 62
     0
 10
225.444
 20
49.874
 30
0.0
 11
225.444
 21
52.8242
 31
0.0
  0
LINE
  8
0
 62
     0
 10
225.444
 20
52.8242
 30
0.0
 11
224.645
 21
52.8242
 31
0.0
  0
LINE
  8
0
 62
     0
 10
224.645
 20
52.8242
 30
0.0
 11
224.645
 21
58.7735
 31
0.0
  0
LINE
  8
0
 62
     0
 10
224.645
 20
58.7735
 30
0.0
 11
225.444
 21
58.7735
 31
0.0
  0
LINE
  8
0
 62
     0
 10
225.444
 20
58.7735
 30
0.0
 11
225.444
 21
61.7238
 31
0.0
  0
LINE
  8
0
 62
     0
 10
225.444
 20
61.7238
 30
0.0
 11
224.645
 21
61.7238
 31
0.0
  0
LINE
  8
0
 62
     0
 10
224.645
 20
61.7238
 30
0.0
 11
224.645
 21
62.7242
 31
0.0
  0
LINE
  8
0
 62
     0
 10
224.645
 20
62.7242
 30
0.0
 11
210.794
 21
62.7242
 31
0.0
  0
LINE
  8
0
 62
     0
 10
234.607
 20
62.7242
 30
0.0
 11
234.607
 21
61.7238
 31
0.0
  0
LINE
  8
0
 62
     0
 10
234.607
 20
61.7238
 30
0.0
 11
233.806
 21
61.7238
 31
0.0
  0
LINE
  8
0
 62
     0
 10
233.806
 20
61.7238
 30
0.0
 11
233.806
 21
58.7735
 31
0.0
  0
LINE
  8
0
 62
     0
 10
233.806
 20
58.7735
 30
0.0
 11
234.607
 21
58.7735
 31
0.0
  0
LINE
  8
0
 62
     0
 10
234.607
 20
58.7735
 30
0.0
 11
234.607
 21
52.8242
 31
0.0
  0
LINE
  8
0
 62
     0
 10
234.607
 20
52.8242
 30
0.0
 11
233.806
 21
52.8242
 31
0.0
  0
LINE
  8
0
 62
     0
 10
233.806
 20
52.8242
 30
0.0
 11
233.806
 21
49.874
 31
0.0
  0
LINE
  8
0
 62
     0
 10
233.806
 20
49.874
 30
0.0
 11
234.607
 21
49.874
 31
0.0
  0
LINE
  8
0
 62
     0
 10
234.607
 20
49.874
 30
0.0
 11
234.607
 21
48.8735
 31
0.0
  0
LINE
  8
0
 62
     0
 10
234.607
 20
48.8735
 30
0.0
 11
248.456
 21
48.8735
 31
0.0
  0
LINE
  8
0
 62
     0
 10
248.456
 20
48.8735
 30
0.0
 11
248.456
 21
49.874
 31
0.0
  0
LINE
  8
0
 62
     0
 10
248.456
 20
49.874
 30
0.0
 11
249.257
 21
49.874
 31
0.0
  0
LINE
  8
0
 62
     0
 10
249.257
 20
49.874
 30
0.0
 11
249.257
 21
52.8242
 31
0.0
  0
LINE
  8
0
 62
     0
 10
249.257
 20
52.8242
 30
0.0
 11
248.456
 21
52.8242
 31
0.0
  0
LINE
  8
0
 62
     0
 10
248.456
 20
52.8242
 30
0.0
 11
248.456
 21
58.7735
 31
0.0
  0
LINE
  8
0
 62
     0
 10
248.456
 20
58.7735
 30
0.0
 11
249.257
 21
58.7735
 31
0.0
  0
LINE
  8
0
 62
     0
 10
249.257
 20
58.7735
 30
0.0
 11
249.257
 21
61.7238
 31
0.0
  0
LINE
  8
0
 62
     0
 10
249.257
 20
61.7238
 30
0.0
 11
248.456
 21
61.7238
 31
0.0
  0
LINE
  8
0
 62
     0
 10
248.456
 20
61.7238
 30
0.0
 11
248.456
 21
62.7242
 31
0.0
  0
LINE
  8
0
 62
     0
 10
248.456
 20
62.7242
 30
0.0
 11
234.607
 21
62.7242
 31
0.0
  0
LINE
  8
0
 62
     0
 10
15.5319
 20
81.7742
 30
0.0
 11
15.5319
 21
80.7738
 31
0.0
  0
LINE
  8
0
 62
     0
 10
15.5319
 20
80.7738
 30
0.0
 11
14.7312
 21
80.7738
 31
0.0
  0
LINE
  8
0
 62
     0
 10
14.7312
 20
80.7738
 30
0.0
 11
14.7312
 21
77.8235
 31
0.0
  0
LINE
  8
0
 62
     0
 10
14.7312
 20
77.8235
 30
0.0
 11
15.5319
 21
77.8235
 31
0.0
  0
LINE
  8
0
 62
     0
 10
15.5319
 20
77.8235
 30
0.0
 11
15.5319
 21
71.8742
 31
0.0
  0
LINE
  8
0
 62
     0
 10
15.5319
 20
71.8742
 30
0.0
 11
14.7312
 21
71.8742
 31
0.0
  0
LINE
  8
0
 62
     0
 10
14.7312
 20
71.8742
 30
0.0
 11
14.7312
 21
68.924
 31
0.0
  0
LINE
  8
0
 62
     0
 10
14.7312
 20
68.924
 30
0.0
 11
15.5319
 21
68.924
 31
0.0
  0
LINE
  8
0
 62
     0
 10
15.5319
 20
68.924
 30
0.0
 11
15.5319
 21
67.9235
 31
0.0
  0
LINE
  8
0
 62
     0
 10
15.5319
 20
67.9235
 30
0.0
 11
29.3812
 21
67.9235
 31
0.0
  0
LINE
  8
0
 62
     0
 10
29.3812
 20
67.9235
 30
0.0
 11
29.3812
 21
68.924
 31
0.0
  0
LINE
  8
0
 62
     0
 10
29.3812
 20
68.924
 30
0.0
 11
30.1818
 21
68.924
 31
0.0
  0
LINE
  8
0
 62
     0
 10
30.1818
 20
68.924
 30
0.0
 11
30.1818
 21
71.8742
 31
0.0
  0
LINE
  8
0
 62
     0
 10
30.1818
 20
71.8742
 30
0.0
 11
29.3812
 21
71.8742
 31
0.0
  0
LINE
  8
0
 62
     0
 10
29.3812
 20
71.8742
 30
0.0
 11
29.3812
 21
77.8235
 31
0.0
  0
LINE
  8
0
 62
     0
 10
29.3812
 20
77.8235
 30
0.0
 11
30.1818
 21
77.8235
 31
0.0
  0
LINE
  8
0
 62
     0
 10
30.1818
 20
77.8235
 30
0.0
 11
30.1818
 21
80.7738
 31
0.0
  0
LINE
  8
0
 62
     0
 10
30.1818
 20
80.7738
 30
0.0
 11
29.3812
 21
80.7738
 31
0.0
  0
LINE
  8
0
 62
     0
 10
29.3812
 20
80.7738
 30
0.0
 11
29.3812
 21
81.7742
 31
0.0
  0
LINE
  8
0
 62
     0
 10
29.3812
 20
81.7742
 30
0.0
 11
15.5319
 21
81.7742
 31
0.0
  0
LINE
  8
0
 62
     0
 10
39.3442
 20
81.7742
 30
0.0
 11
39.3442
 21
80.7738
 31
0.0
  0
LINE
  8
0
 62
     0
 10
39.3442
 20
80.7738
 30
0.0
 11
38.5438
 21
80.7738
 31
0.0
  0
LINE
  8
0
 62
     0
 10
38.5438
 20
80.7738
 30
0.0
 11
38.5438
 21
77.8235
 31
0.0
  0
LINE
  8
0
 62
     0
 10
38.5438
 20
77.8235
 30
0.0
 11
39.3442
 21
77.8235
 31
0.0
  0
LINE
  8
0
 62
     0
 10
39.3442
 20
77.8235
 30
0.0
 11
39.3442
 21
71.8742
 31
0.0
  0
LINE
  8
0
 62
     0
 10
39.3442
 20
71.8742
 30
0.0
 11
38.5438
 21
71.8742
 31
0.0
  0
LINE
  8
0
 62
     0
 10
38.5438
 20
71.8742
 30
0.0
 11
38.5438
 21
68.924
 31
0.0
  0
LINE
  8
0
 62
     0
 10
38.5438
 20
68.924
 30
0.0
 11
39.3442
 21
68.924
 31
0.0
  0
LINE
  8
0
 62
     0
 10
39.3442
 20
68.924
 30
0.0
 11
39.3442
 21
67.9235
 31
0.0
  0
LINE
  8
0
 62
     0
 10
39.3442
 20
67.9235
 30
0.0
 11
53.1936
 21
67.9235
 31
0.0
  0
LINE
  8
0
 62
     0
 10
53.1936
 20
67.9235
 30
0.0
 11
53.1936
 21
68.924
 31
0.0
  0
LINE
  8
0
 62
     0
 10
53.1936
 20
68.924
 30
0.0
 11
53.9944
 21
68.924
 31
0.0
  0
LINE
  8
0
 62
     0
 10
53.9944
 20
68.924
 30
0.0
 11
53.9944
 21
71.8742
 31
0.0
  0
LINE
  8
0
 62
     0
 10
53.9944
 20
71.8742
 30
0.0
 11
53.1936
 21
71.8742
 31
0.0
  0
LINE
  8
0
 62
     0
 10
53.1936
 20
71.8742
 30
0.0
 11
53.1936
 21
77.8235
 31
0.0
  0
LINE
  8
0
 62
     0
 10
53.1936
 20
77.8235
 30
0.0
 11
53.9944
 21
77.8235
 31
0.0
  0
LINE
  8
0
 62
     0
 10
53.9944
 20
77.8235
 30
0.0
 11
53.9944
 21
80.7738
 31
0.0
  0
LINE
  8
0
 62
     0
 10
53.9944
 20
80.7738
 30
0.0
 11
53.1936
 21
80.7738
 31
0.0
  0
LINE
  8
0
 62
     0
 10
53.1936
 20
80.7738
 30
0.0
 11
53.1936
 21
81.7742
 31
0.0
  0
LINE
  8
0
 62
     0
 10
53.1936
 20
81.7742
 30
0.0
 11
39.3442
 21
81.7742
 31
0.0
  0
LINE
  8
0
 62
     0
 10
58.3942
 20
81.7742
 30
0.0
 11
58.3942
 21
80.7738
 31
0.0
  0
LINE
  8
0
 62
     0
 10
58.3942
 20
80.7738
 30
0.0
 11
57.5938
 21
80.7738
 31
0.0
  0
LINE
  8
0
 62
     0
 10
57.5938
 20
80.7738
 30
0.0
 11
57.5938
 21
77.8235
 31
0.0
  0
LINE
  8
0
 62
     0
 10
57.5938
 20
77.8235
 30
0.0
 11
58.3942
 21
77.8235
 31
0.0
  0
LINE
  8
0
 62
     0
 10
58.3942
 20
77.8235
 30
0.0
 11
58.3942
 21
71.8742
 31
0.0
  0
LINE
  8
0
 62
     0
 10
58.3942
 20
71.8742
 30
0.0
 11
57.5938
 21
71.8742
 31
0.0
  0
LINE
  8
0
 62
     0
 10
57.5938
 20
71.8742
 30
0.0
 11
57.5938
 21
68.924
 31
0.0
  0
LINE
  8
0
 62
     0
 10
57.5938
 20
68.924
 30
0.0
 11
58.3942
 21
68.924
 31
0.0
  0
LINE
  8
0
 62
     0
 10
58.3942
 20
68.924
 30
0.0
 11
58.3942
 21
67.9235
 31
0.0
  0
LINE
  8
0
 62
     0
 10
58.3942
 20
67.9235
 30
0.0
 11
72.2436
 21
67.9235
 31
0.0
  0
LINE
  8
0
 62
     0
 10
72.2436
 20
67.9235
 30
0.0
 11
72.2436
 21
68.924
 31
0.0
  0
LINE
  8
0
 62
     0
 10
72.2436
 20
68.924
 30
0.0
 11
73.0444
 21
68.924
 31
0.0
  0
LINE
  8
0
 62
     0
 10
73.0444
 20
68.924
 30
0.0
 11
73.0444
 21
71.8742
 31
0.0
  0
LINE
  8
0
 62
     0
 10
73.0444
 20
71.8742
 30
0.0
 11
72.2436
 21
71.8742
 31
0.0
  0
LINE
  8
0
 62
     0
 10
72.2436
 20
71.8742
 30
0.0
 11
72.2436
 21
77.8235
 31
0.0
  0
LINE
  8
0
 62
     0
 10
72.2436
 20
77.8235
 30
0.0
 11
73.0444
 21
77.8235
 31
0.0
  0
LINE
  8
0
 62
     0
 10
73.0444
 20
77.8235
 30
0.0
 11
73.0444
 21
80.7738
 31
0.0
  0
LINE
  8
0
 62
     0
 10
73.0444
 20
80.7738
 30
0.0
 11
72.2436
 21
80.7738
 31
0.0
  0
LINE
  8
0
 62
     0
 10
72.2436
 20
80.7738
 30
0.0
 11
72.2436
 21
81.7742
 31
0.0
  0
LINE
  8
0
 62
     0
 10
72.2436
 20
81.7742
 30
0.0
 11
58.3942
 21
81.7742
 31
0.0
  0
LINE
  8
0
 62
     0
 10
77.4442
 20
81.7742
 30
0.0
 11
77.4442
 21
80.7738
 31
0.0
  0
LINE
  8
0
 62
     0
 10
77.4442
 20
80.7738
 30
0.0
 11
76.6452
 21
80.7738
 31
0.0
  0
LINE
  8
0
 62
     0
 10
76.6452
 20
80.7738
 30
0.0
 11
76.6452
 21
77.8235
 31
0.0
  0
LINE
  8
0
 62
     0
 10
76.6452
 20
77.8235
 30
0.0
 11
77.4442
 21
77.8235
 31
0.0
  0
LINE
  8
0
 62
     0
 10
77.4442
 20
77.8235
 30
0.0
 11
77.4442
 21
71.8742
 31
0.0
  0
LINE
  8
0
 62
     0
 10
77.4442
 20
71.8742
 30
0.0
 11
76.6452
 21
71.8742
 31
0.0
  0
LINE
  8
0
 62
     0
 10
76.6452
 20
71.8742
 30
0.0
 11
76.6452
 21
68.924
 31
0.0
  0
LINE
  8
0
 62
     0
 10
76.6452
 20
68.924
 30
0.0
 11
77.4442
 21
68.924
 31
0.0
  0
LINE
  8
0
 62
     0
 10
77.4442
 20
68.924
 30
0.0
 11
77.4442
 21
67.9235
 31
0.0
  0
LINE
  8
0
 62
     0
 10
77.4442
 20
67.9235
 30
0.0
 11
91.2936
 21
67.9235
 31
0.0
  0
LINE
  8
0
 62
     0
 10
91.2936
 20
67.9235
 30
0.0
 11
91.2936
 21
68.924
 31
0.0
  0
LINE
  8
0
 62
     0
 10
91.2936
 20
68.924
 30
0.0
 11
92.0944
 21
68.924
 31
0.0
  0
LINE
  8
0
 62
     0
 10
92.0944
 20
68.924
 30
0.0
 11
92.0944
 21
71.8742
 31
0.0
  0
LINE
  8
0
 62
     0
 10
92.0944
 20
71.8742
 30
0.0
 11
91.2936
 21
71.8742
 31
0.0
  0
LINE
  8
0
 62
     0
 10
91.2936
 20
71.8742
 30
0.0
 11
91.2936
 21
77.8235
 31
0.0
  0
LINE
  8
0
 62
     0
 10
91.2936
 20
77.8235
 30
0.0
 11
92.0944
 21
77.8235
 31
0.0
  0
LINE
  8
0
 62
     0
 10
92.0944
 20
77.8235
 30
0.0
 11
92.0944
 21
80.7738
 31
0.0
  0
LINE
  8
0
 62
     0
 10
92.0944
 20
80.7738
 30
0.0
 11
91.2936
 21
80.7738
 31
0.0
  0
LINE
  8
0
 62
     0
 10
91.2936
 20
80.7738
 30
0.0
 11
91.2936
 21
81.7742
 31
0.0
  0
LINE
  8
0
 62
     0
 10
91.2936
 20
81.7742
 30
0.0
 11
77.4442
 21
81.7742
 31
0.0
  0
LINE
  8
0
 62
     0
 10
96.4943
 20
81.7742
 30
0.0
 11
96.4943
 21
80.7738
 31
0.0
  0
LINE
  8
0
 62
     0
 10
96.4943
 20
80.7738
 30
0.0
 11
95.6952
 21
80.7738
 31
0.0
  0
LINE
  8
0
 62
     0
 10
95.6952
 20
80.7738
 30
0.0
 11
95.6952
 21
77.8235
 31
0.0
  0
LINE
  8
0
 62
     0
 10
95.6952
 20
77.8235
 30
0.0
 11
96.4943
 21
77.8235
 31
0.0
  0
LINE
  8
0
 62
     0
 10
96.4943
 20
77.8235
 30
0.0
 11
96.4943
 21
71.8742
 31
0.0
  0
LINE
  8
0
 62
     0
 10
96.4943
 20
71.8742
 30
0.0
 11
95.6952
 21
71.8742
 31
0.0
  0
LINE
  8
0
 62
     0
 10
95.6952
 20
71.8742
 30
0.0
 11
95.6952
 21
68.924
 31
0.0
  0
LINE
  8
0
 62
     0
 10
95.6952
 20
68.924
 30
0.0
 11
96.4943
 21
68.924
 31
0.0
  0
LINE
  8
0
 62
     0
 10
96.4943
 20
68.924
 30
0.0
 11
96.4943
 21
67.9235
 31
0.0
  0
LINE
  8
0
 62
     0
 10
96.4943
 20
67.9235
 30
0.0
 11
110.344
 21
67.9235
 31
0.0
  0
LINE
  8
0
 62
     0
 10
110.344
 20
67.9235
 30
0.0
 11
110.344
 21
68.924
 31
0.0
  0
LINE
  8
0
 62
     0
 10
110.344
 20
68.924
 30
0.0
 11
111.144
 21
68.924
 31
0.0
  0
LINE
  8
0
 62
     0
 10
111.144
 20
68.924
 30
0.0
 11
111.144
 21
71.8742
 31
0.0
  0
LINE
  8
0
 62
     0
 10
111.144
 20
71.8742
 30
0.0
 11
110.344
 21
71.8742
 31
0.0
  0
LINE
  8
0
 62
     0
 10
110.344
 20
71.8742
 30
0.0
 11
110.344
 21
77.8235
 31
0.0
  0
LINE
  8
0
 62
     0
 10
110.344
 20
77.8235
 30
0.0
 11
111.144
 21
77.8235
 31
0.0
  0
LINE
  8
0
 62
     0
 10
111.144
 20
77.8235
 30
0.0
 11
111.144
 21
80.7738
 31
0.0
  0
LINE
  8
0
 62
     0
 10
111.144
 20
80.7738
 30
0.0
 11
110.344
 21
80.7738
 31
0.0
  0
LINE
  8
0
 62
     0
 10
110.344
 20
80.7738
 30
0.0
 11
110.344
 21
81.7742
 31
0.0
  0
LINE
  8
0
 62
     0
 10
110.344
 20
81.7742
 30
0.0
 11
96.4943
 21
81.7742
 31
0.0
  0
LINE
  8
0
 62
     0
 10
115.544
 20
81.7742
 30
0.0
 11
115.544
 21
80.7738
 31
0.0
  0
LINE
  8
0
 62
     0
 10
115.544
 20
80.7738
 30
0.0
 11
114.744
 21
80.7738
 31
0.0
  0
LINE
  8
0
 62
     0
 10
114.744
 20
80.7738
 30
0.0
 11
114.744
 21
77.8235
 31
0.0
  0
LINE
  8
0
 62
     0
 10
114.744
 20
77.8235
 30
0.0
 11
115.544
 21
77.8235
 31
0.0
  0
LINE
  8
0
 62
     0
 10
115.544
 20
77.8235
 30
0.0
 11
115.544
 21
71.8742
 31
0.0
  0
LINE
  8
0
 62
     0
 10
115.544
 20
71.8742
 30
0.0
 11
114.744
 21
71.8742
 31
0.0
  0
LINE
  8
0
 62
     0
 10
114.744
 20
71.8742
 30
0.0
 11
114.744
 21
68.924
 31
0.0
  0
LINE
  8
0
 62
     0
 10
114.744
 20
68.924
 30
0.0
 11
115.544
 21
68.924
 31
0.0
  0
LINE
  8
0
 62
     0
 10
115.544
 20
68.924
 30
0.0
 11
115.544
 21
67.9235
 31
0.0
  0
LINE
  8
0
 62
     0
 10
115.544
 20
67.9235
 30
0.0
 11
129.394
 21
67.9235
 31
0.0
  0
LINE
  8
0
 62
     0
 10
129.394
 20
67.9235
 30
0.0
 11
129.394
 21
68.924
 31
0.0
  0
LINE
  8
0
 62
     0
 10
129.394
 20
68.924
 30
0.0
 11
130.194
 21
68.924
 31
0.0
  0
LINE
  8
0
 62
     0
 10
130.194
 20
68.924
 30
0.0
 11
130.194
 21
71.8742
 31
0.0
  0
LINE
  8
0
 62
     0
 10
130.194
 20
71.8742
 30
0.0
 11
129.394
 21
71.8742
 31
0.0
  0
LINE
  8
0
 62
     0
 10
129.394
 20
71.8742
 30
0.0
 11
129.394
 21
77.8235
 31
0.0
  0
LINE
  8
0
 62
     0
 10
129.394
 20
77.8235
 30
0.0
 11
130.194
 21
77.8235
 31
0.0
  0
LINE
  8
0
 62
     0
 10
130.194
 20
77.8235
 30
0.0
 11
130.194
 21
80.7738
 31
0.0
  0
LINE
  8
0
 62
     0
 10
130.194
 20
80.7738
 30
0.0
 11
129.394
 21
80.7738
 31
0.0
  0
LINE
  8
0
 62
     0
 10
129.394
 20
80.7738
 30
0.0
 11
129.394
 21
81.7742
 31
0.0
  0
LINE
  8
0
 62
     0
 10
129.394
 20
81.7742
 30
0.0
 11
115.544
 21
81.7742
 31
0.0
  0
LINE
  8
0
 62
     0
 10
134.594
 20
81.7742
 30
0.0
 11
134.594
 21
80.7738
 31
0.0
  0
LINE
  8
0
 62
     0
 10
134.594
 20
80.7738
 30
0.0
 11
133.795
 21
80.7738
 31
0.0
  0
LINE
  8
0
 62
     0
 10
133.795
 20
80.7738
 30
0.0
 11
133.795
 21
77.8235
 31
0.0
  0
LINE
  8
0
 62
     0
 10
133.795
 20
77.8235
 30
0.0
 11
134.594
 21
77.8235
 31
0.0
  0
LINE
  8
0
 62
     0
 10
134.594
 20
77.8235
 30
0.0
 11
134.594
 21
71.8742
 31
0.0
  0
LINE
  8
0
 62
     0
 10
134.594
 20
71.8742
 30
0.0
 11
133.795
 21
71.8742
 31
0.0
  0
LINE
  8
0
 62
     0
 10
133.795
 20
71.8742
 30
0.0
 11
133.795
 21
68.924
 31
0.0
  0
LINE
  8
0
 62
     0
 10
133.795
 20
68.924
 30
0.0
 11
134.594
 21
68.924
 31
0.0
  0
LINE
  8
0
 62
     0
 10
134.594
 20
68.924
 30
0.0
 11
134.594
 21
67.9235
 31
0.0
  0
LINE
  8
0
 62
     0
 10
134.594
 20
67.9235
 30
0.0
 11
148.445
 21
67.9235
 31
0.0
  0
LINE
  8
0
 62
     0
 10
148.445
 20
67.9235
 30
0.0
 11
148.445
 21
68.924
 31
0.0
  0
LINE
  8
0
 62
     0
 10
148.445
 20
68.924
 30
0.0
 11
149.244
 21
68.924
 31
0.0
  0
LINE
  8
0
 62
     0
 10
149.244
 20
68.924
 30
0.0
 11
149.244
 21
71.8742
 31
0.0
  0
LINE
  8
0
 62
     0
 10
149.244
 20
71.8742
 30
0.0
 11
148.445
 21
71.8742
 31
0.0
  0
LINE
  8
0
 62
     0
 10
148.445
 20
71.8742
 30
0.0
 11
148.445
 21
77.8235
 31
0.0
  0
LINE
  8
0
 62
     0
 10
148.445
 20
77.8235
 30
0.0
 11
149.244
 21
77.8235
 31
0.0
  0
LINE
  8
0
 62
     0
 10
149.244
 20
77.8235
 30
0.0
 11
149.244
 21
80.7738
 31
0.0
  0
LINE
  8
0
 62
     0
 10
149.244
 20
80.7738
 30
0.0
 11
148.445
 21
80.7738
 31
0.0
  0
LINE
  8
0
 62
     0
 10
148.445
 20
80.7738
 30
0.0
 11
148.445
 21
81.7742
 31
0.0
  0
LINE
  8
0
 62
     0
 10
148.445
 20
81.7742
 30
0.0
 11
134.594
 21
81.7742
 31
0.0
  0
LINE
  8
0
 62
     0
 10
153.644
 20
81.7742
 30
0.0
 11
153.644
 21
80.7738
 31
0.0
  0
LINE
  8
0
 62
     0
 10
153.644
 20
80.7738
 30
0.0
 11
152.845
 21
80.7738
 31
0.0
  0
LINE
  8
0
 62
     0
 10
152.845
 20
80.7738
 30
0.0
 11
152.845
 21
77.8235
 31
0.0
  0
LINE
  8
0
 62
     0
 10
152.845
 20
77.8235
 30
0.0
 11
153.644
 21
77.8235
 31
0.0
  0
LINE
  8
0
 62
     0
 10
153.644
 20
77.8235
 30
0.0
 11
153.644
 21
71.8742
 31
0.0
  0
LINE
  8
0
 62
     0
 10
153.644
 20
71.8742
 30
0.0
 11
152.845
 21
71.8742
 31
0.0
  0
LINE
  8
0
 62
     0
 10
152.845
 20
71.8742
 30
0.0
 11
152.845
 21
68.924
 31
0.0
  0
LINE
  8
0
 62
     0
 10
152.845
 20
68.924
 30
0.0
 11
153.644
 21
68.924
 31
0.0
  0
LINE
  8
0
 62
     0
 10
153.644
 20
68.924
 30
0.0
 11
153.644
 21
67.9235
 31
0.0
  0
LINE
  8
0
 62
     0
 10
153.644
 20
67.9235
 30
0.0
 11
167.495
 21
67.9235
 31
0.0
  0
LINE
  8
0
 62
     0
 10
167.495
 20
67.9235
 30
0.0
 11
167.495
 21
68.924
 31
0.0
  0
LINE
  8
0
 62
     0
 10
167.495
 20
68.924
 30
0.0
 11
168.294
 21
68.924
 31
0.0
  0
LINE
  8
0
 62
     0
 10
168.294
 20
68.924
 30
0.0
 11
168.294
 21
71.8742
 31
0.0
  0
LINE
  8
0
 62
     0
 10
168.294
 20
71.8742
 30
0.0
 11
167.495
 21
71.8742
 31
0.0
  0
LINE
  8
0
 62
     0
 10
167.495
 20
71.8742
 30
0.0
 11
167.495
 21
77.8235
 31
0.0
  0
LINE
  8
0
 62
     0
 10
167.495
 20
77.8235
 30
0.0
 11
168.294
 21
77.8235
 31
0.0
  0
LINE
  8
0
 62
     0
 10
168.294
 20
77.8235
 30
0.0
 11
168.294
 21
80.7738
 31
0.0
  0
LINE
  8
0
 62
     0
 10
168.294
 20
80.7738
 30
0.0
 11
167.495
 21
80.7738
 31
0.0
  0
LINE
  8
0
 62
     0
 10
167.495
 20
80.7738
 30
0.0
 11
167.495
 21
81.7742
 31
0.0
  0
LINE
  8
0
 62
     0
 10
167.495
 20
81.7742
 30
0.0
 11
153.644
 21
81.7742
 31
0.0
  0
LINE
  8
0
 62
     0
 10
172.694
 20
81.7742
 30
0.0
 11
172.694
 21
80.7738
 31
0.0
  0
LINE
  8
0
 62
     0
 10
172.694
 20
80.7738
 30
0.0
 11
171.895
 21
80.7738
 31
0.0
  0
LINE
  8
0
 62
     0
 10
171.895
 20
80.7738
 30
0.0
 11
171.895
 21
77.8235
 31
0.0
  0
LINE
  8
0
 62
     0
 10
171.895
 20
77.8235
 30
0.0
 11
172.694
 21
77.8235
 31
0.0
  0
LINE
  8
0
 62
     0
 10
172.694
 20
77.8235
 30
0.0
 11
172.694
 21
71.8742
 31
0.0
  0
LINE
  8
0
 62
     0
 10
172.694
 20
71.8742
 30
0.0
 11
171.895
 21
71.8742
 31
0.0
  0
LINE
  8
0
 62
     0
 10
171.895
 20
71.8742
 30
0.0
 11
171.895
 21
68.924
 31
0.0
  0
LINE
  8
0
 62
     0
 10
171.895
 20
68.924
 30
0.0
 11
172.694
 21
68.924
 31
0.0
  0
LINE
  8
0
 62
     0
 10
172.694
 20
68.924
 30
0.0
 11
172.694
 21
67.9235
 31
0.0
  0
LINE
  8
0
 62
     0
 10
172.694
 20
67.9235
 30
0.0
 11
186.545
 21
67.9235
 31
0.0
  0
LINE
  8
0
 62
     0
 10
186.545
 20
67.9235
 30
0.0
 11
186.545
 21
68.924
 31
0.0
  0
LINE
  8
0
 62
     0
 10
186.545
 20
68.924
 30
0.0
 11
187.344
 21
68.924
 31
0.0
  0
LINE
  8
0
 62
     0
 10
187.344
 20
68.924
 30
0.0
 11
187.344
 21
71.8742
 31
0.0
  0
LINE
  8
0
 62
     0
 10
187.344
 20
71.8742
 30
0.0
 11
186.545
 21
71.8742
 31
0.0
  0
LINE
  8
0
 62
     0
 10
186.545
 20
71.8742
 30
0.0
 11
186.545
 21
77.8235
 31
0.0
  0
LINE
  8
0
 62
     0
 10
186.545
 20
77.8235
 30
0.0
 11
187.344
 21
77.8235
 31
0.0
  0
LINE
  8
0
 62
     0
 10
187.344
 20
77.8235
 30
0.0
 11
187.344
 21
80.7738
 31
0.0
  0
LINE
  8
0
 62
     0
 10
187.344
 20
80.7738
 30
0.0
 11
186.545
 21
80.7738
 31
0.0
  0
LINE
  8
0
 62
     0
 10
186.545
 20
80.7738
 30
0.0
 11
186.545
 21
81.7742
 31
0.0
  0
LINE
  8
0
 62
     0
 10
186.545
 20
81.7742
 30
0.0
 11
172.694
 21
81.7742
 31
0.0
  0
LINE
  8
0
 62
     0
 10
191.744
 20
81.7742
 30
0.0
 11
191.744
 21
80.7738
 31
0.0
  0
LINE
  8
0
 62
     0
 10
191.744
 20
80.7738
 30
0.0
 11
190.945
 21
80.7738
 31
0.0
  0
LINE
  8
0
 62
     0
 10
190.945
 20
80.7738
 30
0.0
 11
190.945
 21
77.8235
 31
0.0
  0
LINE
  8
0
 62
     0
 10
190.945
 20
77.8235
 30
0.0
 11
191.744
 21
77.8235
 31
0.0
  0
LINE
  8
0
 62
     0
 10
191.744
 20
77.8235
 30
0.0
 11
191.744
 21
71.8742
 31
0.0
  0
LINE
  8
0
 62
     0
 10
191.744
 20
71.8742
 30
0.0
 11
190.945
 21
71.8742
 31
0.0
  0
LINE
  8
0
 62
     0
 10
190.945
 20
71.8742
 30
0.0
 11
190.945
 21
68.924
 31
0.0
  0
LINE
  8
0
 62
     0
 10
190.945
 20
68.924
 30
0.0
 11
191.744
 21
68.924
 31
0.0
  0
LINE
  8
0
 62
     0
 10
191.744
 20
68.924
 30
0.0
 11
191.744
 21
67.9235
 31
0.0
  0
LINE
  8
0
 62
     0
 10
191.744
 20
67.9235
 30
0.0
 11
205.595
 21
67.9235
 31
0.0
  0
LINE
  8
0
 62
     0
 10
205.595
 20
67.9235
 30
0.0
 11
205.595
 21
68.924
 31
0.0
  0
LINE
  8
0
 62
     0
 10
205.595
 20
68.924
 30
0.0
 11
206.394
 21
68.924
 31
0.0
  0
LINE
  8
0
 62
     0
 10
206.394
 20
68.924
 30
0.0
 11
206.394
 21
71.8742
 31
0.0
  0
LINE
  8
0
 62
     0
 10
206.394
 20
71.8742
 30
0.0
 11
205.595
 21
71.8742
 31
0.0
  0
LINE
  8
0
 62
     0
 10
205.595
 20
71.8742
 30
0.0
 11
205.595
 21
77.8235
 31
0.0
  0
LINE
  8
0
 62
     0
 10
205.595
 20
77.8235
 30
0.0
 11
206.394
 21
77.8235
 31
0.0
  0
LINE
  8
0
 62
     0
 10
206.394
 20
77.8235
 30
0.0
 11
206.394
 21
80.7738
 31
0.0
  0
LINE
  8
0
 62
     0
 10
206.394
 20
80.7738
 30
0.0
 11
205.595
 21
80.7738
 31
0.0
  0
LINE
  8
0
 62
     0
 10
205.595
 20
80.7738
 30
0.0
 11
205.595
 21
81.7742
 31
0.0
  0
LINE
  8
0
 62
     0
 10
205.595
 20
81.7742
 30
0.0
 11
191.744
 21
81.7742
 31
0.0
  0
LINE
  8
0
 62
     0
 10
210.794
 20
81.7742
 30
0.0
 11
210.794
 21
80.7738
 31
0.0
  0
LINE
  8
0
 62
     0
 10
210.794
 20
80.7738
 30
0.0
 11
209.995
 21
80.7738
 31
0.0
  0
LINE
  8
0
 62
     0
 10
209.995
 20
80.7738
 30
0.0
 11
209.995
 21
77.8235
 31
0.0
  0
LINE
  8
0
 62
     0
 10
209.995
 20
77.8235
 30
0.0
 11
210.794
 21
77.8235
 31
0.0
  0
LINE
  8
0
 62
     0
 10
210.794
 20
77.8235
 30
0.0
 11
210.794
 21
71.8742
 31
0.0
  0
LINE
  8
0
 62
     0
 10
210.794
 20
71.8742
 30
0.0
 11
209.995
 21
71.8742
 31
0.0
  0
LINE
  8
0
 62
     0
 10
209.995
 20
71.8742
 30
0.0
 11
209.995
 21
68.924
 31
0.0
  0
LINE
  8
0
 62
     0
 10
209.995
 20
68.924
 30
0.0
 11
210.794
 21
68.924
 31
0.0
  0
LINE
  8
0
 62
     0
 10
210.794
 20
68.924
 30
0.0
 11
210.794
 21
67.9235
 31
0.0
  0
LINE
  8
0
 62
     0
 10
210.794
 20
67.9235
 30
0.0
 11
224.645
 21
67.9235
 31
0.0
  0
LINE
  8
0
 62
     0
 10
224.645
 20
67.9235
 30
0.0
 11
224.645
 21
68.924
 31
0.0
  0
LINE
  8
0
 62
     0
 10
224.645
 20
68.924
 30
0.0
 11
225.444
 21
68.924
 31
0.0
  0
LINE
  8
0
 62
     0
 10
225.444
 20
68.924
 30
0.0
 11
225.444
 21
71.8742
 31
0.0
  0
LINE
  8
0
 62
     0
 10
225.444
 20
71.8742
 30
0.0
 11
224.645
 21
71.8742
 31
0.0
  0
LINE
  8
0
 62
     0
 10
224.645
 20
71.8742
 30
0.0
 11
224.645
 21
77.8235
 31
0.0
  0
LINE
  8
0
 62
     0
 10
224.645
 20
77.8235
 30
0.0
 11
225.444
 21
77.8235
 31
0.0
  0
LINE
  8
0
 62
     0
 10
225.444
 20
77.8235
 30
0.0
 11
225.444
 21
80.7738
 31
0.0
  0
LINE
  8
0
 62
     0
 10
225.444
 20
80.7738
 30
0.0
 11
224.645
 21
80.7738
 31
0.0
  0
LINE
  8
0
 62
     0
 10
224.645
 20
80.7738
 30
0.0
 11
224.645
 21
81.7742
 31
0.0
  0
LINE
  8
0
 62
     0
 10
224.645
 20
81.7742
 30
0.0
 11
210.794
 21
81.7742
 31
0.0
  0
LINE
  8
0
 62
     0
 10
234.607
 20
81.7742
 30
0.0
 11
234.607
 21
80.7738
 31
0.0
  0
LINE
  8
0
 62
     0
 10
234.607
 20
80.7738
 30
0.0
 11
233.806
 21
80.7738
 31
0.0
  0
LINE
  8
0
 62
     0
 10
233.806
 20
80.7738
 30
0.0
 11
233.806
 21
77.8235
 31
0.0
  0
LINE
  8
0
 62
     0
 10
233.806
 20
77.8235
 30
0.0
 11
234.607
 21
77.8235
 31
0.0
  0
LINE
  8
0
 62
     0
 10
234.607
 20
77.8235
 30
0.0
 11
234.607
 21
71.8742
 31
0.0
  0
LINE
  8
0
 62
     0
 10
234.607
 20
71.8742
 30
0.0
 11
233.806
 21
71.8742
 31
0.0
  0
LINE
  8
0
 62
     0
 10
233.806
 20
71.8742
 30
0.0
 11
233.806
 21
68.924
 31
0.0
  0
LINE
  8
0
 62
     0
 10
233.806
 20
68.924
 30
0.0
 11
234.607
 21
68.924
 31
0.0
  0
LINE
  8
0
 62
     0
 10
234.607
 20
68.924
 30
0.0
 11
234.607
 21
67.9235
 31
0.0
  0
LINE
  8
0
 62
     0
 10
234.607
 20
67.9235
 30
0.0
 11
248.456
 21
67.9235
 31
0.0
  0
LINE
  8
0
 62
     0
 10
248.456
 20
67.9235
 30
0.0
 11
248.456
 21
68.924
 31
0.0
  0
LINE
  8
0
 62
     0
 10
248.456
 20
68.924
 30
0.0
 11
249.257
 21
68.924
 31
0.0
  0
LINE
  8
0
 62
     0
 10
249.257
 20
68.924
 30
0.0
 11
249.257
 21
71.8742
 31
0.0
  0
LINE
  8
0
 62
     0
 10
249.257
 20
71.8742
 30
0.0
 11
248.456
 21
71.8742
 31
0.0
  0
LINE
  8
0
 62
     0
 10
248.456
 20
71.8742
 30
0.0
 11
248.456
 21
77.8235
 31
0.0
  0
LINE
  8
0
 62
     0
 10
248.456
 20
77.8235
 30
0.0
 11
249.257
 21
77.8235
 31
0.0
  0
LINE
  8
0
 62
     0
 10
249.257
 20
77.8235
 30
0.0
 11
249.257
 21
80.7738
 31
0.0
  0
LINE
  8
0
 62
     0
 10
249.257
 20
80.7738
 30
0.0
 11
248.456
 21
80.7738
 31
0.0
  0
LINE
  8
0
 62
     0
 10
248.456
 20
80.7738
 30
0.0
 11
248.456
 21
81.7742
 31
0.0
  0
LINE
  8
0
 62
     0
 10
248.456
 20
81.7742
 30
0.0
 11
234.607
 21
81.7742
 31
0.0
  0
LINE
  8
0
 62
     0
 10
10.7694
 20
100.824
 30
0.0
 11
10.7694
 21
99.8238
 31
0.0
  0
LINE
  8
0
 62
     0
 10
10.7694
 20
99.8238
 30
0.0
 11
9.9701
 21
99.8238
 31
0.0
  0
LINE
  8
0
 62
     0
 10
9.9701
 20
99.8238
 30
0.0
 11
9.9701
 21
96.8735
 31
0.0
  0
LINE
  8
0
 62
     0
 10
9.9701
 20
96.8735
 30
0.0
 11
10.7694
 21
96.8735
 31
0.0
  0
LINE
  8
0
 62
     0
 10
10.7694
 20
96.8735
 30
0.0
 11
10.7694
 21
90.9242
 31
0.0
  0
LINE
  8
0
 62
     0
 10
10.7694
 20
90.9242
 30
0.0
 11
9.9701
 21
90.9242
 31
0.0
  0
LINE
  8
0
 62
     0
 10
9.9701
 20
90.9242
 30
0.0
 11
9.9701
 21
87.974
 31
0.0
  0
LINE
  8
0
 62
     0
 10
9.9701
 20
87.974
 30
0.0
 11
10.7694
 21
87.974
 31
0.0
  0
LINE
  8
0
 62
     0
 10
10.7694
 20
87.974
 30
0.0
 11
10.7694
 21
86.9735
 31
0.0
  0
LINE
  8
0
 62
     0
 10
10.7694
 20
86.9735
 30
0.0
 11
24.62
 21
86.9735
 31
0.0
  0
LINE
  8
0
 62
     0
 10
24.62
 20
86.9735
 30
0.0
 11
24.62
 21
87.974
 31
0.0
  0
LINE
  8
0
 62
     0
 10
24.62
 20
87.974
 30
0.0
 11
25.4193
 21
87.974
 31
0.0
  0
LINE
  8
0
 62
     0
 10
25.4193
 20
87.974
 30
0.0
 11
25.4193
 21
90.9242
 31
0.0
  0
LINE
  8
0
 62
     0
 10
25.4193
 20
90.9242
 30
0.0
 11
24.62
 21
90.9242
 31
0.0
  0
LINE
  8
0
 62
     0
 10
24.62
 20
90.9242
 30
0.0
 11
24.62
 21
96.8735
 31
0.0
  0
LINE
  8
0
 62
     0
 10
24.62
 20
96.8735
 30
0.0
 11
25.4193
 21
96.8735
 31
0.0
  0
LINE
  8
0
 62
     0
 10
25.4193
 20
96.8735
 30
0.0
 11
25.4193
 21
99.8238
 31
0.0
  0
LINE
  8
0
 62
     0
 10
25.4193
 20
99.8238
 30
0.0
 11
24.62
 21
99.8238
 31
0.0
  0
LINE
  8
0
 62
     0
 10
24.62
 20
99.8238
 30
0.0
 11
24.62
 21
100.824
 31
0.0
  0
LINE
  8
0
 62
     0
 10
24.62
 20
100.824
 30
0.0
 11
10.7694
 21
100.824
 31
0.0
  0
LINE
  8
0
 62
     0
 10
29.8194
 20
100.824
 30
0.0
 11
29.8194
 21
99.8238
 31
0.0
  0
LINE
  8
0
 62
     0
 10
29.8194
 20
99.8238
 30
0.0
 11
29.0201
 21
99.8238
 31
0.0
  0
LINE
  8
0
 62
     0
 10
29.0201
 20
99.8238
 30
0.0
 11
29.0201
 21
96.8735
 31
0.0
  0
LINE
  8
0
 62
     0
 10
29.0201
 20
96.8735
 30
0.0
 11
29.8194
 21
96.8735
 31
0.0
  0
LINE
  8
0
 62
     0
 10
29.8194
 20
96.8735
 30
0.0
 11
29.8194
 21
90.9242
 31
0.0
  0
LINE
  8
0
 62
     0
 10
29.8194
 20
90.9242
 30
0.0
 11
29.0201
 21
90.9242
 31
0.0
  0
LINE
  8
0
 62
     0
 10
29.0201
 20
90.9242
 30
0.0
 11
29.0201
 21
87.974
 31
0.0
  0
LINE
  8
0
 62
     0
 10
29.0201
 20
87.974
 30
0.0
 11
29.8194
 21
87.974
 31
0.0
  0
LINE
  8
0
 62
     0
 10
29.8194
 20
87.974
 30
0.0
 11
29.8194
 21
86.9735
 31
0.0
  0
LINE
  8
0
 62
     0
 10
29.8194
 20
86.9735
 30
0.0
 11
43.67
 21
86.9735
 31
0.0
  0
LINE
  8
0
 62
     0
 10
43.67
 20
86.9735
 30
0.0
 11
43.67
 21
87.974
 31
0.0
  0
LINE
  8
0
 62
     0
 10
43.67
 20
87.974
 30
0.0
 11
44.4694
 21
87.974
 31
0.0
  0
LINE
  8
0
 62
     0
 10
44.4694
 20
87.974
 30
0.0
 11
44.4694
 21
90.9242
 31
0.0
  0
LINE
  8
0
 62
     0
 10
44.4694
 20
90.9242
 30
0.0
 11
43.67
 21
90.9242
 31
0.0
  0
LINE
  8
0
 62
     0
 10
43.67
 20
90.9242
 30
0.0
 11
43.67
 21
96.8735
 31
0.0
  0
LINE
  8
0
 62
     0
 10
43.67
 20
96.8735
 30
0.0
 11
44.4694
 21
96.8735
 31
0.0
  0
LINE
  8
0
 62
     0
 10
44.4694
 20
96.8735
 30
0.0
 11
44.4694
 21
99.8238
 31
0.0
  0
LINE
  8
0
 62
     0
 10
44.4694
 20
99.8238
 30
0.0
 11
43.67
 21
99.8238
 31
0.0
  0
LINE
  8
0
 62
     0
 10
43.67
 20
99.8238
 30
0.0
 11
43.67
 21
100.824
 31
0.0
  0
LINE
  8
0
 62
     0
 10
43.67
 20
100.824
 30
0.0
 11
29.8194
 21
100.824
 31
0.0
  0
LINE
  8
0
 62
     0
 10
48.8692
 20
100.824
 30
0.0
 11
48.8692
 21
99.8238
 31
0.0
  0
LINE
  8
0
 62
     0
 10
48.8692
 20
99.8238
 30
0.0
 11
48.0702
 21
99.8238
 31
0.0
  0
LINE
  8
0
 62
     0
 10
48.0702
 20
99.8238
 30
0.0
 11
48.0702
 21
96.8735
 31
0.0
  0
LINE
  8
0
 62
     0
 10
48.0702
 20
96.8735
 30
0.0
 11
48.8692
 21
96.8735
 31
0.0
  0
LINE
  8
0
 62
     0
 10
48.8692
 20
96.8735
 30
0.0
 11
48.8692
 21
90.9242
 31
0.0
  0
LINE
  8
0
 62
     0
 10
48.8692
 20
90.9242
 30
0.0
 11
48.0702
 21
90.9242
 31
0.0
  0
LINE
  8
0
 62
     0
 10
48.0702
 20
90.9242
 30
0.0
 11
48.0702
 21
87.974
 31
0.0
  0
LINE
  8
0
 62
     0
 10
48.0702
 20
87.974
 30
0.0
 11
48.8692
 21
87.974
 31
0.0
  0
LINE
  8
0
 62
     0
 10
48.8692
 20
87.974
 30
0.0
 11
48.8692
 21
86.9735
 31
0.0
  0
LINE
  8
0
 62
     0
 10
48.8692
 20
86.9735
 30
0.0
 11
62.72
 21
86.9735
 31
0.0
  0
LINE
  8
0
 62
     0
 10
62.72
 20
86.9735
 30
0.0
 11
62.72
 21
87.974
 31
0.0
  0
LINE
  8
0
 62
     0
 10
62.72
 20
87.974
 30
0.0
 11
63.5194
 21
87.974
 31
0.0
  0
LINE
  8
0
 62
     0
 10
63.5194
 20
87.974
 30
0.0
 11
63.5194
 21
90.9242
 31
0.0
  0
LINE
  8
0
 62
     0
 10
63.5194
 20
90.9242
 30
0.0
 11
62.72
 21
90.9242
 31
0.0
  0
LINE
  8
0
 62
     0
 10
62.72
 20
90.9242
 30
0.0
 11
62.72
 21
96.8735
 31
0.0
  0
LINE
  8
0
 62
     0
 10
62.72
 20
96.8735
 30
0.0
 11
63.5194
 21
96.8735
 31
0.0
  0
LINE
  8
0
 62
     0
 10
63.5194
 20
96.8735
 30
0.0
 11
63.5194
 21
99.8238
 31
0.0
  0
LINE
  8
0
 62
     0
 10
63.5194
 20
99.8238
 30
0.0
 11
62.72
 21
99.8238
 31
0.0
  0
LINE
  8
0
 62
     0
 10
62.72
 20
99.8238
 30
0.0
 11
62.72
 21
100.824
 31
0.0
  0
LINE
  8
0
 62
     0
 10
62.72
 20
100.824
 30
0.0
 11
48.8692
 21
100.824
 31
0.0
  0
LINE
  8
0
 62
     0
 10
67.9192
 20
100.824
 30
0.0
 11
67.9192
 21
99.8238
 31
0.0
  0
LINE
  8
0
 62
     0
 10
67.9192
 20
99.8238
 30
0.0
 11
67.1202
 21
99.8238
 31
0.0
  0
LINE
  8
0
 62
     0
 10
67.1202
 20
99.8238
 30
0.0
 11
67.1202
 21
96.8735
 31
0.0
  0
LINE
  8
0
 62
     0
 10
67.1202
 20
96.8735
 30
0.0
 11
67.9192
 21
96.8735
 31
0.0
  0
LINE
  8
0
 62
     0
 10
67.9192
 20
96.8735
 30
0.0
 11
67.9192
 21
90.9242
 31
0.0
  0
LINE
  8
0
 62
     0
 10
67.9192
 20
90.9242
 30
0.0
 11
67.1202
 21
90.9242
 31
0.0
  0
LINE
  8
0
 62
     0
 10
67.1202
 20
90.9242
 30
0.0
 11
67.1202
 21
87.974
 31
0.0
  0
LINE
  8
0
 62
     0
 10
67.1202
 20
87.974
 30
0.0
 11
67.9192
 21
87.974
 31
0.0
  0
LINE
  8
0
 62
     0
 10
67.9192
 20
87.974
 30
0.0
 11
67.9192
 21
86.9735
 31
0.0
  0
LINE
  8
0
 62
     0
 10
67.9192
 20
86.9735
 30
0.0
 11
81.77
 21
86.9735
 31
0.0
  0
LINE
  8
0
 62
     0
 10
81.77
 20
86.9735
 30
0.0
 11
81.77
 21
87.974
 31
0.0
  0
LINE
  8
0
 62
     0
 10
81.77
 20
87.974
 30
0.0
 11
82.5694
 21
87.974
 31
0.0
  0
LINE
  8
0
 62
     0
 10
82.5694
 20
87.974
 30
0.0
 11
82.5694
 21
90.9242
 31
0.0
  0
LINE
  8
0
 62
     0
 10
82.5694
 20
90.9242
 30
0.0
 11
81.77
 21
90.9242
 31
0.0
  0
LINE
  8
0
 62
     0
 10
81.77
 20
90.9242
 30
0.0
 11
81.77
 21
96.8735
 31
0.0
  0
LINE
  8
0
 62
     0
 10
81.77
 20
96.8735
 30
0.0
 11
82.5694
 21
96.8735
 31
0.0
  0
LINE
  8
0
 62
     0
 10
82.5694
 20
96.8735
 30
0.0
 11
82.5694
 21
99.8238
 31
0.0
  0
LINE
  8
0
 62
     0
 10
82.5694
 20
99.8238
 30
0.0
 11
81.77
 21
99.8238
 31
0.0
  0
LINE
  8
0
 62
     0
 10
81.77
 20
99.8238
 30
0.0
 11
81.77
 21
100.824
 31
0.0
  0
LINE
  8
0
 62
     0
 10
81.77
 20
100.824
 30
0.0
 11
67.9192
 21
100.824
 31
0.0
  0
LINE
  8
0
 62
     0
 10
86.9692
 20
100.824
 30
0.0
 11
86.9692
 21
99.8238
 31
0.0
  0
LINE
  8
0
 62
     0
 10
86.9692
 20
99.8238
 30
0.0
 11
86.1702
 21
99.8238
 31
0.0
  0
LINE
  8
0
 62
     0
 10
86.1702
 20
99.8238
 30
0.0
 11
86.1702
 21
96.8735
 31
0.0
  0
LINE
  8
0
 62
     0
 10
86.1702
 20
96.8735
 30
0.0
 11
86.9692
 21
96.8735
 31
0.0
  0
LINE
  8
0
 62
     0
 10
86.9692
 20
96.8735
 30
0.0
 11
86.9692
 21
90.9242
 31
0.0
  0
LINE
  8
0
 62
     0
 10
86.9692
 20
90.9242
 30
0.0
 11
86.1702
 21
90.9242
 31
0.0
  0
LINE
  8
0
 62
     0
 10
86.1702
 20
90.9242
 30
0.0
 11
86.1702
 21
87.974
 31
0.0
  0
LINE
  8
0
 62
     0
 10
86.1702
 20
87.974
 30
0.0
 11
86.9692
 21
87.974
 31
0.0
  0
LINE
  8
0
 62
     0
 10
86.9692
 20
87.974
 30
0.0
 11
86.9692
 21
86.9735
 31
0.0
  0
LINE
  8
0
 62
     0
 10
86.9692
 20
86.9735
 30
0.0
 11
100.82
 21
86.9735
 31
0.0
  0
LINE
  8
0
 62
     0
 10
100.82
 20
86.9735
 30
0.0
 11
100.82
 21
87.974
 31
0.0
  0
LINE
  8
0
 62
     0
 10
100.82
 20
87.974
 30
0.0
 11
101.619
 21
87.974
 31
0.0
  0
LINE
  8
0
 62
     0
 10
101.619
 20
87.974
 30
0.0
 11
101.619
 21
90.9242
 31
0.0
  0
LINE
  8
0
 62
     0
 10
101.619
 20
90.9242
 30
0.0
 11
100.82
 21
90.9242
 31
0.0
  0
LINE
  8
0
 62
     0
 10
100.82
 20
90.9242
 30
0.0
 11
100.82
 21
96.8735
 31
0.0
  0
LINE
  8
0
 62
     0
 10
100.82
 20
96.8735
 30
0.0
 11
101.619
 21
96.8735
 31
0.0
  0
LINE
  8
0
 62
     0
 10
101.619
 20
96.8735
 30
0.0
 11
101.619
 21
99.8238
 31
0.0
  0
LINE
  8
0
 62
     0
 10
101.619
 20
99.8238
 30
0.0
 11
100.82
 21
99.8238
 31
0.0
  0
LINE
  8
0
 62
     0
 10
100.82
 20
99.8238
 30
0.0
 11
100.82
 21
100.824
 31
0.0
  0
LINE
  8
0
 62
     0
 10
100.82
 20
100.824
 30
0.0
 11
86.9692
 21
100.824
 31
0.0
  0
LINE
  8
0
 62
     0
 10
106.019
 20
100.824
 30
0.0
 11
106.019
 21
99.8238
 31
0.0
  0
LINE
  8
0
 62
     0
 10
106.019
 20
99.8238
 30
0.0
 11
105.22
 21
99.8238
 31
0.0
  0
LINE
  8
0
 62
     0
 10
105.22
 20
99.8238
 30
0.0
 11
105.22
 21
96.8735
 31
0.0
  0
LINE
  8
0
 62
     0
 10
105.22
 20
96.8735
 30
0.0
 11
106.019
 21
96.8735
 31
0.0
  0
LINE
  8
0
 62
     0
 10
106.019
 20
96.8735
 30
0.0
 11
106.019
 21
90.9242
 31
0.0
  0
LINE
  8
0
 62
     0
 10
106.019
 20
90.9242
 30
0.0
 11
105.22
 21
90.9242
 31
0.0
  0
LINE
  8
0
 62
     0
 10
105.22
 20
90.9242
 30
0.0
 11
105.22
 21
87.974
 31
0.0
  0
LINE
  8
0
 62
     0
 10
105.22
 20
87.974
 30
0.0
 11
106.019
 21
87.974
 31
0.0
  0
LINE
  8
0
 62
     0
 10
106.019
 20
87.974
 30
0.0
 11
106.019
 21
86.9735
 31
0.0
  0
LINE
  8
0
 62
     0
 10
106.019
 20
86.9735
 30
0.0
 11
119.869
 21
86.9735
 31
0.0
  0
LINE
  8
0
 62
     0
 10
119.869
 20
86.9735
 30
0.0
 11
119.869
 21
87.974
 31
0.0
  0
LINE
  8
0
 62
     0
 10
119.869
 20
87.974
 30
0.0
 11
120.669
 21
87.974
 31
0.0
  0
LINE
  8
0
 62
     0
 10
120.669
 20
87.974
 30
0.0
 11
120.669
 21
90.9242
 31
0.0
  0
LINE
  8
0
 62
     0
 10
120.669
 20
90.9242
 30
0.0
 11
119.869
 21
90.9242
 31
0.0
  0
LINE
  8
0
 62
     0
 10
119.869
 20
90.9242
 30
0.0
 11
119.869
 21
96.8735
 31
0.0
  0
LINE
  8
0
 62
     0
 10
119.869
 20
96.8735
 30
0.0
 11
120.669
 21
96.8735
 31
0.0
  0
LINE
  8
0
 62
     0
 10
120.669
 20
96.8735
 30
0.0
 11
120.669
 21
99.8238
 31
0.0
  0
LINE
  8
0
 62
     0
 10
120.669
 20
99.8238
 30
0.0
 11
119.869
 21
99.8238
 31
0.0
  0
LINE
  8
0
 62
     0
 10
119.869
 20
99.8238
 30
0.0
 11
119.869
 21
100.824
 31
0.0
  0
LINE
  8
0
 62
     0
 10
119.869
 20
100.824
 30
0.0
 11
106.019
 21
100.824
 31
0.0
  0
LINE
  8
0
 62
     0
 10
125.069
 20
100.824
 30
0.0
 11
125.069
 21
99.8238
 31
0.0
  0
LINE
  8
0
 62
     0
 10
125.069
 20
99.8238
 30
0.0
 11
124.27
 21
99.8238
 31
0.0
  0
LINE
  8
0
 62
     0
 10
124.27
 20
99.8238
 30
0.0
 11
124.27
 21
96.8735
 31
0.0
  0
LINE
  8
0
 62
     0
 10
124.27
 20
96.8735
 30
0.0
 11
125.069
 21
96.8735
 31
0.0
  0
LINE
  8
0
 62
     0
 10
125.069
 20
96.8735
 30
0.0
 11
125.069
 21
90.9242
 31
0.0
  0
LINE
  8
0
 62
     0
 10
125.069
 20
90.9242
 30
0.0
 11
124.27
 21
90.9242
 31
0.0
  0
LINE
  8
0
 62
     0
 10
124.27
 20
90.9242
 30
0.0
 11
124.27
 21
87.974
 31
0.0
  0
LINE
  8
0
 62
     0
 10
124.27
 20
87.974
 30
0.0
 11
125.069
 21
87.974
 31
0.0
  0
LINE
  8
0
 62
     0
 10
125.069
 20
87.974
 30
0.0
 11
125.069
 21
86.9735
 31
0.0
  0
LINE
  8
0
 62
     0
 10
125.069
 20
86.9735
 30
0.0
 11
138.92
 21
86.9735
 31
0.0
  0
LINE
  8
0
 62
     0
 10
138.92
 20
86.9735
 30
0.0
 11
138.92
 21
87.974
 31
0.0
  0
LINE
  8
0
 62
     0
 10
138.92
 20
87.974
 30
0.0
 11
139.719
 21
87.974
 31
0.0
  0
LINE
  8
0
 62
     0
 10
139.719
 20
87.974
 30
0.0
 11
139.719
 21
90.9242
 31
0.0
  0
LINE
  8
0
 62
     0
 10
139.719
 20
90.9242
 30
0.0
 11
138.92
 21
90.9242
 31
0.0
  0
LINE
  8
0
 62
     0
 10
138.92
 20
90.9242
 30
0.0
 11
138.92
 21
96.8735
 31
0.0
  0
LINE
  8
0
 62
     0
 10
138.92
 20
96.8735
 30
0.0
 11
139.719
 21
96.8735
 31
0.0
  0
LINE
  8
0
 62
     0
 10
139.719
 20
96.8735
 30
0.0
 11
139.719
 21
99.8238
 31
0.0
  0
LINE
  8
0
 62
     0
 10
139.719
 20
99.8238
 30
0.0
 11
138.92
 21
99.8238
 31
0.0
  0
LINE
  8
0
 62
     0
 10
138.92
 20
99.8238
 30
0.0
 11
138.92
 21
100.824
 31
0.0
  0
LINE
  8
0
 62
     0
 10
138.92
 20
100.824
 30
0.0
 11
125.069
 21
100.824
 31
0.0
  0
LINE
  8
0
 62
     0
 10
144.119
 20
100.824
 30
0.0
 11
144.119
 21
99.8238
 31
0.0
  0
LINE
  8
0
 62
     0
 10
144.119
 20
99.8238
 30
0.0
 11
143.32
 21
99.8238
 31
0.0
  0
LINE
  8
0
 62
     0
 10
143.32
 20
99.8238
 30
0.0
 11
143.32
 21
96.8735
 31
0.0
  0
LINE
  8
0
 62
     0
 10
143.32
 20
96.8735
 30
0.0
 11
144.119
 21
96.8735
 31
0.0
  0
LINE
  8
0
 62
     0
 10
144.119
 20
96.8735
 30
0.0
 11
144.119
 21
90.9242
 31
0.0
  0
LINE
  8
0
 62
     0
 10
144.119
 20
90.9242
 30
0.0
 11
143.32
 21
90.9242
 31
0.0
  0
LINE
  8
0
 62
     0
 10
143.32
 20
90.9242
 30
0.0
 11
143.32
 21
87.974
 31
0.0
  0
LINE
  8
0
 62
     0
 10
143.32
 20
87.974
 30
0.0
 11
144.119
 21
87.974
 31
0.0
  0
LINE
  8
0
 62
     0
 10
144.119
 20
87.974
 30
0.0
 11
144.119
 21
86.9735
 31
0.0
  0
LINE
  8
0
 62
     0
 10
144.119
 20
86.9735
 30
0.0
 11
157.97
 21
86.9735
 31
0.0
  0
LINE
  8
0
 62
     0
 10
157.97
 20
86.9735
 30
0.0
 11
157.97
 21
87.974
 31
0.0
  0
LINE
  8
0
 62
     0
 10
157.97
 20
87.974
 30
0.0
 11
158.769
 21
87.974
 31
0.0
  0
LINE
  8
0
 62
     0
 10
158.769
 20
87.974
 30
0.0
 11
158.769
 21
90.9242
 31
0.0
  0
LINE
  8
0
 62
     0
 10
158.769
 20
90.9242
 30
0.0
 11
157.97
 21
90.9242
 31
0.0
  0
LINE
  8
0
 62
     0
 10
157.97
 20
90.9242
 30
0.0
 11
157.97
 21
96.8735
 31
0.0
  0
LINE
  8
0
 62
     0
 10
157.97
 20
96.8735
 30
0.0
 11
158.769
 21
96.8735
 31
0.0
  0
LINE
  8
0
 62
     0
 10
158.769
 20
96.8735
 30
0.0
 11
158.769
 21
99.8238
 31
0.0
  0
LINE
  8
0
 62
     0
 10
158.769
 20
99.8238
 30
0.0
 11
157.97
 21
99.8238
 31
0.0
  0
LINE
  8
0
 62
     0
 10
157.97
 20
99.8238
 30
0.0
 11
157.97
 21
100.824
 31
0.0
  0
LINE
  8
0
 62
     0
 10
157.97
 20
100.824
 30
0.0
 11
144.119
 21
100.824
 31
0.0
  0
LINE
  8
0
 62
     0
 10
163.169
 20
100.824
 30
0.0
 11
163.169
 21
99.8238
 31
0.0
  0
LINE
  8
0
 62
     0
 10
163.169
 20
99.8238
 30
0.0
 11
162.37
 21
99.8238
 31
0.0
  0
LINE
  8
0
 62
     0
 10
162.37
 20
99.8238
 30
0.0
 11
162.37
 21
96.8735
 31
0.0
  0
LINE
  8
0
 62
     0
 10
162.37
 20
96.8735
 30
0.0
 11
163.169
 21
96.8735
 31
0.0
  0
LINE
  8
0
 62
     0
 10
163.169
 20
96.8735
 30
0.0
 11
163.169
 21
90.9242
 31
0.0
  0
LINE
  8
0
 62
     0
 10
163.169
 20
90.9242
 30
0.0
 11
162.37
 21
90.9242
 31
0.0
  0
LINE
  8
0
 62
     0
 10
162.37
 20
90.9242
 30
0.0
 11
162.37
 21
87.974
 31
0.0
  0
LINE
  8
0
 62
     0
 10
162.37
 20
87.974
 30
0.0
 11
163.169
 21
87.974
 31
0.0
  0
LINE
  8
0
 62
     0
 10
163.169
 20
87.974
 30
0.0
 11
163.169
 21
86.9735
 31
0.0
  0
LINE
  8
0
 62
     0
 10
163.169
 20
86.9735
 30
0.0
 11
177.02
 21
86.9735
 31
0.0
  0
LINE
  8
0
 62
     0
 10
177.02
 20
86.9735
 30
0.0
 11
177.02
 21
87.974
 31
0.0
  0
LINE
  8
0
 62
     0
 10
177.02
 20
87.974
 30
0.0
 11
177.819
 21
87.974
 31
0.0
  0
LINE
  8
0
 62
     0
 10
177.819
 20
87.974
 30
0.0
 11
177.819
 21
90.9242
 31
0.0
  0
LINE
  8
0
 62
     0
 10
177.819
 20
90.9242
 30
0.0
 11
177.02
 21
90.9242
 31
0.0
  0
LINE
  8
0
 62
     0
 10
177.02
 20
90.9242
 30
0.0
 11
177.02
 21
96.8735
 31
0.0
  0
LINE
  8
0
 62
     0
 10
177.02
 20
96.8735
 30
0.0
 11
177.819
 21
96.8735
 31
0.0
  0
LINE
  8
0
 62
     0
 10
177.819
 20
96.8735
 30
0.0
 11
177.819
 21
99.8238
 31
0.0
  0
LINE
  8
0
 62
     0
 10
177.819
 20
99.8238
 30
0.0
 11
177.02
 21
99.8238
 31
0.0
  0
LINE
  8
0
 62
     0
 10
177.02
 20
99.8238
 30
0.0
 11
177.02
 21
100.824
 31
0.0
  0
LINE
  8
0
 62
     0
 10
177.02
 20
100.824
 30
0.0
 11
163.169
 21
100.824
 31
0.0
  0
LINE
  8
0
 62
     0
 10
182.219
 20
100.824
 30
0.0
 11
182.219
 21
99.8238
 31
0.0
  0
LINE
  8
0
 62
     0
 10
182.219
 20
99.8238
 30
0.0
 11
181.42
 21
99.8238
 31
0.0
  0
LINE
  8
0
 62
     0
 10
181.42
 20
99.8238
 30
0.0
 11
181.42
 21
96.8735
 31
0.0
  0
LINE
  8
0
 62
     0
 10
181.42
 20
96.8735
 30
0.0
 11
182.219
 21
96.8735
 31
0.0
  0
LINE
  8
0
 62
     0
 10
182.219
 20
96.8735
 30
0.0
 11
182.219
 21
90.9242
 31
0.0
  0
LINE
  8
0
 62
     0
 10
182.219
 20
90.9242
 30
0.0
 11
181.42
 21
90.9242
 31
0.0
  0
LINE
  8
0
 62
     0
 10
181.42
 20
90.9242
 30
0.0
 11
181.42
 21
87.974
 31
0.0
  0
LINE
  8
0
 62
     0
 10
181.42
 20
87.974
 30
0.0
 11
182.219
 21
87.974
 31
0.0
  0
LINE
  8
0
 62
     0
 10
182.219
 20
87.974
 30
0.0
 11
182.219
 21
86.9735
 31
0.0
  0
LINE
  8
0
 62
     0
 10
182.219
 20
86.9735
 30
0.0
 11
196.07
 21
86.9735
 31
0.0
  0
LINE
  8
0
 62
     0
 10
196.07
 20
86.9735
 30
0.0
 11
196.07
 21
87.974
 31
0.0
  0
LINE
  8
0
 62
     0
 10
196.07
 20
87.974
 30
0.0
 11
196.869
 21
87.974
 31
0.0
  0
LINE
  8
0
 62
     0
 10
196.869
 20
87.974
 30
0.0
 11
196.869
 21
90.9242
 31
0.0
  0
LINE
  8
0
 62
     0
 10
196.869
 20
90.9242
 30
0.0
 11
196.07
 21
90.9242
 31
0.0
  0
LINE
  8
0
 62
     0
 10
196.07
 20
90.9242
 30
0.0
 11
196.07
 21
96.8735
 31
0.0
  0
LINE
  8
0
 62
     0
 10
196.07
 20
96.8735
 30
0.0
 11
196.869
 21
96.8735
 31
0.0
  0
LINE
  8
0
 62
     0
 10
196.869
 20
96.8735
 30
0.0
 11
196.869
 21
99.8238
 31
0.0
  0
LINE
  8
0
 62
     0
 10
196.869
 20
99.8238
 30
0.0
 11
196.07
 21
99.8238
 31
0.0
  0
LINE
  8
0
 62
     0
 10
196.07
 20
99.8238
 30
0.0
 11
196.07
 21
100.824
 31
0.0
  0
LINE
  8
0
 62
     0
 10
196.07
 20
100.824
 30
0.0
 11
182.219
 21
100.824
 31
0.0
  0
LINE
  8
0
 62
     0
 10
201.269
 20
100.824
 30
0.0
 11
201.269
 21
99.8238
 31
0.0
  0
LINE
  8
0
 62
     0
 10
201.269
 20
99.8238
 30
0.0
 11
200.47
 21
99.8238
 31
0.0
  0
LINE
  8
0
 62
     0
 10
200.47
 20
99.8238
 30
0.0
 11
200.47
 21
96.8735
 31
0.0
  0
LINE
  8
0
 62
     0
 10
200.47
 20
96.8735
 30
0.0
 11
201.269
 21
96.8735
 31
0.0
  0
LINE
  8
0
 62
     0
 10
201.269
 20
96.8735
 30
0.0
 11
201.269
 21
90.9242
 31
0.0
  0
LINE
  8
0
 62
     0
 10
201.269
 20
90.9242
 30
0.0
 11
200.47
 21
90.9242
 31
0.0
  0
LINE
  8
0
 62
     0
 10
200.47
 20
90.9242
 30
0.0
 11
200.47
 21
87.974
 31
0.0
  0
LINE
  8
0
 62
     0
 10
200.47
 20
87.974
 30
0.0
 11
201.269
 21
87.974
 31
0.0
  0
LINE
  8
0
 62
     0
 10
201.269
 20
87.974
 30
0.0
 11
201.269
 21
86.9735
 31
0.0
  0
LINE
  8
0
 62
     0
 10
201.269
 20
86.9735
 30
0.0
 11
215.12
 21
86.9735
 31
0.0
  0
LINE
  8
0
 62
     0
 10
215.12
 20
86.9735
 30
0.0
 11
215.12
 21
87.974
 31
0.0
  0
LINE
  8
0
 62
     0
 10
215.12
 20
87.974
 30
0.0
 11
215.919
 21
87.974
 31
0.0
  0
LINE
  8
0
 62
     0
 10
215.919
 20
87.974
 30
0.0
 11
215.919
 21
90.9242
 31
0.0
  0
LINE
  8
0
 62
     0
 10
215.919
 20
90.9242
 30
0.0
 11
215.12
 21
90.9242
 31
0.0
  0
LINE
  8
0
 62
     0
 10
215.12
 20
90.9242
 30
0.0
 11
215.12
 21
96.8735
 31
0.0
  0
LINE
  8
0
 62
     0
 10
215.12
 20
96.8735
 30
0.0
 11
215.919
 21
96.8735
 31
0.0
  0
LINE
  8
0
 62
     0
 10
215.919
 20
96.8735
 30
0.0
 11
215.919
 21
99.8238
 31
0.0
  0
LINE
  8
0
 62
     0
 10
215.919
 20
99.8238
 30
0.0
 11
215.12
 21
99.8238
 31
0.0
  0
LINE
  8
0
 62
     0
 10
215.12
 20
99.8238
 30
0.0
 11
215.12
 21
100.824
 31
0.0
  0
LINE
  8
0
 62
     0
 10
215.12
 20
100.824
 30
0.0
 11
201.269
 21
100.824
 31
0.0
  0
LINE
  8
0
 62
     0
 10
220.319
 20
100.824
 30
0.0
 11
220.319
 21
99.8238
 31
0.0
  0
LINE
  8
0
 62
     0
 10
220.319
 20
99.8238
 30
0.0
 11
219.52
 21
99.8238
 31
0.0
  0
LINE
  8
0
 62
     0
 10
219.52
 20
99.8238
 30
0.0
 11
219.52
 21
96.8735
 31
0.0
  0
LINE
  8
0
 62
     0
 10
219.52
 20
96.8735
 30
0.0
 11
220.319
 21
96.8735
 31
0.0
  0
LINE
  8
0
 62
     0
 10
220.319
 20
96.8735
 30
0.0
 11
220.319
 21
90.9242
 31
0.0
  0
LINE
  8
0
 62
     0
 10
220.319
 20
90.9242
 30
0.0
 11
219.52
 21
90.9242
 31
0.0
  0
LINE
  8
0
 62
     0
 10
219.52
 20
90.9242
 30
0.0
 11
219.52
 21
87.974
 31
0.0
  0
LINE
  8
0
 62
     0
 10
219.52
 20
87.974
 30
0.0
 11
220.319
 21
87.974
 31
0.0
  0
LINE
  8
0
 62
     0
 10
220.319
 20
87.974
 30
0.0
 11
220.319
 21
86.9735
 31
0.0
  0
LINE
  8
0
 62
     0
 10
220.319
 20
86.9735
 30
0.0
 11
234.17
 21
86.9735
 31
0.0
  0
LINE
  8
0
 62
     0
 10
234.17
 20
86.9735
 30
0.0
 11
234.17
 21
87.974
 31
0.0
  0
LINE
  8
0
 62
     0
 10
234.17
 20
87.974
 30
0.0
 11
234.969
 21
87.974
 31
0.0
  0
LINE
  8
0
 62
     0
 10
234.969
 20
87.974
 30
0.0
 11
234.969
 21
90.9242
 31
0.0
  0
LINE
  8
0
 62
     0
 10
234.969
 20
90.9242
 30
0.0
 11
234.17
 21
90.9242
 31
0.0
  0
LINE
  8
0
 62
     0
 10
234.17
 20
90.9242
 30
0.0
 11
234.17
 21
96.8735
 31
0.0
  0
LINE
  8
0
 62
     0
 10
234.17
 20
96.8735
 30
0.0
 11
234.969
 21
96.8735
 31
0.0
  0
LINE
  8
0
 62
     0
 10
234.969
 20
96.8735
 30
0.0
 11
234.969
 21
99.8238
 31
0.0
  0
LINE
  8
0
 62
     0
 10
234.969
 20
99.8238
 30
0.0
 11
234.17
 21
99.8238
 31
0.0
  0
LINE
  8
0
 62
     0
 10
234.17
 20
99.8238
 30
0.0
 11
234.17
 21
100.824
 31
0.0
  0
LINE
  8
0
 62
     0
 10
234.17
 20
100.824
 30
0.0
 11
220.319
 21
100.824
 31
0.0
  0
LINE
  8
0
 62
     0
 10
239.369
 20
100.824
 30
0.0
 11
239.369
 21
99.8238
 31
0.0
  0
LINE
  8
0
 62
     0
 10
239.369
 20
99.8238
 30
0.0
 11
238.57
 21
99.8238
 31
0.0
  0
LINE
  8
0
 62
     0
 10
238.57
 20
99.8238
 30
0.0
 11
238.57
 21
96.8735
 31
0.0
  0
LINE
  8
0
 62
     0
 10
238.57
 20
96.8735
 30
0.0
 11
239.369
 21
96.8735
 31
0.0
  0
LINE
  8
0
 62
     0
 10
239.369
 20
96.8735
 30
0.0
 11
239.369
 21
90.9242
 31
0.0
  0
LINE
  8
0
 62
     0
 10
239.369
 20
90.9242
 30
0.0
 11
238.57
 21
90.9242
 31
0.0
  0
LINE
  8
0
 62
     0
 10
238.57
 20
90.9242
 30
0.0
 11
238.57
 21
87.974
 31
0.0
  0
LINE
  8
0
 62
     0
 10
238.57
 20
87.974
 30
0.0
 11
239.369
 21
87.974
 31
0.0
  0
LINE
  8
0
 62
     0
 10
239.369
 20
87.974
 30
0.0
 11
239.369
 21
86.9735
 31
0.0
  0
LINE
  8
0
 62
     0
 10
239.369
 20
86.9735
 30
0.0
 11
253.22
 21
86.9735
 31
0.0
  0
LINE
  8
0
 62
     0
 10
253.22
 20
86.9735
 30
0.0
 11
253.22
 21
87.974
 31
0.0
  0
LINE
  8
0
 62
     0
 10
253.22
 20
87.974
 30
0.0
 11
254.019
 21
87.974
 31
0.0
  0
LINE
  8
0
 62
     0
 10
254.019
 20
87.974
 30
0.0
 11
254.019
 21
90.9242
 31
0.0
  0
LINE
  8
0
 62
     0
 10
254.019
 20
90.9242
 30
0.0
 11
253.22
 21
90.9242
 31
0.0
  0
LINE
  8
0
 62
     0
 10
253.22
 20
90.9242
 30
0.0
 11
253.22
 21
96.8735
 31
0.0
  0
LINE
  8
0
 62
     0
 10
253.22
 20
96.8735
 30
0.0
 11
254.019
 21
96.8735
 31
0.0
  0
LINE
  8
0
 62
     0
 10
254.019
 20
96.8735
 30
0.0
 11
254.019
 21
99.8238
 31
0.0
  0
LINE
  8
0
 62
     0
 10
254.019
 20
99.8238
 30
0.0
 11
253.22
 21
99.8238
 31
0.0
  0
LINE
  8
0
 62
     0
 10
253.22
 20
99.8238
 30
0.0
 11
253.22
 21
100.824
 31
0.0
  0
LINE
  8
0
 62
     0
 10
253.22
 20
100.824
 30
0.0
 11
239.369
 21
100.824
 31
0.0
  0
LINE
  8
0
 62
     0
 10
4.27193
 20
108.745
 30
0.0
 11
4.15202
 21
108.731
 31
0.0
  0
LINE
  8
0
 62
     0
 10
4.15202
 20
108.731
 30
0.0
 11
4.03214
 21
108.707
 31
0.0
  0
LINE
  8
0
 62
     0
 10
4.03214
 20
108.707
 30
0.0
 11
3.91502
 21
108.674
 31
0.0
  0
LINE
  8
0
 62
     0
 10
3.91502
 20
108.674
 30
0.0
 11
3.80062
 21
108.632
 31
0.0
  0
LINE
  8
0
 62
     0
 10
3.80062
 20
108.632
 30
0.0
 11
3.69037
 21
108.581
 31
0.0
  0
LINE
  8
0
 62
     0
 10
3.69037
 20
108.581
 30
0.0
 11
3.58429
 21
108.522
 31
0.0
  0
LINE
  8
0
 62
     0
 10
3.58429
 20
108.522
 30
0.0
 11
3.4823
 21
108.454
 31
0.0
  0
LINE
  8
0
 62
     0
 10
3.4823
 20
108.454
 30
0.0
 11
3.38722
 21
108.38
 31
0.0
  0
LINE
  8
0
 62
     0
 10
3.38722
 20
108.38
 30
0.0
 11
3.29765
 21
108.296
 31
0.0
  0
LINE
  8
0
 62
     0
 10
3.29765
 20
108.296
 30
0.0
 11
3.21359
 21
108.206
 31
0.0
  0
LINE
  8
0
 62
     0
 10
3.21359
 20
108.206
 30
0.0
 11
3.13917
 21
108.111
 31
0.0
  0
LINE
  8
0
 62
     0
 10
3.13917
 20
108.111
 30
0.0
 11
3.07165
 21
108.009
 31
0.0
  0
LINE
  8
0
 62
     0
 10
3.07165
 20
108.009
 30
0.0
 11
3.01239
 21
107.903
 31
0.0
  0
LINE
  8
0
 62
     0
 10
3.01239
 20
107.903
 30
0.0
 11
2.9614
 21
107.793
 31
0.0
  0
LINE
  8
0
 62
     0
 10
2.9614
 20
107.793
 30
0.0
 11
2.92006
 21
107.678
 31
0.0
  0
LINE
  8
0
 62
     0
 10
2.92006
 20
107.678
 30
0.0
 11
2.88699
 21
107.561
 31
0.0
  0
LINE
  8
0
 62
     0
 10
2.88699
 20
107.561
 30
0.0
 11
2.86219
 21
107.442
 31
0.0
  0
LINE
  8
0
 62
     0
 10
2.86219
 20
107.442
 30
0.0
 11
2.84841
 21
107.322
 31
0.0
  0
LINE
  8
0
 62
     0
 10
2.84841
 20
107.322
 30
0.0
 11
2.84427
 21
107.2
 31
0.0
  0
LINE
  8
0
 62
     0
 10
2.84427
 20
107.2
 30
0.0
 11
2.84841
 21
107.078
 31
0.0
  0
LINE
  8
0
 62
     0
 10
2.84841
 20
107.078
 30
0.0
 11
2.86219
 21
106.958
 31
0.0
  0
LINE
  8
0
 62
     0
 10
2.86219
 20
106.958
 30
0.0
 11
2.88699
 21
106.838
 31
0.0
  0
LINE
  8
0
 62
     0
 10
2.88699
 20
106.838
 30
0.0
 11
2.92006
 21
106.721
 31
0.0
  0
LINE
  8
0
 62
     0
 10
2.92006
 20
106.721
 30
0.0
 11
2.9614
 21
106.606
 31
0.0
  0
LINE
  8
0
 62
     0
 10
2.9614
 20
106.606
 30
0.0
 11
3.01239
 21
106.496
 31
0.0
  0
LINE
  8
0
 62
     0
 10
3.01239
 20
106.496
 30
0.0
 11
3.07165
 21
106.39
 31
0.0
  0
LINE
  8
0
 62
     0
 10
3.07165
 20
106.39
 30
0.0
 11
3.13917
 21
106.289
 31
0.0
  0
LINE
  8
0
 62
     0
 10
3.13917
 20
106.289
 30
0.0
 11
3.21359
 21
106.193
 31
0.0
  0
LINE
  8
0
 62
     0
 10
3.21359
 20
106.193
 30
0.0
 11
3.29765
 21
106.104
 31
0.0
  0
LINE
  8
0
 62
     0
 10
3.29765
 20
106.104
 30
0.0
 11
3.38722
 21
106.021
 31
0.0
  0
LINE
  8
0
 62
     0
 10
3.38722
 20
106.021
 30
0.0
 11
3.4823
 21
105.946
 31
0.0
  0
LINE
  8
0
 62
     0
 10
3.4823
 20
105.946
 30
0.0
 11
3.58429
 21
105.877
 31
0.0
  0
LINE
  8
0
 62
     0
 10
3.58429
 20
105.877
 30
0.0
 11
3.69037
 21
105.818
 31
0.0
  0
LINE
  8
0
 62
     0
 10
3.69037
 20
105.818
 30
0.0
 11
3.80062
 21
105.767
 31
0.0
  0
LINE
  8
0
 62
     0
 10
3.80062
 20
105.767
 30
0.0
 11
3.91502
 21
105.726
 31
0.0
  0
LINE
  8
0
 62
     0
 10
3.91502
 20
105.726
 30
0.0
 11
4.03214
 21
105.693
 31
0.0
  0
LINE
  8
0
 62
     0
 10
4.03214
 20
105.693
 30
0.0
 11
4.15202
 21
105.669
 31
0.0
  0
LINE
  8
0
 62
     0
 10
4.15202
 20
105.669
 30
0.0
 11
4.27193
 21
105.654
 31
0.0
  0
LINE
  8
0
 62
     0
 10
4.27193
 20
105.654
 30
0.0
 11
4.39318
 21
105.65
 31
0.0
  0
LINE
  8
0
 62
     0
 10
4.39318
 20
105.65
 30
0.0
 11
4.51584
 21
105.654
 31
0.0
  0
LINE
  8
0
 62
     0
 10
4.51584
 20
105.654
 30
0.0
 11
4.63571
 21
105.669
 31
0.0
  0
LINE
  8
0
 62
     0
 10
4.63571
 20
105.669
 30
0.0
 11
4.75562
 21
105.693
 31
0.0
  0
LINE
  8
0
 62
     0
 10
4.75562
 20
105.693
 30
0.0
 11
4.87274
 21
105.726
 31
0.0
  0
LINE
  8
0
 62
     0
 10
4.87274
 20
105.726
 30
0.0
 11
4.98711
 21
105.767
 31
0.0
  0
LINE
  8
0
 62
     0
 10
4.98711
 20
105.767
 30
0.0
 11
5.09736
 21
105.818
 31
0.0
  0
LINE
  8
0
 62
     0
 10
5.09736
 20
105.818
 30
0.0
 11
5.20347
 21
105.877
 31
0.0
  0
LINE
  8
0
 62
     0
 10
5.20347
 20
105.877
 30
0.0
 11
5.30408
 21
105.946
 31
0.0
  0
LINE
  8
0
 62
     0
 10
5.30408
 20
105.946
 30
0.0
 11
5.40053
 21
106.021
 31
0.0
  0
LINE
  8
0
 62
     0
 10
5.40053
 20
106.021
 30
0.0
 11
5.4901
 21
106.104
 31
0.0
  0
LINE
  8
0
 62
     0
 10
5.4901
 20
106.104
 30
0.0
 11
5.5728
 21
106.193
 31
0.0
  0
LINE
  8
0
 62
     0
 10
5.5728
 20
106.193
 30
0.0
 11
5.6472
 21
106.289
 31
0.0
  0
LINE
  8
0
 62
     0
 10
5.6472
 20
106.289
 30
0.0
 11
5.71609
 21
106.39
 31
0.0
  0
LINE
  8
0
 62
     0
 10
5.71609
 20
106.39
 30
0.0
 11
5.77536
 21
106.496
 31
0.0
  0
LINE
  8
0
 62
     0
 10
5.77536
 20
106.496
 30
0.0
 11
5.82634
 21
106.606
 31
0.0
  0
LINE
  8
0
 62
     0
 10
5.82634
 20
106.606
 30
0.0
 11
5.86768
 21
106.721
 31
0.0
  0
LINE
  8
0
 62
     0
 10
5.86768
 20
106.721
 30
0.0
 11
5.90077
 21
106.838
 31
0.0
  0
LINE
  8
0
 62
     0
 10
5.90077
 20
106.838
 30
0.0
 11
5.9242
 21
106.958
 31
0.0
  0
LINE
  8
0
 62
     0
 10
5.9242
 20
106.958
 30
0.0
 11
5.93933
 21
107.078
 31
0.0
  0
LINE
  8
0
 62
     0
 10
5.93933
 20
107.078
 30
0.0
 11
5.94349
 21
107.2
 31
0.0
  0
LINE
  8
0
 62
     0
 10
5.94349
 20
107.2
 30
0.0
 11
5.93933
 21
107.322
 31
0.0
  0
LINE
  8
0
 62
     0
 10
5.93933
 20
107.322
 30
0.0
 11
5.9242
 21
107.442
 31
0.0
  0
LINE
  8
0
 62
     0
 10
5.9242
 20
107.442
 30
0.0
 11
5.90077
 21
107.561
 31
0.0
  0
LINE
  8
0
 62
     0
 10
5.90077
 20
107.561
 30
0.0
 11
5.86768
 21
107.678
 31
0.0
  0
LINE
  8
0
 62
     0
 10
5.86768
 20
107.678
 30
0.0
 11
5.82634
 21
107.793
 31
0.0
  0
LINE
  8
0
 62
     0
 10
5.82634
 20
107.793
 30
0.0
 11
5.77536
 21
107.903
 31
0.0
  0
LINE
  8
0
 62
     0
 10
5.77536
 20
107.903
 30
0.0
 11
5.71609
 21
108.009
 31
0.0
  0
LINE
  8
0
 62
     0
 10
5.71609
 20
108.009
 30
0.0
 11
5.6472
 21
108.111
 31
0.0
  0
LINE
  8
0
 62
     0
 10
5.6472
 20
108.111
 30
0.0
 11
5.5728
 21
108.206
 31
0.0
  0
LINE
  8
0
 62
     0
 10
5.5728
 20
108.206
 30
0.0
 11
5.4901
 21
108.296
 31
0.0
  0
LINE
  8
0
 62
     0
 10
5.4901
 20
108.296
 30
0.0
 11
5.40053
 21
108.38
 31
0.0
  0
LINE
  8
0
 62
     0
 10
5.40053
 20
108.38
 30
0.0
 11
5.30408
 21
108.454
 31
0.0
  0
LINE
  8
0
 62
     0
 10
5.30408
 20
108.454
 30
0.0
 11
5.20347
 21
108.522
 31
0.0
  0
LINE
  8
0
 62
     0
 10
5.20347
 20
108.522
 30
0.0
 11
5.09736
 21
108.581
 31
0.0
  0
LINE
  8
0
 62
     0
 10
5.09736
 20
108.581
 30
0.0
 11
4.98711
 21
108.632
 31
0.0
  0
LINE
  8
0
 62
     0
 10
4.98711
 20
108.632
 30
0.0
 11
4.87274
 21
108.674
 31
0.0
  0
LINE
  8
0
 62
     0
 10
4.87274
 20
108.674
 30
0.0
 11
4.75562
 21
108.707
 31
0.0
  0
LINE
  8
0
 62
     0
 10
4.75562
 20
108.707
 30
0.0
 11
4.63571
 21
108.731
 31
0.0
  0
LINE
  8
0
 62
     0
 10
4.63571
 20
108.731
 30
0.0
 11
4.51584
 21
108.745
 31
0.0
  0
LINE
  8
0
 62
     0
 10
4.51584
 20
108.745
 30
0.0
 11
4.39318
 21
108.749
 31
0.0
  0
LINE
  8
0
 62
     0
 10
4.39318
 20
108.749
 30
0.0
 11
4.27193
 21
108.745
 31
0.0
  0
LINE
  8
0
 62
     0
 10
259.474
 20
108.745
 30
0.0
 11
259.354
 21
108.731
 31
0.0
  0
LINE
  8
0
 62
     0
 10
259.354
 20
108.731
 30
0.0
 11
259.234
 21
108.707
 31
0.0
  0
LINE
  8
0
 62
     0
 10
259.234
 20
108.707
 30
0.0
 11
259.117
 21
108.674
 31
0.0
  0
LINE
  8
0
 62
     0
 10
259.117
 20
108.674
 30
0.0
 11
259.002
 21
108.632
 31
0.0
  0
LINE
  8
0
 62
     0
 10
259.002
 20
108.632
 30
0.0
 11
258.892
 21
108.581
 31
0.0
  0
LINE
  8
0
 62
     0
 10
258.892
 20
108.581
 30
0.0
 11
258.786
 21
108.522
 31
0.0
  0
LINE
  8
0
 62
     0
 10
258.786
 20
108.522
 30
0.0
 11
258.685
 21
108.454
 31
0.0
  0
LINE
  8
0
 62
     0
 10
258.685
 20
108.454
 30
0.0
 11
258.589
 21
108.38
 31
0.0
  0
LINE
  8
0
 62
     0
 10
258.589
 20
108.38
 30
0.0
 11
258.499
 21
108.296
 31
0.0
  0
LINE
  8
0
 62
     0
 10
258.499
 20
108.296
 30
0.0
 11
258.417
 21
108.206
 31
0.0
  0
LINE
  8
0
 62
     0
 10
258.417
 20
108.206
 30
0.0
 11
258.342
 21
108.111
 31
0.0
  0
LINE
  8
0
 62
     0
 10
258.342
 20
108.111
 30
0.0
 11
258.273
 21
108.009
 31
0.0
  0
LINE
  8
0
 62
     0
 10
258.273
 20
108.009
 30
0.0
 11
258.215
 21
107.903
 31
0.0
  0
LINE
  8
0
 62
     0
 10
258.215
 20
107.903
 30
0.0
 11
258.165
 21
107.793
 31
0.0
  0
LINE
  8
0
 62
     0
 10
258.165
 20
107.793
 30
0.0
 11
258.122
 21
107.678
 31
0.0
  0
LINE
  8
0
 62
     0
 10
258.122
 20
107.678
 30
0.0
 11
258.089
 21
107.561
 31
0.0
  0
LINE
  8
0
 62
     0
 10
258.089
 20
107.561
 30
0.0
 11
258.065
 21
107.442
 31
0.0
  0
LINE
  8
0
 62
     0
 10
258.065
 20
107.442
 30
0.0
 11
258.051
 21
107.322
 31
0.0
  0
LINE
  8
0
 62
     0
 10
258.051
 20
107.322
 30
0.0
 11
258.046
 21
107.2
 31
0.0
  0
LINE
  8
0
 62
     0
 10
258.046
 20
107.2
 30
0.0
 11
258.051
 21
107.078
 31
0.0
  0
LINE
  8
0
 62
     0
 10
258.051
 20
107.078
 30
0.0
 11
258.065
 21
106.958
 31
0.0
  0
LINE
  8
0
 62
     0
 10
258.065
 20
106.958
 30
0.0
 11
258.089
 21
106.838
 31
0.0
  0
LINE
  8
0
 62
     0
 10
258.089
 20
106.838
 30
0.0
 11
258.122
 21
106.721
 31
0.0
  0
LINE
  8
0
 62
     0
 10
258.122
 20
106.721
 30
0.0
 11
258.165
 21
106.606
 31
0.0
  0
LINE
  8
0
 62
     0
 10
258.165
 20
106.606
 30
0.0
 11
258.215
 21
106.496
 31
0.0
  0
LINE
  8
0
 62
     0
 10
258.215
 20
106.496
 30
0.0
 11
258.273
 21
106.39
 31
0.0
  0
LINE
  8
0
 62
     0
 10
258.273
 20
106.39
 30
0.0
 11
258.342
 21
106.289
 31
0.0
  0
LINE
  8
0
 62
     0
 10
258.342
 20
106.289
 30
0.0
 11
258.417
 21
106.193
 31
0.0
  0
LINE
  8
0
 62
     0
 10
258.417
 20
106.193
 30
0.0
 11
258.499
 21
106.104
 31
0.0
  0
LINE
  8
0
 62
     0
 10
258.499
 20
106.104
 30
0.0
 11
258.589
 21
106.021
 31
0.0
  0
LINE
  8
0
 62
     0
 10
258.589
 20
106.021
 30
0.0
 11
258.685
 21
105.946
 31
0.0
  0
LINE
  8
0
 62
     0
 10
258.685
 20
105.946
 30
0.0
 11
258.786
 21
105.877
 31
0.0
  0
LINE
  8
0
 62
     0
 10
258.786
 20
105.877
 30
0.0
 11
258.892
 21
105.818
 31
0.0
  0
LINE
  8
0
 62
     0
 10
258.892
 20
105.818
 30
0.0
 11
259.002
 21
105.767
 31
0.0
  0
LINE
  8
0
 62
     0
 10
259.002
 20
105.767
 30
0.0
 11
259.117
 21
105.726
 31
0.0
  0
LINE
  8
0
 62
     0
 10
259.117
 20
105.726
 30
0.0
 11
259.234
 21
105.693
 31
0.0
  0
LINE
  8
0
 62
     0
 10
259.234
 20
105.693
 30
0.0
 11
259.354
 21
105.669
 31
0.0
  0
LINE
  8
0
 62
     0
 10
259.354
 20
105.669
 30
0.0
 11
259.474
 21
105.654
 31
0.0
  0
LINE
  8
0
 62
     0
 10
259.474
 20
105.654
 30
0.0
 11
259.596
 21
105.65
 31
0.0
  0
LINE
  8
0
 62
     0
 10
259.596
 20
105.65
 30
0.0
 11
259.717
 21
105.654
 31
0.0
  0
LINE
  8
0
 62
     0
 10
259.717
 20
105.654
 30
0.0
 11
259.837
 21
105.669
 31
0.0
  0
LINE
  8
0
 62
     0
 10
259.837
 20
105.669
 30
0.0
 11
259.957
 21
105.693
 31
0.0
  0
LINE
  8
0
 62
     0
 10
259.957
 20
105.693
 30
0.0
 11
260.074
 21
105.726
 31
0.0
  0
LINE
  8
0
 62
     0
 10
260.074
 20
105.726
 30
0.0
 11
260.189
 21
105.767
 31
0.0
  0
LINE
  8
0
 62
     0
 10
260.189
 20
105.767
 30
0.0
 11
260.3
 21
105.818
 31
0.0
  0
LINE
  8
0
 62
     0
 10
260.3
 20
105.818
 30
0.0
 11
260.405
 21
105.877
 31
0.0
  0
LINE
  8
0
 62
     0
 10
260.405
 20
105.877
 30
0.0
 11
260.507
 21
105.946
 31
0.0
  0
LINE
  8
0
 62
     0
 10
260.507
 20
105.946
 30
0.0
 11
260.602
 21
106.021
 31
0.0
  0
LINE
  8
0
 62
     0
 10
260.602
 20
106.021
 30
0.0
 11
260.692
 21
106.104
 31
0.0
  0
LINE
  8
0
 62
     0
 10
260.692
 20
106.104
 30
0.0
 11
260.774
 21
106.193
 31
0.0
  0
LINE
  8
0
 62
     0
 10
260.774
 20
106.193
 30
0.0
 11
260.85
 21
106.289
 31
0.0
  0
LINE
  8
0
 62
     0
 10
260.85
 20
106.289
 30
0.0
 11
260.918
 21
106.39
 31
0.0
  0
LINE
  8
0
 62
     0
 10
260.918
 20
106.39
 30
0.0
 11
260.977
 21
106.496
 31
0.0
  0
LINE
  8
0
 62
     0
 10
260.977
 20
106.496
 30
0.0
 11
261.028
 21
106.606
 31
0.0
  0
LINE
  8
0
 62
     0
 10
261.028
 20
106.606
 30
0.0
 11
261.069
 21
106.721
 31
0.0
  0
LINE
  8
0
 62
     0
 10
261.069
 20
106.721
 30
0.0
 11
261.102
 21
106.838
 31
0.0
  0
LINE
  8
0
 62
     0
 10
261.102
 20
106.838
 30
0.0
 11
261.127
 21
106.958
 31
0.0
  0
LINE
  8
0
 62
     0
 10
261.127
 20
106.958
 30
0.0
 11
261.141
 21
107.078
 31
0.0
  0
LINE
  8
0
 62
     0
 10
261.141
 20
107.078
 30
0.0
 11
261.145
 21
107.2
 31
0.0
  0
LINE
  8
0
 62
     0
 10
261.145
 20
107.2
 30
0.0
 11
261.141
 21
107.322
 31
0.0
  0
LINE
  8
0
 62
     0
 10
261.141
 20
107.322
 30
0.0
 11
261.127
 21
107.442
 31
0.0
  0
LINE
  8
0
 62
     0
 10
261.127
 20
107.442
 30
0.0
 11
261.102
 21
107.561
 31
0.0
  0
LINE
  8
0
 62
     0
 10
261.102
 20
107.561
 30
0.0
 11
261.069
 21
107.678
 31
0.0
  0
LINE
  8
0
 62
     0
 10
261.069
 20
107.678
 30
0.0
 11
261.028
 21
107.793
 31
0.0
  0
LINE
  8
0
 62
     0
 10
261.028
 20
107.793
 30
0.0
 11
260.977
 21
107.903
 31
0.0
  0
LINE
  8
0
 62
     0
 10
260.977
 20
107.903
 30
0.0
 11
260.918
 21
108.009
 31
0.0
  0
LINE
  8
0
 62
     0
 10
260.918
 20
108.009
 30
0.0
 11
260.85
 21
108.111
 31
0.0
  0
LINE
  8
0
 62
     0
 10
260.85
 20
108.111
 30
0.0
 11
260.774
 21
108.206
 31
0.0
  0
LINE
  8
0
 62
     0
 10
260.774
 20
108.206
 30
0.0
 11
260.692
 21
108.296
 31
0.0
  0
LINE
  8
0
 62
     0
 10
260.692
 20
108.296
 30
0.0
 11
260.602
 21
108.38
 31
0.0
  0
LINE
  8
0
 62
     0
 10
260.602
 20
108.38
 30
0.0
 11
260.507
 21
108.454
 31
0.0
  0
LINE
  8
0
 62
     0
 10
260.507
 20
108.454
 30
0.0
 11
260.405
 21
108.522
 31
0.0
  0
LINE
  8
0
 62
     0
 10
260.405
 20
108.522
 30
0.0
 11
260.3
 21
108.581
 31
0.0
  0
LINE
  8
0
 62
     0
 10
260.3
 20
108.581
 30
0.0
 11
260.189
 21
108.632
 31
0.0
  0
LINE
  8
0
 62
     0
 10
260.189
 20
108.632
 30
0.0
 11
260.074
 21
108.674
 31
0.0
  0
LINE
  8
0
 62
     0
 10
260.074
 20
108.674
 30
0.0
 11
259.957
 21
108.707
 31
0.0
  0
LINE
  8
0
 62
     0
 10
259.957
 20
108.707
 30
0.0
 11
259.837
 21
108.731
 31
0.0
  0
LINE
  8
0
 62
     0
 10
259.837
 20
108.731
 30
0.0
 11
259.717
 21
108.745
 31
0.0
  0
LINE
  8
0
 62
     0
 10
259.717
 20
108.745
 30
0.0
 11
259.596
 21
108.749
 31
0.0
  0
LINE
  8
0
 62
     0
 10
259.596
 20
108.749
 30
0.0
 11
259.474
 21
108.745
 31
0.0
  0
ENDSEC
  0
EOF
