  0
SECTION
  2
HEADER
  9
$ACADVER
  1
AC1009
  9
$EXTMIN
 10
0.0
 20
0.0
 30
0.0
  9
$EXTMAX
 10
1000.0
 20
1000.0
 30
0.0
  9
$FILLMODE
 70
 0
  9
$SPLFRAME
 70
 1
  0
ENDSEC
  0
SECTION
  2
TABLES
  0
TABLE
  2
LAYER
 70
1
  0
LAYER
  2
0
 70
     0
 62
     7
  6
CONTINUOUS
  0
ENDTAB
  0
ENDSEC
  0
SECTION
  2
ENTITIES
  0
LINE
  8
0
 62
     0
 10
18.2204
 20
111.5
 30
0.0
 11
21.1501
 21
104.8
 31
0.0
  0
LINE
  8
0
 62
     0
 10
21.1501
 20
104.8
 30
0.0
 11
33.2893
 21
104.8
 31
0.0
  0
LINE
  8
0
 62
     0
 10
33.2893
 20
104.8
 30
0.0
 11
36.2204
 21
111.5
 31
0.0
  0
LINE
  8
0
 62
     0
 10
36.2204
 20
111.5
 30
0.0
 11
259.895
 21
111.499
 31
0.0
  0
LINE
  8
0
 62
     0
 10
259.895
 20
111.499
 30
0.0
 11
260.208
 21
111.487
 31
0.0
  0
LINE
  8
0
 62
     0
 10
260.208
 20
111.487
 30
0.0
 11
260.521
 21
111.45
 31
0.0
  0
LINE
  8
0
 62
     0
 10
260.521
 20
111.45
 30
0.0
 11
260.828
 21
111.388
 31
0.0
  0
LINE
  8
0
 62
     0
 10
260.828
 20
111.388
 30
0.0
 11
261.131
 21
111.304
 31
0.0
  0
LINE
  8
0
 62
     0
 10
261.131
 20
111.304
 30
0.0
 11
261.426
 21
111.195
 31
0.0
  0
LINE
  8
0
 62
     0
 10
261.426
 20
111.195
 30
0.0
 11
261.71
 21
111.064
 31
0.0
  0
LINE
  8
0
 62
     0
 10
261.71
 20
111.064
 30
0.0
 11
261.984
 21
110.91
 31
0.0
  0
LINE
  8
0
 62
     0
 10
261.984
 20
110.91
 30
0.0
 11
262.246
 21
110.736
 31
0.0
  0
LINE
  8
0
 62
     0
 10
262.246
 20
110.736
 30
0.0
 11
262.493
 21
110.541
 31
0.0
  0
LINE
  8
0
 62
     0
 10
262.493
 20
110.541
 30
0.0
 11
262.724
 21
110.327
 31
0.0
  0
LINE
  8
0
 62
     0
 10
262.724
 20
110.327
 30
0.0
 11
262.937
 21
110.097
 31
0.0
  0
LINE
  8
0
 62
     0
 10
262.937
 20
110.097
 30
0.0
 11
263.132
 21
109.85
 31
0.0
  0
LINE
  8
0
 62
     0
 10
263.132
 20
109.85
 30
0.0
 11
263.306
 21
109.589
 31
0.0
  0
LINE
  8
0
 62
     0
 10
263.306
 20
109.589
 30
0.0
 11
263.46
 21
109.314
 31
0.0
  0
LINE
  8
0
 62
     0
 10
263.46
 20
109.314
 30
0.0
 11
263.591
 21
109.031
 31
0.0
  0
LINE
  8
0
 62
     0
 10
263.591
 20
109.031
 30
0.0
 11
263.7
 21
108.736
 31
0.0
  0
LINE
  8
0
 62
     0
 10
263.7
 20
108.736
 30
0.0
 11
263.784
 21
108.432
 31
0.0
  0
LINE
  8
0
 62
     0
 10
263.784
 20
108.432
 30
0.0
 11
263.846
 21
108.125
 31
0.0
  0
LINE
  8
0
 62
     0
 10
263.846
 20
108.125
 30
0.0
 11
263.883
 21
107.812
 31
0.0
  0
LINE
  8
0
 62
     0
 10
263.883
 20
107.812
 30
0.0
 11
263.896
 21
107.5
 31
0.0
  0
LINE
  8
0
 62
     0
 10
263.896
 20
107.5
 30
0.0
 11
263.896
 21
4.09829
 31
0.0
  0
LINE
  8
0
 62
     0
 10
263.896
 20
4.09829
 30
0.0
 11
263.883
 21
3.78548
 31
0.0
  0
LINE
  8
0
 62
     0
 10
263.883
 20
3.78548
 30
0.0
 11
263.846
 21
3.47266
 31
0.0
  0
LINE
  8
0
 62
     0
 10
263.846
 20
3.47266
 30
0.0
 11
263.784
 21
3.16536
 31
0.0
  0
LINE
  8
0
 62
     0
 10
263.784
 20
3.16536
 30
0.0
 11
263.7
 21
2.86219
 31
0.0
  0
LINE
  8
0
 62
     0
 10
263.7
 20
2.86219
 30
0.0
 11
263.591
 21
2.56728
 31
0.0
  0
LINE
  8
0
 62
     0
 10
263.591
 20
2.56728
 30
0.0
 11
263.46
 21
2.28341
 31
0.0
  0
LINE
  8
0
 62
     0
 10
263.46
 20
2.28341
 30
0.0
 11
263.306
 21
2.00918
 31
0.0
  0
LINE
  8
0
 62
     0
 10
263.306
 20
2.00918
 30
0.0
 11
263.132
 21
1.74735
 31
0.0
  0
LINE
  8
0
 62
     0
 10
263.132
 20
1.74735
 30
0.0
 11
262.937
 21
1.50068
 31
0.0
  0
LINE
  8
0
 62
     0
 10
262.937
 20
1.50068
 30
0.0
 11
262.724
 21
1.26917
 31
0.0
  0
LINE
  8
0
 62
     0
 10
262.724
 20
1.26917
 30
0.0
 11
262.493
 21
1.05695
 31
0.0
  0
LINE
  8
0
 62
     0
 10
262.493
 20
1.05695
 30
0.0
 11
262.246
 21
0.861275
 31
0.0
  0
LINE
  8
0
 62
     0
 10
262.246
 20
0.861275
 30
0.0
 11
261.984
 21
0.687641
 31
0.0
  0
LINE
  8
0
 62
     0
 10
261.984
 20
0.687641
 30
0.0
 11
261.71
 21
0.533301
 31
0.0
  0
LINE
  8
0
 62
     0
 10
261.71
 20
0.533301
 30
0.0
 11
261.426
 21
0.402389
 31
0.0
  0
LINE
  8
0
 62
     0
 10
261.426
 20
0.402389
 30
0.0
 11
261.131
 21
0.293522
 31
0.0
  0
LINE
  8
0
 62
     0
 10
261.131
 20
0.293522
 30
0.0
 11
260.828
 21
0.209462
 31
0.0
  0
LINE
  8
0
 62
     0
 10
260.828
 20
0.209462
 30
0.0
 11
260.521
 21
0.14745
 31
0.0
  0
LINE
  8
0
 62
     0
 10
260.521
 20
0.14745
 30
0.0
 11
260.208
 21
0.110243
 31
0.0
  0
LINE
  8
0
 62
     0
 10
260.208
 20
0.110243
 30
0.0
 11
259.895
 21
0.0978408
 31
0.0
  0
LINE
  8
0
 62
     0
 10
259.895
 20
0.0978408
 30
0.0
 11
4.09416
 21
0.0978408
 31
0.0
  0
LINE
  8
0
 62
     0
 10
4.09416
 20
0.0978408
 30
0.0
 11
3.78135
 21
0.110243
 31
0.0
  0
LINE
  8
0
 62
     0
 10
3.78135
 20
0.110243
 30
0.0
 11
3.46852
 21
0.14745
 31
0.0
  0
LINE
  8
0
 62
     0
 10
3.46852
 20
0.14745
 30
0.0
 11
3.16122
 21
0.209462
 31
0.0
  0
LINE
  8
0
 62
     0
 10
3.16122
 20
0.209462
 30
0.0
 11
2.85805
 21
0.293522
 31
0.0
  0
LINE
  8
0
 62
     0
 10
2.85805
 20
0.293522
 30
0.0
 11
2.56315
 21
0.402389
 31
0.0
  0
LINE
  8
0
 62
     0
 10
2.56315
 20
0.402389
 30
0.0
 11
2.27928
 21
0.533301
 31
0.0
  0
LINE
  8
0
 62
     0
 10
2.27928
 20
0.533301
 30
0.0
 11
2.00504
 21
0.687641
 31
0.0
  0
LINE
  8
0
 62
     0
 10
2.00504
 20
0.687641
 30
0.0
 11
1.74322
 21
0.861275
 31
0.0
  0
LINE
  8
0
 62
     0
 10
1.74322
 20
0.861275
 30
0.0
 11
1.49655
 21
1.05695
 31
0.0
  0
LINE
  8
0
 62
     0
 10
1.49655
 20
1.05695
 30
0.0
 11
1.26642
 21
1.26917
 31
0.0
  0
LINE
  8
0
 62
     0
 10
1.26642
 20
1.26917
 30
0.0
 11
1.05282
 21
1.50068
 31
0.0
  0
LINE
  8
0
 62
     0
 10
1.05282
 20
1.50068
 30
0.0
 11
0.857141
 21
1.74735
 31
0.0
  0
LINE
  8
0
 62
     0
 10
0.857141
 20
1.74735
 30
0.0
 11
0.683507
 21
2.00918
 31
0.0
  0
LINE
  8
0
 62
     0
 10
0.683507
 20
2.00918
 30
0.0
 11
0.529167
 21
2.28341
 31
0.0
  0
LINE
  8
0
 62
     0
 10
0.529167
 20
2.28341
 30
0.0
 11
0.398254
 21
2.56728
 31
0.0
  0
LINE
  8
0
 62
     0
 10
0.398254
 20
2.56728
 30
0.0
 11
0.289388
 21
2.86219
 31
0.0
  0
LINE
  8
0
 62
     0
 10
0.289388
 20
2.86219
 30
0.0
 11
0.205328
 21
3.16536
 31
0.0
  0
LINE
  8
0
 62
     0
 10
0.205328
 20
3.16536
 30
0.0
 11
0.143316
 21
3.47266
 31
0.0
  0
LINE
  8
0
 62
     0
 10
0.143316
 20
3.47266
 30
0.0
 11
0.106109
 21
3.78548
 31
0.0
  0
LINE
  8
0
 62
     0
 10
0.106109
 20
3.78548
 30
0.0
 11
0.0937066
 21
4.09829
 31
0.0
  0
LINE
  8
0
 62
     0
 10
0.0937066
 20
4.09829
 30
0.0
 11
0.0950846
 21
107.5
 31
0.0
  0
LINE
  8
0
 62
     0
 10
0.0950846
 20
107.5
 30
0.0
 11
0.106109
 21
107.812
 31
0.0
  0
LINE
  8
0
 62
     0
 10
0.106109
 20
107.812
 30
0.0
 11
0.143316
 21
108.125
 31
0.0
  0
LINE
  8
0
 62
     0
 10
0.143316
 20
108.125
 30
0.0
 11
0.205328
 21
108.432
 31
0.0
  0
LINE
  8
0
 62
     0
 10
0.205328
 20
108.432
 30
0.0
 11
0.289388
 21
108.736
 31
0.0
  0
LINE
  8
0
 62
     0
 10
0.289388
 20
108.736
 30
0.0
 11
0.398254
 21
109.031
 31
0.0
  0
LINE
  8
0
 62
     0
 10
0.398254
 20
109.031
 30
0.0
 11
0.529167
 21
109.314
 31
0.0
  0
LINE
  8
0
 62
     0
 10
0.529167
 20
109.314
 30
0.0
 11
0.683507
 21
109.589
 31
0.0
  0
LINE
  8
0
 62
     0
 10
0.683507
 20
109.589
 30
0.0
 11
0.857141
 21
109.85
 31
0.0
  0
LINE
  8
0
 62
     0
 10
0.857141
 20
109.85
 30
0.0
 11
1.05282
 21
110.097
 31
0.0
  0
LINE
  8
0
 62
     0
 10
1.05282
 20
110.097
 30
0.0
 11
1.26642
 21
110.327
 31
0.0
  0
LINE
  8
0
 62
     0
 10
1.26642
 20
110.327
 30
0.0
 11
1.49655
 21
110.541
 31
0.0
  0
LINE
  8
0
 62
     0
 10
1.49655
 20
110.541
 30
0.0
 11
1.74322
 21
110.736
 31
0.0
  0
LINE
  8
0
 62
     0
 10
1.74322
 20
110.736
 30
0.0
 11
2.00504
 21
110.91
 31
0.0
  0
LINE
  8
0
 62
     0
 10
2.00504
 20
110.91
 30
0.0
 11
2.27928
 21
111.064
 31
0.0
  0
LINE
  8
0
 62
     0
 10
2.27928
 20
111.064
 30
0.0
 11
2.56315
 21
111.195
 31
0.0
  0
LINE
  8
0
 62
     0
 10
2.56315
 20
111.195
 30
0.0
 11
2.85805
 21
111.304
 31
0.0
  0
LINE
  8
0
 62
     0
 10
2.85805
 20
111.304
 30
0.0
 11
3.16122
 21
111.388
 31
0.0
  0
LINE
  8
0
 62
     0
 10
3.16122
 20
111.388
 30
0.0
 11
3.46852
 21
111.45
 31
0.0
  0
LINE
  8
0
 62
     0
 10
3.46852
 20
111.45
 30
0.0
 11
3.78135
 21
111.487
 31
0.0
  0
LINE
  8
0
 62
     0
 10
3.78135
 20
111.487
 30
0.0
 11
4.09416
 21
111.5
 31
0.0
  0
LINE
  8
0
 62
     0
 10
4.09416
 20
111.5
 30
0.0
 11
18.2204
 21
111.5
 31
0.0
  0
LINE
  8
0
 62
     0
 10
259.056
 20
6.52639
 30
0.0
 11
258.366
 21
6.17636
 31
0.0
  0
LINE
  8
0
 62
     0
 10
258.366
 20
6.17636
 30
0.0
 11
257.817
 21
5.6279
 31
0.0
  0
LINE
  8
0
 62
     0
 10
257.817
 20
5.6279
 30
0.0
 11
257.467
 21
4.93751
 31
0.0
  0
LINE
  8
0
 62
     0
 10
257.467
 20
4.93751
 30
0.0
 11
257.346
 21
4.17269
 31
0.0
  0
LINE
  8
0
 62
     0
 10
257.346
 20
4.17269
 30
0.0
 11
257.467
 21
3.40927
 31
0.0
  0
LINE
  8
0
 62
     0
 10
257.467
 20
3.40927
 30
0.0
 11
257.817
 21
2.71887
 31
0.0
  0
LINE
  8
0
 62
     0
 10
257.817
 20
2.71887
 30
0.0
 11
258.366
 21
2.17041
 31
0.0
  0
LINE
  8
0
 62
     0
 10
258.366
 20
2.17041
 30
0.0
 11
259.056
 21
1.82039
 31
0.0
  0
LINE
  8
0
 62
     0
 10
259.056
 20
1.82039
 30
0.0
 11
259.821
 21
1.69912
 31
0.0
  0
LINE
  8
0
 62
     0
 10
259.821
 20
1.69912
 30
0.0
 11
260.584
 21
1.82039
 31
0.0
  0
LINE
  8
0
 62
     0
 10
260.584
 20
1.82039
 30
0.0
 11
261.275
 21
2.17041
 31
0.0
  0
LINE
  8
0
 62
     0
 10
261.275
 20
2.17041
 30
0.0
 11
261.823
 21
2.71887
 31
0.0
  0
LINE
  8
0
 62
     0
 10
261.823
 20
2.71887
 30
0.0
 11
262.173
 21
3.40927
 31
0.0
  0
LINE
  8
0
 62
     0
 10
262.173
 20
3.40927
 30
0.0
 11
262.296
 21
4.17269
 31
0.0
  0
LINE
  8
0
 62
     0
 10
262.296
 20
4.17269
 30
0.0
 11
262.173
 21
4.93751
 31
0.0
  0
LINE
  8
0
 62
     0
 10
262.173
 20
4.93751
 30
0.0
 11
261.823
 21
5.6279
 31
0.0
  0
LINE
  8
0
 62
     0
 10
261.823
 20
5.6279
 30
0.0
 11
261.275
 21
6.17636
 31
0.0
  0
LINE
  8
0
 62
     0
 10
261.275
 20
6.17636
 30
0.0
 11
260.584
 21
6.52639
 31
0.0
  0
LINE
  8
0
 62
     0
 10
260.584
 20
6.52639
 30
0.0
 11
259.821
 21
6.64767
 31
0.0
  0
LINE
  8
0
 62
     0
 10
259.821
 20
6.64767
 30
0.0
 11
259.056
 21
6.52639
 31
0.0
  0
LINE
  8
0
 62
     0
 10
173.838
 20
6.52639
 30
0.0
 11
173.149
 21
6.17636
 31
0.0
  0
LINE
  8
0
 62
     0
 10
173.149
 20
6.17636
 30
0.0
 11
172.601
 21
5.6279
 31
0.0
  0
LINE
  8
0
 62
     0
 10
172.601
 20
5.6279
 30
0.0
 11
172.249
 21
4.93751
 31
0.0
  0
LINE
  8
0
 62
     0
 10
172.249
 20
4.93751
 30
0.0
 11
172.129
 21
4.17269
 31
0.0
  0
LINE
  8
0
 62
     0
 10
172.129
 20
4.17269
 30
0.0
 11
172.249
 21
3.40927
 31
0.0
  0
LINE
  8
0
 62
     0
 10
172.249
 20
3.40927
 30
0.0
 11
172.601
 21
2.71887
 31
0.0
  0
LINE
  8
0
 62
     0
 10
172.601
 20
2.71887
 30
0.0
 11
173.149
 21
2.17041
 31
0.0
  0
LINE
  8
0
 62
     0
 10
173.149
 20
2.17041
 30
0.0
 11
173.838
 21
1.82039
 31
0.0
  0
LINE
  8
0
 62
     0
 10
173.838
 20
1.82039
 30
0.0
 11
174.604
 21
1.69912
 31
0.0
  0
LINE
  8
0
 62
     0
 10
174.604
 20
1.69912
 30
0.0
 11
175.368
 21
1.82039
 31
0.0
  0
LINE
  8
0
 62
     0
 10
175.368
 20
1.82039
 30
0.0
 11
176.058
 21
2.17041
 31
0.0
  0
LINE
  8
0
 62
     0
 10
176.058
 20
2.17041
 30
0.0
 11
176.605
 21
2.71887
 31
0.0
  0
LINE
  8
0
 62
     0
 10
176.605
 20
2.71887
 30
0.0
 11
176.957
 21
3.40927
 31
0.0
  0
LINE
  8
0
 62
     0
 10
176.957
 20
3.40927
 30
0.0
 11
177.079
 21
4.17269
 31
0.0
  0
LINE
  8
0
 62
     0
 10
177.079
 20
4.17269
 30
0.0
 11
176.957
 21
4.93751
 31
0.0
  0
LINE
  8
0
 62
     0
 10
176.957
 20
4.93751
 30
0.0
 11
176.605
 21
5.6279
 31
0.0
  0
LINE
  8
0
 62
     0
 10
176.605
 20
5.6279
 30
0.0
 11
176.058
 21
6.17636
 31
0.0
  0
LINE
  8
0
 62
     0
 10
176.058
 20
6.17636
 30
0.0
 11
175.368
 21
6.52639
 31
0.0
  0
LINE
  8
0
 62
     0
 10
175.368
 20
6.52639
 30
0.0
 11
174.604
 21
6.64767
 31
0.0
  0
LINE
  8
0
 62
     0
 10
174.604
 20
6.64767
 30
0.0
 11
173.838
 21
6.52639
 31
0.0
  0
LINE
  8
0
 62
     0
 10
88.6217
 20
6.52639
 30
0.0
 11
87.9313
 21
6.17636
 31
0.0
  0
LINE
  8
0
 62
     0
 10
87.9313
 20
6.17636
 30
0.0
 11
87.3841
 21
5.6279
 31
0.0
  0
LINE
  8
0
 62
     0
 10
87.3841
 20
5.6279
 30
0.0
 11
87.0327
 21
4.93751
 31
0.0
  0
LINE
  8
0
 62
     0
 10
87.0327
 20
4.93751
 30
0.0
 11
86.9114
 21
4.17269
 31
0.0
  0
LINE
  8
0
 62
     0
 10
86.9114
 20
4.17269
 30
0.0
 11
87.0327
 21
3.40927
 31
0.0
  0
LINE
  8
0
 62
     0
 10
87.0327
 20
3.40927
 30
0.0
 11
87.3841
 21
2.71887
 31
0.0
  0
LINE
  8
0
 62
     0
 10
87.3841
 20
2.71887
 30
0.0
 11
87.9313
 21
2.17041
 31
0.0
  0
LINE
  8
0
 62
     0
 10
87.9313
 20
2.17041
 30
0.0
 11
88.6217
 21
1.82039
 31
0.0
  0
LINE
  8
0
 62
     0
 10
88.6217
 20
1.82039
 30
0.0
 11
89.3865
 21
1.69912
 31
0.0
  0
LINE
  8
0
 62
     0
 10
89.3865
 20
1.69912
 30
0.0
 11
90.1513
 21
1.82039
 31
0.0
  0
LINE
  8
0
 62
     0
 10
90.1513
 20
1.82039
 30
0.0
 11
90.8403
 21
2.17041
 31
0.0
  0
LINE
  8
0
 62
     0
 10
90.8403
 20
2.17041
 30
0.0
 11
91.3888
 21
2.71887
 31
0.0
  0
LINE
  8
0
 62
     0
 10
91.3888
 20
2.71887
 30
0.0
 11
91.7402
 21
3.40927
 31
0.0
  0
LINE
  8
0
 62
     0
 10
91.7402
 20
3.40927
 30
0.0
 11
91.8616
 21
4.17269
 31
0.0
  0
LINE
  8
0
 62
     0
 10
91.8616
 20
4.17269
 30
0.0
 11
91.7402
 21
4.93751
 31
0.0
  0
LINE
  8
0
 62
     0
 10
91.7402
 20
4.93751
 30
0.0
 11
91.3888
 21
5.6279
 31
0.0
  0
LINE
  8
0
 62
     0
 10
91.3888
 20
5.6279
 30
0.0
 11
90.8403
 21
6.17636
 31
0.0
  0
LINE
  8
0
 62
     0
 10
90.8403
 20
6.17636
 30
0.0
 11
90.1513
 21
6.52639
 31
0.0
  0
LINE
  8
0
 62
     0
 10
90.1513
 20
6.52639
 30
0.0
 11
89.3865
 21
6.64767
 31
0.0
  0
LINE
  8
0
 62
     0
 10
89.3865
 20
6.64767
 30
0.0
 11
88.6217
 21
6.52639
 31
0.0
  0
LINE
  8
0
 62
     0
 10
3.40513
 20
6.52639
 30
0.0
 11
2.71473
 21
6.17636
 31
0.0
  0
LINE
  8
0
 62
     0
 10
2.71473
 20
6.17636
 30
0.0
 11
2.16628
 21
5.6279
 31
0.0
  0
LINE
  8
0
 62
     0
 10
2.16628
 20
5.6279
 30
0.0
 11
1.81626
 21
4.93751
 31
0.0
  0
LINE
  8
0
 62
     0
 10
1.81626
 20
4.93751
 30
0.0
 11
1.69499
 21
4.17269
 31
0.0
  0
LINE
  8
0
 62
     0
 10
1.69499
 20
4.17269
 30
0.0
 11
1.81626
 21
3.40927
 31
0.0
  0
LINE
  8
0
 62
     0
 10
1.81626
 20
3.40927
 30
0.0
 11
2.16628
 21
2.71887
 31
0.0
  0
LINE
  8
0
 62
     0
 10
2.16628
 20
2.71887
 30
0.0
 11
2.71473
 21
2.17041
 31
0.0
  0
LINE
  8
0
 62
     0
 10
2.71473
 20
2.17041
 30
0.0
 11
3.40513
 21
1.82039
 31
0.0
  0
LINE
  8
0
 62
     0
 10
3.40513
 20
1.82039
 30
0.0
 11
4.16994
 21
1.69912
 31
0.0
  0
LINE
  8
0
 62
     0
 10
4.16994
 20
1.69912
 30
0.0
 11
4.93339
 21
1.82039
 31
0.0
  0
LINE
  8
0
 62
     0
 10
4.93339
 20
1.82039
 30
0.0
 11
5.62377
 21
2.17041
 31
0.0
  0
LINE
  8
0
 62
     0
 10
5.62377
 20
2.17041
 30
0.0
 11
6.17224
 21
2.71887
 31
0.0
  0
LINE
  8
0
 62
     0
 10
6.17224
 20
2.71887
 30
0.0
 11
6.52226
 21
3.40927
 31
0.0
  0
LINE
  8
0
 62
     0
 10
6.52226
 20
3.40927
 30
0.0
 11
6.64489
 21
4.17269
 31
0.0
  0
LINE
  8
0
 62
     0
 10
6.64489
 20
4.17269
 30
0.0
 11
6.52226
 21
4.93751
 31
0.0
  0
LINE
  8
0
 62
     0
 10
6.52226
 20
4.93751
 30
0.0
 11
6.17224
 21
5.6279
 31
0.0
  0
LINE
  8
0
 62
     0
 10
6.17224
 20
5.6279
 30
0.0
 11
5.62377
 21
6.17636
 31
0.0
  0
LINE
  8
0
 62
     0
 10
5.62377
 20
6.17636
 30
0.0
 11
4.93339
 21
6.52639
 31
0.0
  0
LINE
  8
0
 62
     0
 10
4.93339
 20
6.52639
 30
0.0
 11
4.16994
 21
6.64767
 31
0.0
  0
LINE
  8
0
 62
     0
 10
4.16994
 20
6.64767
 30
0.0
 11
3.40513
 21
6.52639
 31
0.0
  0
LINE
  8
0
 62
     0
 10
72.5124
 20
66.3208
 30
0.0
 11
72.4352
 21
66.3113
 31
0.0
  0
LINE
  8
0
 62
     0
 10
72.4352
 20
66.3113
 30
0.0
 11
72.3579
 21
66.2961
 31
0.0
  0
LINE
  8
0
 62
     0
 10
72.3579
 20
66.2961
 30
0.0
 11
72.2824
 21
66.2753
 31
0.0
  0
LINE
  8
0
 62
     0
 10
72.2824
 20
66.2753
 30
0.0
 11
72.208
 21
66.2478
 31
0.0
  0
LINE
  8
0
 62
     0
 10
72.208
 20
66.2478
 30
0.0
 11
72.136
 21
66.2146
 31
0.0
  0
LINE
  8
0
 62
     0
 10
72.136
 20
66.2146
 30
0.0
 11
72.0686
 21
66.1762
 31
0.0
  0
LINE
  8
0
 62
     0
 10
72.0686
 20
66.1762
 30
0.0
 11
72.0027
 21
66.1335
 31
0.0
  0
LINE
  8
0
 62
     0
 10
72.0027
 20
66.1335
 30
0.0
 11
71.942
 21
66.0837
 31
0.0
  0
LINE
  8
0
 62
     0
 10
71.942
 20
66.0837
 30
0.0
 11
71.8841
 21
66.0315
 31
0.0
  0
LINE
  8
0
 62
     0
 10
71.8841
 20
66.0315
 30
0.0
 11
71.8301
 21
65.9723
 31
0.0
  0
LINE
  8
0
 62
     0
 10
71.8301
 20
65.9723
 30
0.0
 11
71.7822
 21
65.9116
 31
0.0
  0
LINE
  8
0
 62
     0
 10
71.7822
 20
65.9116
 30
0.0
 11
71.7381
 21
65.8453
 31
0.0
  0
LINE
  8
0
 62
     0
 10
71.7381
 20
65.8453
 30
0.0
 11
71.6993
 21
65.7779
 31
0.0
  0
LINE
  8
0
 62
     0
 10
71.6993
 20
65.7779
 30
0.0
 11
71.6661
 21
65.7063
 31
0.0
  0
LINE
  8
0
 62
     0
 10
71.6661
 20
65.7063
 30
0.0
 11
71.64
 21
65.6332
 31
0.0
  0
LINE
  8
0
 62
     0
 10
71.64
 20
65.6332
 30
0.0
 11
71.6195
 21
65.5574
 31
0.0
  0
LINE
  8
0
 62
     0
 10
71.6195
 20
65.5574
 30
0.0
 11
71.603
 21
65.4801
 31
0.0
  0
LINE
  8
0
 62
     0
 10
71.603
 20
65.4801
 30
0.0
 11
71.5931
 21
65.4018
 31
0.0
  0
LINE
  8
0
 62
     0
 10
71.5931
 20
65.4018
 30
0.0
 11
71.5906
 21
65.3232
 31
0.0
  0
LINE
  8
0
 62
     0
 10
71.5906
 20
65.3232
 30
0.0
 11
71.5931
 21
65.2459
 31
0.0
  0
LINE
  8
0
 62
     0
 10
71.5931
 20
65.2459
 30
0.0
 11
71.603
 21
65.1676
 31
0.0
  0
LINE
  8
0
 62
     0
 10
71.603
 20
65.1676
 30
0.0
 11
71.6195
 21
65.0903
 31
0.0
  0
LINE
  8
0
 62
     0
 10
71.6195
 20
65.0903
 30
0.0
 11
71.64
 21
65.0145
 31
0.0
  0
LINE
  8
0
 62
     0
 10
71.64
 20
65.0145
 30
0.0
 11
71.6661
 21
64.9414
 31
0.0
  0
LINE
  8
0
 62
     0
 10
71.6661
 20
64.9414
 30
0.0
 11
71.6993
 21
64.8698
 31
0.0
  0
LINE
  8
0
 62
     0
 10
71.6993
 20
64.8698
 30
0.0
 11
71.7381
 21
64.8021
 31
0.0
  0
LINE
  8
0
 62
     0
 10
71.7381
 20
64.8021
 30
0.0
 11
71.7822
 21
64.7361
 31
0.0
  0
LINE
  8
0
 62
     0
 10
71.7822
 20
64.7361
 30
0.0
 11
71.8301
 21
64.6755
 31
0.0
  0
LINE
  8
0
 62
     0
 10
71.8301
 20
64.6755
 30
0.0
 11
71.8841
 21
64.6162
 31
0.0
  0
LINE
  8
0
 62
     0
 10
71.8841
 20
64.6162
 30
0.0
 11
71.942
 21
64.564
 31
0.0
  0
LINE
  8
0
 62
     0
 10
71.942
 20
64.564
 30
0.0
 11
72.0027
 21
64.5142
 31
0.0
  0
LINE
  8
0
 62
     0
 10
72.0027
 20
64.5142
 30
0.0
 11
72.0686
 21
64.4701
 31
0.0
  0
LINE
  8
0
 62
     0
 10
72.0686
 20
64.4701
 30
0.0
 11
72.136
 21
64.4331
 31
0.0
  0
LINE
  8
0
 62
     0
 10
72.136
 20
64.4331
 30
0.0
 11
72.208
 21
64.3999
 31
0.0
  0
LINE
  8
0
 62
     0
 10
72.208
 20
64.3999
 30
0.0
 11
72.2824
 21
64.3724
 31
0.0
  0
LINE
  8
0
 62
     0
 10
72.2824
 20
64.3724
 30
0.0
 11
72.3579
 21
64.3516
 31
0.0
  0
LINE
  8
0
 62
     0
 10
72.3579
 20
64.3516
 30
0.0
 11
72.4352
 21
64.3364
 31
0.0
  0
LINE
  8
0
 62
     0
 10
72.4352
 20
64.3364
 30
0.0
 11
72.5124
 21
64.3269
 31
0.0
  0
LINE
  8
0
 62
     0
 10
72.5124
 20
64.3269
 30
0.0
 11
72.5911
 21
64.3241
 31
0.0
  0
LINE
  8
0
 62
     0
 10
72.5911
 20
64.3241
 30
0.0
 11
72.668
 21
64.3269
 31
0.0
  0
LINE
  8
0
 62
     0
 10
72.668
 20
64.3269
 30
0.0
 11
72.7467
 21
64.3364
 31
0.0
  0
LINE
  8
0
 62
     0
 10
72.7467
 20
64.3364
 30
0.0
 11
72.8239
 21
64.3516
 31
0.0
  0
LINE
  8
0
 62
     0
 10
72.8239
 20
64.3516
 30
0.0
 11
72.8998
 21
64.3724
 31
0.0
  0
LINE
  8
0
 62
     0
 10
72.8998
 20
64.3724
 30
0.0
 11
72.9738
 21
64.3999
 31
0.0
  0
LINE
  8
0
 62
     0
 10
72.9738
 20
64.3999
 30
0.0
 11
73.0444
 21
64.4331
 31
0.0
  0
LINE
  8
0
 62
     0
 10
73.0444
 20
64.4331
 30
0.0
 11
73.1132
 21
64.4701
 31
0.0
  0
LINE
  8
0
 62
     0
 10
73.1132
 20
64.4701
 30
0.0
 11
73.1795
 21
64.5142
 31
0.0
  0
LINE
  8
0
 62
     0
 10
73.1795
 20
64.5142
 30
0.0
 11
73.2398
 21
64.564
 31
0.0
  0
LINE
  8
0
 62
     0
 10
73.2398
 20
64.564
 30
0.0
 11
73.2977
 21
64.6162
 31
0.0
  0
LINE
  8
0
 62
     0
 10
73.2977
 20
64.6162
 30
0.0
 11
73.3503
 21
64.6755
 31
0.0
  0
LINE
  8
0
 62
     0
 10
73.3503
 20
64.6755
 30
0.0
 11
73.4
 21
64.7361
 31
0.0
  0
LINE
  8
0
 62
     0
 10
73.4
 20
64.7361
 30
0.0
 11
73.4441
 21
64.8021
 31
0.0
  0
LINE
  8
0
 62
     0
 10
73.4441
 20
64.8021
 30
0.0
 11
73.4811
 21
64.8698
 31
0.0
  0
LINE
  8
0
 62
     0
 10
73.4811
 20
64.8698
 30
0.0
 11
73.5143
 21
64.9414
 31
0.0
  0
LINE
  8
0
 62
     0
 10
73.5143
 20
64.9414
 30
0.0
 11
73.5418
 21
65.0145
 31
0.0
  0
LINE
  8
0
 62
     0
 10
73.5418
 20
65.0145
 30
0.0
 11
73.5623
 21
65.0903
 31
0.0
  0
LINE
  8
0
 62
     0
 10
73.5623
 20
65.0903
 30
0.0
 11
73.5789
 21
65.1676
 31
0.0
  0
LINE
  8
0
 62
     0
 10
73.5789
 20
65.1676
 30
0.0
 11
73.5873
 21
65.2459
 31
0.0
  0
LINE
  8
0
 62
     0
 10
73.5873
 20
65.2459
 30
0.0
 11
73.5912
 21
65.3232
 31
0.0
  0
LINE
  8
0
 62
     0
 10
73.5912
 20
65.3232
 30
0.0
 11
73.5873
 21
65.4018
 31
0.0
  0
LINE
  8
0
 62
     0
 10
73.5873
 20
65.4018
 30
0.0
 11
73.5789
 21
65.4801
 31
0.0
  0
LINE
  8
0
 62
     0
 10
73.5789
 20
65.4801
 30
0.0
 11
73.5623
 21
65.5574
 31
0.0
  0
LINE
  8
0
 62
     0
 10
73.5623
 20
65.5574
 30
0.0
 11
73.5418
 21
65.6332
 31
0.0
  0
LINE
  8
0
 62
     0
 10
73.5418
 20
65.6332
 30
0.0
 11
73.5143
 21
65.7063
 31
0.0
  0
LINE
  8
0
 62
     0
 10
73.5143
 20
65.7063
 30
0.0
 11
73.4811
 21
65.7779
 31
0.0
  0
LINE
  8
0
 62
     0
 10
73.4811
 20
65.7779
 30
0.0
 11
73.4441
 21
65.8453
 31
0.0
  0
LINE
  8
0
 62
     0
 10
73.4441
 20
65.8453
 30
0.0
 11
73.4
 21
65.9116
 31
0.0
  0
LINE
  8
0
 62
     0
 10
73.4
 20
65.9116
 30
0.0
 11
73.3503
 21
65.9723
 31
0.0
  0
LINE
  8
0
 62
     0
 10
73.3503
 20
65.9723
 30
0.0
 11
73.2977
 21
66.0315
 31
0.0
  0
LINE
  8
0
 62
     0
 10
73.2977
 20
66.0315
 30
0.0
 11
73.2398
 21
66.0837
 31
0.0
  0
LINE
  8
0
 62
     0
 10
73.2398
 20
66.0837
 30
0.0
 11
73.1795
 21
66.1335
 31
0.0
  0
LINE
  8
0
 62
     0
 10
73.1795
 20
66.1335
 30
0.0
 11
73.1132
 21
66.1762
 31
0.0
  0
LINE
  8
0
 62
     0
 10
73.1132
 20
66.1762
 30
0.0
 11
73.0444
 21
66.2146
 31
0.0
  0
LINE
  8
0
 62
     0
 10
73.0444
 20
66.2146
 30
0.0
 11
72.9738
 21
66.2478
 31
0.0
  0
LINE
  8
0
 62
     0
 10
72.9738
 20
66.2478
 30
0.0
 11
72.8998
 21
66.2753
 31
0.0
  0
LINE
  8
0
 62
     0
 10
72.8998
 20
66.2753
 30
0.0
 11
72.8239
 21
66.2961
 31
0.0
  0
LINE
  8
0
 62
     0
 10
72.8239
 20
66.2961
 30
0.0
 11
72.7467
 21
66.3113
 31
0.0
  0
LINE
  8
0
 62
     0
 10
72.7467
 20
66.3113
 30
0.0
 11
72.668
 21
66.3208
 31
0.0
  0
LINE
  8
0
 62
     0
 10
72.668
 20
66.3208
 30
0.0
 11
72.5911
 21
66.3236
 31
0.0
  0
LINE
  8
0
 62
     0
 10
72.5911
 20
66.3236
 30
0.0
 11
72.5124
 21
66.3208
 31
0.0
  0
LINE
  8
0
 62
     0
 10
88.6217
 20
109.777
 30
0.0
 11
87.9313
 21
109.427
 31
0.0
  0
LINE
  8
0
 62
     0
 10
87.9313
 20
109.427
 30
0.0
 11
87.3841
 21
108.879
 31
0.0
  0
LINE
  8
0
 62
     0
 10
87.3841
 20
108.879
 30
0.0
 11
87.0327
 21
108.188
 31
0.0
  0
LINE
  8
0
 62
     0
 10
87.0327
 20
108.188
 30
0.0
 11
86.9114
 21
107.424
 31
0.0
  0
LINE
  8
0
 62
     0
 10
86.9114
 20
107.424
 30
0.0
 11
87.0327
 21
106.66
 31
0.0
  0
LINE
  8
0
 62
     0
 10
87.0327
 20
106.66
 30
0.0
 11
87.3841
 21
105.97
 31
0.0
  0
LINE
  8
0
 62
     0
 10
87.3841
 20
105.97
 30
0.0
 11
87.9313
 21
105.421
 31
0.0
  0
LINE
  8
0
 62
     0
 10
87.9313
 20
105.421
 30
0.0
 11
88.6217
 21
105.071
 31
0.0
  0
LINE
  8
0
 62
     0
 10
88.6217
 20
105.071
 30
0.0
 11
89.3865
 21
104.949
 31
0.0
  0
LINE
  8
0
 62
     0
 10
89.3865
 20
104.949
 30
0.0
 11
90.1513
 21
105.071
 31
0.0
  0
LINE
  8
0
 62
     0
 10
90.1513
 20
105.071
 30
0.0
 11
90.8403
 21
105.421
 31
0.0
  0
LINE
  8
0
 62
     0
 10
90.8403
 20
105.421
 30
0.0
 11
91.3888
 21
105.97
 31
0.0
  0
LINE
  8
0
 62
     0
 10
91.3888
 20
105.97
 30
0.0
 11
91.7402
 21
106.66
 31
0.0
  0
LINE
  8
0
 62
     0
 10
91.7402
 20
106.66
 30
0.0
 11
91.8616
 21
107.424
 31
0.0
  0
LINE
  8
0
 62
     0
 10
91.8616
 20
107.424
 30
0.0
 11
91.7402
 21
108.188
 31
0.0
  0
LINE
  8
0
 62
     0
 10
91.7402
 20
108.188
 30
0.0
 11
91.3888
 21
108.879
 31
0.0
  0
LINE
  8
0
 62
     0
 10
91.3888
 20
108.879
 30
0.0
 11
90.8403
 21
109.427
 31
0.0
  0
LINE
  8
0
 62
     0
 10
90.8403
 20
109.427
 30
0.0
 11
90.1513
 21
109.777
 31
0.0
  0
LINE
  8
0
 62
     0
 10
90.1513
 20
109.777
 30
0.0
 11
89.3865
 21
109.898
 31
0.0
  0
LINE
  8
0
 62
     0
 10
89.3865
 20
109.898
 30
0.0
 11
88.6217
 21
109.777
 31
0.0
  0
LINE
  8
0
 62
     0
 10
173.838
 20
109.777
 30
0.0
 11
173.149
 21
109.427
 31
0.0
  0
LINE
  8
0
 62
     0
 10
173.149
 20
109.427
 30
0.0
 11
172.601
 21
108.879
 31
0.0
  0
LINE
  8
0
 62
     0
 10
172.601
 20
108.879
 30
0.0
 11
172.249
 21
108.188
 31
0.0
  0
LINE
  8
0
 62
     0
 10
172.249
 20
108.188
 30
0.0
 11
172.129
 21
107.424
 31
0.0
  0
LINE
  8
0
 62
     0
 10
172.129
 20
107.424
 30
0.0
 11
172.249
 21
106.66
 31
0.0
  0
LINE
  8
0
 62
     0
 10
172.249
 20
106.66
 30
0.0
 11
172.601
 21
105.97
 31
0.0
  0
LINE
  8
0
 62
     0
 10
172.601
 20
105.97
 30
0.0
 11
173.149
 21
105.421
 31
0.0
  0
LINE
  8
0
 62
     0
 10
173.149
 20
105.421
 30
0.0
 11
173.838
 21
105.071
 31
0.0
  0
LINE
  8
0
 62
     0
 10
173.838
 20
105.071
 30
0.0
 11
174.604
 21
104.949
 31
0.0
  0
LINE
  8
0
 62
     0
 10
174.604
 20
104.949
 30
0.0
 11
175.368
 21
105.071
 31
0.0
  0
LINE
  8
0
 62
     0
 10
175.368
 20
105.071
 30
0.0
 11
176.058
 21
105.421
 31
0.0
  0
LINE
  8
0
 62
     0
 10
176.058
 20
105.421
 30
0.0
 11
176.605
 21
105.97
 31
0.0
  0
LINE
  8
0
 62
     0
 10
176.605
 20
105.97
 30
0.0
 11
176.957
 21
106.66
 31
0.0
  0
LINE
  8
0
 62
     0
 10
176.957
 20
106.66
 30
0.0
 11
177.079
 21
107.424
 31
0.0
  0
LINE
  8
0
 62
     0
 10
177.079
 20
107.424
 30
0.0
 11
176.957
 21
108.188
 31
0.0
  0
LINE
  8
0
 62
     0
 10
176.957
 20
108.188
 30
0.0
 11
176.605
 21
108.879
 31
0.0
  0
LINE
  8
0
 62
     0
 10
176.605
 20
108.879
 30
0.0
 11
176.058
 21
109.427
 31
0.0
  0
LINE
  8
0
 62
     0
 10
176.058
 20
109.427
 30
0.0
 11
175.368
 21
109.777
 31
0.0
  0
LINE
  8
0
 62
     0
 10
175.368
 20
109.777
 30
0.0
 11
174.604
 21
109.898
 31
0.0
  0
LINE
  8
0
 62
     0
 10
174.604
 20
109.898
 30
0.0
 11
173.838
 21
109.777
 31
0.0
  0
LINE
  8
0
 62
     0
 10
259.056
 20
109.777
 30
0.0
 11
258.366
 21
109.427
 31
0.0
  0
LINE
  8
0
 62
     0
 10
258.366
 20
109.427
 30
0.0
 11
257.817
 21
108.879
 31
0.0
  0
LINE
  8
0
 62
     0
 10
257.817
 20
108.879
 30
0.0
 11
257.467
 21
108.188
 31
0.0
  0
LINE
  8
0
 62
     0
 10
257.467
 20
108.188
 30
0.0
 11
257.346
 21
107.424
 31
0.0
  0
LINE
  8
0
 62
     0
 10
257.346
 20
107.424
 30
0.0
 11
257.467
 21
106.66
 31
0.0
  0
LINE
  8
0
 62
     0
 10
257.467
 20
106.66
 30
0.0
 11
257.817
 21
105.97
 31
0.0
  0
LINE
  8
0
 62
     0
 10
257.817
 20
105.97
 30
0.0
 11
258.366
 21
105.421
 31
0.0
  0
LINE
  8
0
 62
     0
 10
258.366
 20
105.421
 30
0.0
 11
259.056
 21
105.071
 31
0.0
  0
LINE
  8
0
 62
     0
 10
259.056
 20
105.071
 30
0.0
 11
259.821
 21
104.949
 31
0.0
  0
LINE
  8
0
 62
     0
 10
259.821
 20
104.949
 30
0.0
 11
260.584
 21
105.071
 31
0.0
  0
LINE
  8
0
 62
     0
 10
260.584
 20
105.071
 30
0.0
 11
261.275
 21
105.421
 31
0.0
  0
LINE
  8
0
 62
     0
 10
261.275
 20
105.421
 30
0.0
 11
261.823
 21
105.97
 31
0.0
  0
LINE
  8
0
 62
     0
 10
261.823
 20
105.97
 30
0.0
 11
262.173
 21
106.66
 31
0.0
  0
LINE
  8
0
 62
     0
 10
262.173
 20
106.66
 30
0.0
 11
262.296
 21
107.424
 31
0.0
  0
LINE
  8
0
 62
     0
 10
262.296
 20
107.424
 30
0.0
 11
262.173
 21
108.188
 31
0.0
  0
LINE
  8
0
 62
     0
 10
262.173
 20
108.188
 30
0.0
 11
261.823
 21
108.879
 31
0.0
  0
LINE
  8
0
 62
     0
 10
261.823
 20
108.879
 30
0.0
 11
261.275
 21
109.427
 31
0.0
  0
LINE
  8
0
 62
     0
 10
261.275
 20
109.427
 30
0.0
 11
260.584
 21
109.777
 31
0.0
  0
LINE
  8
0
 62
     0
 10
260.584
 20
109.777
 30
0.0
 11
259.821
 21
109.898
 31
0.0
  0
LINE
  8
0
 62
     0
 10
259.821
 20
109.898
 30
0.0
 11
259.056
 21
109.777
 31
0.0
  0
LINE
  8
0
 62
     0
 10
3.40513
 20
109.777
 30
0.0
 11
2.71473
 21
109.427
 31
0.0
  0
LINE
  8
0
 62
     0
 10
2.71473
 20
109.427
 30
0.0
 11
2.16628
 21
108.879
 31
0.0
  0
LINE
  8
0
 62
     0
 10
2.16628
 20
108.879
 30
0.0
 11
1.81626
 21
108.188
 31
0.0
  0
LINE
  8
0
 62
     0
 10
1.81626
 20
108.188
 30
0.0
 11
1.69499
 21
107.424
 31
0.0
  0
LINE
  8
0
 62
     0
 10
1.69499
 20
107.424
 30
0.0
 11
1.81626
 21
106.66
 31
0.0
  0
LINE
  8
0
 62
     0
 10
1.81626
 20
106.66
 30
0.0
 11
2.16628
 21
105.97
 31
0.0
  0
LINE
  8
0
 62
     0
 10
2.16628
 20
105.97
 30
0.0
 11
2.71473
 21
105.421
 31
0.0
  0
LINE
  8
0
 62
     0
 10
2.71473
 20
105.421
 30
0.0
 11
3.40513
 21
105.071
 31
0.0
  0
LINE
  8
0
 62
     0
 10
3.40513
 20
105.071
 30
0.0
 11
4.16994
 21
104.949
 31
0.0
  0
LINE
  8
0
 62
     0
 10
4.16994
 20
104.949
 30
0.0
 11
4.93339
 21
105.071
 31
0.0
  0
LINE
  8
0
 62
     0
 10
4.93339
 20
105.071
 30
0.0
 11
5.62377
 21
105.421
 31
0.0
  0
LINE
  8
0
 62
     0
 10
5.62377
 20
105.421
 30
0.0
 11
6.17224
 21
105.97
 31
0.0
  0
LINE
  8
0
 62
     0
 10
6.17224
 20
105.97
 30
0.0
 11
6.52226
 21
106.66
 31
0.0
  0
LINE
  8
0
 62
     0
 10
6.52226
 20
106.66
 30
0.0
 11
6.64489
 21
107.424
 31
0.0
  0
LINE
  8
0
 62
     0
 10
6.64489
 20
107.424
 30
0.0
 11
6.52226
 21
108.188
 31
0.0
  0
LINE
  8
0
 62
     0
 10
6.52226
 20
108.188
 30
0.0
 11
6.17224
 21
108.879
 31
0.0
  0
LINE
  8
0
 62
     0
 10
6.17224
 20
108.879
 30
0.0
 11
5.62377
 21
109.427
 31
0.0
  0
LINE
  8
0
 62
     0
 10
5.62377
 20
109.427
 30
0.0
 11
4.93339
 21
109.777
 31
0.0
  0
LINE
  8
0
 62
     0
 10
4.93339
 20
109.777
 30
0.0
 11
4.16994
 21
109.898
 31
0.0
  0
LINE
  8
0
 62
     0
 10
4.16994
 20
109.898
 30
0.0
 11
3.40513
 21
109.777
 31
0.0
  0
ENDSEC
  0
EOF
