  0
SECTION
  2
HEADER
  9
$ACADVER
  1
AC1009
  9
$EXTMIN
 10
0.0
 20
0.0
 30
0.0
  9
$EXTMAX
 10
1000.0
 20
1000.0
 30
0.0
  9
$FILLMODE
 70
 0
  9
$SPLFRAME
 70
 1
  0
ENDSEC
  0
SECTION
  2
TABLES
  0
TABLE
  2
LAYER
 70
1
  0
LAYER
  2
0
 70
     0
 62
     7
  6
CONTINUOUS
  0
ENDTAB
  0
ENDSEC
  0
SECTION
  2
ENTITIES
  0
LINE
  8
0
 62
     0
 10
259.895
 20
111.499
 30
0.0
 11
260.208
 21
111.487
 31
0.0
  0
LINE
  8
0
 62
     0
 10
260.208
 20
111.487
 30
0.0
 11
260.521
 21
111.45
 31
0.0
  0
LINE
  8
0
 62
     0
 10
260.521
 20
111.45
 30
0.0
 11
260.828
 21
111.388
 31
0.0
  0
LINE
  8
0
 62
     0
 10
260.828
 20
111.388
 30
0.0
 11
261.131
 21
111.304
 31
0.0
  0
LINE
  8
0
 62
     0
 10
261.131
 20
111.304
 30
0.0
 11
261.426
 21
111.195
 31
0.0
  0
LINE
  8
0
 62
     0
 10
261.426
 20
111.195
 30
0.0
 11
261.71
 21
111.064
 31
0.0
  0
LINE
  8
0
 62
     0
 10
261.71
 20
111.064
 30
0.0
 11
261.984
 21
110.91
 31
0.0
  0
LINE
  8
0
 62
     0
 10
261.984
 20
110.91
 30
0.0
 11
262.246
 21
110.736
 31
0.0
  0
LINE
  8
0
 62
     0
 10
262.246
 20
110.736
 30
0.0
 11
262.493
 21
110.541
 31
0.0
  0
LINE
  8
0
 62
     0
 10
262.493
 20
110.541
 30
0.0
 11
262.724
 21
110.327
 31
0.0
  0
LINE
  8
0
 62
     0
 10
262.724
 20
110.327
 30
0.0
 11
262.937
 21
110.097
 31
0.0
  0
LINE
  8
0
 62
     0
 10
262.937
 20
110.097
 30
0.0
 11
263.132
 21
109.85
 31
0.0
  0
LINE
  8
0
 62
     0
 10
263.132
 20
109.85
 30
0.0
 11
263.306
 21
109.589
 31
0.0
  0
LINE
  8
0
 62
     0
 10
263.306
 20
109.589
 30
0.0
 11
263.46
 21
109.314
 31
0.0
  0
LINE
  8
0
 62
     0
 10
263.46
 20
109.314
 30
0.0
 11
263.591
 21
109.031
 31
0.0
  0
LINE
  8
0
 62
     0
 10
263.591
 20
109.031
 30
0.0
 11
263.7
 21
108.736
 31
0.0
  0
LINE
  8
0
 62
     0
 10
263.7
 20
108.736
 30
0.0
 11
263.784
 21
108.432
 31
0.0
  0
LINE
  8
0
 62
     0
 10
263.784
 20
108.432
 30
0.0
 11
263.846
 21
108.125
 31
0.0
  0
LINE
  8
0
 62
     0
 10
263.846
 20
108.125
 30
0.0
 11
263.883
 21
107.812
 31
0.0
  0
LINE
  8
0
 62
     0
 10
263.883
 20
107.812
 30
0.0
 11
263.896
 21
107.5
 31
0.0
  0
LINE
  8
0
 62
     0
 10
263.896
 20
107.5
 30
0.0
 11
263.896
 21
4.09829
 31
0.0
  0
LINE
  8
0
 62
     0
 10
263.896
 20
4.09829
 30
0.0
 11
263.883
 21
3.78548
 31
0.0
  0
LINE
  8
0
 62
     0
 10
263.883
 20
3.78548
 30
0.0
 11
263.846
 21
3.47266
 31
0.0
  0
LINE
  8
0
 62
     0
 10
263.846
 20
3.47266
 30
0.0
 11
263.784
 21
3.16536
 31
0.0
  0
LINE
  8
0
 62
     0
 10
263.784
 20
3.16536
 30
0.0
 11
263.7
 21
2.86219
 31
0.0
  0
LINE
  8
0
 62
     0
 10
263.7
 20
2.86219
 30
0.0
 11
263.591
 21
2.56728
 31
0.0
  0
LINE
  8
0
 62
     0
 10
263.591
 20
2.56728
 30
0.0
 11
263.46
 21
2.28341
 31
0.0
  0
LINE
  8
0
 62
     0
 10
263.46
 20
2.28341
 30
0.0
 11
263.306
 21
2.00918
 31
0.0
  0
LINE
  8
0
 62
     0
 10
263.306
 20
2.00918
 30
0.0
 11
263.132
 21
1.74735
 31
0.0
  0
LINE
  8
0
 62
     0
 10
263.132
 20
1.74735
 30
0.0
 11
262.937
 21
1.50068
 31
0.0
  0
LINE
  8
0
 62
     0
 10
262.937
 20
1.50068
 30
0.0
 11
262.724
 21
1.26917
 31
0.0
  0
LINE
  8
0
 62
     0
 10
262.724
 20
1.26917
 30
0.0
 11
262.493
 21
1.05695
 31
0.0
  0
LINE
  8
0
 62
     0
 10
262.493
 20
1.05695
 30
0.0
 11
262.246
 21
0.861275
 31
0.0
  0
LINE
  8
0
 62
     0
 10
262.246
 20
0.861275
 30
0.0
 11
261.984
 21
0.687641
 31
0.0
  0
LINE
  8
0
 62
     0
 10
261.984
 20
0.687641
 30
0.0
 11
261.71
 21
0.533301
 31
0.0
  0
LINE
  8
0
 62
     0
 10
261.71
 20
0.533301
 30
0.0
 11
261.426
 21
0.402389
 31
0.0
  0
LINE
  8
0
 62
     0
 10
261.426
 20
0.402389
 30
0.0
 11
261.131
 21
0.293522
 31
0.0
  0
LINE
  8
0
 62
     0
 10
261.131
 20
0.293522
 30
0.0
 11
260.828
 21
0.209462
 31
0.0
  0
LINE
  8
0
 62
     0
 10
260.828
 20
0.209462
 30
0.0
 11
260.521
 21
0.14745
 31
0.0
  0
LINE
  8
0
 62
     0
 10
260.521
 20
0.14745
 30
0.0
 11
260.208
 21
0.110243
 31
0.0
  0
LINE
  8
0
 62
     0
 10
260.208
 20
0.110243
 30
0.0
 11
259.895
 21
0.0978408
 31
0.0
  0
LINE
  8
0
 62
     0
 10
259.895
 20
0.0978408
 30
0.0
 11
4.09416
 21
0.0978408
 31
0.0
  0
LINE
  8
0
 62
     0
 10
4.09416
 20
0.0978408
 30
0.0
 11
3.78135
 21
0.110243
 31
0.0
  0
LINE
  8
0
 62
     0
 10
3.78135
 20
0.110243
 30
0.0
 11
3.46852
 21
0.14745
 31
0.0
  0
LINE
  8
0
 62
     0
 10
3.46852
 20
0.14745
 30
0.0
 11
3.16122
 21
0.209462
 31
0.0
  0
LINE
  8
0
 62
     0
 10
3.16122
 20
0.209462
 30
0.0
 11
2.85805
 21
0.293522
 31
0.0
  0
LINE
  8
0
 62
     0
 10
2.85805
 20
0.293522
 30
0.0
 11
2.56315
 21
0.402389
 31
0.0
  0
LINE
  8
0
 62
     0
 10
2.56315
 20
0.402389
 30
0.0
 11
2.27928
 21
0.533301
 31
0.0
  0
LINE
  8
0
 62
     0
 10
2.27928
 20
0.533301
 30
0.0
 11
2.00504
 21
0.687641
 31
0.0
  0
LINE
  8
0
 62
     0
 10
2.00504
 20
0.687641
 30
0.0
 11
1.74322
 21
0.861275
 31
0.0
  0
LINE
  8
0
 62
     0
 10
1.74322
 20
0.861275
 30
0.0
 11
1.49655
 21
1.05695
 31
0.0
  0
LINE
  8
0
 62
     0
 10
1.49655
 20
1.05695
 30
0.0
 11
1.26642
 21
1.26917
 31
0.0
  0
LINE
  8
0
 62
     0
 10
1.26642
 20
1.26917
 30
0.0
 11
1.05282
 21
1.50068
 31
0.0
  0
LINE
  8
0
 62
     0
 10
1.05282
 20
1.50068
 30
0.0
 11
0.857141
 21
1.74735
 31
0.0
  0
LINE
  8
0
 62
     0
 10
0.857141
 20
1.74735
 30
0.0
 11
0.683507
 21
2.00918
 31
0.0
  0
LINE
  8
0
 62
     0
 10
0.683507
 20
2.00918
 30
0.0
 11
0.529167
 21
2.28341
 31
0.0
  0
LINE
  8
0
 62
     0
 10
0.529167
 20
2.28341
 30
0.0
 11
0.398254
 21
2.56728
 31
0.0
  0
LINE
  8
0
 62
     0
 10
0.398254
 20
2.56728
 30
0.0
 11
0.289388
 21
2.86219
 31
0.0
  0
LINE
  8
0
 62
     0
 10
0.289388
 20
2.86219
 30
0.0
 11
0.205328
 21
3.16536
 31
0.0
  0
LINE
  8
0
 62
     0
 10
0.205328
 20
3.16536
 30
0.0
 11
0.143316
 21
3.47266
 31
0.0
  0
LINE
  8
0
 62
     0
 10
0.143316
 20
3.47266
 30
0.0
 11
0.106109
 21
3.78548
 31
0.0
  0
LINE
  8
0
 62
     0
 10
0.106109
 20
3.78548
 30
0.0
 11
0.0937066
 21
4.09829
 31
0.0
  0
LINE
  8
0
 62
     0
 10
0.0937066
 20
4.09829
 30
0.0
 11
0.0950846
 21
107.5
 31
0.0
  0
LINE
  8
0
 62
     0
 10
0.0950846
 20
107.5
 30
0.0
 11
0.106109
 21
107.812
 31
0.0
  0
LINE
  8
0
 62
     0
 10
0.106109
 20
107.812
 30
0.0
 11
0.143316
 21
108.125
 31
0.0
  0
LINE
  8
0
 62
     0
 10
0.143316
 20
108.125
 30
0.0
 11
0.205328
 21
108.432
 31
0.0
  0
LINE
  8
0
 62
     0
 10
0.205328
 20
108.432
 30
0.0
 11
0.289388
 21
108.736
 31
0.0
  0
LINE
  8
0
 62
     0
 10
0.289388
 20
108.736
 30
0.0
 11
0.398254
 21
109.031
 31
0.0
  0
LINE
  8
0
 62
     0
 10
0.398254
 20
109.031
 30
0.0
 11
0.529167
 21
109.314
 31
0.0
  0
LINE
  8
0
 62
     0
 10
0.529167
 20
109.314
 30
0.0
 11
0.683507
 21
109.589
 31
0.0
  0
LINE
  8
0
 62
     0
 10
0.683507
 20
109.589
 30
0.0
 11
0.857141
 21
109.85
 31
0.0
  0
LINE
  8
0
 62
     0
 10
0.857141
 20
109.85
 30
0.0
 11
1.05282
 21
110.097
 31
0.0
  0
LINE
  8
0
 62
     0
 10
1.05282
 20
110.097
 30
0.0
 11
1.26642
 21
110.327
 31
0.0
  0
LINE
  8
0
 62
     0
 10
1.26642
 20
110.327
 30
0.0
 11
1.49655
 21
110.541
 31
0.0
  0
LINE
  8
0
 62
     0
 10
1.49655
 20
110.541
 30
0.0
 11
1.74322
 21
110.736
 31
0.0
  0
LINE
  8
0
 62
     0
 10
1.74322
 20
110.736
 30
0.0
 11
2.00504
 21
110.91
 31
0.0
  0
LINE
  8
0
 62
     0
 10
2.00504
 20
110.91
 30
0.0
 11
2.27928
 21
111.064
 31
0.0
  0
LINE
  8
0
 62
     0
 10
2.27928
 20
111.064
 30
0.0
 11
2.56315
 21
111.195
 31
0.0
  0
LINE
  8
0
 62
     0
 10
2.56315
 20
111.195
 30
0.0
 11
2.85805
 21
111.304
 31
0.0
  0
LINE
  8
0
 62
     0
 10
2.85805
 20
111.304
 30
0.0
 11
3.16122
 21
111.388
 31
0.0
  0
LINE
  8
0
 62
     0
 10
3.16122
 20
111.388
 30
0.0
 11
3.46852
 21
111.45
 31
0.0
  0
LINE
  8
0
 62
     0
 10
3.46852
 20
111.45
 30
0.0
 11
3.78135
 21
111.487
 31
0.0
  0
LINE
  8
0
 62
     0
 10
3.78135
 20
111.487
 30
0.0
 11
4.09416
 21
111.5
 31
0.0
  0
LINE
  8
0
 62
     0
 10
4.09416
 20
111.5
 30
0.0
 11
259.895
 21
111.499
 31
0.0
  0
LINE
  8
0
 62
     0
 10
4.19336
 20
6.93981
 30
0.0
 11
3.99493
 21
6.91638
 31
0.0
  0
LINE
  8
0
 62
     0
 10
3.99493
 20
6.91638
 30
0.0
 11
3.79924
 21
6.87779
 31
0.0
  0
LINE
  8
0
 62
     0
 10
3.79924
 20
6.87779
 30
0.0
 11
3.60634
 21
6.82265
 31
0.0
  0
LINE
  8
0
 62
     0
 10
3.60634
 20
6.82265
 30
0.0
 11
3.41753
 21
6.75375
 31
0.0
  0
LINE
  8
0
 62
     0
 10
3.41753
 20
6.75375
 30
0.0
 11
3.23564
 21
6.66972
 31
0.0
  0
LINE
  8
0
 62
     0
 10
3.23564
 20
6.66972
 30
0.0
 11
3.062
 21
6.57186
 31
0.0
  0
LINE
  8
0
 62
     0
 10
3.062
 20
6.57186
 30
0.0
 11
2.89526
 21
6.46024
 31
0.0
  0
LINE
  8
0
 62
     0
 10
2.89526
 20
6.46024
 30
0.0
 11
2.73816
 21
6.33621
 31
0.0
  0
LINE
  8
0
 62
     0
 10
2.73816
 20
6.33621
 30
0.0
 11
2.59071
 21
6.20116
 31
0.0
  0
LINE
  8
0
 62
     0
 10
2.59071
 20
6.20116
 30
0.0
 11
2.45429
 21
6.05374
 31
0.0
  0
LINE
  8
0
 62
     0
 10
2.45429
 20
6.05374
 30
0.0
 11
2.33026
 21
5.89661
 31
0.0
  0
LINE
  8
0
 62
     0
 10
2.33026
 20
5.89661
 30
0.0
 11
2.22002
 21
5.72989
 31
0.0
  0
LINE
  8
0
 62
     0
 10
2.22002
 20
5.72989
 30
0.0
 11
2.12218
 21
5.55625
 31
0.0
  0
LINE
  8
0
 62
     0
 10
2.12218
 20
5.55625
 30
0.0
 11
2.03812
 21
5.37436
 31
0.0
  0
LINE
  8
0
 62
     0
 10
2.03812
 20
5.37436
 30
0.0
 11
1.96922
 21
5.18555
 31
0.0
  0
LINE
  8
0
 62
     0
 10
1.96922
 20
5.18555
 30
0.0
 11
1.91409
 21
4.99262
 31
0.0
  0
LINE
  8
0
 62
     0
 10
1.91409
 20
4.99262
 30
0.0
 11
1.87413
 21
4.79697
 31
0.0
  0
LINE
  8
0
 62
     0
 10
1.87413
 20
4.79697
 30
0.0
 11
1.85208
 21
4.59715
 31
0.0
  0
LINE
  8
0
 62
     0
 10
1.85208
 20
4.59715
 30
0.0
 11
1.84381
 21
4.3973
 31
0.0
  0
LINE
  8
0
 62
     0
 10
1.84381
 20
4.3973
 30
0.0
 11
1.85208
 21
4.19749
 31
0.0
  0
LINE
  8
0
 62
     0
 10
1.85208
 20
4.19749
 30
0.0
 11
1.87413
 21
3.99905
 31
0.0
  0
LINE
  8
0
 62
     0
 10
1.87413
 20
3.99905
 30
0.0
 11
1.91409
 21
3.8034
 31
0.0
  0
LINE
  8
0
 62
     0
 10
1.91409
 20
3.8034
 30
0.0
 11
1.96922
 21
3.61047
 31
0.0
  0
LINE
  8
0
 62
     0
 10
1.96922
 20
3.61047
 30
0.0
 11
2.03812
 21
3.42167
 31
0.0
  0
LINE
  8
0
 62
     0
 10
2.03812
 20
3.42167
 30
0.0
 11
2.12218
 21
3.23977
 31
0.0
  0
LINE
  8
0
 62
     0
 10
2.12218
 20
3.23977
 30
0.0
 11
2.22002
 21
3.06614
 31
0.0
  0
LINE
  8
0
 62
     0
 10
2.22002
 20
3.06614
 30
0.0
 11
2.33026
 21
2.89939
 31
0.0
  0
LINE
  8
0
 62
     0
 10
2.33026
 20
2.89939
 30
0.0
 11
2.45429
 21
2.7423
 31
0.0
  0
LINE
  8
0
 62
     0
 10
2.45429
 20
2.7423
 30
0.0
 11
2.59071
 21
2.59485
 31
0.0
  0
LINE
  8
0
 62
     0
 10
2.59071
 20
2.59485
 30
0.0
 11
2.73816
 21
2.45842
 31
0.0
  0
LINE
  8
0
 62
     0
 10
2.73816
 20
2.45842
 30
0.0
 11
2.89526
 21
2.3344
 31
0.0
  0
LINE
  8
0
 62
     0
 10
2.89526
 20
2.3344
 30
0.0
 11
3.062
 21
2.22415
 31
0.0
  0
LINE
  8
0
 62
     0
 10
3.062
 20
2.22415
 30
0.0
 11
3.23564
 21
2.12631
 31
0.0
  0
LINE
  8
0
 62
     0
 10
3.23564
 20
2.12631
 30
0.0
 11
3.41753
 21
2.04225
 31
0.0
  0
LINE
  8
0
 62
     0
 10
3.41753
 20
2.04225
 30
0.0
 11
3.60634
 21
1.97335
 31
0.0
  0
LINE
  8
0
 62
     0
 10
3.60634
 20
1.97335
 30
0.0
 11
3.79924
 21
1.91823
 31
0.0
  0
LINE
  8
0
 62
     0
 10
3.79924
 20
1.91823
 30
0.0
 11
3.99493
 21
1.87827
 31
0.0
  0
LINE
  8
0
 62
     0
 10
3.99493
 20
1.87827
 30
0.0
 11
4.19336
 21
1.85622
 31
0.0
  0
LINE
  8
0
 62
     0
 10
4.19336
 20
1.85622
 30
0.0
 11
4.39318
 21
1.84795
 31
0.0
  0
LINE
  8
0
 62
     0
 10
4.39318
 20
1.84795
 30
0.0
 11
4.59437
 21
1.85622
 31
0.0
  0
LINE
  8
0
 62
     0
 10
4.59437
 20
1.85622
 30
0.0
 11
4.7928
 21
1.87827
 31
0.0
  0
LINE
  8
0
 62
     0
 10
4.7928
 20
1.87827
 30
0.0
 11
4.98849
 21
1.91823
 31
0.0
  0
LINE
  8
0
 62
     0
 10
4.98849
 20
1.91823
 30
0.0
 11
5.18142
 21
1.97335
 31
0.0
  0
LINE
  8
0
 62
     0
 10
5.18142
 20
1.97335
 30
0.0
 11
5.37023
 21
2.04225
 31
0.0
  0
LINE
  8
0
 62
     0
 10
5.37023
 20
2.04225
 30
0.0
 11
5.55212
 21
2.12631
 31
0.0
  0
LINE
  8
0
 62
     0
 10
5.55212
 20
2.12631
 30
0.0
 11
5.72576
 21
2.22415
 31
0.0
  0
LINE
  8
0
 62
     0
 10
5.72576
 20
2.22415
 30
0.0
 11
5.89248
 21
2.3344
 31
0.0
  0
LINE
  8
0
 62
     0
 10
5.89248
 20
2.3344
 30
0.0
 11
6.04957
 21
2.45842
 31
0.0
  0
LINE
  8
0
 62
     0
 10
6.04957
 20
2.45842
 30
0.0
 11
6.19704
 21
2.59485
 31
0.0
  0
LINE
  8
0
 62
     0
 10
6.19704
 20
2.59485
 30
0.0
 11
6.33208
 21
2.7423
 31
0.0
  0
LINE
  8
0
 62
     0
 10
6.33208
 20
2.7423
 30
0.0
 11
6.45612
 21
2.89939
 31
0.0
  0
LINE
  8
0
 62
     0
 10
6.45612
 20
2.89939
 30
0.0
 11
6.56773
 21
3.06614
 31
0.0
  0
LINE
  8
0
 62
     0
 10
6.56773
 20
3.06614
 30
0.0
 11
6.66556
 21
3.23977
 31
0.0
  0
LINE
  8
0
 62
     0
 10
6.66556
 20
3.23977
 30
0.0
 11
6.74963
 21
3.42167
 31
0.0
  0
LINE
  8
0
 62
     0
 10
6.74963
 20
3.42167
 30
0.0
 11
6.81852
 21
3.61047
 31
0.0
  0
LINE
  8
0
 62
     0
 10
6.81852
 20
3.61047
 30
0.0
 11
6.87366
 21
3.8034
 31
0.0
  0
LINE
  8
0
 62
     0
 10
6.87366
 20
3.8034
 30
0.0
 11
6.91226
 21
3.99905
 31
0.0
  0
LINE
  8
0
 62
     0
 10
6.91226
 20
3.99905
 30
0.0
 11
6.93568
 21
4.19749
 31
0.0
  0
LINE
  8
0
 62
     0
 10
6.93568
 20
4.19749
 30
0.0
 11
6.94394
 21
4.3973
 31
0.0
  0
LINE
  8
0
 62
     0
 10
6.94394
 20
4.3973
 30
0.0
 11
6.93568
 21
4.59715
 31
0.0
  0
LINE
  8
0
 62
     0
 10
6.93568
 20
4.59715
 30
0.0
 11
6.91226
 21
4.79697
 31
0.0
  0
LINE
  8
0
 62
     0
 10
6.91226
 20
4.79697
 30
0.0
 11
6.87366
 21
4.99262
 31
0.0
  0
LINE
  8
0
 62
     0
 10
6.87366
 20
4.99262
 30
0.0
 11
6.81852
 21
5.18555
 31
0.0
  0
LINE
  8
0
 62
     0
 10
6.81852
 20
5.18555
 30
0.0
 11
6.74963
 21
5.37436
 31
0.0
  0
LINE
  8
0
 62
     0
 10
6.74963
 20
5.37436
 30
0.0
 11
6.66556
 21
5.55625
 31
0.0
  0
LINE
  8
0
 62
     0
 10
6.66556
 20
5.55625
 30
0.0
 11
6.56773
 21
5.72989
 31
0.0
  0
LINE
  8
0
 62
     0
 10
6.56773
 20
5.72989
 30
0.0
 11
6.45612
 21
5.89661
 31
0.0
  0
LINE
  8
0
 62
     0
 10
6.45612
 20
5.89661
 30
0.0
 11
6.33208
 21
6.05374
 31
0.0
  0
LINE
  8
0
 62
     0
 10
6.33208
 20
6.05374
 30
0.0
 11
6.19704
 21
6.20116
 31
0.0
  0
LINE
  8
0
 62
     0
 10
6.19704
 20
6.20116
 30
0.0
 11
6.04957
 21
6.33621
 31
0.0
  0
LINE
  8
0
 62
     0
 10
6.04957
 20
6.33621
 30
0.0
 11
5.89248
 21
6.46024
 31
0.0
  0
LINE
  8
0
 62
     0
 10
5.89248
 20
6.46024
 30
0.0
 11
5.72576
 21
6.57186
 31
0.0
  0
LINE
  8
0
 62
     0
 10
5.72576
 20
6.57186
 30
0.0
 11
5.55212
 21
6.66972
 31
0.0
  0
LINE
  8
0
 62
     0
 10
5.55212
 20
6.66972
 30
0.0
 11
5.37023
 21
6.75375
 31
0.0
  0
LINE
  8
0
 62
     0
 10
5.37023
 20
6.75375
 30
0.0
 11
5.18142
 21
6.82265
 31
0.0
  0
LINE
  8
0
 62
     0
 10
5.18142
 20
6.82265
 30
0.0
 11
4.98849
 21
6.87779
 31
0.0
  0
LINE
  8
0
 62
     0
 10
4.98849
 20
6.87779
 30
0.0
 11
4.7928
 21
6.91638
 31
0.0
  0
LINE
  8
0
 62
     0
 10
4.7928
 20
6.91638
 30
0.0
 11
4.59437
 21
6.93981
 31
0.0
  0
LINE
  8
0
 62
     0
 10
4.59437
 20
6.93981
 30
0.0
 11
4.39318
 21
6.94806
 31
0.0
  0
LINE
  8
0
 62
     0
 10
4.39318
 20
6.94806
 30
0.0
 11
4.19336
 21
6.93981
 31
0.0
  0
LINE
  8
0
 62
     0
 10
259.396
 20
6.93981
 30
0.0
 11
259.196
 21
6.91638
 31
0.0
  0
LINE
  8
0
 62
     0
 10
259.196
 20
6.91638
 30
0.0
 11
259.001
 21
6.87779
 31
0.0
  0
LINE
  8
0
 62
     0
 10
259.001
 20
6.87779
 30
0.0
 11
258.808
 21
6.82265
 31
0.0
  0
LINE
  8
0
 62
     0
 10
258.808
 20
6.82265
 30
0.0
 11
258.619
 21
6.75375
 31
0.0
  0
LINE
  8
0
 62
     0
 10
258.619
 20
6.75375
 30
0.0
 11
258.437
 21
6.66972
 31
0.0
  0
LINE
  8
0
 62
     0
 10
258.437
 20
6.66972
 30
0.0
 11
258.264
 21
6.57186
 31
0.0
  0
LINE
  8
0
 62
     0
 10
258.264
 20
6.57186
 30
0.0
 11
258.097
 21
6.46024
 31
0.0
  0
LINE
  8
0
 62
     0
 10
258.097
 20
6.46024
 30
0.0
 11
257.94
 21
6.33621
 31
0.0
  0
LINE
  8
0
 62
     0
 10
257.94
 20
6.33621
 30
0.0
 11
257.792
 21
6.20116
 31
0.0
  0
LINE
  8
0
 62
     0
 10
257.792
 20
6.20116
 30
0.0
 11
257.657
 21
6.05374
 31
0.0
  0
LINE
  8
0
 62
     0
 10
257.657
 20
6.05374
 30
0.0
 11
257.533
 21
5.89661
 31
0.0
  0
LINE
  8
0
 62
     0
 10
257.533
 20
5.89661
 30
0.0
 11
257.422
 21
5.72989
 31
0.0
  0
LINE
  8
0
 62
     0
 10
257.422
 20
5.72989
 30
0.0
 11
257.324
 21
5.55625
 31
0.0
  0
LINE
  8
0
 62
     0
 10
257.324
 20
5.55625
 30
0.0
 11
257.24
 21
5.37436
 31
0.0
  0
LINE
  8
0
 62
     0
 10
257.24
 20
5.37436
 30
0.0
 11
257.171
 21
5.18555
 31
0.0
  0
LINE
  8
0
 62
     0
 10
257.171
 20
5.18555
 30
0.0
 11
257.116
 21
4.99262
 31
0.0
  0
LINE
  8
0
 62
     0
 10
257.116
 20
4.99262
 30
0.0
 11
257.077
 21
4.79697
 31
0.0
  0
LINE
  8
0
 62
     0
 10
257.077
 20
4.79697
 30
0.0
 11
257.054
 21
4.59715
 31
0.0
  0
LINE
  8
0
 62
     0
 10
257.054
 20
4.59715
 30
0.0
 11
257.046
 21
4.3973
 31
0.0
  0
LINE
  8
0
 62
     0
 10
257.046
 20
4.3973
 30
0.0
 11
257.054
 21
4.19749
 31
0.0
  0
LINE
  8
0
 62
     0
 10
257.054
 20
4.19749
 30
0.0
 11
257.077
 21
3.99905
 31
0.0
  0
LINE
  8
0
 62
     0
 10
257.077
 20
3.99905
 30
0.0
 11
257.116
 21
3.8034
 31
0.0
  0
LINE
  8
0
 62
     0
 10
257.116
 20
3.8034
 30
0.0
 11
257.171
 21
3.61047
 31
0.0
  0
LINE
  8
0
 62
     0
 10
257.171
 20
3.61047
 30
0.0
 11
257.24
 21
3.42167
 31
0.0
  0
LINE
  8
0
 62
     0
 10
257.24
 20
3.42167
 30
0.0
 11
257.324
 21
3.23977
 31
0.0
  0
LINE
  8
0
 62
     0
 10
257.324
 20
3.23977
 30
0.0
 11
257.422
 21
3.06614
 31
0.0
  0
LINE
  8
0
 62
     0
 10
257.422
 20
3.06614
 30
0.0
 11
257.533
 21
2.89939
 31
0.0
  0
LINE
  8
0
 62
     0
 10
257.533
 20
2.89939
 30
0.0
 11
257.657
 21
2.7423
 31
0.0
  0
LINE
  8
0
 62
     0
 10
257.657
 20
2.7423
 30
0.0
 11
257.792
 21
2.59485
 31
0.0
  0
LINE
  8
0
 62
     0
 10
257.792
 20
2.59485
 30
0.0
 11
257.94
 21
2.45842
 31
0.0
  0
LINE
  8
0
 62
     0
 10
257.94
 20
2.45842
 30
0.0
 11
258.097
 21
2.3344
 31
0.0
  0
LINE
  8
0
 62
     0
 10
258.097
 20
2.3344
 30
0.0
 11
258.264
 21
2.22415
 31
0.0
  0
LINE
  8
0
 62
     0
 10
258.264
 20
2.22415
 30
0.0
 11
258.437
 21
2.12631
 31
0.0
  0
LINE
  8
0
 62
     0
 10
258.437
 20
2.12631
 30
0.0
 11
258.619
 21
2.04225
 31
0.0
  0
LINE
  8
0
 62
     0
 10
258.619
 20
2.04225
 30
0.0
 11
258.808
 21
1.97335
 31
0.0
  0
LINE
  8
0
 62
     0
 10
258.808
 20
1.97335
 30
0.0
 11
259.001
 21
1.91823
 31
0.0
  0
LINE
  8
0
 62
     0
 10
259.001
 20
1.91823
 30
0.0
 11
259.196
 21
1.87827
 31
0.0
  0
LINE
  8
0
 62
     0
 10
259.196
 20
1.87827
 30
0.0
 11
259.396
 21
1.85622
 31
0.0
  0
LINE
  8
0
 62
     0
 10
259.396
 20
1.85622
 30
0.0
 11
259.596
 21
1.84795
 31
0.0
  0
LINE
  8
0
 62
     0
 10
259.596
 20
1.84795
 30
0.0
 11
259.796
 21
1.85622
 31
0.0
  0
LINE
  8
0
 62
     0
 10
259.796
 20
1.85622
 30
0.0
 11
259.994
 21
1.87827
 31
0.0
  0
LINE
  8
0
 62
     0
 10
259.994
 20
1.87827
 30
0.0
 11
260.19
 21
1.91823
 31
0.0
  0
LINE
  8
0
 62
     0
 10
260.19
 20
1.91823
 30
0.0
 11
260.383
 21
1.97335
 31
0.0
  0
LINE
  8
0
 62
     0
 10
260.383
 20
1.97335
 30
0.0
 11
260.572
 21
2.04225
 31
0.0
  0
LINE
  8
0
 62
     0
 10
260.572
 20
2.04225
 30
0.0
 11
260.754
 21
2.12631
 31
0.0
  0
LINE
  8
0
 62
     0
 10
260.754
 20
2.12631
 30
0.0
 11
260.928
 21
2.22415
 31
0.0
  0
LINE
  8
0
 62
     0
 10
260.928
 20
2.22415
 30
0.0
 11
261.094
 21
2.3344
 31
0.0
  0
LINE
  8
0
 62
     0
 10
261.094
 20
2.3344
 30
0.0
 11
261.251
 21
2.45842
 31
0.0
  0
LINE
  8
0
 62
     0
 10
261.251
 20
2.45842
 30
0.0
 11
261.399
 21
2.59485
 31
0.0
  0
LINE
  8
0
 62
     0
 10
261.399
 20
2.59485
 30
0.0
 11
261.535
 21
2.7423
 31
0.0
  0
LINE
  8
0
 62
     0
 10
261.535
 20
2.7423
 30
0.0
 11
261.659
 21
2.89939
 31
0.0
  0
LINE
  8
0
 62
     0
 10
261.659
 20
2.89939
 30
0.0
 11
261.769
 21
3.06614
 31
0.0
  0
LINE
  8
0
 62
     0
 10
261.769
 20
3.06614
 30
0.0
 11
261.867
 21
3.23977
 31
0.0
  0
LINE
  8
0
 62
     0
 10
261.867
 20
3.23977
 30
0.0
 11
261.951
 21
3.42167
 31
0.0
  0
LINE
  8
0
 62
     0
 10
261.951
 20
3.42167
 30
0.0
 11
262.02
 21
3.61047
 31
0.0
  0
LINE
  8
0
 62
     0
 10
262.02
 20
3.61047
 30
0.0
 11
262.075
 21
3.8034
 31
0.0
  0
LINE
  8
0
 62
     0
 10
262.075
 20
3.8034
 30
0.0
 11
262.115
 21
3.99905
 31
0.0
  0
LINE
  8
0
 62
     0
 10
262.115
 20
3.99905
 30
0.0
 11
262.137
 21
4.19749
 31
0.0
  0
LINE
  8
0
 62
     0
 10
262.137
 20
4.19749
 30
0.0
 11
262.146
 21
4.3973
 31
0.0
  0
LINE
  8
0
 62
     0
 10
262.146
 20
4.3973
 30
0.0
 11
262.137
 21
4.59715
 31
0.0
  0
LINE
  8
0
 62
     0
 10
262.137
 20
4.59715
 30
0.0
 11
262.115
 21
4.79697
 31
0.0
  0
LINE
  8
0
 62
     0
 10
262.115
 20
4.79697
 30
0.0
 11
262.075
 21
4.99262
 31
0.0
  0
LINE
  8
0
 62
     0
 10
262.075
 20
4.99262
 30
0.0
 11
262.02
 21
5.18555
 31
0.0
  0
LINE
  8
0
 62
     0
 10
262.02
 20
5.18555
 30
0.0
 11
261.951
 21
5.37436
 31
0.0
  0
LINE
  8
0
 62
     0
 10
261.951
 20
5.37436
 30
0.0
 11
261.867
 21
5.55625
 31
0.0
  0
LINE
  8
0
 62
     0
 10
261.867
 20
5.55625
 30
0.0
 11
261.769
 21
5.72989
 31
0.0
  0
LINE
  8
0
 62
     0
 10
261.769
 20
5.72989
 30
0.0
 11
261.659
 21
5.89661
 31
0.0
  0
LINE
  8
0
 62
     0
 10
261.659
 20
5.89661
 30
0.0
 11
261.535
 21
6.05374
 31
0.0
  0
LINE
  8
0
 62
     0
 10
261.535
 20
6.05374
 30
0.0
 11
261.399
 21
6.20116
 31
0.0
  0
LINE
  8
0
 62
     0
 10
261.399
 20
6.20116
 30
0.0
 11
261.251
 21
6.33621
 31
0.0
  0
LINE
  8
0
 62
     0
 10
261.251
 20
6.33621
 30
0.0
 11
261.094
 21
6.46024
 31
0.0
  0
LINE
  8
0
 62
     0
 10
261.094
 20
6.46024
 30
0.0
 11
260.928
 21
6.57186
 31
0.0
  0
LINE
  8
0
 62
     0
 10
260.928
 20
6.57186
 30
0.0
 11
260.754
 21
6.66972
 31
0.0
  0
LINE
  8
0
 62
     0
 10
260.754
 20
6.66972
 30
0.0
 11
260.572
 21
6.75375
 31
0.0
  0
LINE
  8
0
 62
     0
 10
260.572
 20
6.75375
 30
0.0
 11
260.383
 21
6.82265
 31
0.0
  0
LINE
  8
0
 62
     0
 10
260.383
 20
6.82265
 30
0.0
 11
260.19
 21
6.87779
 31
0.0
  0
LINE
  8
0
 62
     0
 10
260.19
 20
6.87779
 30
0.0
 11
259.994
 21
6.91638
 31
0.0
  0
LINE
  8
0
 62
     0
 10
259.994
 20
6.91638
 30
0.0
 11
259.796
 21
6.93981
 31
0.0
  0
LINE
  8
0
 62
     0
 10
259.796
 20
6.93981
 30
0.0
 11
259.596
 21
6.94806
 31
0.0
  0
LINE
  8
0
 62
     0
 10
259.596
 20
6.94806
 30
0.0
 11
259.396
 21
6.93981
 31
0.0
  0
LINE
  8
0
 62
     0
 10
8.16903
 20
103.425
 30
0.0
 11
8.16903
 21
46.2746
 31
0.0
  0
LINE
  8
0
 62
     0
 10
8.16903
 20
46.2746
 30
0.0
 11
8.16762
 21
46.2746
 31
0.0
  0
LINE
  8
0
 62
     0
 10
8.16762
 20
46.2746
 30
0.0
 11
8.16762
 21
27.2232
 31
0.0
  0
LINE
  8
0
 62
     0
 10
8.16762
 20
27.2232
 30
0.0
 11
8.16903
 21
27.2232
 31
0.0
  0
LINE
  8
0
 62
     0
 10
8.16903
 20
27.2232
 30
0.0
 11
8.16903
 21
8.17316
 31
0.0
  0
LINE
  8
0
 62
     0
 10
8.16903
 20
8.17316
 30
0.0
 11
255.82
 21
8.17316
 31
0.0
  0
LINE
  8
0
 62
     0
 10
255.82
 20
8.17316
 30
0.0
 11
255.82
 21
103.425
 31
0.0
  0
LINE
  8
0
 62
     0
 10
255.82
 20
103.425
 30
0.0
 11
8.16903
 21
103.425
 31
0.0
  0
LINE
  8
0
 62
     0
 10
4.19336
 20
109.741
 30
0.0
 11
3.99493
 21
109.72
 31
0.0
  0
LINE
  8
0
 62
     0
 10
3.99493
 20
109.72
 30
0.0
 11
3.79924
 21
109.679
 31
0.0
  0
LINE
  8
0
 62
     0
 10
3.79924
 20
109.679
 30
0.0
 11
3.60634
 21
109.624
 31
0.0
  0
LINE
  8
0
 62
     0
 10
3.60634
 20
109.624
 30
0.0
 11
3.41753
 21
109.555
 31
0.0
  0
LINE
  8
0
 62
     0
 10
3.41753
 20
109.555
 30
0.0
 11
3.23564
 21
109.472
 31
0.0
  0
LINE
  8
0
 62
     0
 10
3.23564
 20
109.472
 30
0.0
 11
3.062
 21
109.373
 31
0.0
  0
LINE
  8
0
 62
     0
 10
3.062
 20
109.373
 30
0.0
 11
2.89526
 21
109.263
 31
0.0
  0
LINE
  8
0
 62
     0
 10
2.89526
 20
109.263
 30
0.0
 11
2.73816
 21
109.139
 31
0.0
  0
LINE
  8
0
 62
     0
 10
2.73816
 20
109.139
 30
0.0
 11
2.59071
 21
109.003
 31
0.0
  0
LINE
  8
0
 62
     0
 10
2.59071
 20
109.003
 30
0.0
 11
2.45429
 21
108.855
 31
0.0
  0
LINE
  8
0
 62
     0
 10
2.45429
 20
108.855
 30
0.0
 11
2.33026
 21
108.698
 31
0.0
  0
LINE
  8
0
 62
     0
 10
2.33026
 20
108.698
 30
0.0
 11
2.22002
 21
108.531
 31
0.0
  0
LINE
  8
0
 62
     0
 10
2.22002
 20
108.531
 30
0.0
 11
2.12218
 21
108.358
 31
0.0
  0
LINE
  8
0
 62
     0
 10
2.12218
 20
108.358
 30
0.0
 11
2.03812
 21
108.176
 31
0.0
  0
LINE
  8
0
 62
     0
 10
2.03812
 20
108.176
 30
0.0
 11
1.96922
 21
107.987
 31
0.0
  0
LINE
  8
0
 62
     0
 10
1.96922
 20
107.987
 30
0.0
 11
1.91409
 21
107.794
 31
0.0
  0
LINE
  8
0
 62
     0
 10
1.91409
 20
107.794
 30
0.0
 11
1.87413
 21
107.599
 31
0.0
  0
LINE
  8
0
 62
     0
 10
1.87413
 20
107.599
 30
0.0
 11
1.85208
 21
107.4
 31
0.0
  0
LINE
  8
0
 62
     0
 10
1.85208
 20
107.4
 30
0.0
 11
1.84381
 21
107.2
 31
0.0
  0
LINE
  8
0
 62
     0
 10
1.84381
 20
107.2
 30
0.0
 11
1.85208
 21
106.999
 31
0.0
  0
LINE
  8
0
 62
     0
 10
1.85208
 20
106.999
 30
0.0
 11
1.87413
 21
106.801
 31
0.0
  0
LINE
  8
0
 62
     0
 10
1.87413
 20
106.801
 30
0.0
 11
1.91409
 21
106.605
 31
0.0
  0
LINE
  8
0
 62
     0
 10
1.91409
 20
106.605
 30
0.0
 11
1.96922
 21
106.412
 31
0.0
  0
LINE
  8
0
 62
     0
 10
1.96922
 20
106.412
 30
0.0
 11
2.03812
 21
106.223
 31
0.0
  0
LINE
  8
0
 62
     0
 10
2.03812
 20
106.223
 30
0.0
 11
2.12218
 21
106.041
 31
0.0
  0
LINE
  8
0
 62
     0
 10
2.12218
 20
106.041
 30
0.0
 11
2.22002
 21
105.868
 31
0.0
  0
LINE
  8
0
 62
     0
 10
2.22002
 20
105.868
 30
0.0
 11
2.33026
 21
105.701
 31
0.0
  0
LINE
  8
0
 62
     0
 10
2.33026
 20
105.701
 30
0.0
 11
2.45429
 21
105.544
 31
0.0
  0
LINE
  8
0
 62
     0
 10
2.45429
 20
105.544
 30
0.0
 11
2.59071
 21
105.397
 31
0.0
  0
LINE
  8
0
 62
     0
 10
2.59071
 20
105.397
 30
0.0
 11
2.73816
 21
105.261
 31
0.0
  0
LINE
  8
0
 62
     0
 10
2.73816
 20
105.261
 30
0.0
 11
2.89526
 21
105.137
 31
0.0
  0
LINE
  8
0
 62
     0
 10
2.89526
 20
105.137
 30
0.0
 11
3.062
 21
105.026
 31
0.0
  0
LINE
  8
0
 62
     0
 10
3.062
 20
105.026
 30
0.0
 11
3.23564
 21
104.928
 31
0.0
  0
LINE
  8
0
 62
     0
 10
3.23564
 20
104.928
 30
0.0
 11
3.41753
 21
104.844
 31
0.0
  0
LINE
  8
0
 62
     0
 10
3.41753
 20
104.844
 30
0.0
 11
3.60634
 21
104.775
 31
0.0
  0
LINE
  8
0
 62
     0
 10
3.60634
 20
104.775
 30
0.0
 11
3.79924
 21
104.72
 31
0.0
  0
LINE
  8
0
 62
     0
 10
3.79924
 20
104.72
 30
0.0
 11
3.99493
 21
104.681
 31
0.0
  0
LINE
  8
0
 62
     0
 10
3.99493
 20
104.681
 30
0.0
 11
4.19336
 21
104.658
 31
0.0
  0
LINE
  8
0
 62
     0
 10
4.19336
 20
104.658
 30
0.0
 11
4.39318
 21
104.65
 31
0.0
  0
LINE
  8
0
 62
     0
 10
4.39318
 20
104.65
 30
0.0
 11
4.59437
 21
104.658
 31
0.0
  0
LINE
  8
0
 62
     0
 10
4.59437
 20
104.658
 30
0.0
 11
4.7928
 21
104.681
 31
0.0
  0
LINE
  8
0
 62
     0
 10
4.7928
 20
104.681
 30
0.0
 11
4.98849
 21
104.72
 31
0.0
  0
LINE
  8
0
 62
     0
 10
4.98849
 20
104.72
 30
0.0
 11
5.18142
 21
104.775
 31
0.0
  0
LINE
  8
0
 62
     0
 10
5.18142
 20
104.775
 30
0.0
 11
5.37023
 21
104.844
 31
0.0
  0
LINE
  8
0
 62
     0
 10
5.37023
 20
104.844
 30
0.0
 11
5.55212
 21
104.928
 31
0.0
  0
LINE
  8
0
 62
     0
 10
5.55212
 20
104.928
 30
0.0
 11
5.72576
 21
105.026
 31
0.0
  0
LINE
  8
0
 62
     0
 10
5.72576
 20
105.026
 30
0.0
 11
5.89248
 21
105.137
 31
0.0
  0
LINE
  8
0
 62
     0
 10
5.89248
 20
105.137
 30
0.0
 11
6.04957
 21
105.261
 31
0.0
  0
LINE
  8
0
 62
     0
 10
6.04957
 20
105.261
 30
0.0
 11
6.19704
 21
105.397
 31
0.0
  0
LINE
  8
0
 62
     0
 10
6.19704
 20
105.397
 30
0.0
 11
6.33208
 21
105.544
 31
0.0
  0
LINE
  8
0
 62
     0
 10
6.33208
 20
105.544
 30
0.0
 11
6.45612
 21
105.701
 31
0.0
  0
LINE
  8
0
 62
     0
 10
6.45612
 20
105.701
 30
0.0
 11
6.56773
 21
105.868
 31
0.0
  0
LINE
  8
0
 62
     0
 10
6.56773
 20
105.868
 30
0.0
 11
6.66556
 21
106.041
 31
0.0
  0
LINE
  8
0
 62
     0
 10
6.66556
 20
106.041
 30
0.0
 11
6.74963
 21
106.223
 31
0.0
  0
LINE
  8
0
 62
     0
 10
6.74963
 20
106.223
 30
0.0
 11
6.81852
 21
106.412
 31
0.0
  0
LINE
  8
0
 62
     0
 10
6.81852
 20
106.412
 30
0.0
 11
6.87366
 21
106.605
 31
0.0
  0
LINE
  8
0
 62
     0
 10
6.87366
 20
106.605
 30
0.0
 11
6.91226
 21
106.801
 31
0.0
  0
LINE
  8
0
 62
     0
 10
6.91226
 20
106.801
 30
0.0
 11
6.93568
 21
106.999
 31
0.0
  0
LINE
  8
0
 62
     0
 10
6.93568
 20
106.999
 30
0.0
 11
6.94394
 21
107.2
 31
0.0
  0
LINE
  8
0
 62
     0
 10
6.94394
 20
107.2
 30
0.0
 11
6.93568
 21
107.4
 31
0.0
  0
LINE
  8
0
 62
     0
 10
6.93568
 20
107.4
 30
0.0
 11
6.91226
 21
107.599
 31
0.0
  0
LINE
  8
0
 62
     0
 10
6.91226
 20
107.599
 30
0.0
 11
6.87366
 21
107.794
 31
0.0
  0
LINE
  8
0
 62
     0
 10
6.87366
 20
107.794
 30
0.0
 11
6.81852
 21
107.987
 31
0.0
  0
LINE
  8
0
 62
     0
 10
6.81852
 20
107.987
 30
0.0
 11
6.74963
 21
108.176
 31
0.0
  0
LINE
  8
0
 62
     0
 10
6.74963
 20
108.176
 30
0.0
 11
6.66556
 21
108.358
 31
0.0
  0
LINE
  8
0
 62
     0
 10
6.66556
 20
108.358
 30
0.0
 11
6.56773
 21
108.531
 31
0.0
  0
LINE
  8
0
 62
     0
 10
6.56773
 20
108.531
 30
0.0
 11
6.45612
 21
108.698
 31
0.0
  0
LINE
  8
0
 62
     0
 10
6.45612
 20
108.698
 30
0.0
 11
6.33208
 21
108.855
 31
0.0
  0
LINE
  8
0
 62
     0
 10
6.33208
 20
108.855
 30
0.0
 11
6.19704
 21
109.003
 31
0.0
  0
LINE
  8
0
 62
     0
 10
6.19704
 20
109.003
 30
0.0
 11
6.04957
 21
109.139
 31
0.0
  0
LINE
  8
0
 62
     0
 10
6.04957
 20
109.139
 30
0.0
 11
5.89248
 21
109.263
 31
0.0
  0
LINE
  8
0
 62
     0
 10
5.89248
 20
109.263
 30
0.0
 11
5.72576
 21
109.373
 31
0.0
  0
LINE
  8
0
 62
     0
 10
5.72576
 20
109.373
 30
0.0
 11
5.55212
 21
109.472
 31
0.0
  0
LINE
  8
0
 62
     0
 10
5.55212
 20
109.472
 30
0.0
 11
5.37023
 21
109.555
 31
0.0
  0
LINE
  8
0
 62
     0
 10
5.37023
 20
109.555
 30
0.0
 11
5.18142
 21
109.624
 31
0.0
  0
LINE
  8
0
 62
     0
 10
5.18142
 20
109.624
 30
0.0
 11
4.98849
 21
109.679
 31
0.0
  0
LINE
  8
0
 62
     0
 10
4.98849
 20
109.679
 30
0.0
 11
4.7928
 21
109.72
 31
0.0
  0
LINE
  8
0
 62
     0
 10
4.7928
 20
109.72
 30
0.0
 11
4.59437
 21
109.741
 31
0.0
  0
LINE
  8
0
 62
     0
 10
4.59437
 20
109.741
 30
0.0
 11
4.39318
 21
109.75
 31
0.0
  0
LINE
  8
0
 62
     0
 10
4.39318
 20
109.75
 30
0.0
 11
4.19336
 21
109.741
 31
0.0
  0
LINE
  8
0
 62
     0
 10
259.396
 20
109.741
 30
0.0
 11
259.196
 21
109.72
 31
0.0
  0
LINE
  8
0
 62
     0
 10
259.196
 20
109.72
 30
0.0
 11
259.001
 21
109.679
 31
0.0
  0
LINE
  8
0
 62
     0
 10
259.001
 20
109.679
 30
0.0
 11
258.808
 21
109.624
 31
0.0
  0
LINE
  8
0
 62
     0
 10
258.808
 20
109.624
 30
0.0
 11
258.619
 21
109.555
 31
0.0
  0
LINE
  8
0
 62
     0
 10
258.619
 20
109.555
 30
0.0
 11
258.437
 21
109.472
 31
0.0
  0
LINE
  8
0
 62
     0
 10
258.437
 20
109.472
 30
0.0
 11
258.264
 21
109.373
 31
0.0
  0
LINE
  8
0
 62
     0
 10
258.264
 20
109.373
 30
0.0
 11
258.097
 21
109.263
 31
0.0
  0
LINE
  8
0
 62
     0
 10
258.097
 20
109.263
 30
0.0
 11
257.94
 21
109.139
 31
0.0
  0
LINE
  8
0
 62
     0
 10
257.94
 20
109.139
 30
0.0
 11
257.792
 21
109.003
 31
0.0
  0
LINE
  8
0
 62
     0
 10
257.792
 20
109.003
 30
0.0
 11
257.657
 21
108.855
 31
0.0
  0
LINE
  8
0
 62
     0
 10
257.657
 20
108.855
 30
0.0
 11
257.533
 21
108.698
 31
0.0
  0
LINE
  8
0
 62
     0
 10
257.533
 20
108.698
 30
0.0
 11
257.422
 21
108.531
 31
0.0
  0
LINE
  8
0
 62
     0
 10
257.422
 20
108.531
 30
0.0
 11
257.324
 21
108.358
 31
0.0
  0
LINE
  8
0
 62
     0
 10
257.324
 20
108.358
 30
0.0
 11
257.24
 21
108.176
 31
0.0
  0
LINE
  8
0
 62
     0
 10
257.24
 20
108.176
 30
0.0
 11
257.171
 21
107.987
 31
0.0
  0
LINE
  8
0
 62
     0
 10
257.171
 20
107.987
 30
0.0
 11
257.116
 21
107.794
 31
0.0
  0
LINE
  8
0
 62
     0
 10
257.116
 20
107.794
 30
0.0
 11
257.077
 21
107.599
 31
0.0
  0
LINE
  8
0
 62
     0
 10
257.077
 20
107.599
 30
0.0
 11
257.054
 21
107.4
 31
0.0
  0
LINE
  8
0
 62
     0
 10
257.054
 20
107.4
 30
0.0
 11
257.046
 21
107.2
 31
0.0
  0
LINE
  8
0
 62
     0
 10
257.046
 20
107.2
 30
0.0
 11
257.054
 21
106.999
 31
0.0
  0
LINE
  8
0
 62
     0
 10
257.054
 20
106.999
 30
0.0
 11
257.077
 21
106.801
 31
0.0
  0
LINE
  8
0
 62
     0
 10
257.077
 20
106.801
 30
0.0
 11
257.116
 21
106.605
 31
0.0
  0
LINE
  8
0
 62
     0
 10
257.116
 20
106.605
 30
0.0
 11
257.171
 21
106.412
 31
0.0
  0
LINE
  8
0
 62
     0
 10
257.171
 20
106.412
 30
0.0
 11
257.24
 21
106.223
 31
0.0
  0
LINE
  8
0
 62
     0
 10
257.24
 20
106.223
 30
0.0
 11
257.324
 21
106.041
 31
0.0
  0
LINE
  8
0
 62
     0
 10
257.324
 20
106.041
 30
0.0
 11
257.422
 21
105.868
 31
0.0
  0
LINE
  8
0
 62
     0
 10
257.422
 20
105.868
 30
0.0
 11
257.533
 21
105.701
 31
0.0
  0
LINE
  8
0
 62
     0
 10
257.533
 20
105.701
 30
0.0
 11
257.657
 21
105.544
 31
0.0
  0
LINE
  8
0
 62
     0
 10
257.657
 20
105.544
 30
0.0
 11
257.792
 21
105.397
 31
0.0
  0
LINE
  8
0
 62
     0
 10
257.792
 20
105.397
 30
0.0
 11
257.94
 21
105.261
 31
0.0
  0
LINE
  8
0
 62
     0
 10
257.94
 20
105.261
 30
0.0
 11
258.097
 21
105.137
 31
0.0
  0
LINE
  8
0
 62
     0
 10
258.097
 20
105.137
 30
0.0
 11
258.264
 21
105.026
 31
0.0
  0
LINE
  8
0
 62
     0
 10
258.264
 20
105.026
 30
0.0
 11
258.437
 21
104.928
 31
0.0
  0
LINE
  8
0
 62
     0
 10
258.437
 20
104.928
 30
0.0
 11
258.619
 21
104.844
 31
0.0
  0
LINE
  8
0
 62
     0
 10
258.619
 20
104.844
 30
0.0
 11
258.808
 21
104.775
 31
0.0
  0
LINE
  8
0
 62
     0
 10
258.808
 20
104.775
 30
0.0
 11
259.001
 21
104.72
 31
0.0
  0
LINE
  8
0
 62
     0
 10
259.001
 20
104.72
 30
0.0
 11
259.196
 21
104.681
 31
0.0
  0
LINE
  8
0
 62
     0
 10
259.196
 20
104.681
 30
0.0
 11
259.396
 21
104.658
 31
0.0
  0
LINE
  8
0
 62
     0
 10
259.396
 20
104.658
 30
0.0
 11
259.596
 21
104.65
 31
0.0
  0
LINE
  8
0
 62
     0
 10
259.596
 20
104.65
 30
0.0
 11
259.796
 21
104.658
 31
0.0
  0
LINE
  8
0
 62
     0
 10
259.796
 20
104.658
 30
0.0
 11
259.994
 21
104.681
 31
0.0
  0
LINE
  8
0
 62
     0
 10
259.994
 20
104.681
 30
0.0
 11
260.19
 21
104.72
 31
0.0
  0
LINE
  8
0
 62
     0
 10
260.19
 20
104.72
 30
0.0
 11
260.383
 21
104.775
 31
0.0
  0
LINE
  8
0
 62
     0
 10
260.383
 20
104.775
 30
0.0
 11
260.572
 21
104.844
 31
0.0
  0
LINE
  8
0
 62
     0
 10
260.572
 20
104.844
 30
0.0
 11
260.754
 21
104.928
 31
0.0
  0
LINE
  8
0
 62
     0
 10
260.754
 20
104.928
 30
0.0
 11
260.928
 21
105.026
 31
0.0
  0
LINE
  8
0
 62
     0
 10
260.928
 20
105.026
 30
0.0
 11
261.094
 21
105.137
 31
0.0
  0
LINE
  8
0
 62
     0
 10
261.094
 20
105.137
 30
0.0
 11
261.251
 21
105.261
 31
0.0
  0
LINE
  8
0
 62
     0
 10
261.251
 20
105.261
 30
0.0
 11
261.399
 21
105.397
 31
0.0
  0
LINE
  8
0
 62
     0
 10
261.399
 20
105.397
 30
0.0
 11
261.535
 21
105.544
 31
0.0
  0
LINE
  8
0
 62
     0
 10
261.535
 20
105.544
 30
0.0
 11
261.659
 21
105.701
 31
0.0
  0
LINE
  8
0
 62
     0
 10
261.659
 20
105.701
 30
0.0
 11
261.769
 21
105.868
 31
0.0
  0
LINE
  8
0
 62
     0
 10
261.769
 20
105.868
 30
0.0
 11
261.867
 21
106.041
 31
0.0
  0
LINE
  8
0
 62
     0
 10
261.867
 20
106.041
 30
0.0
 11
261.951
 21
106.223
 31
0.0
  0
LINE
  8
0
 62
     0
 10
261.951
 20
106.223
 30
0.0
 11
262.02
 21
106.412
 31
0.0
  0
LINE
  8
0
 62
     0
 10
262.02
 20
106.412
 30
0.0
 11
262.075
 21
106.605
 31
0.0
  0
LINE
  8
0
 62
     0
 10
262.075
 20
106.605
 30
0.0
 11
262.115
 21
106.801
 31
0.0
  0
LINE
  8
0
 62
     0
 10
262.115
 20
106.801
 30
0.0
 11
262.137
 21
106.999
 31
0.0
  0
LINE
  8
0
 62
     0
 10
262.137
 20
106.999
 30
0.0
 11
262.146
 21
107.2
 31
0.0
  0
LINE
  8
0
 62
     0
 10
262.146
 20
107.2
 30
0.0
 11
262.137
 21
107.4
 31
0.0
  0
LINE
  8
0
 62
     0
 10
262.137
 20
107.4
 30
0.0
 11
262.115
 21
107.599
 31
0.0
  0
LINE
  8
0
 62
     0
 10
262.115
 20
107.599
 30
0.0
 11
262.075
 21
107.794
 31
0.0
  0
LINE
  8
0
 62
     0
 10
262.075
 20
107.794
 30
0.0
 11
262.02
 21
107.987
 31
0.0
  0
LINE
  8
0
 62
     0
 10
262.02
 20
107.987
 30
0.0
 11
261.951
 21
108.176
 31
0.0
  0
LINE
  8
0
 62
     0
 10
261.951
 20
108.176
 30
0.0
 11
261.867
 21
108.358
 31
0.0
  0
LINE
  8
0
 62
     0
 10
261.867
 20
108.358
 30
0.0
 11
261.769
 21
108.531
 31
0.0
  0
LINE
  8
0
 62
     0
 10
261.769
 20
108.531
 30
0.0
 11
261.659
 21
108.698
 31
0.0
  0
LINE
  8
0
 62
     0
 10
261.659
 20
108.698
 30
0.0
 11
261.535
 21
108.855
 31
0.0
  0
LINE
  8
0
 62
     0
 10
261.535
 20
108.855
 30
0.0
 11
261.399
 21
109.003
 31
0.0
  0
LINE
  8
0
 62
     0
 10
261.399
 20
109.003
 30
0.0
 11
261.251
 21
109.139
 31
0.0
  0
LINE
  8
0
 62
     0
 10
261.251
 20
109.139
 30
0.0
 11
261.094
 21
109.263
 31
0.0
  0
LINE
  8
0
 62
     0
 10
261.094
 20
109.263
 30
0.0
 11
260.928
 21
109.373
 31
0.0
  0
LINE
  8
0
 62
     0
 10
260.928
 20
109.373
 30
0.0
 11
260.754
 21
109.472
 31
0.0
  0
LINE
  8
0
 62
     0
 10
260.754
 20
109.472
 30
0.0
 11
260.572
 21
109.555
 31
0.0
  0
LINE
  8
0
 62
     0
 10
260.572
 20
109.555
 30
0.0
 11
260.383
 21
109.624
 31
0.0
  0
LINE
  8
0
 62
     0
 10
260.383
 20
109.624
 30
0.0
 11
260.19
 21
109.679
 31
0.0
  0
LINE
  8
0
 62
     0
 10
260.19
 20
109.679
 30
0.0
 11
259.994
 21
109.72
 31
0.0
  0
LINE
  8
0
 62
     0
 10
259.994
 20
109.72
 30
0.0
 11
259.796
 21
109.741
 31
0.0
  0
LINE
  8
0
 62
     0
 10
259.796
 20
109.741
 30
0.0
 11
259.596
 21
109.75
 31
0.0
  0
LINE
  8
0
 62
     0
 10
259.596
 20
109.75
 30
0.0
 11
259.396
 21
109.741
 31
0.0
  0
ENDSEC
  0
EOF
