  0
SECTION
  2
HEADER
  9
$ACADVER
  1
AC1009
  9
$EXTMIN
 10
0.0
 20
0.0
 30
0.0
  9
$EXTMAX
 10
1000.0
 20
1000.0
 30
0.0
  9
$FILLMODE
 70
 0
  9
$SPLFRAME
 70
 1
  0
ENDSEC
  0
SECTION
  2
TABLES
  0
TABLE
  2
LAYER
 70
1
  0
LAYER
  2
0
 70
     0
 62
     7
  6
CONTINUOUS
  0
ENDTAB
  0
ENDSEC
  0
SECTION
  2
ENTITIES
  0
LINE
  8
0
 62
     0
 10
18.2204
 20
111.5
 30
0.0
 11
21.576
 21
103.35
 31
0.0
  0
LINE
  8
0
 62
     0
 10
21.576
 20
103.35
 30
0.0
 11
8.2448
 21
103.35
 31
0.0
  0
LINE
  8
0
 62
     0
 10
8.2448
 20
103.35
 30
0.0
 11
8.2448
 21
8.24756
 31
0.0
  0
LINE
  8
0
 62
     0
 10
8.2448
 20
8.24756
 30
0.0
 11
255.746
 21
8.24756
 31
0.0
  0
LINE
  8
0
 62
     0
 10
255.746
 20
8.24756
 30
0.0
 11
255.746
 21
103.35
 31
0.0
  0
LINE
  8
0
 62
     0
 10
255.746
 20
103.35
 30
0.0
 11
32.8635
 21
103.35
 31
0.0
  0
LINE
  8
0
 62
     0
 10
32.8635
 20
103.35
 30
0.0
 11
36.2204
 21
111.5
 31
0.0
  0
LINE
  8
0
 62
     0
 10
36.2204
 20
111.5
 30
0.0
 11
259.895
 21
111.499
 31
0.0
  0
LINE
  8
0
 62
     0
 10
259.895
 20
111.499
 30
0.0
 11
260.208
 21
111.487
 31
0.0
  0
LINE
  8
0
 62
     0
 10
260.208
 20
111.487
 30
0.0
 11
260.521
 21
111.45
 31
0.0
  0
LINE
  8
0
 62
     0
 10
260.521
 20
111.45
 30
0.0
 11
260.828
 21
111.388
 31
0.0
  0
LINE
  8
0
 62
     0
 10
260.828
 20
111.388
 30
0.0
 11
261.131
 21
111.304
 31
0.0
  0
LINE
  8
0
 62
     0
 10
261.131
 20
111.304
 30
0.0
 11
261.426
 21
111.195
 31
0.0
  0
LINE
  8
0
 62
     0
 10
261.426
 20
111.195
 30
0.0
 11
261.71
 21
111.064
 31
0.0
  0
LINE
  8
0
 62
     0
 10
261.71
 20
111.064
 30
0.0
 11
261.984
 21
110.91
 31
0.0
  0
LINE
  8
0
 62
     0
 10
261.984
 20
110.91
 30
0.0
 11
262.246
 21
110.736
 31
0.0
  0
LINE
  8
0
 62
     0
 10
262.246
 20
110.736
 30
0.0
 11
262.493
 21
110.541
 31
0.0
  0
LINE
  8
0
 62
     0
 10
262.493
 20
110.541
 30
0.0
 11
262.724
 21
110.327
 31
0.0
  0
LINE
  8
0
 62
     0
 10
262.724
 20
110.327
 30
0.0
 11
262.937
 21
110.097
 31
0.0
  0
LINE
  8
0
 62
     0
 10
262.937
 20
110.097
 30
0.0
 11
263.132
 21
109.85
 31
0.0
  0
LINE
  8
0
 62
     0
 10
263.132
 20
109.85
 30
0.0
 11
263.306
 21
109.589
 31
0.0
  0
LINE
  8
0
 62
     0
 10
263.306
 20
109.589
 30
0.0
 11
263.46
 21
109.314
 31
0.0
  0
LINE
  8
0
 62
     0
 10
263.46
 20
109.314
 30
0.0
 11
263.591
 21
109.031
 31
0.0
  0
LINE
  8
0
 62
     0
 10
263.591
 20
109.031
 30
0.0
 11
263.7
 21
108.736
 31
0.0
  0
LINE
  8
0
 62
     0
 10
263.7
 20
108.736
 30
0.0
 11
263.784
 21
108.432
 31
0.0
  0
LINE
  8
0
 62
     0
 10
263.784
 20
108.432
 30
0.0
 11
263.846
 21
108.125
 31
0.0
  0
LINE
  8
0
 62
     0
 10
263.846
 20
108.125
 30
0.0
 11
263.883
 21
107.812
 31
0.0
  0
LINE
  8
0
 62
     0
 10
263.883
 20
107.812
 30
0.0
 11
263.896
 21
107.5
 31
0.0
  0
LINE
  8
0
 62
     0
 10
263.896
 20
107.5
 30
0.0
 11
263.896
 21
4.09829
 31
0.0
  0
LINE
  8
0
 62
     0
 10
263.896
 20
4.09829
 30
0.0
 11
263.883
 21
3.78548
 31
0.0
  0
LINE
  8
0
 62
     0
 10
263.883
 20
3.78548
 30
0.0
 11
263.846
 21
3.47266
 31
0.0
  0
LINE
  8
0
 62
     0
 10
263.846
 20
3.47266
 30
0.0
 11
263.784
 21
3.16536
 31
0.0
  0
LINE
  8
0
 62
     0
 10
263.784
 20
3.16536
 30
0.0
 11
263.7
 21
2.86219
 31
0.0
  0
LINE
  8
0
 62
     0
 10
263.7
 20
2.86219
 30
0.0
 11
263.591
 21
2.56728
 31
0.0
  0
LINE
  8
0
 62
     0
 10
263.591
 20
2.56728
 30
0.0
 11
263.46
 21
2.28341
 31
0.0
  0
LINE
  8
0
 62
     0
 10
263.46
 20
2.28341
 30
0.0
 11
263.306
 21
2.00918
 31
0.0
  0
LINE
  8
0
 62
     0
 10
263.306
 20
2.00918
 30
0.0
 11
263.132
 21
1.74735
 31
0.0
  0
LINE
  8
0
 62
     0
 10
263.132
 20
1.74735
 30
0.0
 11
262.937
 21
1.50068
 31
0.0
  0
LINE
  8
0
 62
     0
 10
262.937
 20
1.50068
 30
0.0
 11
262.724
 21
1.26917
 31
0.0
  0
LINE
  8
0
 62
     0
 10
262.724
 20
1.26917
 30
0.0
 11
262.493
 21
1.05695
 31
0.0
  0
LINE
  8
0
 62
     0
 10
262.493
 20
1.05695
 30
0.0
 11
262.246
 21
0.861275
 31
0.0
  0
LINE
  8
0
 62
     0
 10
262.246
 20
0.861275
 30
0.0
 11
261.984
 21
0.687641
 31
0.0
  0
LINE
  8
0
 62
     0
 10
261.984
 20
0.687641
 30
0.0
 11
261.71
 21
0.533301
 31
0.0
  0
LINE
  8
0
 62
     0
 10
261.71
 20
0.533301
 30
0.0
 11
261.426
 21
0.402389
 31
0.0
  0
LINE
  8
0
 62
     0
 10
261.426
 20
0.402389
 30
0.0
 11
261.131
 21
0.293522
 31
0.0
  0
LINE
  8
0
 62
     0
 10
261.131
 20
0.293522
 30
0.0
 11
260.828
 21
0.209462
 31
0.0
  0
LINE
  8
0
 62
     0
 10
260.828
 20
0.209462
 30
0.0
 11
260.521
 21
0.14745
 31
0.0
  0
LINE
  8
0
 62
     0
 10
260.521
 20
0.14745
 30
0.0
 11
260.208
 21
0.110243
 31
0.0
  0
LINE
  8
0
 62
     0
 10
260.208
 20
0.110243
 30
0.0
 11
259.895
 21
0.0978408
 31
0.0
  0
LINE
  8
0
 62
     0
 10
259.895
 20
0.0978408
 30
0.0
 11
4.09416
 21
0.0978408
 31
0.0
  0
LINE
  8
0
 62
     0
 10
4.09416
 20
0.0978408
 30
0.0
 11
3.78135
 21
0.110243
 31
0.0
  0
LINE
  8
0
 62
     0
 10
3.78135
 20
0.110243
 30
0.0
 11
3.46852
 21
0.14745
 31
0.0
  0
LINE
  8
0
 62
     0
 10
3.46852
 20
0.14745
 30
0.0
 11
3.16122
 21
0.209462
 31
0.0
  0
LINE
  8
0
 62
     0
 10
3.16122
 20
0.209462
 30
0.0
 11
2.85805
 21
0.293522
 31
0.0
  0
LINE
  8
0
 62
     0
 10
2.85805
 20
0.293522
 30
0.0
 11
2.56315
 21
0.402389
 31
0.0
  0
LINE
  8
0
 62
     0
 10
2.56315
 20
0.402389
 30
0.0
 11
2.27928
 21
0.533301
 31
0.0
  0
LINE
  8
0
 62
     0
 10
2.27928
 20
0.533301
 30
0.0
 11
2.00504
 21
0.687641
 31
0.0
  0
LINE
  8
0
 62
     0
 10
2.00504
 20
0.687641
 30
0.0
 11
1.74322
 21
0.861275
 31
0.0
  0
LINE
  8
0
 62
     0
 10
1.74322
 20
0.861275
 30
0.0
 11
1.49655
 21
1.05695
 31
0.0
  0
LINE
  8
0
 62
     0
 10
1.49655
 20
1.05695
 30
0.0
 11
1.26642
 21
1.26917
 31
0.0
  0
LINE
  8
0
 62
     0
 10
1.26642
 20
1.26917
 30
0.0
 11
1.05282
 21
1.50068
 31
0.0
  0
LINE
  8
0
 62
     0
 10
1.05282
 20
1.50068
 30
0.0
 11
0.857141
 21
1.74735
 31
0.0
  0
LINE
  8
0
 62
     0
 10
0.857141
 20
1.74735
 30
0.0
 11
0.683507
 21
2.00918
 31
0.0
  0
LINE
  8
0
 62
     0
 10
0.683507
 20
2.00918
 30
0.0
 11
0.529167
 21
2.28341
 31
0.0
  0
LINE
  8
0
 62
     0
 10
0.529167
 20
2.28341
 30
0.0
 11
0.398254
 21
2.56728
 31
0.0
  0
LINE
  8
0
 62
     0
 10
0.398254
 20
2.56728
 30
0.0
 11
0.289388
 21
2.86219
 31
0.0
  0
LINE
  8
0
 62
     0
 10
0.289388
 20
2.86219
 30
0.0
 11
0.205328
 21
3.16536
 31
0.0
  0
LINE
  8
0
 62
     0
 10
0.205328
 20
3.16536
 30
0.0
 11
0.143316
 21
3.47266
 31
0.0
  0
LINE
  8
0
 62
     0
 10
0.143316
 20
3.47266
 30
0.0
 11
0.106109
 21
3.78548
 31
0.0
  0
LINE
  8
0
 62
     0
 10
0.106109
 20
3.78548
 30
0.0
 11
0.0937066
 21
4.09829
 31
0.0
  0
LINE
  8
0
 62
     0
 10
0.0937066
 20
4.09829
 30
0.0
 11
0.0950846
 21
107.5
 31
0.0
  0
LINE
  8
0
 62
     0
 10
0.0950846
 20
107.5
 30
0.0
 11
0.106109
 21
107.812
 31
0.0
  0
LINE
  8
0
 62
     0
 10
0.106109
 20
107.812
 30
0.0
 11
0.143316
 21
108.125
 31
0.0
  0
LINE
  8
0
 62
     0
 10
0.143316
 20
108.125
 30
0.0
 11
0.205328
 21
108.432
 31
0.0
  0
LINE
  8
0
 62
     0
 10
0.205328
 20
108.432
 30
0.0
 11
0.289388
 21
108.736
 31
0.0
  0
LINE
  8
0
 62
     0
 10
0.289388
 20
108.736
 30
0.0
 11
0.398254
 21
109.031
 31
0.0
  0
LINE
  8
0
 62
     0
 10
0.398254
 20
109.031
 30
0.0
 11
0.529167
 21
109.314
 31
0.0
  0
LINE
  8
0
 62
     0
 10
0.529167
 20
109.314
 30
0.0
 11
0.683507
 21
109.589
 31
0.0
  0
LINE
  8
0
 62
     0
 10
0.683507
 20
109.589
 30
0.0
 11
0.857141
 21
109.85
 31
0.0
  0
LINE
  8
0
 62
     0
 10
0.857141
 20
109.85
 30
0.0
 11
1.05282
 21
110.097
 31
0.0
  0
LINE
  8
0
 62
     0
 10
1.05282
 20
110.097
 30
0.0
 11
1.26642
 21
110.327
 31
0.0
  0
LINE
  8
0
 62
     0
 10
1.26642
 20
110.327
 30
0.0
 11
1.49655
 21
110.541
 31
0.0
  0
LINE
  8
0
 62
     0
 10
1.49655
 20
110.541
 30
0.0
 11
1.74322
 21
110.736
 31
0.0
  0
LINE
  8
0
 62
     0
 10
1.74322
 20
110.736
 30
0.0
 11
2.00504
 21
110.91
 31
0.0
  0
LINE
  8
0
 62
     0
 10
2.00504
 20
110.91
 30
0.0
 11
2.27928
 21
111.064
 31
0.0
  0
LINE
  8
0
 62
     0
 10
2.27928
 20
111.064
 30
0.0
 11
2.56315
 21
111.195
 31
0.0
  0
LINE
  8
0
 62
     0
 10
2.56315
 20
111.195
 30
0.0
 11
2.85805
 21
111.304
 31
0.0
  0
LINE
  8
0
 62
     0
 10
2.85805
 20
111.304
 30
0.0
 11
3.16122
 21
111.388
 31
0.0
  0
LINE
  8
0
 62
     0
 10
3.16122
 20
111.388
 30
0.0
 11
3.46852
 21
111.45
 31
0.0
  0
LINE
  8
0
 62
     0
 10
3.46852
 20
111.45
 30
0.0
 11
3.78135
 21
111.487
 31
0.0
  0
LINE
  8
0
 62
     0
 10
3.78135
 20
111.487
 30
0.0
 11
4.09416
 21
111.5
 31
0.0
  0
LINE
  8
0
 62
     0
 10
4.09416
 20
111.5
 30
0.0
 11
18.2204
 21
111.5
 31
0.0
  0
LINE
  8
0
 62
     0
 10
259.365
 20
5.57555
 30
0.0
 11
258.954
 21
5.36744
 31
0.0
  0
LINE
  8
0
 62
     0
 10
258.954
 20
5.36744
 30
0.0
 11
258.626
 21
5.0395
 31
0.0
  0
LINE
  8
0
 62
     0
 10
258.626
 20
5.0395
 30
0.0
 11
258.418
 21
4.62883
 31
0.0
  0
LINE
  8
0
 62
     0
 10
258.418
 20
4.62883
 30
0.0
 11
258.346
 21
4.17269
 31
0.0
  0
LINE
  8
0
 62
     0
 10
258.346
 20
4.17269
 30
0.0
 11
258.418
 21
3.71796
 31
0.0
  0
LINE
  8
0
 62
     0
 10
258.418
 20
3.71796
 30
0.0
 11
258.626
 21
3.30729
 31
0.0
  0
LINE
  8
0
 62
     0
 10
258.626
 20
3.30729
 30
0.0
 11
258.954
 21
2.97932
 31
0.0
  0
LINE
  8
0
 62
     0
 10
258.954
 20
2.97932
 30
0.0
 11
259.365
 21
2.77124
 31
0.0
  0
LINE
  8
0
 62
     0
 10
259.365
 20
2.77124
 30
0.0
 11
259.821
 21
2.6982
 31
0.0
  0
LINE
  8
0
 62
     0
 10
259.821
 20
2.6982
 30
0.0
 11
260.276
 21
2.77124
 31
0.0
  0
LINE
  8
0
 62
     0
 10
260.276
 20
2.77124
 30
0.0
 11
260.686
 21
2.97932
 31
0.0
  0
LINE
  8
0
 62
     0
 10
260.686
 20
2.97932
 30
0.0
 11
261.014
 21
3.30729
 31
0.0
  0
LINE
  8
0
 62
     0
 10
261.014
 20
3.30729
 30
0.0
 11
261.222
 21
3.71796
 31
0.0
  0
LINE
  8
0
 62
     0
 10
261.222
 20
3.71796
 30
0.0
 11
261.295
 21
4.17269
 31
0.0
  0
LINE
  8
0
 62
     0
 10
261.295
 20
4.17269
 30
0.0
 11
261.222
 21
4.62883
 31
0.0
  0
LINE
  8
0
 62
     0
 10
261.222
 20
4.62883
 30
0.0
 11
261.014
 21
5.0395
 31
0.0
  0
LINE
  8
0
 62
     0
 10
261.014
 20
5.0395
 30
0.0
 11
260.686
 21
5.36744
 31
0.0
  0
LINE
  8
0
 62
     0
 10
260.686
 20
5.36744
 30
0.0
 11
260.276
 21
5.57555
 31
0.0
  0
LINE
  8
0
 62
     0
 10
260.276
 20
5.57555
 30
0.0
 11
259.821
 21
5.6472
 31
0.0
  0
LINE
  8
0
 62
     0
 10
259.821
 20
5.6472
 30
0.0
 11
259.365
 21
5.57555
 31
0.0
  0
LINE
  8
0
 62
     0
 10
174.148
 20
5.57555
 30
0.0
 11
173.736
 21
5.36744
 31
0.0
  0
LINE
  8
0
 62
     0
 10
173.736
 20
5.36744
 30
0.0
 11
173.41
 21
5.0395
 31
0.0
  0
LINE
  8
0
 62
     0
 10
173.41
 20
5.0395
 30
0.0
 11
173.2
 21
4.62883
 31
0.0
  0
LINE
  8
0
 62
     0
 10
173.2
 20
4.62883
 30
0.0
 11
173.129
 21
4.17269
 31
0.0
  0
LINE
  8
0
 62
     0
 10
173.129
 20
4.17269
 30
0.0
 11
173.2
 21
3.71796
 31
0.0
  0
LINE
  8
0
 62
     0
 10
173.2
 20
3.71796
 30
0.0
 11
173.41
 21
3.30729
 31
0.0
  0
LINE
  8
0
 62
     0
 10
173.41
 20
3.30729
 30
0.0
 11
173.736
 21
2.97932
 31
0.0
  0
LINE
  8
0
 62
     0
 10
173.736
 20
2.97932
 30
0.0
 11
174.148
 21
2.77124
 31
0.0
  0
LINE
  8
0
 62
     0
 10
174.148
 20
2.77124
 30
0.0
 11
174.604
 21
2.6982
 31
0.0
  0
LINE
  8
0
 62
     0
 10
174.604
 20
2.6982
 30
0.0
 11
175.059
 21
2.77124
 31
0.0
  0
LINE
  8
0
 62
     0
 10
175.059
 20
2.77124
 30
0.0
 11
175.47
 21
2.97932
 31
0.0
  0
LINE
  8
0
 62
     0
 10
175.47
 20
2.97932
 30
0.0
 11
175.796
 21
3.30729
 31
0.0
  0
LINE
  8
0
 62
     0
 10
175.796
 20
3.30729
 30
0.0
 11
176.006
 21
3.71796
 31
0.0
  0
LINE
  8
0
 62
     0
 10
176.006
 20
3.71796
 30
0.0
 11
176.079
 21
4.17269
 31
0.0
  0
LINE
  8
0
 62
     0
 10
176.079
 20
4.17269
 30
0.0
 11
176.006
 21
4.62883
 31
0.0
  0
LINE
  8
0
 62
     0
 10
176.006
 20
4.62883
 30
0.0
 11
175.796
 21
5.0395
 31
0.0
  0
LINE
  8
0
 62
     0
 10
175.796
 20
5.0395
 30
0.0
 11
175.47
 21
5.36744
 31
0.0
  0
LINE
  8
0
 62
     0
 10
175.47
 20
5.36744
 30
0.0
 11
175.059
 21
5.57555
 31
0.0
  0
LINE
  8
0
 62
     0
 10
175.059
 20
5.57555
 30
0.0
 11
174.604
 21
5.6472
 31
0.0
  0
LINE
  8
0
 62
     0
 10
174.604
 20
5.6472
 30
0.0
 11
174.148
 21
5.57555
 31
0.0
  0
LINE
  8
0
 62
     0
 10
88.9303
 20
5.57555
 30
0.0
 11
88.5197
 21
5.36744
 31
0.0
  0
LINE
  8
0
 62
     0
 10
88.5197
 20
5.36744
 30
0.0
 11
88.193
 21
5.0395
 31
0.0
  0
LINE
  8
0
 62
     0
 10
88.193
 20
5.0395
 30
0.0
 11
87.9835
 21
4.62883
 31
0.0
  0
LINE
  8
0
 62
     0
 10
87.9835
 20
4.62883
 30
0.0
 11
87.9119
 21
4.17269
 31
0.0
  0
LINE
  8
0
 62
     0
 10
87.9119
 20
4.17269
 30
0.0
 11
87.9835
 21
3.71796
 31
0.0
  0
LINE
  8
0
 62
     0
 10
87.9835
 20
3.71796
 30
0.0
 11
88.193
 21
3.30729
 31
0.0
  0
LINE
  8
0
 62
     0
 10
88.193
 20
3.30729
 30
0.0
 11
88.5197
 21
2.97932
 31
0.0
  0
LINE
  8
0
 62
     0
 10
88.5197
 20
2.97932
 30
0.0
 11
88.9303
 21
2.77124
 31
0.0
  0
LINE
  8
0
 62
     0
 10
88.9303
 20
2.77124
 30
0.0
 11
89.3865
 21
2.6982
 31
0.0
  0
LINE
  8
0
 62
     0
 10
89.3865
 20
2.6982
 30
0.0
 11
89.8412
 21
2.77124
 31
0.0
  0
LINE
  8
0
 62
     0
 10
89.8412
 20
2.77124
 30
0.0
 11
90.2533
 21
2.97932
 31
0.0
  0
LINE
  8
0
 62
     0
 10
90.2533
 20
2.97932
 30
0.0
 11
90.5799
 21
3.30729
 31
0.0
  0
LINE
  8
0
 62
     0
 10
90.5799
 20
3.30729
 30
0.0
 11
90.7891
 21
3.71796
 31
0.0
  0
LINE
  8
0
 62
     0
 10
90.7891
 20
3.71796
 30
0.0
 11
90.8625
 21
4.17269
 31
0.0
  0
LINE
  8
0
 62
     0
 10
90.8625
 20
4.17269
 30
0.0
 11
90.7891
 21
4.62883
 31
0.0
  0
LINE
  8
0
 62
     0
 10
90.7891
 20
4.62883
 30
0.0
 11
90.5799
 21
5.0395
 31
0.0
  0
LINE
  8
0
 62
     0
 10
90.5799
 20
5.0395
 30
0.0
 11
90.2533
 21
5.36744
 31
0.0
  0
LINE
  8
0
 62
     0
 10
90.2533
 20
5.36744
 30
0.0
 11
89.8412
 21
5.57555
 31
0.0
  0
LINE
  8
0
 62
     0
 10
89.8412
 20
5.57555
 30
0.0
 11
89.3865
 21
5.6472
 31
0.0
  0
LINE
  8
0
 62
     0
 10
89.3865
 20
5.6472
 30
0.0
 11
88.9303
 21
5.57555
 31
0.0
  0
LINE
  8
0
 62
     0
 10
3.7138
 20
5.57555
 30
0.0
 11
3.30316
 21
5.36744
 31
0.0
  0
LINE
  8
0
 62
     0
 10
3.30316
 20
5.36744
 30
0.0
 11
2.97518
 21
5.0395
 31
0.0
  0
LINE
  8
0
 62
     0
 10
2.97518
 20
5.0395
 30
0.0
 11
2.7671
 21
4.62883
 31
0.0
  0
LINE
  8
0
 62
     0
 10
2.7671
 20
4.62883
 30
0.0
 11
2.69407
 21
4.17269
 31
0.0
  0
LINE
  8
0
 62
     0
 10
2.69407
 20
4.17269
 30
0.0
 11
2.7671
 21
3.71796
 31
0.0
  0
LINE
  8
0
 62
     0
 10
2.7671
 20
3.71796
 30
0.0
 11
2.97518
 21
3.30729
 31
0.0
  0
LINE
  8
0
 62
     0
 10
2.97518
 20
3.30729
 30
0.0
 11
3.30316
 21
2.97932
 31
0.0
  0
LINE
  8
0
 62
     0
 10
3.30316
 20
2.97932
 30
0.0
 11
3.7138
 21
2.77124
 31
0.0
  0
LINE
  8
0
 62
     0
 10
3.7138
 20
2.77124
 30
0.0
 11
4.16994
 21
2.6982
 31
0.0
  0
LINE
  8
0
 62
     0
 10
4.16994
 20
2.6982
 30
0.0
 11
4.6247
 21
2.77124
 31
0.0
  0
LINE
  8
0
 62
     0
 10
4.6247
 20
2.77124
 30
0.0
 11
5.03534
 21
2.97932
 31
0.0
  0
LINE
  8
0
 62
     0
 10
5.03534
 20
2.97932
 30
0.0
 11
5.36332
 21
3.30729
 31
0.0
  0
LINE
  8
0
 62
     0
 10
5.36332
 20
3.30729
 30
0.0
 11
5.57142
 21
3.71796
 31
0.0
  0
LINE
  8
0
 62
     0
 10
5.57142
 20
3.71796
 30
0.0
 11
5.64444
 21
4.17269
 31
0.0
  0
LINE
  8
0
 62
     0
 10
5.64444
 20
4.17269
 30
0.0
 11
5.57142
 21
4.62883
 31
0.0
  0
LINE
  8
0
 62
     0
 10
5.57142
 20
4.62883
 30
0.0
 11
5.36332
 21
5.0395
 31
0.0
  0
LINE
  8
0
 62
     0
 10
5.36332
 20
5.0395
 30
0.0
 11
5.03534
 21
5.36744
 31
0.0
  0
LINE
  8
0
 62
     0
 10
5.03534
 20
5.36744
 30
0.0
 11
4.6247
 21
5.57555
 31
0.0
  0
LINE
  8
0
 62
     0
 10
4.6247
 20
5.57555
 30
0.0
 11
4.16994
 21
5.6472
 31
0.0
  0
LINE
  8
0
 62
     0
 10
4.16994
 20
5.6472
 30
0.0
 11
3.7138
 21
5.57555
 31
0.0
  0
LINE
  8
0
 62
     0
 10
88.9303
 20
108.826
 30
0.0
 11
88.5197
 21
108.619
 31
0.0
  0
LINE
  8
0
 62
     0
 10
88.5197
 20
108.619
 30
0.0
 11
88.193
 21
108.29
 31
0.0
  0
LINE
  8
0
 62
     0
 10
88.193
 20
108.29
 30
0.0
 11
87.9835
 21
107.88
 31
0.0
  0
LINE
  8
0
 62
     0
 10
87.9835
 20
107.88
 30
0.0
 11
87.9119
 21
107.424
 31
0.0
  0
LINE
  8
0
 62
     0
 10
87.9119
 20
107.424
 30
0.0
 11
87.9835
 21
106.969
 31
0.0
  0
LINE
  8
0
 62
     0
 10
87.9835
 20
106.969
 30
0.0
 11
88.193
 21
106.558
 31
0.0
  0
LINE
  8
0
 62
     0
 10
88.193
 20
106.558
 30
0.0
 11
88.5197
 21
106.23
 31
0.0
  0
LINE
  8
0
 62
     0
 10
88.5197
 20
106.23
 30
0.0
 11
88.9303
 21
106.022
 31
0.0
  0
LINE
  8
0
 62
     0
 10
88.9303
 20
106.022
 30
0.0
 11
89.3865
 21
105.949
 31
0.0
  0
LINE
  8
0
 62
     0
 10
89.3865
 20
105.949
 30
0.0
 11
89.8412
 21
106.022
 31
0.0
  0
LINE
  8
0
 62
     0
 10
89.8412
 20
106.022
 30
0.0
 11
90.2533
 21
106.23
 31
0.0
  0
LINE
  8
0
 62
     0
 10
90.2533
 20
106.23
 30
0.0
 11
90.5799
 21
106.558
 31
0.0
  0
LINE
  8
0
 62
     0
 10
90.5799
 20
106.558
 30
0.0
 11
90.7891
 21
106.969
 31
0.0
  0
LINE
  8
0
 62
     0
 10
90.7891
 20
106.969
 30
0.0
 11
90.8625
 21
107.424
 31
0.0
  0
LINE
  8
0
 62
     0
 10
90.8625
 20
107.424
 30
0.0
 11
90.7891
 21
107.88
 31
0.0
  0
LINE
  8
0
 62
     0
 10
90.7891
 20
107.88
 30
0.0
 11
90.5799
 21
108.29
 31
0.0
  0
LINE
  8
0
 62
     0
 10
90.5799
 20
108.29
 30
0.0
 11
90.2533
 21
108.619
 31
0.0
  0
LINE
  8
0
 62
     0
 10
90.2533
 20
108.619
 30
0.0
 11
89.8412
 21
108.826
 31
0.0
  0
LINE
  8
0
 62
     0
 10
89.8412
 20
108.826
 30
0.0
 11
89.3865
 21
108.899
 31
0.0
  0
LINE
  8
0
 62
     0
 10
89.3865
 20
108.899
 30
0.0
 11
88.9303
 21
108.826
 31
0.0
  0
LINE
  8
0
 62
     0
 10
174.148
 20
108.826
 30
0.0
 11
173.736
 21
108.619
 31
0.0
  0
LINE
  8
0
 62
     0
 10
173.736
 20
108.619
 30
0.0
 11
173.41
 21
108.29
 31
0.0
  0
LINE
  8
0
 62
     0
 10
173.41
 20
108.29
 30
0.0
 11
173.2
 21
107.88
 31
0.0
  0
LINE
  8
0
 62
     0
 10
173.2
 20
107.88
 30
0.0
 11
173.129
 21
107.424
 31
0.0
  0
LINE
  8
0
 62
     0
 10
173.129
 20
107.424
 30
0.0
 11
173.2
 21
106.969
 31
0.0
  0
LINE
  8
0
 62
     0
 10
173.2
 20
106.969
 30
0.0
 11
173.41
 21
106.558
 31
0.0
  0
LINE
  8
0
 62
     0
 10
173.41
 20
106.558
 30
0.0
 11
173.736
 21
106.23
 31
0.0
  0
LINE
  8
0
 62
     0
 10
173.736
 20
106.23
 30
0.0
 11
174.148
 21
106.022
 31
0.0
  0
LINE
  8
0
 62
     0
 10
174.148
 20
106.022
 30
0.0
 11
174.604
 21
105.949
 31
0.0
  0
LINE
  8
0
 62
     0
 10
174.604
 20
105.949
 30
0.0
 11
175.059
 21
106.022
 31
0.0
  0
LINE
  8
0
 62
     0
 10
175.059
 20
106.022
 30
0.0
 11
175.47
 21
106.23
 31
0.0
  0
LINE
  8
0
 62
     0
 10
175.47
 20
106.23
 30
0.0
 11
175.796
 21
106.558
 31
0.0
  0
LINE
  8
0
 62
     0
 10
175.796
 20
106.558
 30
0.0
 11
176.006
 21
106.969
 31
0.0
  0
LINE
  8
0
 62
     0
 10
176.006
 20
106.969
 30
0.0
 11
176.079
 21
107.424
 31
0.0
  0
LINE
  8
0
 62
     0
 10
176.079
 20
107.424
 30
0.0
 11
176.006
 21
107.88
 31
0.0
  0
LINE
  8
0
 62
     0
 10
176.006
 20
107.88
 30
0.0
 11
175.796
 21
108.29
 31
0.0
  0
LINE
  8
0
 62
     0
 10
175.796
 20
108.29
 30
0.0
 11
175.47
 21
108.619
 31
0.0
  0
LINE
  8
0
 62
     0
 10
175.47
 20
108.619
 30
0.0
 11
175.059
 21
108.826
 31
0.0
  0
LINE
  8
0
 62
     0
 10
175.059
 20
108.826
 30
0.0
 11
174.604
 21
108.899
 31
0.0
  0
LINE
  8
0
 62
     0
 10
174.604
 20
108.899
 30
0.0
 11
174.148
 21
108.826
 31
0.0
  0
LINE
  8
0
 62
     0
 10
259.365
 20
108.826
 30
0.0
 11
258.954
 21
108.619
 31
0.0
  0
LINE
  8
0
 62
     0
 10
258.954
 20
108.619
 30
0.0
 11
258.626
 21
108.29
 31
0.0
  0
LINE
  8
0
 62
     0
 10
258.626
 20
108.29
 30
0.0
 11
258.418
 21
107.88
 31
0.0
  0
LINE
  8
0
 62
     0
 10
258.418
 20
107.88
 30
0.0
 11
258.346
 21
107.424
 31
0.0
  0
LINE
  8
0
 62
     0
 10
258.346
 20
107.424
 30
0.0
 11
258.418
 21
106.969
 31
0.0
  0
LINE
  8
0
 62
     0
 10
258.418
 20
106.969
 30
0.0
 11
258.626
 21
106.558
 31
0.0
  0
LINE
  8
0
 62
     0
 10
258.626
 20
106.558
 30
0.0
 11
258.954
 21
106.23
 31
0.0
  0
LINE
  8
0
 62
     0
 10
258.954
 20
106.23
 30
0.0
 11
259.365
 21
106.022
 31
0.0
  0
LINE
  8
0
 62
     0
 10
259.365
 20
106.022
 30
0.0
 11
259.821
 21
105.949
 31
0.0
  0
LINE
  8
0
 62
     0
 10
259.821
 20
105.949
 30
0.0
 11
260.276
 21
106.022
 31
0.0
  0
LINE
  8
0
 62
     0
 10
260.276
 20
106.022
 30
0.0
 11
260.686
 21
106.23
 31
0.0
  0
LINE
  8
0
 62
     0
 10
260.686
 20
106.23
 30
0.0
 11
261.014
 21
106.558
 31
0.0
  0
LINE
  8
0
 62
     0
 10
261.014
 20
106.558
 30
0.0
 11
261.222
 21
106.969
 31
0.0
  0
LINE
  8
0
 62
     0
 10
261.222
 20
106.969
 30
0.0
 11
261.295
 21
107.424
 31
0.0
  0
LINE
  8
0
 62
     0
 10
261.295
 20
107.424
 30
0.0
 11
261.222
 21
107.88
 31
0.0
  0
LINE
  8
0
 62
     0
 10
261.222
 20
107.88
 30
0.0
 11
261.014
 21
108.29
 31
0.0
  0
LINE
  8
0
 62
     0
 10
261.014
 20
108.29
 30
0.0
 11
260.686
 21
108.619
 31
0.0
  0
LINE
  8
0
 62
     0
 10
260.686
 20
108.619
 30
0.0
 11
260.276
 21
108.826
 31
0.0
  0
LINE
  8
0
 62
     0
 10
260.276
 20
108.826
 30
0.0
 11
259.821
 21
108.899
 31
0.0
  0
LINE
  8
0
 62
     0
 10
259.821
 20
108.899
 30
0.0
 11
259.365
 21
108.826
 31
0.0
  0
LINE
  8
0
 62
     0
 10
3.7138
 20
108.826
 30
0.0
 11
3.30316
 21
108.619
 31
0.0
  0
LINE
  8
0
 62
     0
 10
3.30316
 20
108.619
 30
0.0
 11
2.97518
 21
108.29
 31
0.0
  0
LINE
  8
0
 62
     0
 10
2.97518
 20
108.29
 30
0.0
 11
2.7671
 21
107.88
 31
0.0
  0
LINE
  8
0
 62
     0
 10
2.7671
 20
107.88
 30
0.0
 11
2.69407
 21
107.424
 31
0.0
  0
LINE
  8
0
 62
     0
 10
2.69407
 20
107.424
 30
0.0
 11
2.7671
 21
106.969
 31
0.0
  0
LINE
  8
0
 62
     0
 10
2.7671
 20
106.969
 30
0.0
 11
2.97518
 21
106.558
 31
0.0
  0
LINE
  8
0
 62
     0
 10
2.97518
 20
106.558
 30
0.0
 11
3.30316
 21
106.23
 31
0.0
  0
LINE
  8
0
 62
     0
 10
3.30316
 20
106.23
 30
0.0
 11
3.7138
 21
106.022
 31
0.0
  0
LINE
  8
0
 62
     0
 10
3.7138
 20
106.022
 30
0.0
 11
4.16994
 21
105.949
 31
0.0
  0
LINE
  8
0
 62
     0
 10
4.16994
 20
105.949
 30
0.0
 11
4.6247
 21
106.022
 31
0.0
  0
LINE
  8
0
 62
     0
 10
4.6247
 20
106.022
 30
0.0
 11
5.03534
 21
106.23
 31
0.0
  0
LINE
  8
0
 62
     0
 10
5.03534
 20
106.23
 30
0.0
 11
5.36332
 21
106.558
 31
0.0
  0
LINE
  8
0
 62
     0
 10
5.36332
 20
106.558
 30
0.0
 11
5.57142
 21
106.969
 31
0.0
  0
LINE
  8
0
 62
     0
 10
5.57142
 20
106.969
 30
0.0
 11
5.64444
 21
107.424
 31
0.0
  0
LINE
  8
0
 62
     0
 10
5.64444
 20
107.424
 30
0.0
 11
5.57142
 21
107.88
 31
0.0
  0
LINE
  8
0
 62
     0
 10
5.57142
 20
107.88
 30
0.0
 11
5.36332
 21
108.29
 31
0.0
  0
LINE
  8
0
 62
     0
 10
5.36332
 20
108.29
 30
0.0
 11
5.03534
 21
108.619
 31
0.0
  0
LINE
  8
0
 62
     0
 10
5.03534
 20
108.619
 30
0.0
 11
4.6247
 21
108.826
 31
0.0
  0
LINE
  8
0
 62
     0
 10
4.6247
 20
108.826
 30
0.0
 11
4.16994
 21
108.899
 31
0.0
  0
LINE
  8
0
 62
     0
 10
4.16994
 20
108.899
 30
0.0
 11
3.7138
 21
108.826
 31
0.0
  0
ENDSEC
  0
EOF
