<?xml version="1.0"?>
<!-- Generated by SVGo -->
<svg width="273.802mm" height="121.402mm"
     viewBox="0.000 0.000 273.802 121.402"
     xmlns="http://www.w3.org/2000/svg" 
     xmlns:xlink="http://www.w3.org/1999/xlink">
<polygon points="23.126,5.000 26.057,11.700 38.195,11.700 41.126,5.000 264.802,5.001 265.115,5.013 265.427,5.050 265.735,5.111 266.038,5.196 266.332,5.305 266.617,5.436 266.891,5.590 267.153,5.764 267.399,5.959 267.630,6.172 267.843,6.403 268.038,6.649 268.212,6.911 268.366,7.185 268.497,7.470 268.606,7.764 268.691,8.067 268.752,8.375 268.789,8.687 268.802,9.001 268.802,112.402 268.789,112.715 268.752,113.027 268.691,113.335 268.606,113.638 268.497,113.932 268.366,114.217 268.212,114.491 268.038,114.753 267.843,114.999 267.630,115.230 267.399,115.443 267.153,115.638 266.891,115.812 266.617,115.966 266.332,116.097 266.038,116.206 265.735,116.291 265.427,116.352 265.115,116.389 264.802,116.402 9.001,116.402 8.687,116.389 8.375,116.352 8.067,116.291 7.764,116.206 7.470,116.097 7.185,115.966 6.911,115.812 6.649,115.638 6.403,115.443 6.172,115.230 5.959,114.999 5.764,114.753 5.590,114.491 5.436,114.217 5.305,113.932 5.196,113.638 5.111,113.335 5.050,113.027 5.013,112.715 5.000,112.401 5.001,9.001 5.013,8.687 5.050,8.375 5.111,8.067 5.196,7.764 5.305,7.470 5.436,7.185 5.590,6.911 5.764,6.649 5.959,6.403 6.172,6.172 6.403,5.959 6.649,5.764 6.911,5.590 7.185,5.436 7.470,5.305 7.764,5.196 8.067,5.111 8.375,5.050 8.687,5.013 9.001,5.000" style="fill:none;stroke-width:0.050000mm;stroke:black"/>
<polygon points="263.962,109.973 263.272,110.324 262.724,110.872 262.373,111.562 262.252,112.327 262.373,113.091 262.724,113.781 263.272,114.329 263.962,114.680 264.727,114.801 265.491,114.680 266.181,114.329 266.729,113.781 267.080,113.091 267.202,112.327 267.080,111.562 266.729,110.872 266.181,110.324 265.491,109.973 264.727,109.852" style="fill:none;stroke-width:0.050000mm;stroke:black"/>
<polygon points="178.745,109.973 178.055,110.324 177.507,110.872 177.156,111.562 177.035,112.327 177.156,113.091 177.507,113.781 178.055,114.329 178.745,114.680 179.510,114.801 180.274,114.680 180.964,114.329 181.512,113.781 181.863,113.091 181.985,112.327 181.863,111.562 181.512,110.872 180.964,110.324 180.274,109.973 179.510,109.852" style="fill:none;stroke-width:0.050000mm;stroke:black"/>
<polygon points="93.528,109.973 92.838,110.324 92.290,110.872 91.939,111.562 91.818,112.327 91.939,113.091 92.290,113.781 92.838,114.329 93.528,114.680 94.293,114.801 95.057,114.680 95.747,114.329 96.295,113.781 96.646,113.091 96.768,112.327 96.646,111.562 96.295,110.872 95.747,110.324 95.057,109.973 94.293,109.852" style="fill:none;stroke-width:0.050000mm;stroke:black"/>
<polygon points="8.311,109.973 7.621,110.324 7.073,110.872 6.722,111.562 6.601,112.327 6.722,113.091 7.073,113.781 7.621,114.329 8.311,114.680 9.076,114.801 9.840,114.680 10.530,114.329 11.078,113.781 11.429,113.091 11.551,112.327 11.429,111.562 11.078,110.872 10.530,110.324 9.840,109.973 9.076,109.852" style="fill:none;stroke-width:0.050000mm;stroke:black"/>
<polygon points="77.419,50.179 77.341,50.188 77.264,50.204 77.188,50.225 77.114,50.252 77.043,50.285 76.975,50.323 76.909,50.367 76.848,50.416 76.790,50.469 76.737,50.527 76.688,50.588 76.644,50.654 76.606,50.722 76.573,50.793 76.546,50.867 76.525,50.943 76.509,51.020 76.500,51.098 76.497,51.176 76.500,51.254 76.509,51.332 76.525,51.409 76.546,51.485 76.573,51.559 76.606,51.630 76.644,51.698 76.688,51.764 76.737,51.825 76.790,51.883 76.848,51.936 76.909,51.985 76.975,52.029 77.043,52.067 77.114,52.100 77.188,52.127 77.264,52.148 77.341,52.164 77.419,52.173 77.497,52.176 77.575,52.173 77.653,52.164 77.730,52.148 77.806,52.127 77.880,52.100 77.951,52.067 78.019,52.029 78.085,51.985 78.146,51.936 78.204,51.883 78.257,51.825 78.306,51.764 78.350,51.698 78.388,51.630 78.421,51.559 78.448,51.485 78.469,51.409 78.485,51.332 78.494,51.254 78.497,51.176 78.494,51.098 78.485,51.020 78.469,50.943 78.448,50.867 78.421,50.793 78.388,50.722 78.350,50.654 78.306,50.588 78.257,50.527 78.204,50.469 78.146,50.416 78.085,50.367 78.019,50.323 77.951,50.285 77.880,50.252 77.806,50.225 77.730,50.204 77.653,50.188 77.575,50.179 77.497,50.176" style="fill:none;stroke-width:0.050000mm;stroke:black"/>
<polygon points="93.528,6.722 92.838,7.073 92.290,7.621 91.939,8.311 91.818,9.076 91.939,9.840 92.290,10.530 92.838,11.078 93.528,11.429 94.293,11.551 95.057,11.429 95.747,11.078 96.295,10.530 96.646,9.840 96.768,9.076 96.646,8.311 96.295,7.621 95.747,7.073 95.057,6.722 94.293,6.601" style="fill:none;stroke-width:0.050000mm;stroke:black"/>
<polygon points="178.745,6.722 178.055,7.073 177.507,7.621 177.156,8.311 177.035,9.076 177.156,9.840 177.507,10.530 178.055,11.078 178.745,11.429 179.510,11.551 180.274,11.429 180.964,11.078 181.512,10.530 181.863,9.840 181.985,9.076 181.863,8.311 181.512,7.621 180.964,7.073 180.274,6.722 179.510,6.601" style="fill:none;stroke-width:0.050000mm;stroke:black"/>
<polygon points="263.962,6.722 263.272,7.073 262.724,7.621 262.373,8.311 262.252,9.076 262.373,9.840 262.724,10.530 263.272,11.078 263.962,11.429 264.727,11.551 265.491,11.429 266.181,11.078 266.729,10.530 267.080,9.840 267.202,9.076 267.080,8.311 266.729,7.621 266.181,7.073 265.491,6.722 264.727,6.601" style="fill:none;stroke-width:0.050000mm;stroke:black"/>
<polygon points="8.311,6.722 7.621,7.073 7.073,7.621 6.722,8.311 6.601,9.076 6.722,9.840 7.073,10.530 7.621,11.078 8.311,11.429 9.076,11.551 9.840,11.429 10.530,11.078 11.078,10.530 11.429,9.840 11.551,9.076 11.429,8.311 11.078,7.621 10.530,7.073 9.840,6.722 9.076,6.601" style="fill:none;stroke-width:0.050000mm;stroke:black"/>
</svg>
