<?xml version="1.0"?>
<!-- Generated by SVGo -->
<svg width="273.802mm" height="121.402mm"
     viewBox="0.000 0.000 273.802 121.402"
     xmlns="http://www.w3.org/2000/svg" 
     xmlns:xlink="http://www.w3.org/1999/xlink">
<polygon points="23.126,5.000 26.057,11.700 38.195,11.700 41.126,5.000 264.802,5.001 265.115,5.013 265.427,5.050 265.735,5.111 266.038,5.196 266.332,5.305 266.617,5.436 266.891,5.590 267.153,5.764 267.399,5.959 267.630,6.172 267.843,6.403 268.038,6.649 268.212,6.911 268.366,7.185 268.497,7.470 268.606,7.764 268.691,8.067 268.752,8.375 268.789,8.687 268.802,9.001 268.802,112.402 268.789,112.715 268.752,113.027 268.691,113.335 268.606,113.638 268.497,113.932 268.366,114.217 268.212,114.491 268.038,114.753 267.843,114.999 267.630,115.230 267.399,115.443 267.153,115.638 266.891,115.812 266.617,115.966 266.332,116.097 266.038,116.206 265.735,116.291 265.427,116.352 265.115,116.389 264.802,116.402 9.001,116.402 8.687,116.389 8.375,116.352 8.067,116.291 7.764,116.206 7.470,116.097 7.185,115.966 6.911,115.812 6.649,115.638 6.403,115.443 6.172,115.230 5.959,114.999 5.764,114.753 5.590,114.491 5.436,114.217 5.305,113.932 5.196,113.638 5.111,113.335 5.050,113.027 5.013,112.715 5.000,112.401 5.001,9.001 5.013,8.687 5.050,8.375 5.111,8.067 5.196,7.764 5.305,7.470 5.436,7.185 5.590,6.911 5.764,6.649 5.959,6.403 6.172,6.172 6.403,5.959 6.649,5.764 6.911,5.590 7.185,5.436 7.470,5.305 7.764,5.196 8.067,5.111 8.375,5.050 8.687,5.013 9.001,5.000" style="fill:none;stroke-width:0.050000mm;stroke:black"/>
<polygon points="9.100,109.560 8.901,109.583 8.705,109.622 8.512,109.677 8.324,109.746 8.142,109.830 7.968,109.928 7.801,110.039 7.644,110.163 7.497,110.299 7.361,110.446 7.237,110.603 7.126,110.770 7.028,110.944 6.944,111.126 6.875,111.314 6.820,111.507 6.781,111.703 6.758,111.902 6.750,112.102 6.758,112.302 6.781,112.501 6.820,112.697 6.875,112.890 6.944,113.078 7.028,113.260 7.126,113.434 7.237,113.601 7.361,113.758 7.497,113.905 7.644,114.041 7.801,114.165 7.968,114.276 8.142,114.374 8.324,114.458 8.512,114.527 8.705,114.582 8.901,114.621 9.100,114.644 9.300,114.652 9.500,114.644 9.699,114.621 9.895,114.582 10.088,114.527 10.276,114.458 10.458,114.374 10.632,114.276 10.799,114.165 10.956,114.041 11.103,113.905 11.239,113.758 11.363,113.601 11.474,113.434 11.572,113.260 11.656,113.078 11.725,112.890 11.780,112.697 11.819,112.501 11.842,112.302 11.850,112.102 11.842,111.902 11.819,111.703 11.780,111.507 11.725,111.314 11.656,111.126 11.572,110.944 11.474,110.770 11.363,110.603 11.239,110.446 11.103,110.299 10.956,110.163 10.799,110.039 10.632,109.928 10.458,109.830 10.276,109.746 10.088,109.677 9.895,109.622 9.699,109.583 9.500,109.560 9.300,109.552" style="fill:none;stroke-width:0.050000mm;stroke:black"/>
<polygon points="264.302,109.560 264.103,109.583 263.907,109.622 263.714,109.677 263.526,109.746 263.344,109.830 263.170,109.928 263.003,110.039 262.846,110.163 262.699,110.299 262.563,110.446 262.439,110.603 262.328,110.770 262.230,110.944 262.146,111.126 262.077,111.314 262.022,111.507 261.983,111.703 261.960,111.902 261.952,112.102 261.960,112.302 261.983,112.501 262.022,112.697 262.077,112.890 262.146,113.078 262.230,113.260 262.328,113.434 262.439,113.601 262.563,113.758 262.699,113.905 262.846,114.041 263.003,114.165 263.170,114.276 263.344,114.374 263.526,114.458 263.714,114.527 263.907,114.582 264.103,114.621 264.302,114.644 264.502,114.652 264.702,114.644 264.901,114.621 265.097,114.582 265.290,114.527 265.478,114.458 265.660,114.374 265.834,114.276 266.001,114.165 266.158,114.041 266.305,113.905 266.441,113.758 266.565,113.601 266.676,113.434 266.774,113.260 266.858,113.078 266.927,112.890 266.982,112.697 267.021,112.501 267.044,112.302 267.052,112.102 267.044,111.902 267.021,111.703 266.982,111.507 266.927,111.314 266.858,111.126 266.774,110.944 266.676,110.770 266.565,110.603 266.441,110.446 266.305,110.299 266.158,110.163 266.001,110.039 265.834,109.928 265.660,109.830 265.478,109.746 265.290,109.677 265.097,109.622 264.901,109.583 264.702,109.560 264.502,109.552" style="fill:none;stroke-width:0.050000mm;stroke:black"/>
<polygon points="77.419,50.179 77.341,50.188 77.264,50.204 77.188,50.225 77.114,50.252 77.043,50.285 76.975,50.323 76.909,50.367 76.848,50.416 76.790,50.469 76.737,50.527 76.688,50.588 76.644,50.654 76.606,50.722 76.573,50.793 76.546,50.867 76.525,50.943 76.509,51.020 76.500,51.098 76.497,51.176 76.500,51.254 76.509,51.332 76.525,51.409 76.546,51.485 76.573,51.559 76.606,51.630 76.644,51.698 76.688,51.764 76.737,51.825 76.790,51.883 76.848,51.936 76.909,51.985 76.975,52.029 77.043,52.067 77.114,52.100 77.188,52.127 77.264,52.148 77.341,52.164 77.419,52.173 77.497,52.176 77.575,52.173 77.653,52.164 77.730,52.148 77.806,52.127 77.880,52.100 77.951,52.067 78.019,52.029 78.085,51.985 78.146,51.936 78.204,51.883 78.257,51.825 78.306,51.764 78.350,51.698 78.388,51.630 78.421,51.559 78.448,51.485 78.469,51.409 78.485,51.332 78.494,51.254 78.497,51.176 78.494,51.098 78.485,51.020 78.469,50.943 78.448,50.867 78.421,50.793 78.388,50.722 78.350,50.654 78.306,50.588 78.257,50.527 78.204,50.469 78.146,50.416 78.085,50.367 78.019,50.323 77.951,50.285 77.880,50.252 77.806,50.225 77.730,50.204 77.653,50.188 77.575,50.179 77.497,50.176" style="fill:none;stroke-width:0.050000mm;stroke:black"/>
<polygon points="9.100,6.758 8.901,6.781 8.705,6.820 8.512,6.875 8.324,6.944 8.142,7.028 7.968,7.126 7.801,7.237 7.644,7.361 7.497,7.497 7.361,7.644 7.237,7.801 7.126,7.968 7.028,8.142 6.944,8.324 6.875,8.512 6.820,8.705 6.781,8.901 6.758,9.100 6.750,9.300 6.758,9.500 6.781,9.699 6.820,9.895 6.875,10.088 6.944,10.276 7.028,10.458 7.126,10.632 7.237,10.799 7.361,10.956 7.497,11.103 7.644,11.239 7.801,11.363 7.968,11.474 8.142,11.572 8.324,11.656 8.512,11.725 8.705,11.780 8.901,11.819 9.100,11.842 9.300,11.850 9.500,11.842 9.699,11.819 9.895,11.780 10.088,11.725 10.276,11.656 10.458,11.572 10.632,11.474 10.799,11.363 10.956,11.239 11.103,11.103 11.239,10.956 11.363,10.799 11.474,10.632 11.572,10.458 11.656,10.276 11.725,10.088 11.780,9.895 11.819,9.699 11.842,9.500 11.850,9.300 11.842,9.100 11.819,8.901 11.780,8.705 11.725,8.512 11.656,8.324 11.572,8.142 11.474,7.968 11.363,7.801 11.239,7.644 11.103,7.497 10.956,7.361 10.799,7.237 10.632,7.126 10.458,7.028 10.276,6.944 10.088,6.875 9.895,6.820 9.699,6.781 9.500,6.758 9.300,6.750" style="fill:none;stroke-width:0.050000mm;stroke:black"/>
<polygon points="264.302,6.758 264.103,6.781 263.907,6.820 263.714,6.875 263.526,6.944 263.344,7.028 263.170,7.126 263.003,7.237 262.846,7.361 262.699,7.497 262.563,7.644 262.439,7.801 262.328,7.968 262.230,8.142 262.146,8.324 262.077,8.512 262.022,8.705 261.983,8.901 261.960,9.100 261.952,9.300 261.960,9.500 261.983,9.699 262.022,9.895 262.077,10.088 262.146,10.276 262.230,10.458 262.328,10.632 262.439,10.799 262.563,10.956 262.699,11.103 262.846,11.239 263.003,11.363 263.170,11.474 263.344,11.572 263.526,11.656 263.714,11.725 263.907,11.780 264.103,11.819 264.302,11.842 264.502,11.850 264.702,11.842 264.901,11.819 265.097,11.780 265.290,11.725 265.478,11.656 265.660,11.572 265.834,11.474 266.001,11.363 266.158,11.239 266.305,11.103 266.441,10.956 266.565,10.799 266.676,10.632 266.774,10.458 266.858,10.276 266.927,10.088 266.982,9.895 267.021,9.699 267.044,9.500 267.052,9.300 267.044,9.100 267.021,8.901 266.982,8.705 266.927,8.512 266.858,8.324 266.774,8.142 266.676,7.968 266.565,7.801 266.441,7.644 266.305,7.497 266.158,7.361 266.001,7.237 265.834,7.126 265.660,7.028 265.478,6.944 265.290,6.875 265.097,6.820 264.901,6.781 264.702,6.758 264.502,6.750" style="fill:none;stroke-width:0.050000mm;stroke:black"/>
</svg>
